<svg style="position: absolute; width: 0; height: 0; overflow: hidden;" version="1.1" xmlns="http://www.w3.org/2000/svg" xmlns:xlink="http://www.w3.org/1999/xlink">
<defs>
  <symbol id="icon-design" viewBox="0 0 32 32">
  <title>design</title>
  <path fill="#fff" style="fill: var(--color1, #fff)" d="M0.595 6l5.405-5.404 25.404 25.404-5.404 5.404z"></path>
  <path fill="#243f53" style="fill: var(--color2, #243f53)" d="M6 1.191l24.809 24.809-4.809 4.809-24.809-24.809 4.809-4.809zM0 6l26 26 6-6-26-26-6 6z"></path>
  <path fill="#fff" style="fill: var(--color1, #fff)" d="M5.488 22.547l2.18-2.181 4.25 3.702-2.445 2.445-6.958 2.972z"></path>
  <path fill="#243f53" style="fill: var(--color2, #243f53)" d="M7.688 20.941l3.613 3.147-2.069 2.069-5.917 2.527 2.527-5.898 1.846-1.845zM7.649 19.79l-2.516 2.516-3.418 7.978 7.999-3.416 2.822-2.822-4.887-4.256z"></path>
  <path fill="#243f53" style="fill: var(--color2, #243f53)" d="M3.655 25.765l-1.938 4.522 4.534-1.937z"></path>
  <path fill="#fff" style="fill: var(--color1, #fff)" d="M23.866 4.157l1.199-1.198c0.506-0.509 1.207-0.824 1.981-0.824 0.003 0 0.005 0 0.008 0h-0c0.751 0 1.457 0.292 1.987 0.824 0.508 0.509 0.822 1.212 0.822 1.988s-0.314 1.479-0.822 1.988l-1.198 1.199-3.976-3.976z"></path>
  <path fill="#243f53" style="fill: var(--color2, #243f53)" d="M27.053 2.555c0.002 0 0.004 0 0.007 0 0.658 0 1.253 0.268 1.683 0.7l0 0c0.432 0.43 0.7 1.026 0.7 1.683 0 0.002 0 0.005 0 0.007v-0c0 0.002 0 0.004 0 0.007 0 0.658-0.268 1.253-0.7 1.683l-0.901 0.901-3.38-3.38 0.901-0.901c0.431-0.432 1.026-0.7 1.685-0.7 0.002 0 0.004 0 0.006 0h-0zM27.053 1.713c-0.827 0-1.655 0.316-2.285 0.947l-1.496 1.496 4.572 4.572 1.496-1.496c0.585-0.585 0.947-1.393 0.947-2.286s-0.362-1.701-0.947-2.286v0c-0.584-0.585-1.391-0.947-2.283-0.947-0.001 0-0.002 0-0.003 0h0z"></path>
  <path fill="#fff" style="fill: var(--color1, #fff)" d="M10.004 25.981c-0.063-0.146-0.143-0.272-0.238-0.384l0.002 0.002c-0.261-0.307-0.632-0.493-1.104-0.557-0.168-1.067-1.016-1.519-1.676-1.655-0.111-0.727-0.547-1.13-1.011-1.332l16.198-16.208 3.976 3.976-16.147 16.157z"></path>
  <path fill="#243f53" style="fill: var(--color2, #243f53)" d="M22.174 6.444l3.38 3.38-15.478 15.49c-0.204-0.234-0.537-0.497-1.062-0.63-0.258-0.908-0.973-1.419-1.671-1.636-0.118-0.434-0.361-0.8-0.688-1.068l-0.004-0.003 15.522-15.533zM22.174 5.253l-17.042 17.053h0.018c0.166 0 1.444 0.045 1.444 1.458 0 0 1.678 0.052 1.678 1.676 1.669 0 1.44 1.429 1.44 1.429l17.032-17.044-4.571-4.571z"></path>
  <path fill="#243f53" style="fill: var(--color2, #243f53)" d="M24.397 4.221l3.38 3.38-2.041 2.041-3.38-3.38 2.041-2.041zM24.397 3.029l-3.232 3.232 4.572 4.572 3.232-3.232-4.572-4.572z"></path>
  <path fill="#ff6753" style="fill: var(--color3, #ff6753)" d="M28.333 23.281l-1.264 1.264c-0.076 0.076-0.123 0.182-0.123 0.298s0.047 0.221 0.123 0.298l-0-0c0.076 0.076 0.182 0.123 0.298 0.123s0.221-0.047 0.298-0.123l1.264-1.264-0.595-0.595zM22.018 16.965l-2.527 2.527c-0.076 0.076-0.123 0.182-0.123 0.298s0.047 0.221 0.123 0.298l-0-0c0.076 0.076 0.182 0.123 0.298 0.123s0.221-0.047 0.298-0.123l2.527-2.527-0.595-0.595zM26.228 21.176l-2.527 2.527c-0.076 0.076-0.123 0.182-0.123 0.298s0.047 0.221 0.123 0.298l-0-0c0.076 0.076 0.182 0.123 0.298 0.123s0.221-0.047 0.298-0.123l2.527-2.527-0.595-0.595zM14.003 8.951l-1.278 1.278c-0.076 0.076-0.123 0.182-0.123 0.298s0.047 0.221 0.123 0.298l-0-0c0.076 0.076 0.182 0.123 0.298 0.123s0.221-0.047 0.298-0.123l1.278-1.278-0.595-0.595zM11.928 6.875l-2.541 2.541c-0.076 0.076-0.123 0.182-0.123 0.298s0.047 0.221 0.123 0.298l-0-0c0.076 0.076 0.182 0.123 0.298 0.123s0.221-0.047 0.298-0.123l2.541-2.541-0.595-0.595zM9.822 4.77l-1.278 1.278c-0.076 0.076-0.123 0.182-0.123 0.298s0.047 0.221 0.123 0.298l-0-0c0.076 0.076 0.182 0.123 0.298 0.123s0.221-0.047 0.298-0.123l1.278-1.278-0.595-0.595zM7.717 2.664l-2.541 2.542c-0.076 0.076-0.123 0.182-0.123 0.298s0.047 0.221 0.123 0.298l-0-0c0.076 0.076 0.182 0.123 0.298 0.123s0.221-0.047 0.298-0.123l2.541-2.541-0.595-0.596zM24.123 19.070l-1.264 1.264c-0.076 0.076-0.123 0.182-0.123 0.298s0.047 0.221 0.123 0.298l-0-0c0.076 0.076 0.182 0.123 0.298 0.123s0.221-0.047 0.298-0.123l1.264-1.264-0.595-0.595z"></path>
  </symbol>
  <symbol id="icon-development" viewBox="0 0 26 32">
  <title>development</title>
  <path fill="#fff" style="fill: var(--color1, #fff)" d="M7.842 0.865h16.393c0.945 0 1.71 0.774 1.71 1.73v27.676c0 0.956-0.765 1.73-1.71 1.73h-21.661c-0.945 0-1.71-0.774-1.71-1.73v-22.348c-0-0.005-0-0.012-0-0.018 0-0.468 0.185-0.893 0.485-1.205l-0.001 0.001 5.267-5.328c0.309-0.313 0.737-0.507 1.212-0.507 0.005 0 0.010 0 0.016 0h-0.001z"></path>
  <path fill="#fff" style="fill: var(--color1, #fff)" d="M6.919 0v6.919h-6.919z"></path>
  <path fill="#243f53" style="fill: var(--color2, #243f53)" d="M24.254 0h-16.549c-0 0-0.001 0-0.002 0-0.781 0-1.487 0.319-1.995 0.834l-0 0-4.885 4.948c-0.509 0.519-0.823 1.23-0.823 2.015 0 0.003 0 0.006 0 0.009v-0 22.48c0 0.947 0.758 1.715 1.692 1.715h22.562c0.934 0 1.692-0.768 1.692-1.714v-28.572c0-0.947-0.758-1.714-1.692-1.714zM6.509 1.646c0.079-0.081 0.327-0.274 0.42-0.337v4.977c0 0.316-0.413 0.571-0.725 0.571h-4.795c0.063-0.095 0.134-0.183 0.214-0.263l4.885-4.948zM25.078 30.286c0 0.316-0.513 0.864-0.825 0.864h-22.562c-0.311 0-0.797-0.548-0.797-0.864v-22.493h5.31c0.934 0 1.6-0.561 1.6-1.507v-5.418h16.449c0.311 0 0.825 0.531 0.825 0.846v28.572z"></path>
  <path fill="#243f53" style="fill: var(--color2, #243f53)" d="M3.027 25.946c-0.239 0-0.432 0.291-0.432 0.649v1.297c0 0.358 0.194 0.649 0.432 0.649s0.432-0.291 0.432-0.649v-1.297c0-0.358-0.194-0.649-0.432-0.649zM5.622 25.946c-0.239 0-0.432 0.291-0.432 0.649v1.297c0 0.358 0.194 0.649 0.432 0.649s0.432-0.291 0.432-0.649v-1.297c0-0.358-0.194-0.649-0.432-0.649zM8.216 25.946c-0.239 0-0.432 0.291-0.432 0.649v1.297c0 0.358 0.194 0.649 0.432 0.649s0.432-0.291 0.432-0.649v-1.297c0-0.358-0.194-0.649-0.432-0.649zM10.811 25.946c-0.239 0-0.432 0.291-0.432 0.649v1.297c0 0.358 0.194 0.649 0.432 0.649s0.432-0.291 0.432-0.649v-1.297c0-0.358-0.194-0.649-0.432-0.649zM14.27 25.946c-0.239 0-0.432 0.291-0.432 0.649v1.297c0 0.358 0.194 0.649 0.432 0.649s0.432-0.291 0.432-0.649v-1.297c0-0.358-0.194-0.649-0.432-0.649zM16.865 25.946c-0.239 0-0.432 0.291-0.432 0.649v1.297c0 0.358 0.194 0.649 0.432 0.649s0.432-0.291 0.432-0.649v-1.297c0-0.358-0.194-0.649-0.432-0.649zM19.459 25.946c-0.239 0-0.432 0.291-0.432 0.649v1.297c0 0.358 0.194 0.649 0.432 0.649s0.432-0.291 0.432-0.649v-1.297c0-0.358-0.194-0.649-0.432-0.649zM22.054 25.946c-0.239 0-0.432 0.291-0.432 0.649v1.297c0 0.358 0.194 0.649 0.432 0.649s0.432-0.291 0.432-0.649v-1.297c0-0.358-0.194-0.649-0.432-0.649z"></path>
  <path fill="#ff6753" style="fill: var(--color3, #ff6753)" d="M21.465 14.28l-3.223-3.336c-0.092-0.083-0.215-0.134-0.35-0.134-0.149 0-0.284 0.063-0.38 0.163l-0 0c-0.097 0.102-0.157 0.241-0.157 0.393 0 0.138 0.049 0.264 0.13 0.362l-0.001-0.001 2.841 2.947-2.841 2.941c-0.116 0.104-0.188 0.255-0.188 0.422 0 0.046 0.006 0.091 0.016 0.134l-0.001-0.004c0.047 0.203 0.2 0.361 0.397 0.411s0.402-0.021 0.534-0.179l3.223-3.336c0.097-0.102 0.156-0.24 0.156-0.392s-0.059-0.29-0.156-0.392l0 0zM8.492 18.432c0.097-0.102 0.157-0.241 0.157-0.393s-0.060-0.291-0.157-0.394l0 0-2.864-2.96 2.859-2.954c0.081-0.098 0.13-0.225 0.13-0.363 0-0.153-0.060-0.292-0.158-0.395l0 0c-0.096-0.101-0.232-0.164-0.382-0.164-0.135 0-0.259 0.051-0.352 0.135l0-0-3.243 3.35c-0.097 0.102-0.157 0.241-0.157 0.393s0.060 0.291 0.157 0.394l-0-0 3.243 3.351c0.211 0.216 0.551 0.216 0.762 0h0.006zM14.291 7.368c-0.289-0.074-0.582 0.11-0.654 0.413l-3.242 13.568c-0.073 0.303 0.102 0.611 0.392 0.687s0.584-0.107 0.657-0.41l3.242-13.569c0.011-0.042 0.017-0.091 0.017-0.14 0-0.107-0.028-0.207-0.078-0.293l0.002 0.003c-0.074-0.13-0.195-0.223-0.335-0.259z"></path>
  </symbol>
  <symbol id="icon-sprint" viewBox="0 0 45 32">
  <title>sprint</title>
  <path fill="#ff6753" style="fill: var(--color3, #ff6753)" d="M8.421 7.579c-0.465 0-0.842 0.377-0.842 0.842s0.377 0.842 0.842 0.842v0c0.465 0 0.842-0.377 0.842-0.842s-0.377-0.842-0.842-0.842v0zM11.789 7.579c-0.465 0-0.842 0.377-0.842 0.842s0.377 0.842 0.842 0.842v0c0.465 0 0.842-0.377 0.842-0.842s-0.377-0.842-0.842-0.842v0zM0.842 12.632c-0.465 0-0.842 0.377-0.842 0.842s0.377 0.842 0.842 0.842v0c0.465 0 0.842-0.377 0.842-0.842s-0.377-0.842-0.842-0.842v0zM5.053 12.632c-0.465 0-0.842 0.377-0.842 0.842s0.377 0.842 0.842 0.842v0c0.465 0 0.842-0.377 0.842-0.842s-0.377-0.842-0.842-0.842v0zM8.421 12.632c-0.465 0-0.842 0.377-0.842 0.842s0.377 0.842 0.842 0.842v0c0.465 0 0.842-0.377 0.842-0.842s-0.377-0.842-0.842-0.842v0zM11.789 12.632c-0.465 0-0.842 0.377-0.842 0.842s0.377 0.842 0.842 0.842v0c0.465 0 0.842-0.377 0.842-0.842s-0.377-0.842-0.842-0.842v0zM0.842 17.684c-0.465 0-0.842 0.377-0.842 0.842s0.377 0.842 0.842 0.842v0c0.465 0 0.842-0.377 0.842-0.842s-0.377-0.842-0.842-0.842v0zM5.053 17.684c-0.465 0-0.842 0.377-0.842 0.842s0.377 0.842 0.842 0.842v0c0.465 0 0.842-0.377 0.842-0.842s-0.377-0.842-0.842-0.842v0zM8.421 17.684c-0.465 0-0.842 0.377-0.842 0.842s0.377 0.842 0.842 0.842v0c0.465 0 0.842-0.377 0.842-0.842s-0.377-0.842-0.842-0.842v0zM11.789 17.684c-0.465 0-0.842 0.377-0.842 0.842s0.377 0.842 0.842 0.842v0c0.465 0 0.842-0.377 0.842-0.842s-0.377-0.842-0.842-0.842v0zM5.053 22.737c-0.465 0-0.842 0.377-0.842 0.842s0.377 0.842 0.842 0.842v0c0.465 0 0.842-0.377 0.842-0.842s-0.377-0.842-0.842-0.842v0zM8.421 22.737c-0.465 0-0.842 0.377-0.842 0.842s0.377 0.842 0.842 0.842v0c0.465 0 0.842-0.377 0.842-0.842s-0.377-0.842-0.842-0.842v0zM11.789 22.737c-0.465 0-0.842 0.377-0.842 0.842s0.377 0.842 0.842 0.842v0c0.465 0 0.842-0.377 0.842-0.842s-0.377-0.842-0.842-0.842v0z"></path>
  <path fill="#243f53" style="fill: var(--color2, #243f53)" d="M29.474 0.842c8.358 0 15.158 6.8 15.158 15.158s-6.8 15.158-15.158 15.158-15.158-6.8-15.158-15.158 6.8-15.158 15.158-15.158zM29.474 0c-8.836 0-16 7.164-16 16s7.164 16 16 16 16-7.164 16-16-7.164-16-16-16z"></path>
  <path fill="#243f53" style="fill: var(--color2, #243f53)" d="M29.474 3.368c6.965 0 12.632 5.667 12.632 12.632s-5.667 12.632-12.632 12.632-12.632-5.667-12.632-12.632 5.667-12.632 12.632-12.632zM29.474 2.526c-7.442 0-13.474 6.032-13.474 13.474s6.032 13.474 13.474 13.474 13.474-6.032 13.474-13.474-6.032-13.474-13.474-13.474z"></path>
  <path fill="#243f53" style="fill: var(--color2, #243f53)" d="M35.762 8.211c0.099-0.136 0.158-0.307 0.158-0.492 0-0.465-0.377-0.842-0.842-0.842-0.297 0-0.559 0.154-0.709 0.387l-0.002 0.003-5.981 8.836 4.702 4.702c0.151 0.146 0.358 0.236 0.585 0.236 0.465 0 0.842-0.377 0.842-0.842 0-0.227-0.090-0.434-0.237-0.585l0 0-3.719-3.719 5.201-7.685z"></path>
  <path fill="#243f53" style="fill: var(--color2, #243f53)" d="M30.737 16c0 0.698-0.566 1.263-1.263 1.263s-1.263-0.566-1.263-1.263c0-0.698 0.566-1.263 1.263-1.263s1.263 0.566 1.263 1.263z"></path>
  <path fill="#243f53" style="fill: var(--color2, #243f53)" d="M30.316 5.895c0 0.465-0.377 0.842-0.842 0.842s-0.842-0.377-0.842-0.842c0-0.465 0.377-0.842 0.842-0.842s0.842 0.377 0.842 0.842z"></path>
  <path fill="#243f53" style="fill: var(--color2, #243f53)" d="M30.316 26.105c0 0.465-0.377 0.842-0.842 0.842s-0.842-0.377-0.842-0.842c0-0.465 0.377-0.842 0.842-0.842s0.842 0.377 0.842 0.842z"></path>
  <path fill="#243f53" style="fill: var(--color2, #243f53)" d="M40.421 16c0 0.465-0.377 0.842-0.842 0.842s-0.842-0.377-0.842-0.842c0-0.465 0.377-0.842 0.842-0.842s0.842 0.377 0.842 0.842z"></path>
  <path fill="#243f53" style="fill: var(--color2, #243f53)" d="M20.211 16c0 0.465-0.377 0.842-0.842 0.842s-0.842-0.377-0.842-0.842c0-0.465 0.377-0.842 0.842-0.842s0.842 0.377 0.842 0.842z"></path>
  </symbol>
  <symbol id="icon-strategy-icon" viewBox="0 0 32 32">
  <title>strategy-icon</title>
  <path fill="#243f53" style="fill: var(--color2, #243f53)" d="M18.872 0.821c0.452 0 0.82 0.368 0.82 0.821v2.462h-9.026v-2.462c0-0.452 0.368-0.821 0.82-0.821h7.385zM18.872 0h-7.385c-0.907 0-1.641 0.734-1.641 1.641v3.282h10.667v-3.282c0-0.907-0.734-1.641-1.641-1.641z"></path>
  <path fill="#fff" style="fill: var(--color1, #fff)" d="M0.41 11.077h29.538v13.949h-29.538z"></path>
  <path fill="#243f53" style="fill: var(--color2, #243f53)" d="M29.538 11.487v13.128h-28.718v-13.128h28.718zM30.359 10.667h-30.359v14.769h30.359v-14.769z"></path>
  <path fill="#fff" style="fill: var(--color1, #fff)" d="M3.282 16c-1.584 0-2.872-1.288-2.872-2.872v-10.256h29.538v10.256c0 1.584-1.288 2.872-2.872 2.872h-23.795z"></path>
  <path fill="#243f53" style="fill: var(--color2, #243f53)" d="M29.538 3.282v9.846c0 1.357-1.104 2.462-2.462 2.462h-23.795c-1.357 0-2.462-1.104-2.462-2.462v-9.846h28.718zM30.359 2.462h-30.359v10.667c0 1.813 1.469 3.282 3.282 3.282v0h23.795c1.813 0 3.282-1.469 3.282-3.282v0-10.667z"></path>
  <path fill="#243f53" style="fill: var(--color2, #243f53)" d="M16.41 12.718c0 0.68-0.551 1.231-1.231 1.231s-1.231-0.551-1.231-1.231c0-0.68 0.551-1.231 1.231-1.231s1.231 0.551 1.231 1.231z"></path>
  <path fill="#243f53" style="fill: var(--color2, #243f53)" d="M21.333 3.282h-2.462v-0.41c0.018-0.666 0.562-1.199 1.231-1.199s1.213 0.533 1.231 1.198l0 0.002v0.41zM11.487 3.282h-2.462v-0.41c0.018-0.666 0.562-1.199 1.231-1.199s1.213 0.533 1.231 1.198l0 0.002v0.41z"></path>
  <path fill="#fff" style="fill: var(--color1, #fff)" d="M23.011 29.799l-2.32 0.328-0.405-2.308-2.070-1.099 1.030-2.105-1.030-2.105 2.070-1.099 0.405-2.308 2.32 0.328 1.684-1.63 1.684 1.63 2.32-0.328 0.405 2.308 2.070 1.099-1.030 2.105 1.030 2.105-2.070 1.099-0.405 2.308-2.32-0.328-1.684 1.63z"></path>
  <path fill="#ff6753" style="fill: var(--color3, #ff6753)" d="M24.696 18.372l1.543 1.493 2.126-0.3 0.302 1.72 0.069 0.395 1.897 1.006-0.767 1.569-0.176 0.361 0.176 0.36 0.767 1.569-1.897 1.006-0.069 0.395-0.302 1.72-2.126-0.3-0.288 0.279-1.255 1.214-1.543-1.493-2.126 0.3-0.302-1.72-0.069-0.395-1.897-1.006 0.767-1.569 0.175-0.36-0.176-0.36-0.767-1.569 1.897-1.006 0.069-0.395 0.302-1.72 2.126 0.3 0.288-0.279 1.256-1.215zM24.696 17.231l-1.826 1.766-2.515-0.356-0.439 2.502-2.244 1.191 1.116 2.283-1.116 2.282 2.244 1.191 0.439 2.502 2.515-0.356 1.826 1.767 1.826-1.766 2.515 0.356 0.439-2.502 2.244-1.191-1.116-2.283 1.116-2.282-2.244-1.191-0.439-2.502-2.515 0.356-1.826-1.767z"></path>
  </symbol>
  <symbol id="icon-shape-red" viewBox="0 0 30 32">
  <title>rectangle-copy-5</title>
  <path fill="#ff6753" style="fill: var(--color1, #ff6753)" d="M16.132 0.267l13.615-0.267-16.132 31.694-13.615 0.267z"></path>
  </symbol>
  <symbol id="icon-pixel" viewBox="0 0 16 32">
  <title>Pixel</title>
  <path d="M2.234 0.488h11.685c0.95 0 1.721 0.77 1.721 1.721v27.531c0 0.95-0.77 1.721-1.721 1.721h-11.685c-0.95 0-1.721-0.77-1.721-1.721v-27.531c0-0.95 0.77-1.721 1.721-1.721z"></path>
  <path d="M2.234 0.488h11.685c0.95 0 1.721 0.77 1.721 1.721v27.531c0 0.95-0.77 1.721-1.721 1.721h-11.685c-0.95 0-1.721-0.77-1.721-1.721v-27.531c0-0.95 0.77-1.721 1.721-1.721z"></path>
  <path fill="#000" style="fill: var(--color1, #000)" d="M2.286 0.616h11.583c0.908 0 1.644 0.736 1.644 1.644v27.429c0 0.908-0.736 1.644-1.644 1.644h-11.583c-0.908 0-1.644-0.736-1.644-1.644v-27.429c0-0.908 0.736-1.644 1.644-1.644z"></path>
  <path d="M15.589 10.709h0.18v1.926h-0.18v-1.926z"></path>
  <path d="M15.589 13.856h0.18v3.852h-0.18v-3.852z"></path>
  <path d="M3.84 2.042c0 0.149-0.121 0.27-0.27 0.27s-0.27-0.121-0.27-0.27c0-0.149 0.121-0.27 0.27-0.27s0.27 0.121 0.27 0.27z"></path>
  <path d="M5.547 1.9h5.021c0.078 0 0.141 0.063 0.141 0.141s-0.063 0.141-0.141 0.141h-5.021c-0.078 0-0.141-0.063-0.141-0.141s0.063-0.141 0.141-0.141z"></path>
  <path fill="#444" style="fill: var(--color2, #444)" d="M1.169 3.66h13.868v24.655h-13.868v-24.655z"></path>
  </symbol>
  <symbol id="icon-dribbble" viewBox="0 0 32 32">
  <title>dribbble</title>
  <path d="M4.368 26.976c-2.707-2.867-4.368-6.731-4.368-10.976 0-0.349 0.011-0.696 0.034-1.039 4.378 0.174 9.392-0.176 14.189-1.44 1.132-0.295 2.010-0.571 2.871-0.88l-0.239 0.075c0.499 1.072 0.969 2.16 1.411 3.261-3.825 0.939-7.144 2.96-9.975 5.827-1.276 1.294-2.416 2.728-3.39 4.277l-0.061 0.104c-0.17 0.274-0.327 0.539-0.47 0.792zM5.272 27.861c0.171-0.314 0.368-0.652 0.59-1.009 0.985-1.571 2.068-2.935 3.283-4.167l-0.003 0.003c2.716-2.751 5.897-4.677 9.579-5.544 1.046 2.747 1.922 5.562 2.641 8.376 0.427 1.67 0.766 3.219 1.029 4.609 0.032 0.173 0.063 0.34 0.091 0.499-1.901 0.867-4.123 1.372-6.463 1.372-0.007 0-0.014 0-0.020 0h0.001c-4.124 0-7.888-1.568-10.728-4.139zM31.977 16.864c-4.629-1.502-8.792-1.817-12.504-1.145-0.627-1.599-1.123-2.73-1.649-3.844l0.174 0.411c4.151-1.654 7.408-4.077 9.51-7.392 2.779 2.88 4.491 6.796 4.491 11.105 0 0.29-0.008 0.578-0.023 0.864zM31.859 18.13c-0.69 5.16-3.848 9.55-8.244 11.939-0.395-2.131-0.77-3.771-1.196-5.389l0.118 0.524c-0.713-2.788-1.577-5.576-2.606-8.304 3.529-0.592 7.495-0.245 11.928 1.23zM0.162 13.722c0.798-5.574 4.479-10.23 9.48-12.404 2.538 2.905 4.747 6.347 6.649 10.216l0.027 0.055c-0.77 0.267-1.569 0.509-2.397 0.727-4.634 1.222-9.506 1.567-13.758 1.405zM26.608 4.032c-1.958 3.191-5.089 5.534-9.142 7.133-0.030-0.063-0.062-0.126-0.093-0.189-1.87-3.805-4.035-7.213-6.518-10.127 1.53-0.538 3.294-0.848 5.13-0.848 0.005 0 0.011 0 0.016 0h-0.001c4.066 0 7.782 1.525 10.608 4.032z"></path>
  </symbol>
  <symbol id="icon-facebook" viewBox="0 0 32 32">
  <title>facebook</title>
  <path d="M26 0h-20c-3.312 0-6 2.688-6 6v20c0 3.312 2.688 6 6 6h20c3.312 0 6-2.688 6-6v-20c0-3.312-2.688-6-6-6zM25.187 17.235h-2.995v11.082h-5v-11.082h-1.943v-3.736h1.942v-2.379c0-3.115 1.293-4.966 4.971-4.966h3.721v3.721h-2.163c-1.428 0-1.524 0.529-1.524 1.529l-0.005 2.096h3.404l-0.409 3.736z"></path>
  </symbol>
  <symbol id="icon-instagram" viewBox="0 0 32 32">
  <title>instagram</title>
  <path d="M9.044 0c-4.987 0-9.044 4.057-9.044 9.044v13.912c0 4.987 4.057 9.044 9.044 9.044h13.912c4.987 0 9.044-4.057 9.044-9.044v-13.912c0-4.987-4.057-9.044-9.044-9.044h-13.912zM25.044 5.565c0 0 0 0 0 0 0.768 0 1.39 0.623 1.39 1.39 0 0 0 0.001 0 0.001v-0c0 0 0 0 0 0.001 0 0.768-0.623 1.39-1.39 1.39-0 0-0.001 0-0.001 0h0c-0 0-0 0-0.001 0-0.768 0-1.39-0.623-1.39-1.39 0-0 0-0.001 0-0.001v0c0-0 0-0 0-0.001 0-0.768 0.623-1.39 1.39-1.39 0 0 0.001 0 0.001 0h-0zM16 7.652c4.603 0 8.348 3.745 8.348 8.348s-3.745 8.348-8.348 8.348c-4.603 0-8.348-3.745-8.348-8.348s3.745-8.348 8.348-8.348zM16 9.043c-3.837 0-6.956 3.12-6.956 6.957s3.119 6.956 6.956 6.956c3.837 0 6.956-3.119 6.956-6.956s-3.119-6.956-6.956-6.956z"></path>
  </symbol>
  <symbol id="icon-linked-in" viewBox="0 0 32 32">
  <title>linked-in</title>
  <path d="M25.6 0h-19.2c-3.53 0-6.4 2.87-6.4 6.4v19.2c0 3.53 2.87 6.4 6.4 6.4h19.2c3.53 0 6.4-2.87 6.4-6.4v-19.2c0-3.53-2.87-6.4-6.4-6.4zM10.24 22.335v4.545h-5.12v-14.72h5.12v10.175zM7.68 10.56c-1.535 0-2.56-1.088-2.56-2.432 0-1.342 1.025-2.368 2.56-2.368s2.495 1.025 2.56 2.368c0 1.345-0.96 2.432-2.56 2.432zM26.88 26.88h-5.12v-8.32c0-0.575-0.065-2.56-2.24-2.56-1.92 0-2.24 1.855-2.24 2.56v8.32h-5.12v-14.72h5.12v1.985s1.025-1.985 4.032-1.985c3.073 0 5.568 2.112 5.568 6.4v8.32z"></path>
  </symbol>
  <symbol id="icon-medium" viewBox="0 0 32 32">
  <title>medium</title>
  <path d="M10.667 28.631c0 0.678-0.363 1.083-0.878 1.083-0.181 0-0.384-0.051-0.598-0.158l-8.304-4.206c-0.488-0.246-0.887-0.901-0.887-1.452v-20.613c0-0.545 0.289-0.866 0.702-0.866 0.146 0 0.309 0.038 0.479 0.125l0.291 0.149h0.003l9.152 4.634c0.015 0.009 0.027 0.024 0.039 0.036v21.268zM20.256 3.72l0.56-0.92c0.199-0.328 0.565-0.515 0.937-0.515 0.086 0 0.176 0.012 0.262 0.036 0.066 0.015 0.134 0.038 0.206 0.074l9.651 4.887c0.003 0 0.003 0.003 0.003 0.003l0.009 0.003c0.006 0.003 0.006 0.012 0.012 0.015 0.048 0.038 0.069 0.104 0.035 0.158l-10.595 17.435-6.369-12.474 5.289-8.702zM12.19 20.27v-9.937l6.842 13.405-6.842-3.468zM32 28.63c0 0.637-0.378 1-0.934 1-0.25 0-0.536-0.071-0.836-0.223l-7.533-3.816 9.304-15.309v18.348z"></path>
  </symbol>
  <symbol id="icon-arrowsvg" viewBox="0 0 42 32">
  <title>ArrowSVG</title>
  <path fill="#16c6c2" style="fill: var(--color1, #16c6c2)" d="M0.004 16.781c0.137 1.327 1.204 2.322 2.455 2.292h30.327l-7.893 8.484c-0.463 0.488-0.722 1.156-0.718 1.85-0.009 1.066 0.6 2.020 1.525 2.412 0.93 0.392 1.987 0.136 2.667-0.643l11.934-12.867 1.7-1.809-1.7-1.809-11.934-12.867c-0.939-1.020-2.478-1.040-3.437-0.040s-0.977 2.639-0.038 3.659l7.893 8.484h-30.327c-0.656-0.010-1.284 0.261-1.747 0.754s-0.718 1.161-0.708 1.86c-0.005 0.080-0.005 0.161 0 0.241z"></path>
  </symbol>
  <symbol id="icon-shape-blue" viewBox="0 0 25 32">
  <title>rectangle-copy-8</title>
  <path fill="#16c6c2" style="fill: var(--color1, #16c6c2)" d="M14.732 0.268l10.456-0.268-16.143 31.717-10.456 0.267z"></path>
  </symbol>
  <symbol id="icon-plus" viewBox="0 0 32 32">
  <title>plus</title>
  <path fill="#ffd82b" style="fill: var(--color14, #ffd82b)" d="M14.222 0h3.556v3.556h-3.556zM14.222 7.111h3.556v3.556h-3.556zM14.222 14.222h3.556v3.556h-3.556zM21.333 14.222h3.556v3.556h-3.556zM0 14.222h3.556v3.556h-3.556zM28.444 14.222h3.556v3.556h-3.556zM7.111 14.222h3.556v3.556h-3.556zM14.222 21.333h3.556v3.556h-3.556zM14.222 28.444h3.556v3.556h-3.556z"></path>
  </symbol>
  <symbol id="icon-shape3" viewBox="0 0 26 32">
  <title>rectangle-copy</title>
  <path fill="#16c6c2" style="fill: var(--color1, #16c6c2)" d="M9.22 0h-9.22l16.271 32h9.22z"></path>
  </symbol>
  <symbol id="icon-shape4" viewBox="0 0 26 32">
  <title>rectangle-copy-4</title>
  <path fill="#f8e71c" style="fill: var(--color1, #f8e71c)" d="M9.081 0h-9.081l16.432 32h9.081z"></path>
  </symbol>
  <symbol id="icon-shape5" viewBox="0 0 13 32">
  <title>rectangle-copy-2</title>
  <path d="M8.131 16l-8.131-16h4.532l8.131 16-8.131 15.979h-4.532z"></path>
  </symbol>
  <symbol id="icon-shape6" viewBox="0 0 16 32">
  <title>rectangle-6</title>
  <path fill="#fff" opacity="0.33" style="fill: var(--color7, #fff)" d="M6.093 3.048c0 0.028-0.023 0.051-0.051 0.051s-0.051-0.023-0.051-0.051c0-0.028 0.023-0.051 0.051-0.051s0.051 0.023 0.051 0.051z"></path>
  </symbol>
  <symbol id="icon-shape7" viewBox="0 0 23 32">
  <title>rectangle-copy-7</title>
  <path fill="#f8e71c" style="fill: var(--color1, #f8e71c)" d="M16.319 0h7.127l-16.282 31.989h-7.127z"></path>
  </symbol>
  <symbol id="icon-shape8" viewBox="0 0 20 32">
  <title>rectangle-copy-6</title>
  <path fill="#e2e4e7" style="fill: var(--color1, #e2e4e7)" d="M3.183 0l-3.183 0.084 20.188 39.707 3.183-0.084z"></path>
  </symbol>
  <symbol id="icon-shape9" viewBox="0 0 30 32">
  <title>rectangle</title>
  <path fill="#f8e71c" style="fill: var(--color1, #f8e71c)" d="M16.132 0.267l13.615-0.267-16.132 31.694-13.615 0.267z"></path>
  </symbol>
  <symbol id="icon-getintouch" viewBox="0 0 36 32">
  <title>GetInTouch</title>
  <path fill="#fff" style="fill: var(--color7, #fff)" d="M13.091 0c0.697 0 1.467 0.265 2.125 0.854 0.658 0.591 1.147 1.531 1.147 2.738 0 0.875-0.323 1.424-0.543 1.991-0.249 0.659-1.042 2.384-1.809 4.040-0.502 1.088-0.697 1.503-0.972 2.085h19.688c1.796 0 3.273 1.409 3.273 3.122s-1.477 3.122-3.273 3.122h-7.785c0.205 0.393 0.422 0.787 0.422 1.326 0 1.143-0.556 1.924-1.103 2.448 0.55 0.479 1.103 1.22 1.103 2.314 0 1.774-1.183 2.549-1.978 2.957 0.173 0.418 0.342 0.973 0.342 1.646 0 0.808-0.422 1.585-1.122 2.232-0.697 0.643-1.729 1.125-2.969 1.125h-12.273c-4.046 0-7.364-3.165-7.364-7.024v-7.338c0-1.479 0.463-2.899 1.381-4.122 0 0 0-0.003 0.003-0.003l9.163-12.018c0.617-0.942 1.569-1.494 2.544-1.494zM13.091 1.561c-0.313 0-0.815 0.207-1.179 0.793-0.013 0.018-0.029 0.037-0.042 0.055l-9.16 12.015c-0.719 0.963-1.074 2.040-1.074 3.213v7.338c0 3.009 2.573 5.463 5.727 5.463h12.273c0.805 0 1.409-0.299 1.838-0.689 0.425-0.39 0.617-0.899 0.617-1.107 0-0.927-0.425-1.503-0.425-1.503-0.147-0.198-0.185-0.448-0.112-0.68 0.077-0.232 0.262-0.415 0.499-0.5 0 0 1.675-0.634 1.675-1.921 0-1.143-1.122-1.54-1.122-1.54-0.294-0.113-0.492-0.375-0.515-0.677-0.019-0.302 0.147-0.585 0.422-0.732 0 0 1.215-0.671 1.215-1.814 0-0.784-0.47-1.189-0.892-1.457-0.3-0.189-0.435-0.546-0.332-0.875 0.105-0.329 0.422-0.555 0.786-0.555h9.438c0.904 0 1.636-0.698 1.636-1.561s-0.732-1.561-1.636-1.561h-20.944c-0.278 0-0.537-0.134-0.687-0.357-0.153-0.223-0.176-0.503-0.061-0.744 0 0 0.713-1.518 1.48-3.177 0.767-1.655 1.604-3.512 1.767-3.945 0.003-0.006 0.003-0.009 0.006-0.012 0.268-0.686 0.438-0.915 0.438-1.442 0-0.826-0.288-1.29-0.63-1.598-0.345-0.308-0.805-0.433-1.007-0.433z"></path>
  </symbol>
</defs>
</svg>
