<?xml version="1.0" encoding="utf-8"?>
<!-- Generator: Adobe Illustrator 18.0.0, SVG Export Plug-In . SVG Version: 6.00 Build 0)  -->
<!DOCTYPE svg PUBLIC "-//W3C//DTD SVG 1.1//EN" "http://www.w3.org/Graphics/SVG/1.1/DTD/svg11.dtd">
<svg version="1.1" id="Layer_1" xmlns="http://www.w3.org/2000/svg" xmlns:xlink="http://www.w3.org/1999/xlink" x="0px" y="0px"
	 viewBox="0 0 1340 511" enable-background="new 0 0 1340 511" xml:space="preserve">
<rect x="-2175.5" y="297.9" fill="#243F51" stroke="#243F51" stroke-width="0.8271" stroke-linecap="round" stroke-linejoin="round" stroke-miterlimit="10" width="225.2" height="222.5"/>
<polygon fill="#16C6C2" stroke="#16C6C2" stroke-width="5.9322" stroke-linejoin="round" stroke-miterlimit="10" points="2.6,206.6 
	368.6,12 368.6,110.7 87.7,258.9 "/>
<polygon fill="#243F51" stroke="#243F51" stroke-width="5.9322" stroke-linecap="round" stroke-linejoin="round" stroke-miterlimit="10" points="
	411.6,423.6 368.6,504.9 2.6,312.1 2.6,206.6 "/>
<polygon fill="#16C6C2" stroke="#16C6C2" stroke-width="5.9322" stroke-linejoin="round" stroke-miterlimit="10" points="
	1251.8,254.8 933.1,83.6 970.9,7.9 1336.9,202.5 "/>
<polygon fill="#243F51" stroke="#243F51" stroke-width="5.9322" stroke-linecap="round" stroke-linejoin="round" stroke-miterlimit="10" points="
	1336.9,202.5 1336.9,308 970.9,500.9 970.9,394.8 "/>
<path fill="#16C6C2" stroke="#16C6C2" stroke-width="5.9322" stroke-linejoin="round" stroke-miterlimit="10" d="M463.3,505.8h-93.1
	L634.8,2.7h93L463.3,505.8z"/>
<path fill="#243F51" stroke="#243F51" stroke-width="5.9322" stroke-linecap="round" stroke-linejoin="round" stroke-miterlimit="10" d="
	M708,508h-93l261.3-501h93L708,508z"/>
<polygon fill="#089F86" stroke="#089F86" stroke-width="2.9128" stroke-linejoin="round" stroke-miterlimit="10" points="
	-1209.8,337.6 -1030.1,242 -1030.1,290.5 -1168,363.3 "/>
<polygon fill="#243F51" stroke="#243F51" stroke-width="2.9128" stroke-linecap="round" stroke-linejoin="round" stroke-miterlimit="10" points="
	-1009,444.1 -1030.1,484.1 -1209.8,389.4 -1209.8,337.6 "/>
<polygon fill="#089F86" stroke="#089F86" stroke-width="2.9128" stroke-linejoin="round" stroke-miterlimit="10" points="
	-596.4,361.3 -752.9,277.2 -734.3,240 -554.6,335.6 "/>
<polygon fill="#243F51" stroke="#243F51" stroke-width="2.9128" stroke-linecap="round" stroke-linejoin="round" stroke-miterlimit="10" points="
	-554.6,335.6 -554.6,387.4 -734.3,482.1 -734.3,430 "/>
<path fill="#089F86" stroke="#089F86" stroke-width="2.9128" stroke-linejoin="round" stroke-miterlimit="10" d="M-983.6,484.5
	h-45.7l129.9-247h45.7L-983.6,484.5z"/>
<path fill="#243F51" stroke="#243F51" stroke-width="2.9128" stroke-linecap="round" stroke-linejoin="round" stroke-miterlimit="10" d="
	M-863.4,485.6h-45.7l128.3-246h45.7L-863.4,485.6z"/>
<g>
	<g>
		<path fill="#243F51" d="M-1198.3,613.3c-18.5,0-30.5-11.7-30.5-31.6c0-19.8,13.1-31.8,30-31.8c7.2,0,12.5,1.4,16.8,3.9l-2.1,15.1
			c-3.4-2.6-7.9-4.4-12.5-4.4c-8.4,0-14.5,5.5-14.5,17.2c0,11.5,6.5,17.2,14.7,17.2c4.6,0,9.1-1.4,13.3-3.9l2,14
			C-1185.8,611.6-1191.9,613.3-1198.3,613.3z"/>
		<path fill="#243F51" d="M-1141,613.4c-16.6,0-29.2-12.6-29.2-31.7c0-19.2,12.7-31.9,29.3-31.9c16.6,0,29.3,12.6,29.3,31.8
			C-1111.6,600.7-1124.3,613.4-1141,613.4z M-1140.9,563.7c-7.9,0-12,7.6-12,17.9c0,10.2,4.2,18,12,18c7.9,0,11.9-7.6,11.9-17.9
			C-1129,571.5-1133.3,563.7-1140.9,563.7z"/>
		<path fill="#243F51" d="M-1074.6,612.2h-22.4V551h21.9c21.4,0,32.4,12.1,32.4,30.6C-1042.7,599.5-1054.5,612.2-1074.6,612.2z
			 M-1075.3,564.6h-4.5v33.9h4.5c9.2,0,14.8-5.5,14.8-16.8C-1060.5,570.4-1065.9,564.6-1075.3,564.6z"/>
		<path fill="#243F51" d="M-1028.1,612.2V551h41.6v13.2h-24.6v10.5h18.5l2,13h-20.5v11.5h25.3v13.1H-1028.1z"/>
		<path fill="#089F86" d="M-952.5,588.9h-8.8v23.3h-5.5v-59.5h14.4c13.1,0,22.5,6.1,22.5,18C-930,582.5-939.5,588.9-952.5,588.9z
			 M-952.3,557.7h-9.1v26.2h9.1c10,0,16.7-4.2,16.7-13.2C-935.6,561.9-942.3,557.7-952.3,557.7z"/>
		<path fill="#089F86" d="M-913.9,612.2h-5.6l23.9-60.1h5.8l23.9,59.6l-5.5,1.2l-7.8-20.1h-27L-913.9,612.2z M-892.6,558.4h-0.2
			l-11.5,29.4h23.2L-892.6,558.4z"/>
		<path fill="#089F86" d="M-812.8,612.8l-18.8-25.8h-10.6v25.2h-5.5v-59.5h15.7c14,0,21.5,6.7,21.5,16.7c0,8.8-5.8,15-14.9,17
			l18.6,25.2L-812.8,612.8z M-832.5,557.7h-9.7v24.5h9.9c11.3,0,16.1-5.5,16.1-12.5C-816.2,562.2-821.2,557.7-832.5,557.7z"/>
		<path fill="#089F86" d="M-788.9,612.2h-5.6l23.9-60.1h5.8l23.9,59.6l-5.5,1.2l-7.8-20.1h-27L-788.9,612.2z M-767.5,558.4h-0.2
			l-11.5,29.4h23.2L-767.5,558.4z"/>
		<path fill="#089F86" d="M-722.7,612.2v-59.5h5.5v54.5h23.1l0.7,4.9H-722.7z"/>
		<path fill="#089F86" d="M-674.5,612.2v-59.5h5.5v54.5h23.1l0.7,4.9H-674.5z"/>
		<path fill="#089F86" d="M-626.4,612.2v-59.5h34.4v4.9h-28.8v21h23.5l1.1,4.9h-24.6v23.7h29.8v4.9H-626.4z"/>
		<path fill="#089F86" d="M-570.1,612.2v-59.5h5.5v54.5h23.1l0.7,4.9H-570.1z"/>
	</g>
</g>
<polygon fill="#089F86" stroke="#089F86" stroke-width="0.7344" stroke-linejoin="round" stroke-miterlimit="10" points="
	-1864.7,397.7 -1819.4,373.6 -1819.4,385.9 -1854.2,404.2 "/>
<polygon fill="#243F51" stroke="#243F51" stroke-width="0.7344" stroke-linecap="round" stroke-linejoin="round" stroke-miterlimit="10" points="
	-1814.1,424.6 -1819.4,434.7 -1864.7,410.8 -1864.7,397.7 "/>
<polygon fill="#089F86" stroke="#089F86" stroke-width="0.7344" stroke-linejoin="round" stroke-miterlimit="10" points="
	-1710.1,403.7 -1749.5,382.5 -1744.9,373.1 -1699.6,397.2 "/>
<polygon fill="#243F51" stroke="#243F51" stroke-width="0.7344" stroke-linecap="round" stroke-linejoin="round" stroke-miterlimit="10" points="
	-1699.6,397.2 -1699.6,410.3 -1744.9,434.2 -1744.9,421 "/>
<path fill="#089F86" stroke="#089F86" stroke-width="0.7344" stroke-linejoin="round" stroke-miterlimit="10" d="M-1807.7,434.8
	h-11.5l32.8-62.3h11.5L-1807.7,434.8z"/>
<path fill="#243F51" stroke="#243F51" stroke-width="0.7344" stroke-linecap="round" stroke-linejoin="round" stroke-miterlimit="10" d="
	M-1777.4,435h-11.5l32.4-62h11.5L-1777.4,435z"/>
<g>
	<g>
		<path fill="#243F51" d="M-1861.8,467.2c-4.7,0-7.7-2.9-7.7-8c0-5,3.3-8,7.6-8c1.8,0,3.1,0.4,4.2,1l-0.5,3.8
			c-0.9-0.7-2-1.1-3.1-1.1c-2.1,0-3.6,1.4-3.6,4.3c0,2.9,1.6,4.3,3.7,4.3c1.2,0,2.3-0.4,3.4-1l0.5,3.5
			C-1858.7,466.8-1860.2,467.2-1861.8,467.2z"/>
		<path fill="#243F51" d="M-1847.4,467.3c-4.2,0-7.4-3.2-7.4-8c0-4.8,3.2-8,7.4-8c4.2,0,7.4,3.2,7.4,8
			C-1840,464.1-1843.2,467.3-1847.4,467.3z M-1847.4,454.7c-2,0-3,1.9-3,4.5c0,2.6,1.1,4.5,3,4.5c2,0,3-1.9,3-4.5
			C-1844.4,456.7-1845.4,454.7-1847.4,454.7z"/>
		<path fill="#243F51" d="M-1830.7,467h-5.6v-15.4h5.5c5.4,0,8.2,3.1,8.2,7.7C-1822.6,463.8-1825.6,467-1830.7,467z M-1830.8,455
			h-1.1v8.5h1.1c2.3,0,3.7-1.4,3.7-4.2C-1827.1,456.4-1828.5,455-1830.8,455z"/>
		<path fill="#243F51" d="M-1818.9,467v-15.4h10.5v3.3h-6.2v2.6h4.7l0.5,3.3h-5.2v2.9h6.4v3.3H-1818.9z"/>
		<path fill="#089F86" d="M-1799.9,461.1h-2.2v5.9h-1.4v-15h3.6c3.3,0,5.7,1.5,5.7,4.5C-1794.2,459.5-1796.6,461.1-1799.9,461.1z
			 M-1799.8,453.2h-2.3v6.6h2.3c2.5,0,4.2-1.1,4.2-3.3C-1795.6,454.3-1797.3,453.2-1799.8,453.2z"/>
		<path fill="#089F86" d="M-1790.1,467h-1.4l6-15.2h1.5l6,15l-1.4,0.3l-2-5.1h-6.8L-1790.1,467z M-1784.8,453.4L-1784.8,453.4
			l-3,7.4h5.8L-1784.8,453.4z"/>
		<path fill="#089F86" d="M-1764.6,467.1l-4.7-6.5h-2.7v6.4h-1.4v-15h3.9c3.5,0,5.4,1.7,5.4,4.2c0,2.2-1.5,3.8-3.8,4.3l4.7,6.4
			L-1764.6,467.1z M-1769.6,453.2h-2.4v6.2h2.5c2.8,0,4.1-1.4,4.1-3.1C-1765.5,454.4-1766.8,453.2-1769.6,453.2z"/>
		<path fill="#089F86" d="M-1758.6,467h-1.4l6-15.2h1.5l6,15l-1.4,0.3l-2-5.1h-6.8L-1758.6,467z M-1753.2,453.4L-1753.2,453.4
			l-3,7.4h5.8L-1753.2,453.4z"/>
		<path fill="#089F86" d="M-1741.9,467v-15h1.4v13.7h5.8l0.2,1.2H-1741.9z"/>
		<path fill="#089F86" d="M-1729.8,467v-15h1.4v13.7h5.8l0.2,1.2H-1729.8z"/>
		<path fill="#089F86" d="M-1717.6,467v-15h8.7v1.2h-7.3v5.3h5.9l0.3,1.2h-6.2v6h7.5v1.2H-1717.6z"/>
		<path fill="#089F86" d="M-1703.4,467v-15h1.4v13.7h5.8l0.2,1.2H-1703.4z"/>
	</g>
</g>
<polygon fill="#089F86" stroke="#089F86" stroke-width="0.7775" stroke-linejoin="round" stroke-miterlimit="10" points="
	-2151.3,390.7 -2103.4,365.2 -2103.4,378.2 -2140.2,397.6 "/>
<polygon fill="#FFFFFF" stroke="#FFFFFF" stroke-width="0.7775" stroke-linecap="round" stroke-linejoin="round" stroke-miterlimit="10" points="
	-2097.7,419.2 -2103.4,429.8 -2151.3,404.6 -2151.3,390.7 "/>
<polygon fill="#089F86" stroke="#089F86" stroke-width="0.7775" stroke-linejoin="round" stroke-miterlimit="10" points="
	-1987.6,397.1 -2029.4,374.6 -2024.4,364.7 -1976.5,390.2 "/>
<polygon fill="#FFFFFF" stroke="#FFFFFF" stroke-width="0.7775" stroke-linecap="round" stroke-linejoin="round" stroke-miterlimit="10" points="
	-1976.5,390.2 -1976.5,404 -2024.4,429.3 -2024.4,415.4 "/>
<path fill="#089F86" stroke="#089F86" stroke-width="0.7775" stroke-linejoin="round" stroke-miterlimit="10" d="M-2091,429.9h-12.2
	l34.7-65.9h12.2L-2091,429.9z"/>
<path fill="#FFFFFF" stroke="#FFFFFF" stroke-width="0.7775" stroke-linecap="round" stroke-linejoin="round" stroke-miterlimit="10" d="
	M-2058.9,430.2h-12.2l34.3-65.7h12.2L-2058.9,430.2z"/>
<path fill="#FFFFFF" d="M-2148.3,464.3c-4.9,0-8.1-3.1-8.1-8.4c0-5.3,3.5-8.5,8-8.5c1.9,0,3.3,0.4,4.5,1l-0.6,4
	c-0.9-0.7-2.1-1.2-3.3-1.2c-2.2,0-3.9,1.5-3.9,4.6c0,3.1,1.7,4.6,3.9,4.6c1.2,0,2.4-0.4,3.5-1l0.5,3.7
	C-2144.9,463.9-2146.6,464.3-2148.3,464.3z"/>
<path fill="#FFFFFF" d="M-2133,464.4c-4.4,0-7.8-3.4-7.8-8.5c0-5.1,3.4-8.5,7.8-8.5c4.4,0,7.8,3.4,7.8,8.5
	C-2125.1,461-2128.5,464.4-2133,464.4z M-2133,451.1c-2.1,0-3.2,2-3.2,4.8c0,2.7,1.1,4.8,3.2,4.8c2.1,0,3.2-2,3.2-4.8
	C-2129.8,453.2-2130.9,451.1-2133,451.1z"/>
<path fill="#FFFFFF" d="M-2115.3,464h-6v-16.3h5.8c5.7,0,8.6,3.2,8.6,8.2C-2106.7,460.6-2109.9,464-2115.3,464z M-2115.4,451.3h-1.2
	v9h1.2c2.5,0,4-1.5,4-4.5C-2111.5,452.9-2112.9,451.3-2115.4,451.3z"/>
<path fill="#FFFFFF" d="M-2102.8,464v-16.3h11.1v3.5h-6.6v2.8h4.9l0.5,3.5h-5.5v3.1h6.8v3.5H-2102.8z"/>
<path fill="#089F86" d="M-2082.7,457.8h-2.4v6.2h-1.5v-15.9h3.8c3.5,0,6,1.6,6,4.8C-2076.7,456.1-2079.2,457.8-2082.7,457.8z
	 M-2082.6,449.5h-2.4v7h2.4c2.7,0,4.5-1.1,4.5-3.5C-2078.1,450.6-2079.9,449.5-2082.6,449.5z"/>
<path fill="#089F86" d="M-2072.4,464h-1.5l6.4-16.1h1.5l6.4,15.9l-1.5,0.3l-2.1-5.4h-7.2L-2072.4,464z M-2066.7,449.7L-2066.7,449.7
	l-3.1,7.9h6.2L-2066.7,449.7z"/>
<path fill="#089F86" d="M-2045.4,464.2l-5-6.9h-2.8v6.7h-1.5v-15.9h4.2c3.7,0,5.8,1.8,5.8,4.5c0,2.4-1.5,4-4,4.5l5,6.7
	L-2045.4,464.2z M-2050.6,449.5h-2.6v6.5h2.6c3,0,4.3-1.5,4.3-3.3C-2046.3,450.7-2047.6,449.5-2050.6,449.5z"/>
<path fill="#089F86" d="M-2039,464h-1.5l6.4-16.1h1.5l6.4,15.9l-1.5,0.3l-2.1-5.4h-7.2L-2039,464z M-2033.3,449.7L-2033.3,449.7
	l-3.1,7.9h6.2L-2033.3,449.7z"/>
<path fill="#089F86" d="M-2021.3,464v-15.9h1.5v14.6h6.2l0.2,1.3H-2021.3z"/>
<path fill="#089F86" d="M-2008.5,464v-15.9h1.5v14.6h6.2l0.2,1.3H-2008.5z"/>
<path fill="#089F86" d="M-1995.6,464v-15.9h9.2v1.3h-7.7v5.6h6.3l0.3,1.3h-6.6v6.3h8v1.3H-1995.6z"/>
<path fill="#089F86" d="M-1980.6,464v-15.9h1.5v14.6h6.2l0.2,1.3H-1980.6z"/>
<polygon fill="#089F86" stroke="#089F86" stroke-width="0.5636" stroke-linejoin="round" stroke-miterlimit="10" points="
	-2159.9,881.6 -2125.1,863.1 -2125.1,872.5 -2151.8,886.5 "/>
<polygon fill="#243F51" stroke="#243F51" stroke-width="0.5636" stroke-linecap="round" stroke-linejoin="round" stroke-miterlimit="10" points="
	-2121,902.2 -2125.1,909.9 -2159.9,891.6 -2159.9,881.6 "/>
<polygon fill="#089F86" stroke="#089F86" stroke-width="0.5636" stroke-linejoin="round" stroke-miterlimit="10" points="
	-2041.2,886.1 -2071.5,869.9 -2067.9,862.7 -2033.1,881.2 "/>
<polygon fill="#243F51" stroke="#243F51" stroke-width="0.5636" stroke-linecap="round" stroke-linejoin="round" stroke-miterlimit="10" points="
	-2033.1,881.2 -2033.1,891.2 -2067.9,909.5 -2067.9,899.4 "/>
<path fill="#089F86" stroke="#089F86" stroke-width="0.5636" stroke-linejoin="round" stroke-miterlimit="10" d="M-2116.1,910h-8.8
	l25.1-47.8h8.8L-2116.1,910z"/>
<path fill="#243F51" stroke="#243F51" stroke-width="0.5636" stroke-linecap="round" stroke-linejoin="round" stroke-miterlimit="10" d="
	M-2092.9,910.2h-8.8l24.8-47.6h8.8L-2092.9,910.2z"/>
<g>
	<g>
		<path fill="#243F51" d="M-2003.9,902.6c-8.7,0-14.3-5.5-14.3-14.8c0-9.3,6.1-15,14.1-15c3.4,0,5.9,0.7,7.9,1.8l-1,7.1
			c-1.6-1.2-3.7-2-5.9-2c-3.9,0-6.8,2.6-6.8,8.1c0,5.4,3,8.1,6.9,8.1c2.2,0,4.3-0.7,6.3-1.8l0.9,6.6
			C-1998,901.8-2000.9,902.6-2003.9,902.6z"/>
		<path fill="#243F51" d="M-1977,902.6c-7.8,0-13.7-5.9-13.7-14.9c0-9,6-15,13.8-15c7.8,0,13.8,5.9,13.8,15
			C-1963.1,896.6-1969.1,902.6-1977,902.6z M-1976.9,879.2c-3.7,0-5.6,3.6-5.6,8.4c0,4.8,2,8.5,5.6,8.5c3.7,0,5.6-3.6,5.6-8.4
			C-1971.3,882.9-1973.3,879.2-1976.9,879.2z"/>
		<path fill="#243F51" d="M-1945.7,902.1h-10.5v-28.8h10.3c10.1,0,15.2,5.7,15.2,14.4C-1930.7,896.1-1936.2,902.1-1945.7,902.1z
			 M-1946,879.7h-2.1v15.9h2.1c4.3,0,7-2.6,7-7.9C-1939.1,882.4-1941.6,879.7-1946,879.7z"/>
		<path fill="#243F51" d="M-1923.8,902.1v-28.8h19.5v6.2h-11.6v4.9h8.7l0.9,6.1h-9.6v5.4h11.9v6.1H-1923.8z"/>
		<path fill="#089F86" d="M-1888.3,891.1h-4.2v11h-2.6v-28h6.8c6.1,0,10.6,2.9,10.6,8.5C-1877.7,888.1-1882.1,891.1-1888.3,891.1z
			 M-1888.2,876.4h-4.3v12.3h4.3c4.7,0,7.9-2,7.9-6.2C-1880.3,878.4-1883.5,876.4-1888.2,876.4z"/>
		<path fill="#089F86" d="M-1870.1,902.1h-2.7l11.2-28.3h2.7l11.2,28l-2.6,0.6l-3.7-9.5h-12.7L-1870.1,902.1z M-1860.1,876.7h-0.1
			l-5.4,13.8h10.9L-1860.1,876.7z"/>
		<path fill="#089F86" d="M-1822.5,902.3l-8.9-12.1h-5v11.9h-2.6v-28h7.4c6.6,0,10.1,3.2,10.1,7.9c0,4.2-2.7,7-7,8l8.7,11.9
			L-1822.5,902.3z M-1831.8,876.4h-4.5v11.5h4.7c5.3,0,7.6-2.6,7.6-5.9C-1824.1,878.5-1826.5,876.4-1831.8,876.4z"/>
		<path fill="#089F86" d="M-1811.3,902.1h-2.7l11.2-28.3h2.7l11.2,28l-2.6,0.6l-3.7-9.5h-12.7L-1811.3,902.1z M-1801.3,876.7h-0.1
			l-5.4,13.8h10.9L-1801.3,876.7z"/>
		<path fill="#089F86" d="M-1780.1,902.1v-28h2.6v25.6h10.9l0.3,2.3H-1780.1z"/>
		<path fill="#089F86" d="M-1757.5,902.1v-28h2.6v25.6h10.9l0.3,2.3H-1757.5z"/>
		<path fill="#089F86" d="M-1734.8,902.1v-28h16.2v2.3h-13.6v9.9h11.1l0.5,2.3h-11.6v11.1h14v2.3H-1734.8z"/>
		<path fill="#089F86" d="M-1708.4,902.1v-28h2.6v25.6h10.9l0.3,2.3H-1708.4z"/>
	</g>
</g>
</svg>
