<svg width="291" height="252" viewBox="0 0 291 252" xmlns="http://www.w3.org/2000/svg"><title>medium_logo</title><g fill="none" fill-rule="evenodd"><path d="M196.476 1.219c-1.476-.738-2.683.008-2.683 1.658v202.916l88.852 44.426c4.427 2.214 8.049-.025 8.049-4.975V49.916a2.57 2.57 0 0 0-1.42-2.298L196.476 1.219" fill="#CCCDC9"/><path d="M96.902 157.407l95.329-154.91c.865-1.405 2.78-1.951 4.256-1.213l92.084 46.042a2.185 2.185 0 0 1 .884 3.099l-95.652 155.433-96.901-48.451" fill="#9EA1A0"/><path d="M10.733 5.308C4.83 2.357 2.83 4.541 6.289 10.162l90.613 147.245 96.901 48.451L97.528 49.411a4.194 4.194 0 0 0-1.695-1.553l-85.1-42.55" fill="#797B79"/><path d="M96.902 245.309c0 4.95-3.623 7.189-8.05 4.975L5.367 208.541C2.415 207.065 0 203.158 0 199.858V5.942c0-3.3 2.415-4.793 5.367-3.317l90.34 45.171a2.161 2.161 0 0 1 1.195 1.933v195.58" fill="#515251"/></g></svg>