<?xml version="1.0" encoding="UTF-8"?>
<svg width="291px" height="252px" viewBox="0 0 291 252" version="1.1" xmlns="http://www.w3.org/2000/svg" xmlns:xlink="http://www.w3.org/1999/xlink">
    <!-- Generator: Sketch 39.1 (31720) - http://www.bohemiancoding.com/sketch -->
    <title>medium_logo</title>
    <desc>Created with Sketch.</desc>
    <defs></defs>
    <g id="Page-1" stroke="none" stroke-width="1" fill="none" fill-rule="evenodd">
        <g id="medium-m">
            <g id="Group-8">
                <g id="medium_logo">
                    <path d="M196.476,1.219 C195,0.481 193.793,1.227 193.793,2.877 L193.793,205.793 L282.645,250.219 C287.072,252.433 290.694,250.194 290.694,245.244 L290.694,49.916 C290.694,48.943 290.144,48.053 289.274,47.618 L196.476,1.219" id="Fill-6" fill="#CCCDC9"></path>
                    <path d="M96.902,157.407 L192.231,2.497 C193.096,1.092 195.011,0.546 196.487,1.284 L288.571,47.326 C289.718,47.899 290.127,49.333 289.455,50.425 L193.803,205.858 L96.902,157.407" id="Fill-7" fill="#9EA1A0"></path>
                    <path d="M10.733,5.308 C4.83,2.357 2.83,4.541 6.289,10.162 L96.902,157.407 L193.803,205.858 L97.528,49.411 C97.119,48.745 96.531,48.208 95.833,47.858 L10.733,5.308" id="Fill-9" fill="#797B79"></path>
                    <path d="M96.902,245.309 C96.902,250.259 93.279,252.498 88.852,250.284 L5.367,208.541 C2.415,207.065 0,203.158 0,199.858 L0,5.942 C0,2.642 2.415,1.149 5.367,2.625 L95.707,47.796 C96.439,48.162 96.902,48.91 96.902,49.729 L96.902,245.309" id="Fill-10" fill="#515251"></path>
                </g>
            </g>
        </g>
    </g>
</svg>