<svg xmlns="http://www.w3.org/2000/svg" viewBox="0 0 721.9 508.3"><path fill="#243F51" stroke="#243F51" stroke-width=".827" stroke-linecap="round" stroke-linejoin="round" stroke-miterlimit="10" d="M-2790.5 298.2h225.2v222.5h-225.2z"/><path fill="#FFF" stroke="#FFF" stroke-width="5.932" stroke-linejoin="round" stroke-miterlimit="10" d="M636.8 255.1L318.1 83.9l37.8-75.6 366 194.5z"/><path fill="#FFF" stroke="#FFF" stroke-width="5.932" stroke-linecap="round" stroke-linejoin="round" stroke-miterlimit="10" d="M721.9 202.8v105.6l-366 192.8V395.1zM93 508.3H0l261.3-501h93L93 508.3z"/><path fill="#089F86" stroke="#089F86" stroke-width="2.913" stroke-linejoin="round" stroke-miterlimit="10" d="M-1824.8 337.9l179.7-95.6v48.5l-137.9 72.8z"/><path fill="#243F51" stroke="#243F51" stroke-width="2.913" stroke-linecap="round" stroke-linejoin="round" stroke-miterlimit="10" d="M-1624 444.4l-21.1 40-179.7-94.7v-51.8z"/><path fill="#089F86" stroke="#089F86" stroke-width="2.913" stroke-linejoin="round" stroke-miterlimit="10" d="M-1211.4 361.6l-156.5-84.1 18.6-37.2 179.7 95.6z"/><path fill="#243F51" stroke="#243F51" stroke-width="2.913" stroke-linecap="round" stroke-linejoin="round" stroke-miterlimit="10" d="M-1169.6 335.9v51.8l-179.7 94.7v-52.1z"/><path fill="#089F86" stroke="#089F86" stroke-width="2.913" stroke-linejoin="round" stroke-miterlimit="10" d="M-1598.6 484.8h-45.7l129.9-247h45.7l-129.9 247z"/><path fill="#243F51" stroke="#243F51" stroke-width="2.913" stroke-linecap="round" stroke-linejoin="round" stroke-miterlimit="10" d="M-1478.4 485.9h-45.7l128.3-246h45.7l-128.3 246z"/><path fill="#243F51" d="M-1813.3 613.6c-18.5 0-30.5-11.7-30.5-31.6 0-19.8 13.1-31.8 30-31.8 7.2 0 12.5 1.4 16.8 3.9l-2.1 15.1c-3.4-2.6-7.9-4.4-12.5-4.4-8.4 0-14.5 5.5-14.5 17.2 0 11.5 6.5 17.2 14.7 17.2 4.6 0 9.1-1.4 13.3-3.9l2 14c-4.7 2.6-10.8 4.3-17.2 4.3zM-1756 613.7c-16.6 0-29.2-12.6-29.2-31.7 0-19.2 12.7-31.9 29.3-31.9s29.3 12.6 29.3 31.8c0 19.1-12.7 31.8-29.4 31.8zm.1-49.7c-7.9 0-12 7.6-12 17.9 0 10.2 4.2 18 12 18 7.9 0 11.9-7.6 11.9-17.9 0-10.2-4.3-18-11.9-18zM-1689.6 612.5h-22.4v-61.2h21.9c21.4 0 32.4 12.1 32.4 30.6 0 17.9-11.8 30.6-31.9 30.6zm-.7-47.5h-4.5v33.9h4.5c9.2 0 14.8-5.5 14.8-16.8 0-11.4-5.4-17.1-14.8-17.1zM-1643.1 612.5v-61.2h41.6v13.2h-24.6V575h18.5l2 13h-20.5v11.5h25.3v13.1h-42.3z"/><path fill="#089F86" d="M-1567.5 589.2h-8.8v23.3h-5.5V553h14.4c13.1 0 22.5 6.1 22.5 18-.1 11.9-9.6 18.2-22.6 18.2zm.2-31.2h-9.1v26.2h9.1c10 0 16.7-4.2 16.7-13.2 0-8.7-6.7-13-16.7-13zM-1528.9 612.5h-5.6l23.9-60.1h5.8l23.9 59.6-5.5 1.2-7.8-20.1h-27l-7.7 19.4zm21.3-53.8h-.2l-11.5 29.4h23.2l-11.5-29.4zM-1427.8 613.1l-18.8-25.8h-10.6v25.2h-5.5V553h15.7c14 0 21.5 6.7 21.5 16.7 0 8.8-5.8 15-14.9 17l18.6 25.2-6 1.2zm-19.7-55.1h-9.7v24.5h9.9c11.3 0 16.1-5.5 16.1-12.5 0-7.5-5-12-16.3-12zM-1403.9 612.5h-5.6l23.9-60.1h5.8l23.9 59.6-5.5 1.2-7.8-20.1h-27l-7.7 19.4zm21.4-53.8h-.2l-11.5 29.4h23.2l-11.5-29.4zM-1337.7 612.5V553h5.5v54.5h23.1l.7 4.9h-29.3zM-1289.5 612.5V553h5.5v54.5h23.1l.7 4.9h-29.3zM-1241.4 612.5V553h34.4v4.9h-28.8v21h23.5l1.1 4.9h-24.6v23.7h29.8v4.9h-35.4zM-1185.1 612.5V553h5.5v54.5h23.1l.7 4.9h-29.3z"/><path fill="#089F86" stroke="#089F86" stroke-width=".734" stroke-linejoin="round" stroke-miterlimit="10" d="M-2479.7 398l45.3-24v12.2l-34.8 18.3z"/><path fill="#243F51" stroke="#243F51" stroke-width=".734" stroke-linecap="round" stroke-linejoin="round" stroke-miterlimit="10" d="M-2429.1 424.9l-5.3 10.1-45.3-23.9V398z"/><path fill="#089F86" stroke="#089F86" stroke-width=".734" stroke-linejoin="round" stroke-miterlimit="10" d="M-2325.1 404l-39.4-21.2 4.6-9.3 45.3 24z"/><path fill="#243F51" stroke="#243F51" stroke-width=".734" stroke-linecap="round" stroke-linejoin="round" stroke-miterlimit="10" d="M-2314.6 397.5v13.1l-45.3 23.9v-13.1z"/><path fill="#089F86" stroke="#089F86" stroke-width=".734" stroke-linejoin="round" stroke-miterlimit="10" d="M-2422.7 435.1h-11.5l32.8-62.3h11.5l-32.8 62.3z"/><path fill="#243F51" stroke="#243F51" stroke-width=".734" stroke-linecap="round" stroke-linejoin="round" stroke-miterlimit="10" d="M-2392.4 435.4h-11.5l32.4-62h11.5l-32.4 62z"/><path fill="#243F51" d="M-2476.8 467.6c-4.7 0-7.7-2.9-7.7-8 0-5 3.3-8 7.6-8 1.8 0 3.1.4 4.2 1l-.5 3.8c-.9-.7-2-1.1-3.1-1.1-2.1 0-3.6 1.4-3.6 4.3s1.6 4.3 3.7 4.3c1.2 0 2.3-.4 3.4-1l.5 3.5c-1.4.7-2.9 1.2-4.5 1.2zM-2462.4 467.6c-4.2 0-7.4-3.2-7.4-8s3.2-8 7.4-8 7.4 3.2 7.4 8-3.2 8-7.4 8zm0-12.5c-2 0-3 1.9-3 4.5s1.1 4.5 3 4.5c2 0 3-1.9 3-4.5s-1-4.5-3-4.5zM-2445.7 467.3h-5.6v-15.4h5.5c5.4 0 8.2 3.1 8.2 7.7 0 4.5-3 7.7-8.1 7.7zm-.1-12h-1.1v8.5h1.1c2.3 0 3.7-1.4 3.7-4.2 0-2.8-1.4-4.3-3.7-4.3zM-2433.9 467.3v-15.4h10.5v3.3h-6.2v2.6h4.7l.5 3.3h-5.2v2.9h6.4v3.3h-10.7z"/><path fill="#089F86" d="M-2414.9 461.4h-2.2v5.9h-1.4v-15h3.6c3.3 0 5.7 1.5 5.7 4.5s-2.4 4.6-5.7 4.6zm.1-7.9h-2.3v6.6h2.3c2.5 0 4.2-1.1 4.2-3.3 0-2.2-1.7-3.3-4.2-3.3zM-2405.1 467.3h-1.4l6-15.2h1.5l6 15-1.4.3-2-5.1h-6.8l-1.9 5zm5.3-13.6l-3 7.4h5.8l-2.8-7.4zM-2379.6 467.4l-4.7-6.5h-2.7v6.4h-1.4v-15h3.9c3.5 0 5.4 1.7 5.4 4.2 0 2.2-1.5 3.8-3.8 4.3l4.7 6.4-1.4.2zm-5-13.9h-2.4v6.2h2.5c2.8 0 4.1-1.4 4.1-3.1-.1-1.9-1.4-3.1-4.2-3.1zM-2373.6 467.3h-1.4l6-15.2h1.5l6 15-1.4.3-2-5.1h-6.8l-1.9 5zm5.4-13.6l-3 7.4h5.8l-2.8-7.4zM-2356.9 467.3v-15h1.4V466h5.8l.2 1.2h-7.4zM-2344.8 467.3v-15h1.4V466h5.8l.2 1.2h-7.4zM-2332.6 467.3v-15h8.7v1.2h-7.3v5.3h5.9l.3 1.2h-6.2v6h7.5v1.2h-8.9zM-2318.4 467.3v-15h1.4V466h5.8l.2 1.2h-7.4z"/><path fill="#089F86" stroke="#089F86" stroke-width=".777" stroke-linejoin="round" stroke-miterlimit="10" d="M-2766.3 391l47.9-25.5v13l-36.8 19.4z"/><path fill="#FFF" stroke="#FFF" stroke-width=".777" stroke-linecap="round" stroke-linejoin="round" stroke-miterlimit="10" d="M-2712.7 419.5l-5.7 10.6-47.9-25.2V391z"/><path fill="#089F86" stroke="#089F86" stroke-width=".777" stroke-linejoin="round" stroke-miterlimit="10" d="M-2602.6 397.4l-41.8-22.5 5-9.9 47.9 25.5z"/><path fill="#FFF" stroke="#FFF" stroke-width=".777" stroke-linecap="round" stroke-linejoin="round" stroke-miterlimit="10" d="M-2591.5 390.5v13.8l-47.9 25.3v-13.9z"/><path fill="#089F86" stroke="#089F86" stroke-width=".777" stroke-linejoin="round" stroke-miterlimit="10" d="M-2706 430.3h-12.2l34.7-65.9h12.2l-34.7 65.9z"/><path fill="#FFF" stroke="#FFF" stroke-width=".777" stroke-linecap="round" stroke-linejoin="round" stroke-miterlimit="10" d="M-2673.9 430.5h-12.2l34.3-65.7h12.2l-34.3 65.7z"/><path fill="#FFF" d="M-2763.3 464.6c-4.9 0-8.1-3.1-8.1-8.4 0-5.3 3.5-8.5 8-8.5 1.9 0 3.3.4 4.5 1l-.6 4c-.9-.7-2.1-1.2-3.3-1.2-2.2 0-3.9 1.5-3.9 4.6 0 3.1 1.7 4.6 3.9 4.6 1.2 0 2.4-.4 3.5-1l.5 3.7c-1.1.8-2.8 1.2-4.5 1.2zM-2748 464.7c-4.4 0-7.8-3.4-7.8-8.5s3.4-8.5 7.8-8.5 7.8 3.4 7.8 8.5c.1 5.1-3.3 8.5-7.8 8.5zm0-13.3c-2.1 0-3.2 2-3.2 4.8 0 2.7 1.1 4.8 3.2 4.8s3.2-2 3.2-4.8c0-2.7-1.1-4.8-3.2-4.8zM-2730.3 464.4h-6V448h5.8c5.7 0 8.6 3.2 8.6 8.2.2 4.8-3 8.2-8.4 8.2zm-.1-12.7h-1.2v9h1.2c2.5 0 4-1.5 4-4.5-.1-3-1.5-4.5-4-4.5zM-2717.8 464.4V448h11.1v3.5h-6.6v2.8h4.9l.5 3.5h-5.5v3.1h6.8v3.5h-11.2z"/><path fill="#089F86" d="M-2697.7 458.1h-2.4v6.2h-1.5v-15.9h3.8c3.5 0 6 1.6 6 4.8.1 3.2-2.4 4.9-5.9 4.9zm.1-8.3h-2.4v7h2.4c2.7 0 4.5-1.1 4.5-3.5s-1.8-3.5-4.5-3.5zM-2687.4 464.4h-1.5l6.4-16.1h1.5l6.4 15.9-1.5.3-2.1-5.4h-7.2l-2 5.3zm5.7-14.4l-3.1 7.9h6.2l-3.1-7.9zM-2660.4 464.5l-5-6.9h-2.8v6.7h-1.5v-15.9h4.2c3.7 0 5.8 1.8 5.8 4.5 0 2.4-1.5 4-4 4.5l5 6.7-1.7.4zm-5.2-14.7h-2.6v6.5h2.6c3 0 4.3-1.5 4.3-3.3 0-2-1.3-3.2-4.3-3.2zM-2654 464.4h-1.5l6.4-16.1h1.5l6.4 15.9-1.5.3-2.1-5.4h-7.2l-2 5.3zm5.7-14.4l-3.1 7.9h6.2l-3.1-7.9zM-2636.3 464.4v-15.9h1.5V463h6.2l.2 1.3h-7.9zM-2623.5 464.4v-15.9h1.5V463h6.2l.2 1.3h-7.9zM-2610.6 464.4v-15.9h9.2v1.3h-7.7v5.6h6.3l.3 1.3h-6.6v6.3h8v1.3h-9.5zM-2595.6 464.4v-15.9h1.5V463h6.2l.2 1.3h-7.9z"/><path fill="#089F86" stroke="#089F86" stroke-width=".564" stroke-linejoin="round" stroke-miterlimit="10" d="M-2774.9 881.9l34.8-18.5v9.4l-26.7 14z"/><path fill="#243F51" stroke="#243F51" stroke-width=".564" stroke-linecap="round" stroke-linejoin="round" stroke-miterlimit="10" d="M-2736 902.5l-4.1 7.7-34.8-18.3v-10z"/><path fill="#089F86" stroke="#089F86" stroke-width=".564" stroke-linejoin="round" stroke-miterlimit="10" d="M-2656.2 886.5l-30.3-16.3 3.6-7.2 34.8 18.5z"/><path fill="#243F51" stroke="#243F51" stroke-width=".564" stroke-linecap="round" stroke-linejoin="round" stroke-miterlimit="10" d="M-2648.1 881.5v10l-34.8 18.3v-10z"/><path fill="#089F86" stroke="#089F86" stroke-width=".564" stroke-linejoin="round" stroke-miterlimit="10" d="M-2731.1 910.3h-8.8l25.1-47.8h8.8l-25.1 47.8z"/><path fill="#243F51" stroke="#243F51" stroke-width=".564" stroke-linecap="round" stroke-linejoin="round" stroke-miterlimit="10" d="M-2707.9 910.5h-8.8l24.8-47.6h8.8l-24.8 47.6z"/><g><path fill="#243F51" d="M-2618.9 902.9c-8.7 0-14.3-5.5-14.3-14.8s6.1-15 14.1-15c3.4 0 5.9.7 7.9 1.8l-1 7.1c-1.6-1.2-3.7-2-5.9-2-3.9 0-6.8 2.6-6.8 8.1 0 5.4 3 8.1 6.9 8.1 2.2 0 4.3-.7 6.3-1.8l.9 6.6c-2.2 1.1-5.1 1.9-8.1 1.9zM-2592 902.9c-7.8 0-13.7-5.9-13.7-14.9s6-15 13.8-15c7.8 0 13.8 5.9 13.8 15 0 8.9-6 14.9-13.9 14.9zm.1-23.3c-3.7 0-5.6 3.6-5.6 8.4 0 4.8 2 8.5 5.6 8.5 3.7 0 5.6-3.6 5.6-8.4 0-4.9-2-8.5-5.6-8.5zM-2560.7 902.4h-10.5v-28.8h10.3c10.1 0 15.2 5.7 15.2 14.4 0 8.4-5.5 14.4-15 14.4zm-.3-22.4h-2.1v15.9h2.1c4.3 0 7-2.6 7-7.9-.1-5.3-2.6-8-7-8zM-2538.8 902.4v-28.8h19.5v6.2h-11.6v4.9h8.7l.9 6.1h-9.6v5.4h11.9v6.1h-19.8z"/><path fill="#089F86" d="M-2503.3 891.4h-4.2v11h-2.6v-28h6.8c6.1 0 10.6 2.9 10.6 8.5 0 5.5-4.4 8.5-10.6 8.5zm.1-14.7h-4.3V889h4.3c4.7 0 7.9-2 7.9-6.2 0-4.1-3.2-6.1-7.9-6.1zM-2485.1 902.4h-2.7l11.2-28.3h2.7l11.2 28-2.6.6-3.7-9.5h-12.7l-3.4 9.2zm10-25.3h-.1l-5.4 13.8h10.9l-5.4-13.8zM-2437.5 902.6l-8.9-12.1h-5v11.9h-2.6v-28h7.4c6.6 0 10.1 3.2 10.1 7.9 0 4.2-2.7 7-7 8l8.7 11.9-2.7.4zm-9.3-25.9h-4.5v11.5h4.7c5.3 0 7.6-2.6 7.6-5.9-.1-3.5-2.5-5.6-7.8-5.6zM-2426.3 902.4h-2.7l11.2-28.3h2.7l11.2 28-2.6.6-3.7-9.5h-12.7l-3.4 9.2zm10-25.3h-.1l-5.4 13.8h10.9l-5.4-13.8zM-2395.1 902.4v-28h2.6V900h10.9l.3 2.3h-13.8zM-2372.5 902.4v-28h2.6V900h10.9l.3 2.3h-13.8zM-2349.8 902.4v-28h16.2v2.3h-13.6v9.9h11.1l.5 2.3h-11.6V900h14v2.3h-16.6zM-2323.4 902.4v-28h2.6V900h10.9l.3 2.3h-13.8z"/></g></svg>