<svg width="20" height="20" viewBox="0 0 20 20" xmlns="http://www.w3.org/2000/svg"><title>tiwtter</title><path d="M0 0h20v20H0V0zm3.333 14.61a7.67 7.67 0 0 0 4.193 1.223c.972 0 1.884-.154 2.734-.462.851-.308 1.58-.72 2.188-1.237a8.212 8.212 0 0 0 1.569-1.784 7.861 7.861 0 0 0 1.296-4.303c0-.156-.005-.274-.014-.352a5.314 5.314 0 0 0 1.368-1.419 5.793 5.793 0 0 1-1.576.443c.59-.347.994-.855 1.211-1.524a5.438 5.438 0 0 1-1.745.664C14.027 5.286 13.364 5 12.565 5c-.755 0-1.4.267-1.933.8a2.635 2.635 0 0 0-.801 1.934c0 .252.021.46.065.625a7.741 7.741 0 0 1-3.151-.846 7.751 7.751 0 0 1-2.5-2.018 2.708 2.708 0 0 0-.378 1.38c0 .99.395 1.75 1.185 2.279-.408-.009-.842-.122-1.302-.339v.026a2.6 2.6 0 0 0 .651 1.738c.434.508.968.823 1.602.944a2.54 2.54 0 0 1-.664.105c-.113 0-.283-.018-.508-.052.182.546.505.998.97 1.354.464.356.992.538 1.582.547a5.403 5.403 0 0 1-3.399 1.171c-.225 0-.442-.013-.65-.039z" fill="#46ADE9" fill-rule="evenodd"/></svg>