<svg xmlns="http://www.w3.org/2000/svg" xmlns:xlink="http://www.w3.org/1999/xlink" width="104" height="109" viewBox="0 0 104 109">
    <defs>
        <path id="a" d="M0 0h120v120H0z"/>
        <path id="c" d="M38.43 7.965c0 4.4 3.709 7.965 8.285 7.965C51.29 15.93 55 9.707 55 5.308 55 .912 51.29 0 46.715 0c-4.577 0-8.286 3.566-8.286 7.965zM1 5.311c0 4.4 3.71 10.622 8.285 10.622 4.576 0 8.286-3.566 8.286-7.965C17.57 3.568 13.86 0 9.285 0S1 .912 1 5.31z"/>
        <rect id="d" width="26" height="47" rx="3"/>
        <rect id="e" width="26" height="26" rx="7"/>
        <path id="f" d="M1.973 23c3.018.707 6.694 1.06 11.027 1.06 4.333 0 7.746-.353 10.238-1.06L26 37.772H0L1.973 23z"/>
        <rect id="g" width="11" height="7" x="38" rx="2"/>
    </defs>
    <g fill="none" fill-rule="evenodd" transform="translate(-8 -11)">
        <mask id="b" fill="#fff">
            <use xlink:href="#a"/>
        </mask>
        <g mask="url(#b)">
            <g fill-rule="nonzero">
                <path fill="#FFF" stroke="#009FDF" stroke-width="1.5" d="M20.485 119c.764-17.775 15.442-32 33.379-32h23.242c17.937 0 32.618 14.225 33.38 32h-90z"/>
                <path fill="#FFF" stroke="#009FDF" stroke-width="1.5" d="M65.5 96.556c-9.335 0-12.496-6.07-13.05-7.327V73.444h26.1V89.23c-.545 1.243-3.703 7.327-13.05 7.327z"/>
                <g transform="translate(37 49)">
                    <use fill="#FFF" fill-rule="evenodd" stroke="#979797" xlink:href="#c"/>
                    <use stroke="#009FDF" stroke-width="1.5" xlink:href="#c"/>
                </g>
                <path fill="#FFF" stroke="#009FDF" stroke-width="1.5" d="M77.8 27.283c4.555 0 8.263 3.657 8.263 8.15v26.94c0 9.274-6.372 17.346-15.496 19.632l-.684.171-.532.46c-.773.67-2.065 1.467-3.851 1.467s-3.078-.797-3.851-1.466l-.532-.461-.684-.171c-9.124-2.286-15.496-10.358-15.496-19.632v-26.94c0-4.493 3.708-8.15 8.264-8.15h24.598z"/>
                <g fill="#009FDF">
                    <path d="M86.75 58.559V48.47c0-10.48-8.796-16.09-9.173-16.323l-1.154-.72-.797 1.103c-.247.34-6.145 8.322-18.891 8.322-3.335 0-13.485 0-13.485 10.5v7.206h-.52c-1.263-2.83-5.28-12.487-5.28-20.719 0-15.192 10.49-25.399 26.1-25.399 11.133 0 14.477 7.451 14.613 7.768l.38.873.957.006c4.846 0 13.05 3.35 13.05 15.896 0 7.56-4.08 18.427-5.33 21.575h-.47z"/>
                    <path d="M63.55 13.882c10.1 0 13.16 6.621 13.273 6.875l.746 1.772H79.5c5.35 0 11.6 3.785 11.6 14.455 0 4.428-1.47 10.083-2.9 14.536v-3.05c0-11.267-9.448-17.29-9.851-17.544l-2.323-1.45-1.587 2.225c-.055.078-5.628 7.707-17.704 7.707-9.91.003-14.935 4.021-14.935 11.945v.905c-1.424-4.099-2.9-9.526-2.9-14.42 0-14.329 9.906-23.956 24.65-23.956zm0-2.882C46.675 11 36 22.475 36 37.838 36 48.015 41.8 60 41.8 60h2.9v-8.647c0-7.69 5.87-9.06 12.035-9.06 13.717 0 20.074-8.926 20.074-8.926s8.491 5.3 8.491 15.104V60h2.9S94 46.257 94 36.984c0-13.02-8.343-17.337-14.5-17.337 0 0-3.634-8.647-15.95-8.647z"/>
                </g>
            </g>
            <g transform="translate(16 55)">
                <use fill="#FFF" xlink:href="#d"/>
                <rect width="24.5" height="45.5" x=".75" y=".75" stroke="#009FDF" stroke-width="1.5" rx="3"/>
                <circle cx="13" cy="8" r="2" fill="#009FDF"/>
                <circle cx="18" cy="8" r="1" fill="#009FDF"/>
                <circle cx="13" cy="13" r="1" fill="#009FDF"/>
            </g>
            <g transform="translate(8 82)">
                <use fill="#FFF" xlink:href="#e"/>
                <rect width="24.5" height="24.5" x=".75" y=".75" stroke="#009FDF" stroke-width="1.5" rx="7"/>
            </g>
            <g transform="translate(8 82)">
                <use fill="#FFF" xlink:href="#f"/>
                <path stroke="#009FDF" stroke-width="1.5" d="M2.608 23.908L.857 37.022h24.24l-2.448-13.094c-2.476.59-5.69.883-9.649.883-4.01 0-7.474-.3-10.392-.903z"/>
            </g>
            <g>
                <path fill="#FFF" stroke="#009FDF" stroke-width="1.5" d="M86.437 50H68c.164 3.744.72 6.346 1.67 7.808C70.618 59.269 71.84 60 73.338 60h10.489c1.201-.538 1.937-1.269 2.206-2.192.27-.924.85-3.38 1.743-7.369L86.437 50z"/>
                <g transform="translate(42 47)">
                    <use fill="#FFF" xlink:href="#g"/>
                    <rect width="9.5" height="5.5" x="38.75" y=".75" stroke="#009FDF" stroke-width="1.5" rx="2"/>
                </g>
                <path fill="#FFF" stroke="#009FDF" stroke-width="1.5" d="M43.338 50h18.438c-.165 3.744-.721 6.346-1.67 7.808C59.157 59.269 57.935 60 56.438 60H45.949c-1.201-.538-1.937-1.269-2.206-2.192-.27-.924-.85-3.38-1.743-7.369L43.338 50z"/>
                <path fill="#009FDF" d="M62 50h6v3h-6z"/>
            </g>
        </g>
    </g>
</svg>
