<svg xmlns="http://www.w3.org/2000/svg" viewBox="0 0 231 40"><g fill="none" fill-rule="evenodd"><g fill="#FFF"><text font-family="SourceSansPro-Regular, Source Sans Pro" font-size="12" transform="translate(20 8)"><tspan x="40" y="16">Download Android App</tspan></text><path d="M21.049 8l10.686 10.757 2.93-2.97-12.953-7.584A1.41 1.41 0 0 0 21.049 8zm-.895.5c-.096.174-.154.38-.154.61v20.905c0 .168.034.318.092.453l10.934-11.007L20.154 8.5zm15.405 7.802l-3.13 3.159 3.13 3.142 3.824-2.22c.544-.319.62-.724.617-.938-.005-.356-.227-.687-.602-.891-.326-.179-2.745-1.607-3.84-2.252zm-3.825 3.862L20.956 31c.18-.01.373-.05.555-.156l8.96-5.254 4.209-2.454-2.945-2.971z"/></g><rect width="230" height="39" x=".5" y=".5" stroke="#FFF" rx="3"/></g></svg>