<svg xmlns="http://www.w3.org/2000/svg" viewBox="0 0 231 40"><g fill="none" fill-rule="evenodd"><text fill="#FFF" transform="translate(60 13)" font-size="12" font-family="SourceSansPro-Regular, Source Sans Pro"><tspan x="0" y="12">Download iOS App</tspan></text><rect width="230" height="39" x=".5" y=".5" stroke="#FFF" rx="3"/><path fill="#FFF" d="M40 25.0637c-.3733 1.1018-.962 2.2035-1.766 3.3053-1.2347 1.7276-2.4647 2.5913-3.69 2.5913-.469 0-1.139-.141-2.01-.423-.823-.282-1.5457-.423-2.168-.423-.5838 0-1.2633.1453-2.0386.4362-.7754.2997-1.407.4495-1.8952.4495-1.455 0-2.8955-1.1414-4.3216-3.4243C20.7036 25.2752 20 23.0585 20 20.9255c0-2.0096.5408-3.658 1.6224-4.9447 1.072-1.2693 2.4312-1.904 4.0775-1.904.689 0 1.536.1323 2.541.3968.9955.2644 1.656.3966 1.9813.3966.4308 0 1.115-.1498 2.0532-.4495.9763-.2997 1.8042-.4495 2.4838-.4495 1.139 0 2.1584.2864 3.0582.8593.4977.3173.9954.758 1.493 1.322-.756.5907-1.3016 1.1107-1.6366 1.5602-.622.8286-.9333 1.7408-.9333 2.7368 0 1.093.3303 2.0757.9907 2.9483.6605.8726 1.4166 1.428 2.2685 1.666zM34.6016 9.5553c0 .5376-.1388 1.137-.4164 1.798-.287.661-.7322 1.2693-1.3352 1.8246-.517.4756-1.0338.793-1.5506.9516-.3542.097-.852.172-1.4932.2248.0287-1.3133.402-2.446 1.12-3.398.7082-.943 1.9046-1.5952 3.5892-1.9566.0096.0263.0216.075.036.1453.0143.0706.0263.119.0358.1456 0 .035.0024.0792.0072.132.0048.053.0072.097.0072.1323z"/></g></svg>