<svg xmlns="http://www.w3.org/2000/svg" viewBox="0 0 231 40"><g fill="none" fill-rule="evenodd"><text fill="#FFF" transform="translate(60 13)" font-size="12" font-family="SourceSansPro-Regular, Source Sans Pro"><tspan x="0" y="12">Download iOS App</tspan></text><rect width="230" height="39" x=".5" y=".5" stroke="#FFF" rx="3"/><path fill="#FFF" d="M40 25.064c-.373 1.102-.962 2.203-1.766 3.305-1.235 1.728-2.465 2.591-3.69 2.591-.469 0-1.139-.14-2.01-.423-.823-.282-1.546-.423-2.168-.423-.584 0-1.263.146-2.039.437-.775.3-1.407.449-1.895.449-1.455 0-2.895-1.141-4.321-3.424-1.407-2.3-2.111-4.518-2.111-6.65 0-2.01.54-3.658 1.622-4.945 1.072-1.27 2.432-1.904 4.078-1.904.689 0 1.536.132 2.54.397.996.264 1.657.396 1.982.396.431 0 1.115-.15 2.053-.45.977-.299 1.805-.449 2.484-.449 1.14 0 2.159.287 3.058.86.498.317.996.757 1.493 1.321-.756.591-1.301 1.111-1.636 1.56-.622.83-.933 1.741-.933 2.737 0 1.093.33 2.076.99 2.949.66.872 1.417 1.428 2.269 1.666zM34.602 9.555c0 .538-.14 1.137-.417 1.798-.287.661-.732 1.27-1.335 1.825-.517.476-1.034.793-1.55.952-.355.096-.853.171-1.494.224.029-1.313.402-2.446 1.12-3.398.708-.943 1.905-1.595 3.59-1.956.009.026.021.075.035.145.015.07.027.119.036.146 0 .035.003.079.007.132.005.053.008.097.008.132z"/></g></svg>