<?xml version="1.0" encoding="utf-8"?>
<!-- Generated by IcoMoon.io -->
<!DOCTYPE svg PUBLIC "-//W3C//DTD SVG 1.1//EN" "http://www.w3.org/Graphics/SVG/1.1/DTD/svg11.dtd">
<svg version="1.1" xmlns="http://www.w3.org/2000/svg" xmlns:xlink="http://www.w3.org/1999/xlink" width="32" height="32" viewBox="0 0 32 32">
<path fill="#444444" d="M16 0c-7.769 0-14.080 6.311-14.080 14.080 0 3.404 1.208 6.525 3.22 8.96h-3.020c-0.003-0-0.006-0-0.009-0-0.353 0-0.64 0.287-0.64 0.64s0.287 0.64 0.64 0.64c0.003 0 0.006-0 0.010-0h5.56v-5.56c0-0.001 0-0.003 0-0.005 0-0.354-0.287-0.64-0.64-0.64-0.028 0-0.056 0.002-0.083 0.005-0.314 0.041-0.557 0.309-0.557 0.635 0 0.002 0 0.003 0 0.005v3.76c-1.985-2.254-3.2-5.195-3.2-8.44 0-7.078 5.722-12.8 12.8-12.8s12.8 5.722 12.8 12.8c0 3.383-1.301 6.452-3.44 8.74-0.139 0.118-0.226 0.293-0.226 0.488 0 0.354 0.287 0.64 0.64 0.64 0.205 0 0.388-0.097 0.505-0.247 2.353-2.517 3.801-5.908 3.801-9.621 0-7.769-6.311-14.080-14.080-14.080zM15.92 4.74c-2.99 0.055-4.899 1.264-5.72 3.14-0.782 1.787-0.607 4.045-0.040 6.38-0.305 0.357-0.546 0.837-0.46 1.56 0.095 0.787 0.311 1.346 0.62 1.74 0.169 0.216 0.393 0.236 0.6 0.34 0.113 0.669 0.3 1.341 0.58 1.9 0.161 0.321 0.341 0.619 0.52 0.86 0.079 0.107 0.196 0.17 0.28 0.26 0.004 0.79 0.008 1.448-0.060 2.28-0.208 0.502-0.693 0.907-1.48 1.3-0.812 0.406-1.871 0.781-2.94 1.24s-2.17 1.020-3.040 1.9c-0.87 0.88-1.484 2.088-1.58 3.68l-0.040 0.68h25.68l-0.040-0.68c-0.096-1.592-0.713-2.799-1.58-3.68s-1.955-1.441-3.020-1.9c-1.065-0.459-2.111-0.835-2.92-1.24-0.776-0.389-1.268-0.784-1.48-1.28-0.070-0.844-0.064-1.504-0.060-2.3 0.083-0.091 0.202-0.153 0.28-0.26 0.175-0.242 0.344-0.539 0.5-0.86 0.273-0.56 0.469-1.233 0.58-1.9 0.201-0.104 0.415-0.129 0.58-0.34 0.309-0.394 0.526-0.953 0.62-1.74 0.084-0.7-0.149-1.162-0.44-1.52 0.312-1.015 0.712-2.656 0.58-4.34-0.072-0.919-0.308-1.837-0.86-2.6-0.506-0.699-1.325-1.21-2.36-1.42-0.672-0.872-1.883-1.2-3.28-1.2h-0.020zM15.94 6.020c0.008 0 0.012-0 0.020 0 1.289 0.005 2.122 0.383 2.36 0.8l0.16 0.26 0.3 0.040c0.89 0.124 1.4 0.482 1.76 0.98s0.56 1.192 0.62 1.96c0.12 1.536-0.322 3.323-0.6 4.16l-0.16 0.5 0.44 0.26c-0.028-0.017 0.244 0.168 0.18 0.7-0.075 0.628-0.225 0.953-0.34 1.1s-0.175 0.14-0.18 0.14l-0.54 0.040-0.060 0.52c-0.059 0.553-0.282 1.23-0.54 1.76-0.129 0.265-0.263 0.498-0.38 0.66s-0.241 0.252-0.18 0.22l-0.34 0.18v0.38c0 0.926-0.037 1.687 0.060 2.76v0.080l0.040 0.080c0.365 0.982 1.211 1.594 2.14 2.060s1.998 0.808 3 1.24c1.002 0.432 1.921 0.95 2.6 1.64 0.54 0.548 0.88 1.273 1.060 2.18h-22.72c0.181-0.906 0.518-1.631 1.060-2.18 0.682-0.69 1.614-1.207 2.62-1.64s2.068-0.774 3-1.24c0.932-0.466 1.794-1.077 2.16-2.060l0.040-0.16c0.097-1.072 0.060-1.833 0.060-2.76v-0.38l-0.34-0.18c0.058 0.030-0.079-0.057-0.2-0.22s-0.267-0.395-0.4-0.66c-0.266-0.53-0.482-1.212-0.54-1.76l-0.060-0.52-0.54-0.040c-0.005-0-0.065 0.007-0.18-0.14s-0.264-0.471-0.34-1.1c-0.064-0.532 0.208-0.717 0.18-0.7l0.42-0.26-0.12-0.46c-0.603-2.319-0.707-4.428-0.080-5.86 0.625-1.428 1.899-2.326 4.56-2.38z"></path>
</svg>
