<?xml version="1.0" encoding="utf-8"?>
<!-- Generated by IcoMoon.io -->
<!DOCTYPE svg PUBLIC "-//W3C//DTD SVG 1.1//EN" "http://www.w3.org/Graphics/SVG/1.1/DTD/svg11.dtd">
<svg version="1.1" xmlns="http://www.w3.org/2000/svg" xmlns:xlink="http://www.w3.org/1999/xlink" width="32" height="32" viewBox="0 0 32 32">
<path fill="#444444" d="M6.36 0.34l-0.46 0.44-5.12 5.12-0.44 0.46 0.44 0.46 10 10-8.020 8.020c-0.104 0.095-0.177 0.222-0.201 0.366l-1.259 4.714c-0.013 0.048-0.020 0.103-0.020 0.16 0 0.354 0.287 0.64 0.64 0.64 0.057 0 0.112-0.007 0.165-0.021l4.796-1.279c0.141-0.046 0.257-0.134 0.336-0.251l22.064-22.049c-0.003 0.003 0.52-0.52 0.52-0.52 1.217-1.217 1.215-3.184 0-4.4-1.218-1.217-3.183-1.216-4.4 0l-8.58 8.58-10-10-0.46-0.44zM6.36 2.16l1.040 1.040-0.82 0.82 0.92 0.92 0.82-0.82 1 1-1.46 1.46 0.92 0.92 1.46-1.46 1 1-0.82 0.82 0.92 0.92 0.82-0.82 1 1-1.46 1.46 0.92 0.92 1.46-1.46 1 1-0.82 0.82 0.82 0.82-3.38 3.38-9.54-9.54 4.2-4.2zM25.78 3.62l2.6 2.6-22 22-2.6-2.6 22-22zM21.76 15.74l-0.46 0.44-1.28 1.28 0.92 0.92 0.82-0.82 1 1-1.46 1.46 0.92 0.92 1.46-1.46 1 1-0.82 0.82 0.92 0.92 0.82-0.82 1 1-1.46 1.46 0.92 0.92 1.46-1.46 1 1-0.82 0.82 0.92 0.92 0.82-0.82 0.4 0.4-4.2 4.2-9-8.98-0.9 0.9 9.44 9.46 0.46 0.44 0.46-0.44 5.12-5.12 0.44-0.46-0.44-0.46-9.46-9.44z"></path>
</svg>
