<?xml version="1.0" encoding="utf-8"?>
<!-- Generated by IcoMoon.io -->
<!DOCTYPE svg PUBLIC "-//W3C//DTD SVG 1.1//EN" "http://www.w3.org/Graphics/SVG/1.1/DTD/svg11.dtd">
<svg version="1.1" xmlns="http://www.w3.org/2000/svg" xmlns:xlink="http://www.w3.org/1999/xlink" width="32" height="32" viewBox="0 0 32 32">
<path fill="#444444" d="M15.9 2.2c-0.21 0.034-0.383 0.165-0.473 0.345l-15.347 26.575c-0.054 0.092-0.086 0.202-0.086 0.32 0 0.354 0.287 0.64 0.64 0.64 0.002 0 0.004 0 0.006-0h30.72c0.002 0 0.004 0 0.006 0 0.354 0 0.64-0.287 0.64-0.64 0-0.118-0.032-0.228-0.087-0.323l-15.358-26.597c-0.112-0.197-0.32-0.328-0.559-0.328-0.036 0-0.071 0.003-0.105 0.009zM16 4.12l14.24 24.68h-28.48l14.24-24.68zM15.26 12.1c-0.138 0-0.22 0.082-0.22 0.22v9.26c0 0.138 0.082 0.24 0.22 0.24h1.48c0.138 0 0.22-0.102 0.22-0.24v-9.26c0-0.138-0.082-0.22-0.22-0.22h-1.48zM15.12 23.66c-0.084 0.032-0.12 0.117-0.12 0.22v1.68c0 0.138 0.082 0.22 0.22 0.22h1.56c0.138 0 0.22-0.082 0.22-0.22v-1.68c0-0.138-0.082-0.22-0.22-0.22h-1.56c-0.034 0-0.072-0.011-0.1 0z"></path>
</svg>
