<?xml version="1.0" encoding="utf-8"?>
<!-- Generated by IcoMoon.io -->
<!DOCTYPE svg PUBLIC "-//W3C//DTD SVG 1.1//EN" "http://www.w3.org/Graphics/SVG/1.1/DTD/svg11.dtd">
<svg version="1.1" xmlns="http://www.w3.org/2000/svg" xmlns:xlink="http://www.w3.org/1999/xlink" width="32" height="32" viewBox="0 0 32 32">
<path fill="#444444" d="M12.72 2.12c-3.003 0.067-4.903 1.282-5.72 3.16-0.778 1.789-0.615 4.040-0.060 6.38-0.298 0.35-0.542 0.841-0.48 1.58v0.040c0.107 0.781 0.341 1.33 0.64 1.72 0.146 0.191 0.359 0.194 0.54 0.3 0.107 0.692 0.314 1.375 0.6 1.94 0.162 0.32 0.324 0.602 0.5 0.84 0.081 0.109 0.196 0.17 0.28 0.26 0.008 0.836 0.040 1.474-0.060 2.32-0.193 0.485-0.672 0.872-1.44 1.26-0.802 0.405-1.853 0.779-2.92 1.24s-2.151 1.016-3.020 1.9c-0.869 0.884-1.492 2.104-1.58 3.7l-0.040 0.68h25.68l-0.040-0.68c-0.088-1.595-0.695-2.816-1.56-3.7s-1.952-1.438-3.020-1.9c-1.068-0.462-2.124-0.833-2.94-1.24-0.79-0.394-1.286-0.798-1.5-1.3-0.049-0.848-0.060-1.497-0.060-2.3 0.076-0.086 0.188-0.139 0.26-0.24 0.171-0.238 0.343-0.522 0.5-0.84 0.276-0.561 0.49-1.246 0.62-1.92 0.205-0.104 0.441-0.112 0.6-0.32 0.308-0.403 0.489-0.975 0.56-1.76 0.056-0.677-0.137-1.169-0.44-1.54 0.333-1.026 0.727-2.665 0.6-4.34-0.070-0.92-0.313-1.836-0.86-2.6-0.494-0.689-1.295-1.163-2.3-1.38-0.677-0.905-1.909-1.26-3.32-1.26h-0.020zM12.74 3.4c0.008 0 0.012-0 0.020 0 1.278 0.005 2.094 0.364 2.36 0.82l0.16 0.28 0.32 0.040c0.879 0.124 1.363 0.462 1.72 0.96s0.562 1.192 0.62 1.96c0.117 1.537-0.327 3.341-0.62 4.16l-0.2 0.54 0.5 0.26c-0.005 0.018 0.206 0.23 0.18 0.7-0.001 0.010 0.001 0.010 0 0.020-0.059 0.603-0.214 0.941-0.32 1.080-0.108 0.141-0.161 0.12-0.14 0.12h-0.56l-0.060 0.54c-0.083 0.578-0.318 1.248-0.58 1.78-0.131 0.266-0.283 0.516-0.4 0.68s-0.233 0.25-0.18 0.22l-0.32 0.18v0.38c0 0.96-0.005 1.678 0.060 2.72v0.1l0.040 0.080c0.375 0.979 1.226 1.595 2.16 2.060s1.996 0.826 3 1.26c1.004 0.434 1.943 0.928 2.62 1.62 0.54 0.552 0.865 1.288 1.040 2.2h-22.72c0.176-0.912 0.497-1.648 1.040-2.2 0.681-0.692 1.635-1.185 2.64-1.62s2.056-0.793 2.98-1.26c0.924-0.467 1.763-1.090 2.1-2.080l0.040-0.12c0.136-1.086 0.060-1.828 0.060-2.76v-0.38l-0.32-0.18c0.048 0.027-0.078-0.076-0.2-0.24s-0.266-0.396-0.4-0.66c-0.267-0.528-0.507-1.185-0.56-1.74l-0.040-0.58h-0.54c-0.022-0.011-0.081-0.043-0.14-0.12-0.114-0.149-0.272-0.491-0.36-1.080-0.001-0.013 0.001-0.007 0-0.020-0.001-0.010 0.001-0.010 0-0.020-0.010-0.485 0.291-0.754 0.24-0.72l0.36-0.26-0.1-0.44c-0.591-2.331-0.683-4.446-0.060-5.88 0.622-1.43 1.883-2.335 4.56-2.4zM21.12 10.24v1.28h10.88v-1.28h-10.88zM19.84 15.36v1.28h12.16v-1.28h-12.16zM21.12 20.48v1.28h10.88v-1.28h-10.88z"></path>
</svg>
