<?xml version="1.0" encoding="utf-8"?>
<!-- Generated by IcoMoon.io -->
<!DOCTYPE svg PUBLIC "-//W3C//DTD SVG 1.1//EN" "http://www.w3.org/Graphics/SVG/1.1/DTD/svg11.dtd">
<svg version="1.1" xmlns="http://www.w3.org/2000/svg" xmlns:xlink="http://www.w3.org/1999/xlink" width="32" height="32" viewBox="0 0 32 32">
<path fill="#444444" d="M1.92 3.2c-1.053 0-1.92 0.867-1.92 1.92v6.28c-0 0.009-0.001 0.019-0.001 0.030s0 0.021 0.001 0.031l-0 0.059v15.36c0 1.053 0.867 1.92 1.92 1.92h28.16c1.053 0 1.92-0.867 1.92-1.92v-15.36c0-0.009 0.001-0.019 0.001-0.030s-0-0.021-0.001-0.031l0-6.339c0-1.053-0.867-1.92-1.92-1.92h-28.16zM1.92 4.48h28.16c0.355 0 0.64 0.285 0.64 0.64v5.76h-29.44v-5.76c0-0.355 0.285-0.64 0.64-0.64zM4.48 5.76c-1.053 0-1.92 0.867-1.92 1.92s0.867 1.92 1.92 1.92c1.053 0 1.92-0.867 1.92-1.92s-0.867-1.92-1.92-1.92zM8.96 5.76c-1.053 0-1.92 0.867-1.92 1.92s0.867 1.92 1.92 1.92c1.053 0 1.92-0.867 1.92-1.92s-0.867-1.92-1.92-1.92zM12.68 5.76c-0.298 0.058-0.52 0.318-0.52 0.629 0 0.004 0 0.008 0 0.012v2.559c0 0.353 0.287 0.64 0.64 0.64h16c0.353-0 0.64-0.287 0.64-0.64v-2.56c-0-0.353-0.287-0.64-0.64-0.64h-16c-0.009-0-0.019-0.001-0.030-0.001s-0.021 0-0.031 0.001c-0.008-0-0.018-0.001-0.029-0.001s-0.021 0-0.031 0.001zM4.48 7.040c0.361 0 0.64 0.279 0.64 0.64s-0.279 0.64-0.64 0.64c-0.361 0-0.64-0.279-0.64-0.64s0.279-0.64 0.64-0.64zM8.96 7.040c0.361 0 0.64 0.279 0.64 0.64s-0.279 0.64-0.64 0.64c-0.361 0-0.64-0.279-0.64-0.64s0.279-0.64 0.64-0.64zM13.44 7.040h14.72v1.28h-14.72v-1.28zM1.28 12.16h29.44v14.72c0 0.355-0.285 0.64-0.64 0.64h-28.16c-0.355 0-0.64-0.285-0.64-0.64v-14.72z"></path>
</svg>
