<?xml version="1.0" encoding="UTF-8"?>
<svg width="44px" height="18px" viewBox="0 0 44 18" version="1.1" xmlns="http://www.w3.org/2000/svg" xmlns:xlink="http://www.w3.org/1999/xlink">
    <!-- Generator: Sketch 48.1 (47250) - http://www.bohemiancoding.com/sketch -->
    <title>Shape</title>
    <desc>Created with Sketch.</desc>
    <defs></defs>
    <g id="Tell-us-about-your-project-2" stroke="none" stroke-width="1" fill="none" fill-rule="evenodd" transform="translate(-1017.000000, -751.000000)">
        <g id="Group-2" transform="translate(185.000000, 180.000000)" fill="#FFFFFF" fill-rule="nonzero">
            <g id="Group" transform="translate(818.000000, 554.000000)">
                <g id="icons8-arrows_long_right" transform="translate(14.000000, 17.000000)">
                    <path d="M35.0236362,0.0001834088 C34.6173952,-0.00762269851 34.2463105,0.234381617 34.0822511,0.605195696 C33.9220987,0.979912829 34.0041278,1.41317976 34.2892775,1.70202372 L40.2657079,8.00585907 L1.01267303,8.00585907 C0.653306001,8.00195602 0.317375456,8.18931458 0.137692444,8.50157886 C-0.0458974814,8.81384314 -0.0458974814,9.19636638 0.137692444,9.50863066 C0.317375456,9.82089493 0.653306001,10.0082535 1.01267303,10.0043504 L40.2657079,10.0043504 L34.2892775,16.3081858 C33.906474,16.7063223 33.9220987,17.3386579 34.3205268,17.7211812 C34.718956,18.1037054 35.3517539,18.0919952 35.7345584,17.6899547 L44,9.00510476 L35.7345584,0.320254793 C35.5509685,0.121186066 35.2931622,0.00799051536 35.0236362,0.0001834088 Z" id="Shape"></path>
                </g>
            </g>
        </g>
    </g>
</svg>