<svg style="position: absolute; width: 0; height: 0;" width="0" height="0" version="1.1" xmlns="http://www.w3.org/2000/svg" xmlns:xlink="http://www.w3.org/1999/xlink">
	<defs>
		<symbol id="icon-1" viewBox="0 0 1202 1024">
			<title>-1</title>
			<path class="path1" d="M981.704 681.183c0 18.442-14.95 33.391-33.391 33.391s-33.391-14.95-33.391-33.391c0-18.442 14.95-33.391 33.391-33.391s33.391 14.95 33.391 33.391z"></path>
			<path class="path2" d="M981.704 843.687c0 18.442-14.95 33.391-33.391 33.391s-33.391-14.95-33.391-33.391c0-18.442 14.95-33.391 33.391-33.391s33.391 14.95 33.391 33.391z"></path>
			<path class="path3" d="M440.765 761.322c0 20.213-3.339 39.77-10.192 62.612-26.531 79.561-102.091 135.51-187.93 135.51-109.985-2.003-198.122-90.141-198.122-198.122 0-108.72 88.781-198.122 198.122-198.122 108.72 0 198.122 88.781 198.122 198.122v0zM485.287 761.322c0-133.999-109.404-242.643-242.643-242.643-133.999 0-242.643 109.404-242.643 242.643 0 132.436 107.759 240.195 242.239 242.64 105.642 0.004 198.052-68.422 230.775-166.592 8.22-27.363 12.273-51.103 12.273-76.048v0z"></path>
			<path class="path4" d="M946.087 1003.965c134.008 0 242.643-108.635 242.643-242.643s-108.635-242.643-242.643-242.643c-134.008 0-242.643 108.635-242.643 242.643s108.635 242.643 242.643 242.643v0zM946.087 959.443c-109.42 0-198.122-88.702-198.122-198.122s88.702-198.122 198.122-198.122c109.42 0 198.122 88.702 198.122 198.122s-88.702 198.122-198.122 198.122v0z"></path>
			<path class="path5" d="M218.157 672.278v178.087h44.522v-178.087h-44.522z"></path>
			<path class="path6" d="M329.461 739.061h-178.087v44.522h178.087v-44.522z"></path>
			<path class="path7" d="M297.421 562.923c3.532-1.833 10.792-5.257 21.476-9.748 18.076-7.598 38.976-15.222 62.394-22.353 160.882-48.985 338.1-48.985 513.102 32.523l18.797-40.359c-186.119-86.686-374.309-86.686-544.867-34.755-24.917 7.587-47.24 15.73-66.678 23.9-11.824 4.97-20.167 8.905-24.736 11.276l20.512 39.515z"></path>
			<path class="path8" d="M461.296 855.856c107.837-36.711 180.094-38.040 266.714-0.636l17.65-40.874c-97.719-42.197-181.139-40.661-298.712-0.636l14.348 42.146z"></path>
			<path class="path9" d="M621.078 471.93v-342.817c-0.004-0.4-0.004-0.4-0.004-0.399-0.117-10.28 2.151-25.748 8.853-40.459 10.794-23.695 29.647-37.055 62.386-37.055 0.184 0.040 3.475 0.48 7.997 1.571 7.754 1.87 15.498 4.907 22.59 9.293 19.95 12.337 31.743 32.976 31.743 67.050v117.983c0.013-0.867 0.013-0.867-0.034 0.364-0.202 6.205 0.051 14.054 1.097 23.008 1.568 13.418 4.656 26.729 9.697 39.398 16.777 42.157 51.544 68.569 104.996 68.569 14.207 0 33.872-3.53 53.963-14.348 34.225-18.429 55.116-52.176 55.116-101.409v-113.53h-44.522v113.53c0 32.576-11.666 51.42-31.702 62.209-7.251 3.904-15.221 6.479-23.222 7.915-4.708 0.845-8.163 1.111-9.633 1.111-34.2 0-53.276-14.492-63.63-40.509-6.137-15.422-8.070-31.969-7.663-44.496 0.022-0.568 0.022-0.568 0.016-0.451l0.042-119.343c0-49.683-19.928-84.557-52.848-104.916-19.564-12.099-38.857-16.753-52.834-17.488-52.188-0.031-86.344 24.174-104.071 63.088-9.893 21.716-13.040 43.184-12.856 59.422 0.003 0.244 0.003 0.244 0.006 0.388l-0.005 342.323h44.522z"></path>
			<path class="path10" d="M1061.843 763.548c0 18.442-14.95 33.391-33.391 33.391s-33.391-14.95-33.391-33.391c0-18.442 14.95-33.391 33.391-33.391s33.391 14.95 33.391 33.391z"></path>
			<path class="path11" d="M901.565 763.548c0 18.442-14.95 33.391-33.391 33.391s-33.391-14.95-33.391-33.391c0-18.442 14.95-33.391 33.391-33.391s33.391 14.95 33.391 33.391z"></path>
		</symbol>
		<symbol id="icon-untitled" viewBox="0 0 1152 1024">
			<title>untitled</title>
			<path class="path1" d="M388.267 356.267h541.328l-1.65-22.869c-0.595-8.252-2.722-21.766-7.348-38.842-7.642-28.209-19.767-56.413-37.427-82.835-46.195-69.114-121.162-113.204-229.039-119.946-1.082-0.040-1.082-0.040-1.371-0.043-10.921-0.099-27.383 0.926-47.557 4.091-32.396 5.083-64.697 14.395-95.057 29.064-79.146 38.24-131.56 105.919-143.076 207.646l-2.687 23.733h23.885zM388.267 313.6l21.198 23.733c9.787-86.448 52.723-141.89 119.242-174.028 26.259-12.687 54.598-20.858 83.109-25.331 17.684-2.775 31.845-3.657 40.556-3.578 0.1 0.001 0.1 0.001 0.047 0 93.49 5.864 156.395 42.86 195.278 101.034 14.903 22.297 25.219 46.292 31.718 70.282 2.266 8.364 3.887 16.094 4.969 22.967 0.623 3.958 0.922 6.628 1.005 7.79l21.278-22.869h-518.4z"></path>
			<path class="path2" d="M885.333 334.933v379.733c0 37.133-10.668 56.452-27.879 65.289-8.935 4.588-18.741 5.9-26.49 5.327-0.364-0.027-0.681-0.060-0.375-0.024l-2.857-0.192h-364.8c-25 0-38.981-11.238-47.016-32.176-4.976-12.967-6.593-26.887-6.344-37.069 0.008-0.282 0.008-0.282 0.004-0.164l0.023-380.725h-42.667v379.733c0.008-0.655 0.008-0.655-0.014 0.112-0.373 15.266 1.839 34.311 9.163 53.397 13.965 36.395 42.784 59.557 86.851 59.557l361.943-0.192c0.893 0.115 1.698 0.201 2.942 0.293 14.893 1.101 32.157-1.209 49.126-9.923 32.123-16.496 51.055-50.777 51.055-103.244v-379.733h-42.667z"></path>
			<path class="path3" d="M442.235 33.975l64 113.067 37.131-21.018-64-113.067-37.131 21.018z"></path>
			<path class="path4" d="M56.748 121.017l42.667 46.933 31.571-28.701-42.667-46.933-31.571 28.701z"></path>
			<path class="path5" d="M181.333 57.6v61.867h42.667v-61.867h-42.667z"></path>
			<path class="path6" d="M70.4 215.467h-61.867v42.667h61.867v-42.667z"></path>
			<path class="path7" d="M822.119 12.696l-66.133 113.067 36.829 21.542 66.133-113.067-36.829-21.542z"></path>
			<path class="path8" d="M395.901 523.682l-211.2-245.333c-9.55-11.959-8.354-31.092 2.272-40.537 11.704-9.327 30.837-8.131 40.282 2.495l142.784 164.097 32.188-28.007-142.933-164.267c-24.963-28.085-69.859-30.891-99.821-6.922-28.762 25.527-31.568 70.424-7.598 100.385l211.691 245.925 32.335-27.837z"></path>
			<path class="path9" d="M892.736 400.171l206.933 236.8c9.446 11.84 8.25 30.972-2.376 40.417-11.704 9.327-30.837 8.131-40.282-2.495l-132.142-151.326-32.138 28.064 132.267 151.467c24.938 28.056 69.834 30.862 99.796 6.893 28.762-25.527 31.568-70.424 7.598-100.385l-207.528-237.511-32.128 28.076z"></path>
			<path class="path10" d="M571.733 810.667v130.133c0 15.085-13.032 27.733-27.733 27.733-15.085 0-27.733-13.032-27.733-27.733v-132.267h-42.667v132.267c0 37.985 31.461 70.4 70.4 70.4 37.985 0 70.4-31.461 70.4-70.4v-130.133h-42.667z"></path>
			<path class="path11" d="M772.267 810.667v130.133c0 15.085-13.032 27.733-27.733 27.733-15.085 0-27.733-13.032-27.733-27.733v-132.267h-42.667v132.267c0 37.985 31.461 70.4 70.4 70.4 37.985 0 70.4-31.461 70.4-70.4v-130.133h-42.667z"></path>
		</symbol>
		<symbol id="icon-untitled2" viewBox="0 0 788 1024">
			<title>untitled2</title>
			<path class="path1" d="M429.292 907.815c0 16.314-13.225 29.538-29.538 29.538s-29.538-13.225-29.538-29.538c0-16.314 13.225-29.538 29.538-29.538s29.538 13.225 29.538 29.538z"></path>
			<path class="path2" d="M114.215 120.123h569.108l-19.692-19.692v720.738l19.692-19.692h-569.108l19.692 19.692v-720.738l-19.692 19.692zM114.215 80.738h-19.692v760.123h608.492v-760.123h-588.8z"></path>
			<path class="path3" d="M746.338 929.477c0 22.601-18.753 41.354-41.354 41.354h-610.462c-22.601 0-41.354-18.753-41.354-41.354v-848.738c-1.311-22.861 16.772-41.354 39.385-41.354h610.462c22.601 0 41.354 18.753 41.354 41.354v868.431h21.662v-19.692h-19.692zM785.723 929.477v-19.692h-21.662v19.692h19.692v-848.738c0-44.353-36.386-80.738-80.738-80.738h-610.462c-44.953 0-81.362 37.236-78.735 81.895l-0.034 847.582c0 44.353 36.386 80.738 80.738 80.738h610.462c44.353 0 80.738-36.386 80.738-80.738v0z"></path>
			<path class="path4" d="M381.919 317.518l47.865 102.258 111.046 15.242-11.055-33.623-80.333 78.162 19.535 110.697 28.66-20.798-97.781-52.15-99.795 52.067 28.502 20.881 19.535-110.697-80.333-78.162-11.055 33.623 110.828-15.212 49.905-101.98-35.523-0.307zM417.589 300.821l-17.44-37.259-63.375 129.505 15.010-10.854-140.404 19.271 101.78 99.029-5.66-17.536-24.672 139.808 126.035-65.757-18.376-0.083 124.304 66.296-24.752-140.263-5.66 17.536 101.78-99.029-140.404-19.271 15.157 11.161-43.323-92.554z"></path>
		</symbol>
		<symbol id="icon-untitled3" viewBox="0 0 1083 1024">
			<title>untitled3</title>
			<path class="path1" d="M656.812 772.79l-392.186-338.799-12.635 17.057c-5.997 8.096-14.494 22.26-22.88 41.557-42.281 97.287-31.030 204.44 70.243 303.273l13.754 5.599c-10.26-2.443-5.121 1.779 2.064 7.089 11.794 8.717 25.204 17.408 40.036 25.52 87.67 47.955 181.358 55.26 268.952-5.247 11.296-7.803 22.354-16.695 33.158-26.699l16.155-14.958-16.661-14.393zM631.065 802.594l-0.506-29.351c-9.446 8.746-19.044 16.464-28.784 23.192-73.417 50.714-151.79 44.603-227.668 3.098-13.183-7.211-25.107-14.939-35.527-22.64-6.143-4.54-10.33-7.98-12.328-9.772l-13.146-5.030c-74.694-80.717-84.111-170.411-47.876-253.789 4.161-9.574 8.606-18.111 13.019-25.468 2.562-4.271 4.465-7.099 5.388-8.345l-28.697 3.18 376.123 324.923z"></path>
			<path class="path2" d="M282.714 475.646l238.277-275.692c30.835-35.506 54.745-38.27 76.072-24.484 4.306 2.783 7.222 5.458 8.33 6.742l2.081 2.078 265.846 228.431c7.982 6.881 12.93 14.013 15.459 21.433 4.868 14.287 0.965 31.085-9.312 48.335-4.499 7.551-8.964 13.218-11.604 16.028l-238.823 276.298 29.798 25.754 238.277-275.692c3.898-4.125 10.060-11.945 16.187-22.23 15.608-26.198 22.050-53.923 12.757-81.196-4.848-14.228-13.855-27.209-27.047-38.582l-265.87-228.452 2.081 2.078c-3.385-3.927-8.992-9.069-16.78-14.103-37.443-24.203-83.203-18.913-127.219 31.772l-238.307 275.727 29.798 25.754z"></path>
			<path class="path3" d="M415.16 972.546l23.631-124.062-38.689-7.369-23.631 124.062 38.689 7.369z"></path>
			<path class="path4" d="M126.628 749.171l118.154-41.354-13.011-37.174-118.154 41.354 13.011 37.174z"></path>
			<path class="path5" d="M482.462 758.154c0 16.314-13.225 29.538-29.538 29.538s-29.538-13.225-29.538-29.538c0-16.314 13.225-29.538 29.538-29.538s29.538 13.225 29.538 29.538z"></path>
			<path class="path6" d="M352.492 645.908c0 16.314-13.225 29.538-29.538 29.538s-29.538-13.225-29.538-29.538c0-16.314 13.225-29.538 29.538-29.538s29.538 13.225 29.538 29.538z"></path>
			<path class="path7" d="M756.185 645.908v309.169c0 14.724-12.845 27.569-27.569 27.569s-27.569-12.845-27.569-27.569v-208.738h-39.385v208.738c0 36.476 30.478 66.954 66.954 66.954s66.954-30.478 66.954-66.954v-309.169h-39.385z"></path>
			<path class="path8" d="M322.954 368.246h-246.154c-14.724 0-27.569-12.845-27.569-27.569s12.845-27.569 27.569-27.569h326.892v-39.385h-326.892c-36.476 0-66.954 30.478-66.954 66.954s30.478 66.954 66.954 66.954h246.154v-39.385z"></path>
			<path class="path9" d="M802.040 336.807l153.6-72.862c14.27-7.13 31.98-1.227 38.931 12.676s1.048 31.613-12.855 38.565l-113.97 55.018 17.122 35.468 114.215-55.138c33.604-16.8 47.393-58.167 30.714-91.525s-58.046-47.147-91.405-30.468l-153.233 72.683 16.88 35.584z"></path>
			<path class="path10" d="M658.587 185.705l41.354-118.154c4.587-14.86 20.386-22.232 36.668-17.222 14.146 4.352 21.518 20.151 16.508 36.433l-49.091 147.256 37.364 12.455 49.231-147.692c11.301-36.71-6.601-75.071-42.429-86.095-36.274-11.161-74.635 6.741-85.659 42.569l-41.119 117.44 37.174 13.011z"></path>
			<path class="path11" d="M979.188 443.461c0.097 0.429 0.339 1.812 0.614 4.061 4.89 40.089-7.172 89.965-51.316 140.076l29.553 26.034c52.249-59.31 67.018-120.382 60.859-170.879-0.437-3.586-0.907-6.258-1.285-7.938l-38.424 8.645z"></path>
			<path class="path12" d="M1042.105 539.646c-0.277 1.385-1.022 4.449-2.337 8.95-2.271 7.772-5.319 16.502-9.242 25.95-11.278 27.159-27.259 54.362-48.718 79.733-20.595 24.35-45.246 45.748-74.36 63.407l20.425 33.674c32.848-19.924 60.727-44.124 84.006-71.648 24.236-28.655 42.26-59.336 55.020-90.063 7.737-18.631 12.042-33.361 13.825-42.28l-38.62-7.724z"></path>
			<path class="path13" d="M624.054 22.221c-3.939-2.215-10.458-5.154-19.239-7.985-56.792-18.314-120.672-6.385-179.059 56.381-3.945 4.241-7.839 8.698-11.681 13.376l30.434 24.999c3.332-4.057 6.694-7.905 10.084-11.55 47.161-50.699 95-59.632 138.134-45.722 6.119 1.973 10.262 3.84 12.018 4.828l19.309-34.327z"></path>
		</symbol>
		<symbol id="icon-untitled4" viewBox="0 0 792 1024">
			<title>untitled4</title>
			<path class="path1" d="M425.057 913.872c0 16.006-12.975 28.981-28.981 28.981s-28.981-12.975-28.981-28.981c0-16.006 12.975-28.981 28.981-28.981s28.981 12.975 28.981 28.981z"></path>
			<path class="path2" d="M320.725 361.298c0 16.006-12.975 28.981-28.981 28.981s-28.981-12.975-28.981-28.981c0-16.006 12.975-28.981 28.981-28.981s28.981 12.975 28.981 28.981z"></path>
			<path class="path3" d="M533.253 361.298c0 16.006-12.975 28.981-28.981 28.981s-28.981-12.975-28.981-28.981c0-16.006 12.975-28.981 28.981-28.981s28.981 12.975 28.981 28.981z"></path>
			<path class="path4" d="M112.060 127.517h568.030l-19.321-19.321v718.732l19.321-19.321h-568.030l19.321 19.321v-718.732l-19.321 19.321zM112.060 88.875h-19.321v757.374h606.672v-757.374h-587.351z"></path>
			<path class="path5" d="M741.917 935.125c0 22.939-19.151 42.506-42.506 42.506h-608.604c-22.939 0-42.506-19.151-42.506-42.506v-846.249c0-22.939 19.151-42.506 42.506-42.506h610.536c22.939 0 42.506 19.151 42.506 42.506v846.249h19.321v-19.321h-21.253v19.321zM780.558 935.125h-19.321v19.321h21.253v-865.57c0-44.884-37.051-81.147-81.147-81.147h-610.536c-44.884 0-81.147 37.051-81.147 81.147v846.249c0 44.884 37.051 81.147 81.147 81.147h608.604c44.884 0 81.147-37.051 81.147-81.147v0z"></path>
			<path class="path6" d="M498.475 483.019c0 56.952-45.448 102.4-102.4 102.4s-102.4-45.448-102.4-102.4h-38.642c0 78.293 62.748 141.042 141.042 141.042s141.042-62.748 141.042-141.042h-38.642z"></path>
		</symbol>
		<symbol id="icon-untitled5" viewBox="0 0 1392 1024">
			<title>untitled5</title>
			<path class="path1" d="M417.477 848.082c0 21.752-17.633 39.385-39.385 39.385s-39.385-17.633-39.385-39.385c0-21.752 17.633-39.385 39.385-39.385s39.385 17.633 39.385 39.385z"></path>
			<path class="path2" d="M1052.882 848.082c0 21.752-17.633 39.385-39.385 39.385s-39.385-17.633-39.385-39.385c0-21.752 17.633-39.385 39.385-39.385s39.385 17.633 39.385 39.385z"></path>
			<path class="path3" d="M593.395 916.349c0 30.135-25.004 55.138-55.138 55.138h-322.954c-30.135 0-55.138-25.004-55.138-55.138v-136.533c0-30.135 25.004-55.138 55.138-55.138h325.579c30.135 0 55.138 25.004 55.138 55.138v136.533h26.256v-26.256h-28.882v26.256zM645.908 916.349h-26.256v26.256h28.882v-162.79c0-59.137-48.514-107.651-107.651-107.651h-325.579c-59.137 0-107.651 48.514-107.651 107.651v136.533c0 59.137 48.514 107.651 107.651 107.651h322.954c59.137 0 107.651-48.514 107.651-107.651v0z"></path>
			<path class="path4" d="M1220.923 916.349c0 30.135-25.004 55.138-55.138 55.138h-325.579c-30.135 0-55.138-25.004-55.138-55.138v-136.533c0-30.135 25.004-55.138 55.138-55.138h325.579c30.135 0 55.138 25.004 55.138 55.138v136.533zM1273.436 916.349v-136.533c0-59.137-48.514-107.651-107.651-107.651h-325.579c-59.137 0-107.651 48.514-107.651 107.651v136.533c0 59.137 48.514 107.651 107.651 107.651h325.579c59.137 0 107.651-48.514 107.651-107.651v0z"></path>
			<path class="path5" d="M627.528 874.338h107.651v-52.513h-107.651v52.513z"></path>
			<path class="path6" d="M123.405 808.697h-89.272l26.256 26.256v-603.897c-0.117-2.528-0.191-3.727-0.269-5.565-1.13-26.453 1.222-58.421 9.762-88.309 15.136-52.976 44.581-82.044 95.533-82.044h49.887v-52.513h-49.887c-77.704 0-125.059 46.748-146.026 120.13-10.349 36.221-13.084 73.387-11.734 104.977 0.105 2.467 0.216 4.277 0.301 5.363l-0.079 601.858v26.256h115.528v-52.513z"></path>
			<path class="path7" d="M1252.431 861.21h115.528v-630.154c0.005 0.954 0.116-0.857 0.221-3.323 1.35-31.59-1.385-68.756-11.734-104.977-20.967-73.383-68.321-120.13-146.026-120.13h-49.887v52.513h49.887c50.952 0 80.397 29.068 95.533 82.044 8.539 29.888 10.892 61.855 9.762 88.309-0.079 1.839-0.152 3.038-0.19 3.525l-0.079 605.937 26.256-26.256h-89.272v52.513z"></path>
			<path class="path8" d="M232.010 610.491c0.525-1.4 2.076-4.778 4.748-9.456 4.655-8.149 10.627-16.352 17.971-23.975 26.786-27.801 63.869-40.933 115.994-31.359l9.487-51.649c-70.042-12.865-124.668 6.48-163.297 46.572-18.136 18.823-28.937 37.733-34.072 51.428l49.169 18.438z"></path>
			<path class="path9" d="M1190.369 592.053c-5.135-13.694-15.936-32.604-34.072-51.428-38.629-40.093-93.255-59.437-163.297-46.572l9.487 51.649c52.125-9.574 89.209 3.558 115.994 31.359 7.344 7.623 13.317 15.825 17.971 23.975 2.672 4.678 4.223 8.056 4.748 9.456l49.169-18.438z"></path>
		</symbol>
		<symbol id="icon-untitled6" viewBox="0 0 1262 1024">
			<title>untitled6</title>
			<path class="path1" d="M169.079 107.163c0 19.728-15.993 35.721-35.721 35.721s-35.721-15.993-35.721-35.721c0-19.728 15.993-35.721 35.721-35.721s35.721 15.993 35.721 35.721z"></path>
			<path class="path2" d="M285.767 107.163c0 19.728-15.993 35.721-35.721 35.721s-35.721-15.993-35.721-35.721c0-19.728 15.993-35.721 35.721-35.721s35.721 15.993 35.721 35.721z"></path>
			<path class="path3" d="M402.456 107.163c0 19.728-15.993 35.721-35.721 35.721s-35.721-15.993-35.721-35.721c0-19.728 15.993-35.721 35.721-35.721s35.721 15.993 35.721 35.721z"></path>
			<path class="path4" d="M35.721 47.628h1190.698l-23.814-23.814v971.609l23.814-23.814h-1190.698l23.814 23.814v-971.609l-23.814 23.814zM35.721 0h-23.814v1019.237h1238.326v-1019.237h-1214.512z"></path>
			<path class="path5" d="M40.484 209.563h1178.791v-47.628h-1178.791v47.628z"></path>
			<path class="path6" d="M230.995 202.419v783.479h47.628v-783.479h-47.628z"></path>
			<path class="path7" d="M266.716 507.237h959.702v-47.628h-959.702v47.628z"></path>
			<path class="path8" d="M376.26 638.214h300.056v-47.628h-300.056v47.628z"></path>
			<path class="path9" d="M802.53 638.214h297.674v-47.628h-297.674v47.628z"></path>
			<path class="path10" d="M376.26 764.428h300.056v-47.628h-300.056v47.628z"></path>
			<path class="path11" d="M802.53 764.428h297.674v-47.628h-297.674v47.628z"></path>
			<path class="path12" d="M376.26 890.642h300.056v-47.628h-300.056v47.628z"></path>
			<path class="path13" d="M802.53 890.642h297.674v-47.628h-297.674v47.628z"></path>
		</symbol>
		<symbol id="icon-untitled7" viewBox="0 0 1024 1024">
			<title>untitled7</title>
			<path class="path1" d="M764.732 407.421c0 18.049-14.632 32.681-32.681 32.681s-32.681-14.632-32.681-32.681c0-18.049 14.632-32.681 32.681-32.681s32.681 14.632 32.681 32.681z"></path>
			<path class="path2" d="M117.651 132.902h793.055l-21.787-21.787v793.055l21.787-21.787h-793.055l21.787 21.787v-793.055l-21.787 21.787zM117.651 89.328h-21.787v836.63h836.63v-836.63h-814.843z"></path>
			<path class="path3" d="M297.22 754.618l167.762-470.604-41.163-0.34 159.047 470.604 41.281-13.951-179.138-530.053-188.833 529.713 41.044 14.632z"></path>
			<path class="path4" d="M32.681 47.932h962.996l-21.787-21.787v962.996l21.787-21.787h-962.996l21.787 21.787v-962.996l-21.787 21.787zM32.681 4.357h-21.787v1006.57h1006.57v-1006.57h-984.783z"></path>
			<path class="path5" d="M350.774 586.077h185.191v-43.574h-185.191v43.574z"></path>
			<path class="path6" d="M710.264 529.43v217.872h43.574v-217.872h-43.574z"></path>
		</symbol>
		<symbol id="icon-untitled8" viewBox="0 0 788 1024">
			<title>untitled8</title>
			<path class="path1" d="M129.969 116.185h525.785l-19.692-19.692v403.692l19.692-19.692h-525.785l19.692 19.692v-403.692l-19.692 19.692zM129.969 76.8h-19.692v443.077h565.169v-443.077h-545.477z"></path>
			<path class="path2" d="M541.538 768c0 9.666-7.769 17.723-17.723 17.723l-260.088 1.97c-9.517-0.001-17.574-7.769-17.574-17.724 0-9.666 7.769-17.723 17.723-17.723l260.088-1.97c8.951 0.001 16.575 7.624 17.655 19.506l-0.081-1.783zM580.842 766.217c-2.858-31.441-26.742-55.325-57.027-55.325l-260.088 1.97c-31.883-0.001-56.959 26.003-56.959 57.107 0 32.033 26.004 57.108 57.108 57.108l260.088-1.97c31.883 0.001 56.959-26.003 56.959-57.107l-0.081-1.783z"></path>
			<path class="path3" d="M283.569 638.031v80.738h39.385v-80.738h-39.385z"></path>
			<path class="path4" d="M464.738 638.031v80.738h39.385v-80.738h-39.385z"></path>
			<path class="path5" d="M74.831 899.938c0 16.314-13.225 29.538-29.538 29.538s-29.538-13.225-29.538-29.538c0-16.314 13.225-29.538 29.538-29.538s29.538 13.225 29.538 29.538z"></path>
			<path class="path6" d="M177.231 899.938c0 16.314-13.225 29.538-29.538 29.538s-29.538-13.225-29.538-29.538c0-16.314 13.225-29.538 29.538-29.538s29.538 13.225 29.538 29.538z"></path>
			<path class="path7" d="M277.662 899.938c0 16.314-13.225 29.538-29.538 29.538s-29.538-13.225-29.538-29.538c0-16.314 13.225-29.538 29.538-29.538s29.538 13.225 29.538 29.538z"></path>
			<path class="path8" d="M378.092 899.938c0 16.314-13.225 29.538-29.538 29.538s-29.538-13.225-29.538-29.538c0-16.314 13.225-29.538 29.538-29.538s29.538 13.225 29.538 29.538z"></path>
			<path class="path9" d="M478.523 899.938c0 16.314-13.225 29.538-29.538 29.538s-29.538-13.225-29.538-29.538c0-16.314 13.225-29.538 29.538-29.538s29.538 13.225 29.538 29.538z"></path>
			<path class="path10" d="M580.923 899.938c0 16.314-13.225 29.538-29.538 29.538s-29.538-13.225-29.538-29.538c0-16.314 13.225-29.538 29.538-29.538s29.538 13.225 29.538 29.538z"></path>
			<path class="path11" d="M681.354 899.938c0 16.314-13.225 29.538-29.538 29.538s-29.538-13.225-29.538-29.538c0-16.314 13.225-29.538 29.538-29.538s29.538 13.225 29.538 29.538z"></path>
			<path class="path12" d="M781.785 899.938c0 16.314-13.225 29.538-29.538 29.538s-29.538-13.225-29.538-29.538c0-16.314 13.225-29.538 29.538-29.538s29.538 13.225 29.538 29.538z"></path>
			<path class="path13" d="M74.831 992.492c0 16.314-13.225 29.538-29.538 29.538s-29.538-13.225-29.538-29.538c0-16.314 13.225-29.538 29.538-29.538s29.538 13.225 29.538 29.538z"></path>
			<path class="path14" d="M177.231 992.492c0 16.314-13.225 29.538-29.538 29.538s-29.538-13.225-29.538-29.538c0-16.314 13.225-29.538 29.538-29.538s29.538 13.225 29.538 29.538z"></path>
			<path class="path15" d="M681.354 992.492c0 16.314-13.225 29.538-29.538 29.538s-29.538-13.225-29.538-29.538c0-16.314 13.225-29.538 29.538-29.538s29.538 13.225 29.538 29.538z"></path>
			<path class="path16" d="M781.785 992.492c0 16.314-13.225 29.538-29.538 29.538s-29.538-13.225-29.538-29.538c0-16.314 13.225-29.538 29.538-29.538s29.538 13.225 29.538 29.538z"></path>
			<path class="path17" d="M708.923 575.015c0 18.663-14.814 33.477-33.477 33.477h-565.169c-18.663 0-33.477-14.814-33.477-33.477v-502.154c0-18.663 14.814-33.477 33.477-33.477h565.169c18.663 0 33.477 14.814 33.477 33.477v502.154zM748.308 575.015v-502.154c0-40.414-32.447-72.862-72.862-72.862h-565.169c-40.414 0-72.862 32.447-72.862 72.862v502.154c0 40.414 32.447 72.862 72.862 72.862h565.169c40.414 0 72.862-32.447 72.862-72.862v0z"></path>
			<path class="path18" d="M246.154 1014.154h307.2v-39.385h-307.2v39.385z"></path>
		</symbol>
		<symbol id="icon-androidbotb-03-03" viewBox="0 0 1155 1024">
			<title>androidbotb-03-03</title>
			<path class="path1" d="M381.277 357.311h541.988l-1.723-23.388c-0.61-8.284-2.757-21.84-7.403-38.965-7.674-28.289-19.819-56.574-37.482-83.075-46.131-69.215-120.841-113.438-228.179-120.331-1.254-0.044-1.254-0.044-1.593-0.047-11.72-0.088-28.059 0.904-48.361 4.059-32.385 5.032-64.632 14.283-94.951 28.877-79.431 38.233-132.127 106.214-143.939 208.586l-2.802 24.285h24.446zM381.277 313.736l21.644 24.285c10.016-86.807 53.032-142.3 119.551-174.318 26.13-12.577 54.328-20.667 82.743-25.082 17.773-2.762 31.822-3.615 41.343-3.544 0.18 0.002 0.18 0.002 0.524 0.004 92.205 5.966 154.623 42.914 193.316 100.968 14.866 22.305 25.175 46.313 31.687 70.317 2.27 8.369 3.898 16.103 4.987 22.978 0.627 3.957 0.929 6.624 1.014 7.78l21.728-23.388h-518.536z"></path>
			<path class="path2" d="M878.026 335.523v379.098c0 36.986-10.505 56.099-27.388 64.775-8.716 4.479-18.308 5.753-25.9 5.175-0.365-0.028-0.686-0.063-0.361-0.023l-2.997-0.207h-366.026c-25.517 0-39.256-10.991-46.828-31.509-4.545-12.316-5.939-25.715-5.541-36.1 0.031-0.675 0.031-0.675 0.024-0.558l0.055-380.65h-43.574v379.098c0.017-0.989 0.017-0.989-0.048 0.438-0.599 15.591 1.345 34.275 8.204 52.858 13.534 36.674 42.689 59.997 87.708 59.997l363.028-0.207c0.928 0.123 1.762 0.214 3.048 0.312 14.921 1.136 32.169-1.154 49.124-9.867 32.138-16.515 51.046-50.917 51.046-103.531v-379.098h-43.574z"></path>
			<path class="path3" d="M434.303 34.854l65.362 113.294 37.744-21.775-65.362-113.294-37.744 21.775z"></path>
			<path class="path4" d="M48.873 120.998l41.396 47.932 32.978-28.481-41.396-47.932-32.978 28.481z"></path>
			<path class="path5" d="M172.119 58.826v61.004h43.574v-61.004h-43.574z"></path>
			<path class="path6" d="M63.183 215.694h-61.004v43.574h61.004v-43.574z"></path>
			<path class="path7" d="M813.401 13.078l-65.362 113.294 37.744 21.775 65.362-113.294-37.744-21.775z"></path>
			<path class="path8" d="M581.719 228.766c0 16.846-13.656 30.502-30.502 30.502s-30.502-13.656-30.502-30.502c0-16.846 13.656-30.502 30.502-30.502s30.502 13.656 30.502 30.502z"></path>
			<path class="path9" d="M760.374 228.766c0 16.846-13.656 30.502-30.502 30.502s-30.502-13.656-30.502-30.502c0-16.846 13.656-30.502 30.502-30.502s30.502 13.656 30.502 30.502z"></path>
			<path class="path10" d="M389.031 523.881l-211.336-244.017c-9.671-12.115-8.538-29.482 2.363-39.172 11.904-9.485 29.271-8.353 38.961 2.548l141.437 163.199 32.929-28.538-141.617-163.404c-25.529-28.723-69.206-31.571-99.794-7.101-29.382 26.078-32.23 69.755-7.76 100.342l211.88 244.67 32.938-28.527z"></path>
			<path class="path11" d="M883.313 399.863l204.8 237.481c9.701 12.149 8.568 29.517-2.333 39.206-11.904 9.485-29.271 8.353-38.961-2.548l-132.761-152.35-32.851 28.627 132.902 152.511c25.49 28.678 69.167 31.527 99.755 7.057 29.382-26.078 32.23-69.755 7.76-100.342l-205.314-238.099-32.999 28.457z"></path>
			<path class="path12" d="M564.289 810.485v128.545c0 16.291-12.033 28.323-28.323 28.323s-28.323-12.033-28.323-28.323v-132.902h-43.574v132.902c0 40.356 31.542 71.898 71.898 71.898s71.898-31.542 71.898-71.898v-128.545h-43.574z"></path>
			<path class="path13" d="M762.553 810.485v128.545c0 16.291-12.033 28.323-28.323 28.323s-28.323-12.033-28.323-28.323v-132.902h-43.574v132.902c0 40.356 31.542 71.898 71.898 71.898s71.898-31.542 71.898-71.898v-128.545h-43.574z"></path>
		</symbol>
		<symbol id="icon-androidbota-03" viewBox="0 0 1024 1024">
			<title>androidbota-03</title>
			<path class="path1" d="M252.426 356.63h541.988l-1.723-23.388c-0.61-8.284-2.757-21.84-7.403-38.965-7.674-28.289-19.819-56.574-37.482-83.075-46.131-69.215-120.841-113.438-228.179-120.331-9.548-0.197-23.859 0.504-42.207 3.016-30.428 4.166-61.308 12.103-90.911 24.863-85.77 36.97-143.338 106.232-155.726 213.596l-2.802 24.285h24.446zM252.426 313.055l21.644 24.285c10.488-90.9 57.499-147.459 129.687-178.575 25.682-11.070 52.81-18.043 79.574-21.707 9.359-1.281 17.974-2.055 25.617-2.429 4.45-0.218 7.488-0.258 8.887-0.233 92.601 5.97 155.019 42.917 193.712 100.971 14.866 22.305 25.175 46.313 31.687 70.317 2.27 8.369 3.898 16.103 4.987 22.978 0.627 3.957 0.929 6.624 1.014 7.78l21.728-23.388h-518.536z"></path>
			<path class="path2" d="M749.174 334.843v379.098c0 36.986-10.505 56.099-27.388 64.775-8.716 4.479-18.308 5.753-25.9 5.175-0.365-0.028-0.686-0.063-0.361-0.023l-2.997-0.207h-366.026c-25.517 0-39.256-10.991-46.828-31.509-4.545-12.316-5.939-25.715-5.541-36.1 0.031-0.675 0.031-0.675 0.024-0.558l0.055-380.65h-43.574v379.098c0.017-0.989 0.017-0.989-0.048 0.438-0.599 15.591 1.345 34.275 8.204 52.858 13.534 36.674 42.689 59.997 87.708 59.997l363.028-0.207c0.928 0.123 1.762 0.214 3.048 0.312 14.921 1.136 32.169-1.154 49.124-9.867 32.138-16.515 51.046-50.917 51.046-103.531v-379.098h-43.574z"></path>
			<path class="path3" d="M305.452 34.173l65.362 113.294 37.744-21.775-65.362-113.294-37.744 21.775z"></path>
			<path class="path4" d="M686.886 12.129l-67.54 113.294 37.428 22.313 67.54-113.294-37.428-22.313z"></path>
			<path class="path5" d="M452.868 228.085c0 16.846-13.656 30.502-30.502 30.502s-30.502-13.656-30.502-30.502c0-16.846 13.656-30.502 30.502-30.502s30.502 13.656 30.502 30.502z"></path>
			<path class="path6" d="M631.523 228.085c0 16.846-13.656 30.502-30.502 30.502s-30.502-13.656-30.502-30.502c0-16.846 13.656-30.502 30.502-30.502s30.502 13.656 30.502 30.502z"></path>
			<path class="path7" d="M754.537 399.268l206.979 237.481c9.626 12.063 8.493 29.431-2.408 39.12-11.904 9.485-29.271 8.353-38.961-2.548l-132.761-152.35-32.851 28.627 132.902 152.511c25.49 28.678 69.167 31.527 99.755 7.057 29.382-26.078 32.23-69.755 7.76-100.342l-207.567-238.185-32.849 28.63z"></path>
			<path class="path8" d="M233.748 370.724l-204.8 237.481c-24.984 31.206-22.135 74.883 6.382 100.232 31.452 25.199 75.129 22.351 100.478-6.167l133.044-152.672-32.851-28.627-132.902 152.511c-9.548 10.74-26.915 11.872-39.683 1.658-10.036-8.961-11.169-26.328-0.955-39.096l204.286-236.862-32.999-28.457z"></path>
			<path class="path9" d="M435.438 809.804v128.545c0 16.291-12.033 28.323-28.323 28.323s-28.323-12.033-28.323-28.323v-132.902h-43.574v132.902c0 40.356 31.542 71.898 71.898 71.898s71.898-31.542 71.898-71.898v-128.545h-43.574z"></path>
			<path class="path10" d="M635.881 809.804v128.545c0 16.291-12.033 28.323-28.323 28.323s-28.323-12.033-28.323-28.323v-132.902h-43.574v132.902c0 40.356 31.542 71.898 71.898 71.898s71.898-31.542 71.898-71.898v-128.545h-43.574z"></path>
		</symbol>
		<symbol id="icon-untitled22" viewBox="0 0 811 1024">
			<title>untitled22</title>
			<path class="path1" d="M740.435 372.563c-75.338 53.18-112.672 120.486-106.666 204.572 6.084 85.18 51.789 148.423 132.167 189.697l8.826-17.187-17.939-7.176c-1.792 4.48-2.932 7.725-5.221 14.59-2.059 6.176-3.012 8.889-4.44 12.459-14.765 40.576-34.9 77.642-61.374 113.571-12.197 18.257-24.895 34.247-36.749 46.101-14.204 16.168-27.768 27.266-43.281 35.022-14.18 6.28-28.906 9.553-43.526 9.553-14.654 0-30.835-4.149-48.183-11.859l-0.236-0.103c-6.842-2.932-9.901-4.231-13.765-5.826-11.135-4.595-20.182-7.898-29.112-10.45-26.084-6.532-49.447-8.564-74.535-6.473-20.845 2.082-42.022 8.055-62.273 17.055-19.129 8.196-27.775 11.476-39.345 14.368-13.077 3.725-23.575 4.85-33.155 3.481-11.64-1.458-22.435-5.553-35.652-13.105-14.774-8.869-27.913-20.85-45.379-40.499-53.64-62.895-91.126-133.702-113.687-214.546-7.458-27.974-13.093-56.145-16.847-84.303-2.71-35.618-3.328-51.701-1.82-71.316 1.968-39.212 9.87-72.577 25.066-102.97 19.921-43.437 50.139-77.21 91.301-102.265 20.547-12.644 45.511-20.391 75.587-24.402 22.839-3.262 44.564-0.393 67.794 8.542 7.669 2.577 13.271 4.678 26.016 9.634 2.614 1.017 2.614 1.017 5.251 2.038 8.955 3.462 15.288 5.799 21.725 7.944l6.11-18.329-8.641 17.281c8.553 4.276 15.629 6.139 31.9 9.393 15.919 4.614 31.753 2.787 50.041-5.051 5.455-2.024 10.774-3.929 22.97-8.234 12.438-4.39 17.906-6.349 24.505-8.823 16.477-6.179 32.698-11.427 46.204-14.803 18.441-3.666 35.238-4.958 49.211-3.405 26.598 1.792 53.387 8.603 79.534 19.809 29.103 13.709 53.508 34.627 72.837 62.742l15.921-10.946 13.662-13.662c-0.751-0.751-0.751-0.751-0.859-0.859-27.216 27.431-27.216 27.431-26.894 27.753s0.322 0.322 0.429 0.429l13.662-13.662-11.142-15.784zM762.719 404.132l18.739-13.227-16.219-16.219c-0.107-0.107-0.107-0.107-0.429-0.429s-0.322-0.322-0.429-0.429c-27.216 27.431-27.216 27.431-26.465 28.182l29.583-24.608c-23.176-33.711-52.87-59.163-88.842-76.091-30.633-13.141-61.66-21.030-91.953-23.049-17.585-1.973-38.178-0.389-61.104 4.197-15.986 3.974-33.548 9.656-51.297 16.312-6.282 2.356-11.601 4.261-23.797 8.566-12.438 4.39-17.906 6.349-24.505 8.823-11.485 4.9-18.42 5.7-26.55 3.377-14.229-2.91-19.389-4.268-23.716-6.432l-2.531-1.048c-5.736-1.912-11.574-4.066-20.008-7.327-2.579-0.999-2.579-0.999-5.182-2.011-13.338-5.187-19.329-7.434-26.976-9.983-28.343-10.923-56.676-14.665-86.125-10.458-34.859 4.647-64.855 13.956-90.473 29.721-47.634 28.994-83.106 68.64-105.974 118.533-17.463 34.9-26.594 73.455-28.782 117.214-1.679 21.73-1.009 39.136 1.965 77.798 4.086 30.876 10.045 60.667 17.984 90.44 24.121 86.437 64.263 162.263 121.825 229.749 20.103 22.622 35.855 36.984 54.993 48.467 17.655 10.093 33.061 15.937 50.050 18.061 15.201 2.175 30.979 0.484 48.278-4.458 13.569-3.381 23.601-7.186 44.809-16.275 16.898-7.509 34.132-12.369 50.342-13.99 20.471-1.703 39.591-0.041 61.014 5.315 6.678 1.919 14.461 4.761 24.364 8.848 3.65 1.506 6.602 2.76 13.284 5.624v0c21.672 9.634 42.938 15.087 63.641 15.087 20.158 0 40.209-4.456 60.013-13.258 21.163-10.559 38.567-24.799 54.995-43.574 12.937-12.876 27.181-30.814 40.177-50.307 28.101-38.101 50.005-78.424 65.84-121.971 1.574-3.908 2.714-7.152 5.002-14.018 2.059-6.176 3.012-8.889 4.44-12.459l6.532-16.329-15.645-8.034c-68.87-35.366-106.199-87.019-111.275-158.076-4.968-69.553 25.457-124.404 90.406-170.25v0z"></path>
			<path class="path2" d="M566.098 30.913v21.253c-1.698 47.195-21.891 91.171-58.1 127.38-16.714 16.714-37.009 28.805-59.643 35.769-14.832 4.938-27.994 6.874-44.552 6.874-0.494-0.014-0.494-0.014 1.017 0.088 3.671 0.408 7.362 1.737 10.955 5.329s4.922 7.284 5.329 10.955c0.102 1.511 0.102 1.511 0.088 1.017l-0.169-2.554c-3.148-23.609 1.003-46.853 11.916-70.497 22.77-54.266 64.151-91.643 122.052-111.546 10.133-3.377 17.668-4.747 26.564-4.747h19.321v-19.321c0 8.999-6.939 18.462-18.748 18.462-3.379 0-6.407-1.010-5.353-0.801 2.801 1.050 5.17 1.66 8.644 1.66v0-19.321h-19.321zM604.74 30.913v-19.321h-19.321c2.377 0 3.684 0.336 4.923 0.801-0.591-0.435-4.264-1.66-8.215-1.66-12.582 0-19.893 9.97-19.893 20.179h19.321v-19.321c-13.323 0-24.915 2.108-38.955 6.788-68.263 23.464-118.165 68.538-145.021 132.578-13.573 29.379-19.026 59.916-14.858 91.173l19.151-2.554h-19.321c-0.014 0.834-0.014 0.834 0.148 3.251 0.47 4.234 1.925 8.275 5.752 12.102s7.868 5.282 12.102 5.752c2.416 0.163 2.416 0.163 3.251 0.148 20.537 0 37.8-2.539 56.344-8.72 28.172-8.663 53.959-24.026 75.175-45.241 42.934-42.934 67.336-96.076 69.405-154.014l0.012-21.942z"></path>
		</symbol>
		<symbol id="icon-untitled32" viewBox="0 0 1180 1024">
			<title>untitled32</title>
			<path class="path1" d="M115.757 146.922h952.765l-22.261-22.261v500.87l22.261-22.261h-952.765l22.261 22.261v-500.87l-22.261 22.261zM115.757 102.4h-22.261v545.391h997.287v-545.391h-975.026z"></path>
			<path class="path2" d="M1133.078 698.991c0 27.775-23.425 51.2-51.2 51.2h-977.252c-27.775 0-51.2-23.425-51.2-51.2v-587.687c0-27.775 23.425-51.2 51.2-51.2h977.252c27.775 0 51.2 23.425 51.2 51.2v587.687zM1177.6 698.991v-587.687c0-52.364-43.358-95.722-95.722-95.722h-977.252c-52.364 0-95.722 43.358-95.722 95.722v587.687c0 52.364 43.358 95.722 95.722 95.722h977.252c52.364 0 95.722-43.358 95.722-95.722v0z"></path>
			<path class="path3" d="M779.13 941.635c0 14.419-10.068 24.487-24.487 24.487h-322.783c-14.419 0-24.487-10.068-24.487-24.487s10.068-24.487 24.487-24.487h322.783c12.193 0 24.487 12.294 24.487 24.487v0zM823.652 941.635c0-36.781-32.227-69.009-69.009-69.009h-322.783c-39.007 0-69.009 30.001-69.009 69.009s30.001 69.009 69.009 69.009h322.783c39.007 0 69.009-30.001 69.009-69.009v0z"></path>
			<path class="path4" d="M707.896 342.817c0 6.177-1.708 12.724-4.629 19.054-1.785 3.867-3.483 6.603-4.275 7.659-6.070 8.093-18.745 22.88-24.645 28.781l-82.365 82.365c0.186-0.186 2.682-0.186 4.61 2.384l-2.068-2.384-82.365-82.365c-7.359-7.359-17.727-19.557-24.645-28.781-0.792-1.056-2.49-3.792-4.275-7.659-2.921-6.33-4.629-12.877-4.629-19.054 0-31.289 22.452-55.652 51.2-55.652 11.237 0 29.81 12.218 43.203 27.844l3.387 3.48c10.919 10.919 27.24 10.919 38.16 0 0 0 0 0 2.226-2.226 14.554-16.879 33.126-29.097 44.364-29.097 26.874 0 46.748 22.584 46.748 55.652v0zM752.417 342.817c0-56.481-38.45-100.174-91.27-100.174-27.318 0-55.972 18.851-77.006 43.391-1.065 0.972-1.065 0.972-1.065 0.972 6.467-6.467 18.336-6.467 24.803 0l-2.226-2.226c-19.874-23.287-48.527-42.137-75.845-42.137-54.185 0-95.722 45.072-95.722 100.174 0 13.301 3.301 25.954 8.727 37.711 3.224 6.985 6.534 12.318 9.082 15.715 8.108 10.81 19.815 24.584 28.781 33.55l82.365 82.365 15.741-15.741-17.809 13.357c15.285 20.379 44.493 20.379 62.489 2.384l82.365-82.365c7.456-7.456 21.494-23.834 28.781-33.55 2.547-3.396 5.858-8.73 9.082-15.715 5.426-11.757 8.727-24.41 8.727-37.711v0z"></path>
		</symbol>
		<symbol id="icon-untitled82" viewBox="0 0 512 1024">
			<title>untitled82</title>
			<path class="path1" d="M439.138 797.538c0 101.37-81.768 183.138-183.138 183.138h-33.477c-101.37 0-183.138-81.768-183.138-183.138v-395.815c0-101.37 81.768-183.138 183.138-183.138h33.477c101.37 0 183.138 81.768 183.138 183.138v395.815zM478.523 797.538v-395.815c0-123.122-99.401-222.523-222.523-222.523h-33.477c-123.122 0-222.523 99.401-222.523 222.523v395.815c0 123.122 99.401 222.523 222.523 222.523h33.477c123.122 0 222.523-99.401 222.523-222.523v0z"></path>
			<path class="path2" d="M23.631 504.123h431.262v-39.385h-431.262v39.385z"></path>
			<path class="path3" d="M259.938 478.523v-350.523l-0.158-2.486c-0.035-0.277-0.119-1.105-0.212-2.412-0.943-13.229 0.223-28.765 5.004-42.977 8.797-26.154 27.228-40.74 62.32-40.74h169.354v-39.385h-169.354c-52.785 0-85.677 26.030-99.649 67.568-6.708 19.943-8.241 40.358-6.959 58.335 0.147 2.055 0.303 3.604 0.427 4.583l-0.158-2.486v350.523h39.385z"></path>
			<path class="path4" d="M256 376.123c0 9.666-7.769 17.723-17.723 17.723-9.666 0-17.723-7.769-17.723-17.723v-64.985c0-9.666 7.769-17.723 17.723-17.723 9.666 0 17.723 7.769 17.723 17.723v64.985zM295.385 376.123v-64.985c0-32.033-26.004-57.108-57.108-57.108-32.033 0-57.108 26.004-57.108 57.108v64.985c0 32.033 26.004 57.108 57.108 57.108 32.033 0 57.108-26.004 57.108-57.108v0z"></path>
		</symbol>
		<symbol id="icon-untitled10" viewBox="0 0 657 1024">
			<title>untitled10</title>
			<path class="path1" d="M330.385 540.981v-270.491c-0.005-0.415-0.005-0.415-0.006-0.519-0.112-8.621 1.089-20.864 4.681-32.359 5.292-16.935 13.339-25.084 26.238-25.084l1.988-0.103c-0.341 0.032-0.341 0.032-0.345 0.032 3.921-0.216 9.641 0.851 15.009 4.29 11.479 7.353 18.844 23.814 18.13 55.236l-0.005 268.997h38.642v-268.558c0.996-43.601-12.153-72.987-35.924-88.214-13.184-8.445-26.653-10.959-37.977-10.335-0.964 0.062-0.964 0.062-1.506 0.115l1.988-0.103c-32.746 0-53.318 20.833-63.121 52.199-5.034 16.108-6.597 32.045-6.437 44.385 0.005 0.343 0.005 0.343 0.009 0.502l-0.006 270.008h38.642z"></path>
			<path class="path2" d="M436.649 540.981v-69.555c-0.005-0.415-0.005-0.415-0.006-0.519-0.112-8.621 1.089-20.864 4.681-32.359 5.292-16.935 13.339-25.084 26.238-25.084l2.64-0.181c-0.405 0.051-0.405 0.051-0.292 0.039 3.987-0.298 9.456 0.633 14.516 3.782 11.282 7.022 18.635 23.58 17.918 55.824l-0.005 68.052h38.642v-67.623c0.994-44.504-12.167-74.14-36.136-89.059-13.007-8.096-26.35-10.367-37.814-9.511-1.385 0.121-1.385 0.121-2.109 0.216l2.64-0.181c-32.746 0-53.318 20.833-63.121 52.199-5.034 16.108-6.597 32.045-6.437 44.385 0.005 0.343 0.005 0.343 0.009 0.502l-0.006 69.072h38.642z"></path>
			<path class="path3" d="M542.913 540.981v-30.913c-0.005-0.415-0.005-0.415-0.006-0.519-0.112-8.621 1.089-20.864 4.681-32.359 5.292-16.935 13.339-25.084 26.238-25.084l2.134-0.118c-0.381 0.039-0.381 0.039-0.454 0.043 3.54-0.209 8.876 0.921 14.095 4.684 10.816 7.8 18.304 24.774 19.007 55.724l-0.005 212.089c0.032 1.101 0.032 1.101 0.077 2.545 0.312 11.767-0.29 27.896-2.572 46.762-3.45 28.52-10.068 56.645-20.536 82.743-30.736 76.626-88.345 123.034-182.554 126.864l-2.792 0.318c-0.31 0.058-1.382 0.216-3.157 0.396-14.125 1.433-32.435 0.385-53.345-5.126-30.991-8.168-61.631-24.794-90.6-52.065-22.641-21.314-43.565-48.559-62.349-82.371l-121.443-235.195c-0.959-1.697-1.959-3.524-3.295-6.155-2.28-4.49-4.57-9.453-6.7-14.709-4.347-10.722-7.421-21.162-8.688-30.516-2.216-16.369 1.061-25.939 10.43-30.81l2.418-1.493c0.207-0.15 1.481-0.887 3.579-1.752 18.022-7.431 37.932-1.678 60.98 33.365 4.425 6.729 8.775 14.407 13.027 23.074l86.901 173.803v-481.784c-0.005-0.415-0.005-0.415-0.006-0.519-0.112-8.621 1.089-20.864 4.681-32.359 5.292-16.935 13.339-25.084 26.238-25.084l2.134-0.118c-0.381 0.039-0.381 0.039-0.454 0.043 3.54-0.209 8.876 0.921 14.095 4.684 10.816 7.8 18.304 24.774 19.007 55.724l-0.005 266.187h38.642v-266.626c-0.965-42.667-13.506-71.096-35.041-86.627-13.4-9.664-27.303-12.606-38.975-11.917-0.967 0.067-0.967 0.067-1.536 0.126l2.134-0.118c-32.746 0-53.318 20.833-63.121 52.199-5.034 16.108-6.597 32.045-6.437 44.385 0.005 0.343 0.005 0.343 0.009 0.502l-0.006 399.457 36.602-8.641-50.234-100.468c-4.881-9.952-10.027-19.036-15.369-27.158-33.384-50.76-73.114-62.239-107.996-47.855-5.114 2.109-8.982 4.346-11.512 6.178l2.418-1.493c-26.253 13.651-35.074 39.41-30.895 70.278 1.754 12.957 5.703 26.366 11.169 39.849 4.407 10.871 8.829 19.577 11.936 24.921l121.257 234.867c20.957 37.74 44.315 68.157 69.919 92.259 59.677 56.178 122.561 72.751 174.331 67.499 2.89-0.293 5.046-0.609 6.411-0.866l-2.792 0.318c110.456-4.49 180.764-61.128 216.848-151.088 11.83-29.493 19.205-60.835 23.034-92.488 2.526-20.883 3.198-38.873 2.838-52.427-0.060-1.92-0.060-1.92-0.088-2.493l0.024-211.557c-0.965-42.667-13.506-71.096-35.041-86.627-13.4-9.664-27.303-12.606-38.975-11.917-0.967 0.067-0.967 0.067-1.536 0.126l2.134-0.118c-32.746 0-53.318 20.833-63.121 52.199-5.034 16.108-6.597 32.045-6.437 44.385 0.005 0.343 0.005 0.343 0.009 0.502l-0.006 30.43h38.642z"></path>
			<path class="path4" d="M148.77 285.947c0-91.033 73.728-164.226 164.226-164.226 91.033 0 164.226 73.728 164.226 164.226h38.642c0-111.777-90.431-202.868-202.868-202.868-111.777 0-202.868 90.431-202.868 202.868h38.642z"></path>
			<path class="path5" d="M75.351 289.811v-5.796c0-130.371 107.274-237.645 237.645-237.645s237.645 107.274 237.645 237.645h38.642c0-151.712-124.575-276.287-276.287-276.287s-276.287 124.575-276.287 276.287v5.796h38.642z"></path>
		</symbol>
		<symbol id="icon-untitled11" viewBox="0 0 683 1024">
			<title>untitled11</title>
			<path class="path1" d="M457.788 518.024v-72.282c-0.005-0.431-0.005-0.431-0.006-0.54-0.116-8.959 1.132-21.683 4.865-33.628 5.5-17.599 13.862-26.067 27.267-26.067l2.743-0.188c-0.421 0.053-0.421 0.053-0.304 0.041 4.143-0.31 9.827 0.658 15.085 3.931 11.725 7.298 19.366 24.505 18.621 58.014l-0.005 70.721h40.157v-70.275c1.033-46.249-12.645-77.048-37.553-92.552-13.517-8.414-27.383-10.774-39.297-9.884-1.439 0.126-1.439 0.126-2.192 0.224l2.743-0.188c-34.030 0-55.409 21.65-65.596 54.246-5.231 16.74-6.856 33.301-6.69 46.126 0.005 0.356 0.005 0.356 0.009 0.522l-0.006 71.781h40.157z"></path>
			<path class="path2" d="M351.373 518.024v-72.282c-0.005-0.431-0.005-0.431-0.006-0.54-0.116-8.959 1.132-21.683 4.865-33.628 5.5-17.599 13.862-26.067 27.267-26.067l2.743-0.188c-0.421 0.053-0.421 0.053-0.304 0.041 4.143-0.31 9.827 0.658 15.085 3.931 11.725 7.298 19.366 24.505 18.621 58.014l-0.005 70.721h40.157v-70.275c1.033-46.249-12.645-77.048-37.553-92.552-13.517-8.414-27.383-10.774-39.297-9.884-1.439 0.126-1.439 0.126-2.192 0.224l2.743-0.188c-34.030 0-55.409 21.65-65.596 54.246-5.231 16.74-6.856 33.301-6.69 46.126 0.005 0.356 0.005 0.356 0.009 0.522l-0.006 71.781h40.157z"></path>
			<path class="path3" d="M568.22 518.024v-32.125c-0.005-0.431-0.005-0.431-0.006-0.54-0.116-8.959 1.132-21.683 4.865-33.628 5.5-17.599 13.862-26.067 27.267-26.067l2.217-0.123c-0.396 0.040-0.396 0.040-0.472 0.045 3.679-0.217 9.224 0.957 14.648 4.868 11.24 8.106 19.021 25.746 19.752 57.909l-0.005 220.407c0.033 1.144 0.033 1.144 0.080 2.645 0.324 12.229-0.301 28.99-2.673 48.596-3.585 29.638-10.463 58.867-21.342 85.988-31.941 79.631-91.809 127.859-189.713 131.839l-2.902 0.331c-0.322 0.061-1.437 0.224-3.28 0.411-14.679 1.489-33.707 0.4-55.437-5.327-32.207-8.488-64.048-25.767-94.153-54.106-23.529-22.15-45.273-50.463-64.794-85.601l-124.138-244.302c-1.056-1.88-2.095-3.779-3.484-6.512-2.37-4.666-4.749-9.824-6.963-15.286-4.517-11.143-7.712-21.992-9.028-31.713-2.303-17.011 1.103-26.956 10.839-32.019l2.513-1.552c0.215-0.156 1.539-0.922 3.72-1.821 18.728-7.723 39.42-1.744 63.372 34.674 4.599 6.993 9.119 14.972 13.537 23.979l90.309 180.618v-500.677c-0.005-0.431-0.005-0.431-0.006-0.54-0.116-8.959 1.132-21.683 4.865-33.628 5.5-17.599 13.862-26.067 27.267-26.067l2.217-0.123c-0.396 0.040-0.396 0.040-0.472 0.045 3.679-0.217 9.224 0.957 14.648 4.868 11.24 8.106 19.021 25.746 19.752 57.909l-0.005 276.626h40.157v-277.082c-1.003-44.341-14.035-73.884-36.415-90.024-13.925-10.043-28.374-13.101-40.504-12.385-1.005 0.069-1.005 0.069-1.597 0.131l2.217-0.123c-34.030 0-55.409 21.65-65.596 54.246-5.231 16.74-6.856 33.301-6.69 46.126 0.005 0.356 0.005 0.356 0.009 0.522l-0.006 415.122 38.037-8.979-52.204-104.408c-5.073-10.342-10.42-19.782-15.971-28.223-34.693-52.75-75.981-64.68-112.231-49.732-5.314 2.191-9.334 4.516-11.964 6.421l2.513-1.552c-27.282 14.187-36.449 40.955-32.106 73.034 1.823 13.465 5.926 27.4 11.607 41.412 4.58 11.298 9.175 20.345 12.404 25.899l123.945 243.962c21.838 39.336 46.113 70.946 72.721 95.993 62.017 58.381 127.368 75.604 181.168 70.146 3.003-0.305 5.244-0.633 6.662-0.9l-2.902 0.331c114.788-4.666 187.853-63.526 225.352-157.013 12.294-30.65 19.959-63.22 23.938-96.115 2.625-21.702 3.323-40.398 2.95-54.483-0.063-1.996-0.063-1.996-0.092-2.591l0.025-219.853c-1.003-44.341-14.035-73.884-36.415-90.024-13.925-10.043-28.374-13.101-40.504-12.385-1.005 0.069-1.005 0.069-1.597 0.131l2.217-0.123c-34.030 0-55.409 21.65-65.596 54.246-5.231 16.74-6.856 33.301-6.69 46.126 0.005 0.356 0.005 0.356 0.009 0.522l-0.006 31.624h40.157z"></path>
			<path class="path4" d="M295.153 68.267v-62.243h-40.157v62.243h40.157z"></path>
			<path class="path5" d="M174.825 98.242l-44.173-44.173-28.395 28.395 44.173 44.173 28.395-28.395z"></path>
			<path class="path6" d="M409.424 126.949l46.18-44.173-27.757-29.019-46.18 44.173 27.757 29.019z"></path>
		</symbol>
		<symbol id="icon-untitled12" viewBox="0 0 1024 1024">
			<title>untitled12</title>
			<path class="path1" d="M119.83 130.723h793.055l-21.787-21.787v793.055l21.787-21.787h-793.055l21.787 21.787v-793.055l-21.787 21.787zM119.83 87.149h-21.787v836.63h836.63v-836.63h-814.843z"></path>
			<path class="path2" d="M246.196 274.519v470.604h43.574v-470.604h-43.574z"></path>
			<path class="path3" d="M272.34 296.306h111.115c65.968 5.573 115.472 53.427 115.472 111.115 0 57.157-51.115 105.495-119.46 111.19l-109.306-0.075v43.574h111.115c91.541-7.553 161.226-73.45 161.226-154.689 0-81.532-67.9-147.169-157.237-154.614l-112.924-0.075v43.574z"></path>
			<path class="path4" d="M753.838 446.638h-93.685l-2.281 0.12c-52.713 5.549-95.762 45.221-95.762 93.565 0 49.161 42.053 90.374 95.875 95.756l34.849 0.108-2.281-0.12c32.067 3.375 56.749 26.122 56.749 50.23 0 25.625-23.884 48.554-55.556 50.138l-99.133-0.027v43.574h100.221c55.129-2.729 98.043-43.927 98.043-93.685 0-48.344-43.049-88.017-95.762-93.565l-2.281-0.12h-32.681c-30.417-3.15-54.468-26.721-54.468-52.289 0-24.109 24.682-46.855 56.749-50.23l-2.281 0.12h93.685v-43.574z"></path>
			<path class="path5" d="M34.86 45.753h962.996l-21.787-21.787v962.996l21.787-21.787h-962.996l21.787 21.787v-962.996l-21.787 21.787zM34.86 2.179h-21.787v1006.57h1006.57v-1006.57h-984.783z"></path>
		</symbol>
		<symbol id="icon-untitled13" viewBox="0 0 1292 1024">
			<title>untitled13</title>
			<path class="path1" d="M459.248 64.582c-10.921-29.122-39.532-47.515-71.591-47.515s-60.67 18.393-71.591 47.515l-312.114 843.682c-15.073 37.66 7.607 79.439 48.147 90.495 38.687 10.551 80.453-7.655 94.881-43.724l85.545-229.728-22.849-8.507v24.381c-1.289 0-2.034-0.172-1.615-0.032 5.066 1.689 8.453 2.47 13.805 2.47h346.21l-22.849-15.874 85.333 229.181c10.941 29.176 39.552 47.569 71.61 47.569 9.706 0 15.71-0.667 24.777-3.689 39.244-10.664 61.925-52.444 46.622-90.699l-314.323-845.525zM413.566 81.639l314.514 846.019c4.389 10.992-2.077 22.902-15.257 26.497-4.419 1.433-5.73 1.579-10.652 1.579-12.369 0-22.398-6.447-25.933-15.875l-91.224-245.001h-363.148c1.289 0 2.034 0.172 1.615 0.032-5.066-1.689-8.453-2.47-13.805-2.47h-16.938l-91.244 245.054c-4.593 11.464-20.82 18.537-36.565 14.243-13.181-3.595-19.646-15.505-15.473-25.938l312.305-844.177c3.498-9.327 13.526-15.774 25.896-15.774s22.398 6.447 25.933 15.875l-0.024-0.065zM266.702 634.98l143.848-392.533h-45.784l143.848 392.533 22.892-32.77h-287.695l22.892 32.77zM220.917 618.201l-12.009 32.77h357.497l-178.749-487.772-166.74 455.002z"></path>
			<path class="path2" d="M1102.019 358.4c-63.671 0-112.336 22.461-159.456 61.727-32.849 25.532-36.415 71.891-6.508 101.798 28.266 28.266 73.774 31.441 105.351 6.881 22.536-16.897 56.261-25.328 73.111-20.273 21.424 5.383 25.469 25.193 22.301 104.661-0.305 7.643-0.484 12.383-0.653 17.46l23.564-23.555c-223.984 7.384-328.819 75.726-325.896 210.193 2.686 134.292 92.482 206.708 246.242 206.708h143.848l4.781-0.473c36.042-7.208 61.047-34.297 61.047-70.231v-358.4c-0.067-2.436-0.067-2.436-0.121-4.098-1.319-41.226-2.585-59.382-7.32-84.544-17.397-92.438-72.656-147.853-180.293-147.853v0zM1102.019 407.162c82.034 0 119.003 37.073 132.372 108.11 4.113 21.855 5.266 38.39 6.504 77.085 0.054 1.685 0.054 1.685 0.109 3.351l-0.014 357.588c0 11.406-7.518 19.55-21.848 22.416l4.781 23.907v-24.381h-143.848c-129.059 0-195.381-53.485-197.491-158.964-2.207-101.504 78.050-153.823 278.751-160.44l22.804-0.752 0.76-22.804c0.165-4.945 0.341-9.598 0.642-17.143 2.035-51.064 1.921-68.947-2.504-90.616-6.746-33.036-24.524-55.223-55.602-62.992-31.927-9.606-81.208 2.715-115.628 28.529-12.381 9.625-30.287 8.376-41.274-2.611-8.928-8.928-7.992-21.102 2.605-29.343 39.778-33.131 78.366-50.94 128.879-50.94v0zM989.473 806.495c4.744-26.094 23.723-37.312 69.763-45.34 5.163-0.9 5.029-0.879 19.766-3.206l-3.803-24.083v24.381c2.374 0 6.367-0.264 14.835-0.91 3.635-0.278 19.865-1.553 23.698-1.849 2.844-0.219 2.844-0.219 5.699-0.436 12.495-0.946 21.944-1.584 28.875-1.924 3.773-0.185 6.62-0.269 8.299-0.253 0.316 0.003 0.386 0.007-0.145-0.062-1.156-0.135-1.156-0.135-4.567-1.141-6.895-1.758-6.895-1.758-15.743-22.682v168.229c4.883-16.343 4.883-16.343 11.595-20.536 3.946-1.937 3.946-1.937 5.501-2.32 0.737-0.187 0.698-0.182 0.322-0.15-2.22 0.184-6.032 0.282-11.047 0.264-9.854-0.034-23.709-0.501-39.579-1.302-28.367-1.433-59.956-3.848-64.41-4.739-30.592-7.676-51.971-33.637-48.801-63.75l-24.247-2.552h-24.381v1.084c48.762-0.135 48.762-0.135 48.762-0.542v-0.542h-24.381l23.988 4.361zM941.498 797.772l-0.393 4.361v1.084c48.762-0.135 48.762-0.135 48.762-1.084l-48.628-2.552c-5.9 56.049 32.72 102.945 86.6 116.415 8.989 1.826 41.244 4.292 72.645 5.878 16.567 0.837 31.118 1.327 41.869 1.364 6.299 0.022 11.347-0.107 15.248-0.431 2.832-0.235 5.242-0.572 7.638-1.18 2.719-0.715 2.719-0.715 7.422-3.028 7.258-4.592 7.258-4.592 12.253-21.38v-168.229c-8.931-21.153-8.931-21.153-16.235-23.1-3.977-1.176-3.977-1.176-6.003-1.441-1.767-0.227-3.521-0.313-5.596-0.334-2.836-0.027-6.511 0.081-11.158 0.309-7.472 0.366-17.273 1.029-30.169 2.005-2.896 0.22-2.896 0.22-5.773 0.442-3.886 0.3-20.089 1.573-23.658 1.846-6.457 0.493-10.631 0.769-11.122 0.769l-3.803 0.298c-15.125 2.388-14.988 2.366-20.537 3.334-64.098 11.177-99.844 32.306-109.362 84.654v0z"></path>
		</symbol>
		<symbol id="icon-untitled14" viewBox="0 0 1664 1024">
			<title>untitled14</title>
			<path class="path1" d="M150.209 902.651l355.2-464-50.904-0.111 374.576 493.76 736.342-762.877-46.049-44.447-710.4 736 48.518 2.883-377.379-497.454-380.725 497.343 50.819 38.903z"></path>
			<path class="path2" d="M124.8 1004.8c67.158 0 121.6-54.442 121.6-121.6s-54.442-121.6-121.6-121.6c-67.158 0-121.6 54.442-121.6 121.6s54.442 121.6 121.6 121.6v0zM124.8 940.8c-31.812 0-57.6-25.788-57.6-57.6s25.788-57.6 57.6-57.6c31.812 0 57.6 25.788 57.6 57.6s-25.788 57.6-57.6 57.6v0z"></path>
			<path class="path3" d="M832 1004.8c67.158 0 121.6-54.442 121.6-121.6s-54.442-121.6-121.6-121.6c-67.158 0-121.6 54.442-121.6 121.6s54.442 121.6 121.6 121.6v0zM832 940.8c-31.812 0-57.6-25.788-57.6-57.6s25.788-57.6 57.6-57.6c31.812 0 57.6 25.788 57.6 57.6s-25.788 57.6-57.6 57.6v0z"></path>
			<path class="path4" d="M1542.4 268.8c67.158 0 121.6-54.442 121.6-121.6s-54.442-121.6-121.6-121.6c-67.158 0-121.6 54.442-121.6 121.6s54.442 121.6 121.6 121.6v0zM1542.4 204.8c-31.812 0-57.6-25.788-57.6-57.6s25.788-57.6 57.6-57.6c31.812 0 57.6 25.788 57.6 57.6s-25.788 57.6-57.6 57.6v0z"></path>
			<path class="path5" d="M480 540.8c67.158 0 121.6-54.442 121.6-121.6s-54.442-121.6-121.6-121.6c-67.158 0-121.6 54.442-121.6 121.6s54.442 121.6 121.6 121.6v0zM480 476.8c-31.812 0-57.6-25.788-57.6-57.6s25.788-57.6 57.6-57.6c31.812 0 57.6 25.788 57.6 57.6s-25.788 57.6-57.6 57.6v0z"></path>
		</symbol>
		<symbol id="icon-untitled16" viewBox="0 0 1109 1024">
			<title>untitled16</title>
			<path class="path1" d="M403.2 827.733h68.267v-42.667h-68.267v42.667z"></path>
			<path class="path2" d="M371.352 699.885l46.933-46.933-30.17-30.17-46.933 46.933 30.17 30.17z"></path>
			<path class="path3" d="M341.182 949.485l46.933 46.933 30.17-30.17-46.933-46.933-30.17 30.17z"></path>
			<path class="path4" d="M699.733 785.067h-66.133v42.667h66.133v-42.667z"></path>
			<path class="path5" d="M761.752 669.715l-46.933-46.933-30.17 30.17 46.933 46.933 30.17-30.17z"></path>
			<path class="path6" d="M731.582 919.315l-46.933 46.933 30.17 30.17 46.933-46.933-30.17-30.17z"></path>
			<path class="path7" d="M258.133 932.267c0 20.218-16.049 36.267-36.267 36.267s-36.267-16.049-36.267-36.267v-245.333c0-20.218 16.049-36.267 36.267-36.267s36.267 16.049 36.267 36.267v245.333zM300.8 932.267v-245.333c0-43.782-35.151-78.933-78.933-78.933s-78.933 35.151-78.933 78.933v245.333c0 43.782 35.151 78.933 78.933 78.933s78.933-35.151 78.933-78.933v0z"></path>
			<path class="path8" d="M162.133 930.133c-66.368 0-119.467-53.658-119.467-119.467 0-63.587 49.002-115.893 112.15-119.501l-2.434-42.597c-85.806 4.903-152.383 75.969-152.383 162.099 0 89.273 72.101 162.133 162.133 162.133v-42.667z"></path>
			<path class="path9" d="M802.133 932.267c0 43.782 35.151 78.933 78.933 78.933s78.933-35.151 78.933-78.933v-245.333c0-43.782-35.151-78.933-78.933-78.933s-78.933 35.151-78.933 78.933v245.333zM844.8 932.267v-245.333c0-20.218 16.049-36.267 36.267-36.267s36.267 16.049 36.267 36.267v245.333c0 20.218-16.049 36.267-36.267 36.267s-36.267-16.049-36.267-36.267v0z"></path>
			<path class="path10" d="M940.8 972.8c90.032 0 162.133-72.86 162.133-162.133 0-86.13-66.577-157.195-152.383-162.099l-2.434 42.597c63.148 3.608 112.15 55.914 112.15 119.501 0 65.809-53.099 119.467-119.467 119.467v42.667z"></path>
			<path class="path11" d="M185.6 646.4v-142.933c0-202.307 164.002-366.933 366.933-366.933 202.307 0 366.933 164.002 366.933 366.933v142.933h42.667v-142.933c0-226.532-183.765-409.6-409.6-409.6-226.532 0-409.6 183.765-409.6 409.6v142.933h42.667z"></path>
			<path class="path12" d="M98.133 682.667v-149.333c0-270.742 185.227-479.576 454.095-475.736 270.12 3.887 454.705 208.914 454.705 475.736v149.333h42.667v-149.333c0-289.332-202.413-514.163-496.76-518.398-294.047-4.201-497.374 225.040-497.374 518.398v149.333h42.667z"></path>
			<path class="path13" d="M265.889 129.025l40.533 61.867 35.689-23.382-40.533-61.867-35.689 23.382z"></path>
			<path class="path14" d="M801.074 106.083l-38.4 61.867 36.251 22.501 38.4-61.867-36.251-22.501z"></path>
		</symbol>
		<symbol id="icon-untitled18" viewBox="0 0 1044 1024">
			<title>untitled18</title>
			<path class="path1" d="M161.477 951.138v61.046h39.385v-61.046h-39.385z"></path>
			<path class="path2" d="M54.999 893.891l-43.323 43.323 27.849 27.849 43.323-43.323-27.849-27.849z"></path>
			<path class="path3" d="M285.399 921.74l43.323 43.323 27.849-27.849-43.323-43.323-27.849 27.849z"></path>
			<path class="path4" d="M330.831 691.2c0 79.709-66.014 145.723-145.723 145.723s-145.723-66.014-145.723-145.723l-19.692 19.692h330.831l-19.692-19.692zM370.215 691.2v-19.692h-370.215v19.692c0 101.46 83.647 185.108 185.108 185.108s185.108-83.647 185.108-185.108v0z"></path>
			<path class="path5" d="M37.389 699.838l161.477-330.831-35.226 0.335 169.354 330.831 35.058-17.946-187.302-365.893-178.754 366.228 35.394 17.275z"></path>
			<path class="path6" d="M1002.338 389.908c0 79.709-66.014 145.723-145.723 145.723s-145.723-66.014-145.723-145.723l-19.692 19.692h330.831l-19.692-19.692zM1041.723 389.908v-19.692h-370.215v19.692c0 101.46 83.647 185.108 185.108 185.108s185.108-83.647 185.108-185.108v0z"></path>
			<path class="path7" d="M710.846 398.587l161.477-328.862-35.226 0.253 167.385 328.862 35.1-17.865-185.251-363.963-178.837 364.217 35.353 17.359z"></path>
			<path class="path8" d="M191.146 376.391l663.631-295.385-16.015-35.981-663.631 295.385 16.015 35.981z"></path>
			<path class="path9" d="M510.031 281.6c39.153 0 70.892-31.74 70.892-70.892s-31.74-70.892-70.892-70.892c-39.153 0-70.892 31.74-70.892 70.892s31.74 70.892 70.892 70.892v0zM510.031 242.215c-17.401 0-31.508-14.106-31.508-31.508s14.106-31.508 31.508-31.508c17.401 0 31.508 14.106 31.508 31.508s-14.106 31.508-31.508 31.508v0z"></path>
			<path class="path10" d="M760.123 661.662v191.015h39.385v-191.015h-39.385z"></path>
			<path class="path11" d="M781.785 681.354h39.385c15.928 1.188 29.538 14.42 29.538 27.569 0 14.294-12.732 26.319-30.941 27.619l-37.982-0.050v39.385h39.385c39.209-2.75 68.923-30.814 68.923-66.954 0-34.714-30.38-64.251-67.52-66.904l-40.788-0.050v39.385z"></path>
			<path class="path12" d="M781.785 777.846h39.385c15.928 1.188 29.538 14.42 29.538 27.569 0 14.294-12.732 26.319-30.941 27.619l-37.982-0.050v39.385h39.385c39.209-2.75 68.923-30.814 68.923-66.954 0-34.714-30.38-64.251-67.52-66.904l-40.788-0.050v39.385z"></path>
			<path class="path13" d="M471.585 858.963l63.015-187.077-37.203 0.349 66.954 187.077 37.081-13.271-86.058-240.457-81.114 240.806 37.324 12.572z"></path>
			<path class="path14" d="M476.554 819.2h86.646v-39.385h-86.646v39.385z"></path>
			<path class="path15" d="M698.259 658.964l-66.954 187.077 37.081 13.271 66.954-187.077-37.081-13.271z"></path>
		</symbol>
		<symbol id="icon-untitled20" viewBox="0 0 1254 1024">
			<title>untitled20</title>
			<path class="path1" d="M1154.753 229.051l-248.686 160.914 11.353-3.353h-557.976l10.897 3.066-359.295-219.569 645.939 841.167 587.462-840.264-89.695 58.038zM1177.459 264.141l-28.48-29.52-509.91 729.339 33.702-0.754-560.065-729.339-27.472 30.56 268.332 163.98h570.027l253.867-164.267z"></path>
			<path class="path2" d="M456.72 214.531l-121.369 191.983 302.32 579.092 37.051-19.343-296.751-568.424-0.861 20.838 114.939-181.812-35.328-22.334z"></path>
			<path class="path3" d="M674.93 958.027l275.192-556.785-137.027-187.86-33.767 24.63 129.567 177.633-1.851-21.575-269.584 545.437 37.469 18.519z"></path>
			<path class="path4" d="M109.619 262.558l148.376-125.388-21.847 3.192 233.875 102.054h331.033l209.149-102.44-21.832-2.125 165.094 125.388 25.279-33.284-175.355-133.181-216.371 105.978 9.192-2.13h-321.829l8.358 1.744-241.794-105.51-158.306 133.78 26.978 31.923z"></path>
			<path class="path5" d="M260.404 138.609l221.518-85.682-7.539 1.407h321.829l-8.281-1.711 198.531 85.682 16.562-38.375-202.494-87.392h-330.046l-225.156 87.089 15.078 38.982z"></path>
		</symbol>
		<symbol id="icon-untitled21" viewBox="0 0 807 1024">
			<title>untitled21</title>
			<path class="path1" d="M426.534 414.7l-72.862 200.862 37.024 13.43 72.862-200.862-37.024-13.43z"></path>
			<path class="path2" d="M768 250.092v675.446c0 26.54-20.722 47.262-47.262 47.262h-624.246c-26.54 0-47.262-20.722-47.262-47.262v-829.046c0-26.54 20.722-47.262 47.262-47.262h482.462l-14.302-6.156 208.738 220.554-5.39-13.536zM807.385 250.092v-7.841l-219.955-232.405h-490.938c-48.291 0-86.646 38.355-86.646 86.646v829.046c0 48.291 38.355 86.646 86.646 86.646h624.246c48.291 0 86.646-38.355 86.646-86.646v-675.446z"></path>
			<path class="path3" d="M551.385 35.446v242.215h222.523v-39.385h-202.831l19.692 19.692v-222.523h-39.385z"></path>
			<path class="path4" d="M284.899 607.615l-114.215-102.4-0.288 29.577 114.215-98.462-25.716-29.83-131.181 113.087 130.893 117.352 26.291-29.325z"></path>
			<path class="path5" d="M554.684 636.939l130.893-117.352-131.181-113.087-25.716 29.83 114.215 98.462-0.288-29.577-114.215 102.4 26.291 29.325z"></path>
		</symbol>
		<symbol id="icon-untitled222" viewBox="0 0 743 1024">
			<title>untitled222</title>
			<path class="path1" d="M688.69 437.71v230.902c0.070 1.735 0.122 2.773 0.177 4.366 0.505 14.66-0.048 33.865-2.496 55.883-3.621 32.564-10.77 64.598-22.203 94.362-34.353 89.43-100.372 143.788-209.272 148.593-0.788 0.053-1.309 0.087-2.011 0.119-4.682 0.212-11.033 0.125-18.793-0.498-11.366-0.913-23.638-2.837-36.56-6.005-35.078-8.6-69.832-24.974-102.415-51.046-32.938-26.354-62.185-61.542-86.723-106.769l-138.311-270.622c-0.807-1.477-1.786-3.355-3.098-6.077-2.244-4.657-4.499-9.834-6.6-15.35-4.824-12.669-8.054-25.076-8.991-36.179-1.533-18.152 2.935-29.708 14.577-36.175l2.071-1.15 1.746-1.601c-0.145 0.133 0.613-0.406 2.099-1.134 6.211-3.044 13.928-3.547 24.158 0.732 17.456 7.302 37.608 26.92 59.551 62.418l131.728 211.459-106.937-593.015c-0.29-1.365-0.529-2.654-0.793-4.604-1.266-9.352-1.082-19.533 1.405-28.503 3.875-13.978 12.449-22.614 29.624-25.939 1.223-0.276 1.546-0.345 2.249-0.451 6.968-1.055 15.065-0.137 22.462 4.153 12.051 6.988 21.419 22.28 25.946 50.087l87.349 439.375 92.651-432.37c0.446-2.342 1.325-6.045 2.818-10.956 2.51-8.257 5.782-16.497 9.83-24.035 12.739-23.727 28.541-33.868 51.065-28.076l2.058 0.416c0.721 0.107 3.714 1.363 7.16 4.682 12.127 11.678 17.016 37.098 6.335 83.381l-60.285 275.294 39.227 8.59 60.235-275.075c13.538-58.661 5.888-98.441-17.659-121.116-10.163-9.786-20.778-14.242-29.13-15.479l2.058 0.416c-43.42-11.165-75.878 9.665-96.445 47.972-9.257 17.242-14.4 34.159-16.635 46.079l-72.181 336.811 39.326 0.291-68.267-343.341c-6.224-38.309-22.1-64.223-45.312-77.684-16.375-9.495-33.386-11.426-48.621-9.118-2.221 0.337-3.981 0.711-5.223 1.042-31.484 6.045-51.552 26.259-59.333 54.324-4.158 14.997-4.435 30.333-2.502 44.617 0.434 3.207 0.893 5.673 1.254 7.255l88.159 489.003 36.802-14.18-76.298-122.478c-47.72-77.194-96.005-97.393-135.503-78.035-5.19 2.543-9.037 5.277-11.562 7.591l3.817-2.751c-27.391 15.217-37.829 42.212-35.089 74.658 1.294 15.324 5.426 31.198 11.478 47.091 4.347 11.416 8.717 20.485 11.795 26.025l138.214 270.446c27.303 50.337 60.008 89.684 97.161 119.411 37.34 29.877 77.404 48.754 117.942 58.692 26.712 6.549 49.631 8.39 66.729 7.617 1.257-0.057 2.072-0.111 2.811-0.172 125.134-5.503 204.388-70.758 244.145-174.256 12.768-33.24 20.651-68.561 24.628-104.323 2.679-24.090 3.286-45.207 2.719-61.703-0.069-2.002-0.141-3.441-0.195-4.278l0.042-229.609h-40.157z"></path>
			<path class="path2" d="M572.235 622.431c0 19.841-15.903 36.141-36.141 36.141-19.841 0-36.141-15.903-36.141-36.141v-182.714c0-19.841 15.903-36.141 36.141-36.141 19.841 0 36.141 15.903 36.141 36.141v182.714zM612.392 622.431v-182.714c0-42.641-34.498-76.298-76.298-76.298-42.641 0-76.298 34.498-76.298 76.298v182.714c0 42.641 34.498 76.298 76.298 76.298 42.641 0 76.298-34.498 76.298-76.298v0z"></path>
			<path class="path3" d="M686.682 622.431c0 19.841-15.903 36.141-36.141 36.141-19.841 0-36.141-15.903-36.141-36.141v-182.714c0-19.841 15.903-36.141 36.141-36.141 19.841 0 36.141 15.903 36.141 36.141v182.714zM726.839 622.431v-182.714c0-42.641-34.498-76.298-76.298-76.298-42.641 0-76.298 34.498-76.298 76.298v182.714c0 42.641 34.498 76.298 76.298 76.298 42.641 0 76.298-34.498 76.298-76.298v0z"></path>
			<path class="path4" d="M250.514 632.465c4.287 0.1 12.578 0.926 23.48 3.123 18.32 3.692 36.618 9.99 53.538 19.434 47.735 26.643 76.044 72.728 76.044 146.107h40.157c0-88.252-36.444-147.579-96.63-181.172-20.852-11.639-43.025-19.27-65.175-23.735-13.381-2.697-23.975-3.753-30.481-3.904l-0.934 40.146z"></path>
		</symbol>
		<symbol id="icon-untitled23" viewBox="0 0 1043 1024">
			<title>untitled23</title>
			<path class="path1" d="M517.055 916.687c9.763 26.5-4.161 56.090-31.055 65.999-26.5 9.763-56.090-4.161-65.999-31.055l-256.96-699.395c-9.769-26.517 4.155-56.107 31.049-66.015 26.5-9.763 56.090 4.161 65.999 31.055l256.966 699.411zM553.32 903.345l-256.966-699.411c-17.248-46.816-68.975-71.158-115.622-53.972-46.8 17.242-71.142 68.969-53.956 115.616l256.96 699.395c17.248 46.816 68.975 71.158 115.622 53.972 46.8-17.242 71.142-68.969 53.956-115.616l0.006 0.016z"></path>
			<path class="path2" d="M884.15 781.442c9.763 26.5-4.161 56.090-31.055 65.999-26.5 9.763-56.090-4.161-65.999-31.055l-258.908-699.439c-9.753-26.473 4.172-56.063 31.066-65.971 26.5-9.763 56.090 4.161 65.999 31.055l258.898 699.411zM920.398 768.055l-258.898-699.411c-17.232-46.772-68.959-71.114-115.606-53.928-46.8 17.242-71.142 68.969-53.956 115.616l258.908 699.439c17.232 46.772 68.959 71.114 115.606 53.928 46.8-17.242 71.142-68.969 53.956-115.616l-0.010-0.028z"></path>
			<path class="path3" d="M122.77 511.259c-26.5 9.763-56.090-4.161-65.999-31.055-9.763-26.5 4.161-56.090 31.055-65.999l699.439-258.908c26.473-9.753 56.063 4.172 65.971 31.066 9.763 26.5-4.161 56.090-31.055 65.999l-699.411 258.898zM136.156 547.508l699.411-258.898c46.772-17.232 71.114-68.959 53.928-115.606-17.242-46.8-68.969-71.142-115.616-53.956l-699.439 258.908c-46.772 17.232-71.114 68.959-53.928 115.606 17.242 46.8 68.969 71.142 115.616 53.956l0.028-0.010z"></path>
			<path class="path4" d="M258.015 876.421c-26.5 9.763-56.090-4.161-65.999-31.055-9.763-26.5 4.161-56.090 31.055-65.999l701.355-258.902c26.489-9.759 56.079 4.166 65.987 31.060 9.763 26.5-4.161 56.090-31.055 65.999l-701.343 258.898zM271.385 912.676l701.343-258.898c46.788-17.238 71.13-68.965 53.944-115.612-17.242-46.8-68.969-71.142-115.616-53.956l-701.355 258.902c-46.788 17.238-71.13 68.965-53.944 115.612 17.242 46.8 68.969 71.142 115.616 53.956l0.012-0.004z"></path>
		</symbol>
		<symbol id="icon-untitled24" viewBox="0 0 1043 1024">
			<title>untitled24</title>
			<path class="path1" d="M170.667 627.674v179.837l354.661 200.373 350.762-200.435v-179.775h-37.926v168.77l9.555-16.464-331.852 189.63 18.736-0.046-335.644-189.63 9.635 16.51v-168.77h-37.926z"></path>
			<path class="path2" d="M506.311 559.407v396.326h37.926v-396.326h-37.926z"></path>
			<path class="path3" d="M223.138 393.408l302.136 190.307 327.18-206.081-329.144-214.474-325.053 214.577 24.881 15.671zM243.351 361.318l0.341 31.871 290.133-191.526-20.8 0.062 293.926 191.526 0.246-31.933-292.030 183.941h20.213l-292.030-183.941z"></path>
			<path class="path4" d="M221.743 362.286l-205.066 156.442 317.809 211.873 202.285-154.217-22.994-30.161-191.526 146.015 22.016-0.698-284.444-189.63 0.983 30.855 183.941-140.326-23.003-30.153z"></path>
			<path class="path5" d="M805.727 392.382l182.044 140.326 1.010-30.764-282.548 189.63 22.064 0.665-191.526-146.015-22.994 30.161 202.32 154.244 315.693-211.874-202.909-156.409-23.154 30.038z"></path>
			<path class="path6" d="M828.881 382.9l202.909-156.409-315.693-211.874-202.32 154.244 22.994 30.161 191.526-146.015-22.064 0.665 282.548 189.63-1.010-30.764-182.044 140.326 23.154 30.038z"></path>
			<path class="path7" d="M240.954 352.805l-183.941-140.326-0.934 30.822 282.548-189.63-22.064-0.665 191.526 146.015 22.994-30.161-202.32-154.244-315.809 211.952 204.997 156.389 23.003-30.153z"></path>
		</symbol>
		<symbol id="icon-untitled25" viewBox="0 0 1024 1024">
			<title>untitled25</title>
			<path class="path1" d="M976.896 514.048c0 258.305-209.245 466.944-466.944 466.944-259.445 0-468.992-208.336-468.992-466.944 0-256.977 209.967-466.944 466.944-466.944 258.721 0 468.992 209.663 468.992 466.944v0zM1017.856 514.048c0-279.929-228.636-507.904-509.952-507.904-279.599 0-507.904 228.305-507.904 507.904 0 281.283 227.939 507.904 509.952 507.904 280.294 0 507.904-226.95 507.904-507.904v0z"></path>
			<path class="path2" d="M507.904 747.52c128.943 0 233.472-104.529 233.472-233.472s-104.529-233.472-233.472-233.472c-128.943 0-233.472 104.529-233.472 233.472s104.529 233.472 233.472 233.472v0zM507.904 706.56c-106.321 0-192.512-86.191-192.512-192.512s86.191-192.512 192.512-192.512c106.321 0 192.512 86.191 192.512 192.512s-86.191 192.512-192.512 192.512v0z"></path>
			<path class="path3" d="M507.904 663.552c82.569 0 149.504-66.935 149.504-149.504s-66.935-149.504-149.504-149.504c-82.569 0-149.504 66.935-149.504 149.504s66.935 149.504 149.504 149.504v0zM507.904 622.592c-59.947 0-108.544-48.597-108.544-108.544s48.597-108.544 108.544-108.544c59.947 0 108.544 48.597 108.544 108.544s-48.597 108.544-108.544 108.544v0z"></path>
			<path class="path4" d="M75.020 275.402l247.808 378.88 34.279-22.42-247.808-378.88-34.279 22.42z"></path>
			<path class="path5" d="M677.645 606.539l-262.144 364.544 33.255 23.913 262.144-364.544-33.255-23.913z"></path>
			<path class="path6" d="M501.76 321.536h436.224v-40.96h-436.224v40.96z"></path>
		</symbol>
		<symbol id="icon-untitled26" viewBox="0 0 768 1024">
			<title>untitled26</title>
			<path class="path1" d="M92.554 98.462h641.969l-19.692-19.692v838.892l19.692-19.692h-641.969l19.692 19.692v-838.892l-19.692 19.692zM92.554 59.077h-19.692v878.277h681.354v-878.277h-661.662z"></path>
			<path class="path2" d="M181.169 11.815v135.877h39.385v-135.877h-39.385z"></path>
			<path class="path3" d="M287.508 11.815v135.877h39.385v-135.877h-39.385z"></path>
			<path class="path4" d="M391.877 11.815v135.877h39.385v-135.877h-39.385z"></path>
			<path class="path5" d="M496.246 11.815v135.877h39.385v-135.877h-39.385z"></path>
			<path class="path6" d="M602.585 11.815v135.877h39.385v-135.877h-39.385z"></path>
			<path class="path7" d="M1.969 124.062v886.154h685.292v-39.385h-665.6l19.692 19.692v-866.462h-39.385z"></path>
			<path class="path8" d="M236.308 315.077h346.585v-39.385h-346.585v39.385z"></path>
			<path class="path9" d="M236.308 464.738h346.585v-39.385h-346.585v39.385z"></path>
			<path class="path10" d="M236.308 614.4h346.585v-39.385h-346.585v39.385z"></path>
			<path class="path11" d="M236.308 766.031h346.585v-39.385h-346.585v39.385z"></path>
		</symbol>
		<symbol id="icon-headphonea-03" viewBox="0 0 1155 1024">
			<title>headphonea-03</title>
			<path class="path1" d="M278.877 943.387c0 20.648-16.39 37.038-37.038 37.038s-37.038-16.39-37.038-37.038v-250.553c0-20.648 16.39-37.038 37.038-37.038s37.038 16.39 37.038 37.038v250.553zM322.451 943.387v-250.553c0-44.714-35.899-80.613-80.613-80.613s-80.613 35.899-80.613 80.613v250.553c0 44.714 35.899 80.613 80.613 80.613s80.613-35.899 80.613-80.613v0z"></path>
			<path class="path2" d="M180.834 941.209c-67.78 0-122.009-54.8-122.009-122.009 0-64.94 50.045-118.359 114.537-122.044l-2.486-43.503c-87.631 5.008-155.625 77.585-155.625 165.547 0 91.173 73.635 165.583 165.583 165.583v-43.574z"></path>
			<path class="path3" d="M836.63 943.387c0 44.714 35.899 80.613 80.613 80.613s80.613-35.899 80.613-80.613v-250.553c0-44.714-35.899-80.613-80.613-80.613s-80.613 35.899-80.613 80.613v250.553zM880.204 943.387v-250.553c0-20.648 16.39-37.038 37.038-37.038s37.038 16.39 37.038 37.038v250.553c0 20.648-16.39 37.038-37.038 37.038s-37.038-16.39-37.038-37.038v0z"></path>
			<path class="path4" d="M976.068 984.783c91.948 0 165.583-74.41 165.583-165.583 0-87.962-67.994-160.54-155.625-165.547l-2.486 43.503c64.491 3.685 114.537 57.104 114.537 122.044 0 67.209-54.229 122.009-122.009 122.009v43.574z"></path>
			<path class="path5" d="M206.979 651.438v-145.974c0-206.612 167.492-374.74 374.74-374.74 208.018 0 374.74 166.722 374.74 374.74v145.974h43.574v-145.974c0-232.084-186.231-418.315-418.315-418.315-231.351 0-418.315 187.674-418.315 418.315v145.974h43.574z"></path>
			<path class="path6" d="M115.472 688.477v-152.511c0-276.502 189.168-489.78 463.757-485.858 276.454 1.989 466.558 211.781 466.558 485.858v152.511h43.574v-152.511c0-297.179-208.492-527.263-509.665-529.429-300.146-4.288-507.799 229.83-507.799 529.429v152.511h43.574z"></path>
			<path class="path7" d="M288.689 122.605l39.217 63.183 37.023-22.98-39.217-63.183-37.023 22.98z"></path>
			<path class="path8" d="M835.548 99.625l-39.217 63.183 37.023 22.98 39.217-63.183-37.023-22.98z"></path>
		</symbol>
		<symbol id="icon-headphoneb-03-03" viewBox="0 0 1155 1024">
			<title>headphoneb-03-03</title>
			<path class="path1" d="M278.877 943.387c0 20.648-16.39 37.038-37.038 37.038s-37.038-16.39-37.038-37.038v-250.553c0-20.648 16.39-37.038 37.038-37.038s37.038 16.39 37.038 37.038v250.553zM322.451 943.387v-250.553c0-44.714-35.899-80.613-80.613-80.613s-80.613 35.899-80.613 80.613v250.553c0 44.714 35.899 80.613 80.613 80.613s80.613-35.899 80.613-80.613v0z"></path>
			<path class="path2" d="M180.834 941.209c-67.78 0-122.009-54.8-122.009-122.009 0-64.94 50.045-118.359 114.537-122.044l-2.486-43.503c-87.631 5.008-155.625 77.585-155.625 165.547 0 91.173 73.635 165.583 165.583 165.583v-43.574z"></path>
			<path class="path3" d="M836.63 943.387c0 44.714 35.899 80.613 80.613 80.613s80.613-35.899 80.613-80.613v-250.553c0-44.714-35.899-80.613-80.613-80.613s-80.613 35.899-80.613 80.613v250.553zM880.204 943.387v-250.553c0-20.648 16.39-37.038 37.038-37.038s37.038 16.39 37.038 37.038v250.553c0 20.648-16.39 37.038-37.038 37.038s-37.038-16.39-37.038-37.038v0z"></path>
			<path class="path4" d="M976.068 984.783c91.948 0 165.583-74.41 165.583-165.583 0-87.962-67.994-160.54-155.625-165.547l-2.486 43.503c64.491 3.685 114.537 57.104 114.537 122.044 0 67.209-54.229 122.009-122.009 122.009v43.574z"></path>
			<path class="path5" d="M206.979 651.438v-145.974c0-206.612 167.492-374.74 374.74-374.74 208.018 0 374.74 166.722 374.74 374.74v145.974h43.574v-145.974c0-232.084-186.231-418.315-418.315-418.315-231.351 0-418.315 187.674-418.315 418.315v145.974h43.574z"></path>
			<path class="path6" d="M115.472 688.477v-152.511c0-276.502 189.168-489.78 463.757-485.858 276.454 1.989 466.558 211.781 466.558 485.858v152.511h43.574v-152.511c0-297.179-208.492-527.263-509.665-529.429-300.146-4.288-507.799 229.83-507.799 529.429v152.511h43.574z"></path>
			<path class="path7" d="M288.689 122.605l39.217 63.183 37.023-22.98-39.217-63.183-37.023 22.98z"></path>
			<path class="path8" d="M835.548 99.625l-39.217 63.183 37.023 22.98 39.217-63.183-37.023-22.98z"></path>
			<path class="path9" d="M427.030 843.166h67.54v-43.574h-67.54v43.574z"></path>
			<path class="path10" d="M391.979 715.115l50.111-47.932-30.12-31.489-50.111 47.932 30.12 31.489z"></path>
			<path class="path11" d="M361.859 970.025l50.111 47.932 30.12-31.489-50.111-47.932-30.12 31.489z"></path>
			<path class="path12" d="M727.694 799.591h-67.54v43.574h67.54v-43.574z"></path>
			<path class="path13" d="M793.21 683.964l-47.932-47.932-30.812 30.812 47.932 47.932 30.812-30.812z"></path>
			<path class="path14" d="M762.398 938.875l-47.932 47.932 30.812 30.812 47.932-47.932-30.812-30.812z"></path>
		</symbol>
		<symbol id="icon-notepada-03-03" viewBox="0 0 768 1024">
			<title>notepada-03-03</title>
			<path class="path1" d="M100.431 100.431h641.969l-19.692-19.692v838.892l19.692-19.692h-641.969l19.692 19.692v-838.892l-19.692 19.692zM100.431 61.046h-19.692v878.277h681.354v-878.277h-661.662z"></path>
			<path class="path2" d="M191.015 13.785v137.846h39.385v-137.846h-39.385z"></path>
			<path class="path3" d="M295.385 13.785v137.846h39.385v-137.846h-39.385z"></path>
			<path class="path4" d="M401.723 13.785v137.846h39.385v-137.846h-39.385z"></path>
			<path class="path5" d="M506.092 13.785v137.846h39.385v-137.846h-39.385z"></path>
			<path class="path6" d="M610.462 13.785v137.846h39.385v-137.846h-39.385z"></path>
			<path class="path7" d="M9.846 128v886.154h687.262v-39.385h-667.569l19.692 19.692v-866.462h-39.385z"></path>
		</symbol>
		<symbol id="icon-notepadb-03-03" viewBox="0 0 768 1024">
			<title>notepadb-03-03</title>
			<path class="path1" d="M100.431 100.431h641.969l-19.692-19.692v838.892l19.692-19.692h-641.969l19.692 19.692v-838.892l-19.692 19.692zM100.431 61.046h-19.692v878.277h681.354v-878.277h-661.662z"></path>
			<path class="path2" d="M191.015 13.785v137.846h39.385v-137.846h-39.385z"></path>
			<path class="path3" d="M295.385 13.785v137.846h39.385v-137.846h-39.385z"></path>
			<path class="path4" d="M401.723 13.785v137.846h39.385v-137.846h-39.385z"></path>
			<path class="path5" d="M506.092 13.785v137.846h39.385v-137.846h-39.385z"></path>
			<path class="path6" d="M610.462 13.785v137.846h39.385v-137.846h-39.385z"></path>
			<path class="path7" d="M9.846 128v886.154h687.262v-39.385h-667.569l19.692 19.692v-866.462h-39.385z"></path>
			<path class="path8" d="M254.031 326.892h344.615v-39.385h-344.615v39.385z"></path>
		</symbol>
		<symbol id="icon-notepadc-03-03-03" viewBox="0 0 768 1024">
			<title>notepadc-03-03-03</title>
			<path class="path1" d="M100.431 100.431h641.969l-19.692-19.692v838.892l19.692-19.692h-641.969l19.692 19.692v-838.892l-19.692 19.692zM100.431 61.046h-19.692v878.277h681.354v-878.277h-661.662z"></path>
			<path class="path2" d="M191.015 13.785v137.846h39.385v-137.846h-39.385z"></path>
			<path class="path3" d="M295.385 13.785v137.846h39.385v-137.846h-39.385z"></path>
			<path class="path4" d="M401.723 13.785v137.846h39.385v-137.846h-39.385z"></path>
			<path class="path5" d="M506.092 13.785v137.846h39.385v-137.846h-39.385z"></path>
			<path class="path6" d="M610.462 13.785v137.846h39.385v-137.846h-39.385z"></path>
			<path class="path7" d="M9.846 128v886.154h687.262v-39.385h-667.569l19.692 19.692v-866.462h-39.385z"></path>
			<path class="path8" d="M254.031 326.892h344.615v-39.385h-344.615v39.385z"></path>
			<path class="path9" d="M254.031 476.554h344.615v-39.385h-344.615v39.385z"></path>
		</symbol>
		<symbol id="icon-notepadd-03-03" viewBox="0 0 768 1024">
			<title>notepadd-03-03</title>
			<path class="path1" d="M100.431 100.431h641.969l-19.692-19.692v838.892l19.692-19.692h-641.969l19.692 19.692v-838.892l-19.692 19.692zM100.431 61.046h-19.692v878.277h681.354v-878.277h-661.662z"></path>
			<path class="path2" d="M191.015 13.785v137.846h39.385v-137.846h-39.385z"></path>
			<path class="path3" d="M295.385 13.785v137.846h39.385v-137.846h-39.385z"></path>
			<path class="path4" d="M401.723 13.785v137.846h39.385v-137.846h-39.385z"></path>
			<path class="path5" d="M506.092 13.785v137.846h39.385v-137.846h-39.385z"></path>
			<path class="path6" d="M610.462 13.785v137.846h39.385v-137.846h-39.385z"></path>
			<path class="path7" d="M9.846 128v886.154h687.262v-39.385h-667.569l19.692 19.692v-866.462h-39.385z"></path>
			<path class="path8" d="M254.031 326.892h344.615v-39.385h-344.615v39.385z"></path>
			<path class="path9" d="M254.031 476.554h344.615v-39.385h-344.615v39.385z"></path>
			<path class="path10" d="M254.031 628.185h344.615v-39.385h-344.615v39.385z"></path>
		</symbol>
		<symbol id="icon-notepade-03" viewBox="0 0 768 1024">
			<title>notepade-03</title>
			<path class="path1" d="M100.431 100.431h641.969l-19.692-19.692v838.892l19.692-19.692h-641.969l19.692 19.692v-838.892l-19.692 19.692zM100.431 61.046h-19.692v878.277h681.354v-878.277h-661.662z"></path>
			<path class="path2" d="M191.015 13.785v137.846h39.385v-137.846h-39.385z"></path>
			<path class="path3" d="M295.385 13.785v137.846h39.385v-137.846h-39.385z"></path>
			<path class="path4" d="M401.723 13.785v137.846h39.385v-137.846h-39.385z"></path>
			<path class="path5" d="M506.092 13.785v137.846h39.385v-137.846h-39.385z"></path>
			<path class="path6" d="M610.462 13.785v137.846h39.385v-137.846h-39.385z"></path>
			<path class="path7" d="M9.846 128v886.154h687.262v-39.385h-667.569l19.692 19.692v-866.462h-39.385z"></path>
			<path class="path8" d="M254.031 326.892h344.615v-39.385h-344.615v39.385z"></path>
			<path class="path9" d="M254.031 476.554h344.615v-39.385h-344.615v39.385z"></path>
			<path class="path10" d="M254.031 628.185h344.615v-39.385h-344.615v39.385z"></path>
			<path class="path11" d="M254.031 777.846h344.615v-39.385h-344.615v39.385z"></path>
		</symbol>
	</defs>
</svg>
