<?xml version="1.0" encoding="UTF-8"?>
<svg width="126px" height="126px" viewBox="0 0 126 126" version="1.1" xmlns="http://www.w3.org/2000/svg" xmlns:xlink="http://www.w3.org/1999/xlink">
    <!-- Generator: Sketch 57.1 (83088) - https://sketch.com -->
    <title>icons8-conference_background_selected</title>
    <desc>Created with Sketch.</desc>
    <g id="Page-1" stroke="none" stroke-width="1" fill="none" fill-rule="evenodd">
        <g id="icons8-conference_background_selected" fill-rule="nonzero">
            <polygon id="Path" fill="#FFFFFF" points="41 33 31 44 51 44 51 123 75 123 75 44 95 44 84 33"></polygon>
            <g id="Group" transform="translate(0.000000, 10.000000)">
                <rect id="Rectangle" fill="#FFFFFF" x="21" y="64" width="12" height="52"></rect>
                <path d="M29,34 L13,34 C7.5,34 3,38.5 3,44 L3,74 L3,74 C6.3,74 9,76.7 9,80 L9,116 L21,116 L21,74 L33,74 L39,74 L39,44 C39,38.5 34.5,34 29,34 Z" id="Path" fill="#FFFFFF"></path>
                <path d="M33,116 C31.3,116 30,114.7 30,113 L30,74 C30,72.3 31.3,71 33,71 C34.7,71 36,72.3 36,74 L36,113 C36,114.7 34.7,116 33,116 Z" id="Path" fill="#68E8C3"></path>
                <path d="M21,116 C19.3,116 18,114.7 18,113 L18,80 C18,78.3 19.3,77 21,77 C22.7,77 24,78.3 24,80 L24,113 C24,114.7 22.7,116 21,116 Z" id="Path" fill="#68E8C3"></path>
                <circle id="Oval" fill="#FFFFFF" cx="21" cy="13" r="10"></circle>
                <path d="M21,26 C13.8,26 8,20.2 8,13 C8,5.8 13.8,0 21,0 C28.2,0 34,5.8 34,13 C34,20.2 28.2,26 21,26 Z M21,6 C17.1,6 14,9.1 14,13 C14,16.9 17.1,20 21,20 C24.9,20 28,16.9 28,13 C28,9.1 24.9,6 21,6 Z" id="Shape" fill="#68E8C3"></path>
                <path d="M9,116 C7.3,116 6,114.7 6,113 L6,80 C6,78.3 7.3,77 9,77 C10.7,77 12,78.3 12,80 L12,113 C12,114.7 10.7,116 9,116 Z" id="Path" fill="#68E8C3"></path>
                <path d="M3,77 C1.3,77 0,75.7 0,74 L0,44 C0,36.8 5.8,31 13,31 L15,31 C16.7,31 18,32.3 18,34 C18,35.7 16.7,37 15,37 L13,37 C9.1,37 6,40.1 6,44 L6,74 C6,75.7 4.7,77 3,77 Z" id="Path" fill="#68E8C3"></path>
            </g>
            <g id="Group" transform="translate(87.000000, 10.000000)">
                <g>
                    <rect id="Rectangle" fill="#FFFFFF" x="18" y="64" width="12" height="52"></rect>
                    <path d="M26,34 L10,34 C4.5,34 0,38.5 0,44 L0,74 L0,74 C3.3,74 6,76.7 6,80 L6,116 L18,116 L18,74 L30,74 L36,74 L36,44 C36,38.5 31.5,34 26,34 Z" id="Path" fill="#FFFFFF"></path>
                    <path d="M30,116 C28.3,116 27,114.7 27,113 L27,74 C27,72.3 28.3,71 30,71 L33,71 L33,44 C33,40.1 29.9,37 26,37 L24,37 C22.3,37 21,35.7 21,34 C21,32.3 22.3,31 24,31 L26,31 C33.2,31 39,36.8 39,44 L39,74 C39,75.7 37.7,77 36,77 L33,77 L33,113 C33,114.7 31.7,116 30,116 Z" id="Path" fill="#68E8C3"></path>
                    <path d="M18,116 C16.3,116 15,114.7 15,113 L15,80 C15,78.3 16.3,77 18,77 C19.7,77 21,78.3 21,80 L21,113 C21,114.7 19.7,116 18,116 Z" id="Path" fill="#68E8C3"></path>
                    <circle id="Oval" fill="#FFFFFF" cx="18" cy="13" r="10"></circle>
                    <path d="M18,26 C10.8,26 5,20.2 5,13 C5,5.8 10.8,0 18,0 C25.2,0 31,5.8 31,13 C31,20.2 25.2,26 18,26 Z M18,6 C14.1,6 11,9.1 11,13 C11,16.9 14.1,20 18,20 C21.9,20 25,16.9 25,13 C25,9.1 21.9,6 18,6 Z" id="Shape" fill="#68E8C3"></path>
                </g>
                <path d="M6,116 C4.3,116 3,114.7 3,113 L3,74 C3,72.3 4.3,71 6,71 C7.7,71 9,72.3 9,74 L9,113 C9,114.7 7.7,116 6,116 Z" id="Path" fill="#68E8C3"></path>
            </g>
            <g id="Group" transform="translate(38.000000, 0.000000)">
                <path d="M46,36 L3,36 C1.3,36 0,34.7 0,33 C0,31.3 1.3,30 3,30 L46,30 C47.7,30 49,31.3 49,33 C49,34.7 47.7,36 46,36 Z" id="Path" fill="#444B54"></path>
                <circle id="Oval" fill="#FFFFFF" cx="25" cy="13" r="10"></circle>
                <path d="M25,26 C17.8,26 12,20.2 12,13 C12,5.8 17.8,0 25,0 C32.2,0 38,5.8 38,13 C38,20.2 32.2,26 25,26 Z M25,6 C21.1,6 18,9.1 18,13 C18,16.9 21.1,20 25,20 C28.9,20 32,16.9 32,13 C32,9.1 28.9,6 25,6 Z" id="Shape" fill="#444B54"></path>
            </g>
            <path d="M95,47 C96.7,47 98,45.7 98,44 C98,42.3 96.7,41 95,41 L75,41 C73.3,41 72,42.3 72,44 L72,120 L66,120 L66,83.5 C66,81.8 64.7,80.5 63,80.5 C61.3,80.5 60,81.8 60,83.5 L60,120 L54,120 L54,44 C54,42.3 52.7,41 51,41 L31,41 C29.3,41 28,42.3 28,44 C28,45.7 29.3,47 31,47 L48,47 L48,120 L33,120 C31.3,120 30,121.3 30,123 C30,124.7 31.3,126 33,126 L93,126 C94.7,126 96,124.7 96,123 C96,121.3 94.7,120 93,120 L78,120 L78,47 L95,47 Z" id="Path" fill="#444B54"></path>
        </g>
    </g>
</svg>