<svg width="126px" height="126px" viewBox="0 0 126 126" version="1.1" xmlns="http://www.w3.org/2000/svg" xmlns:xlink="http://www.w3.org/1999/xlink">
    <g id="Page-1" stroke="none" stroke-width="1" fill="none" fill-rule="evenodd">
        <g id="icons8-expand_influence" fill-rule="nonzero">
            <g id="Group" fill="#68E8C3">
                <path d="M123,107 C121.3,107 120,108.3 120,110 L120,115.8 L102.1,97.9 C100.9,96.7 99,96.7 97.9,97.9 C96.7,99.1 96.7,101 97.9,102.1 L115.8,120 L110,120 C108.3,120 107,121.3 107,123 C107,124.7 108.3,126 110,126 L123,126 C123,126 123,126 123,126 C123,126 123,126 123,126 C123.4,126 123.8,125.9 124.1,125.8 C125.2,125.3 126,124.2 126,123 L126,110 C126,108.3 124.7,107 123,107 Z" id="Path"></path>
                <path d="M124.1,0.2 C123.8,0.1 123.4,0 123,0 C123,0 123,0 122.9,0 L109.9,0 C108.2,0 106.9,1.3 106.9,3 C106.9,4.7 108.2,6 109.9,6 L115.7,6 L97.9,23.9 C96.7,25.1 96.7,27 97.9,28.1 C98.5,28.7 99.3,29 100,29 C100.7,29 101.5,28.7 102.1,28.1 L120,10.2 L120,16 C120,17.7 121.3,19 123,19 C124.7,19 126,17.7 126,16 L126,3 C126,1.8 125.3,0.7 124.1,0.2 Z" id="Path"></path>
                <path d="M23.9,97.9 L6,115.8 L6,110 C6,108.3 4.7,107 3,107 C1.3,107 0,108.3 0,110 L0,123 C0,124.2 0.7,125.3 1.9,125.8 C2.3,126 2.7,126 3,126 C3,126 3,126 3,126 C3,126 3,126 3,126 L16,126 C17.7,126 19,124.7 19,123 C19,121.3 17.7,120 16,120 L10.2,120 L28.1,102.1 C29.3,100.9 29.3,99 28.1,97.9 C27,96.7 25,96.7 23.9,97.9 Z" id="Path"></path>
                <path d="M10.2,6 L16,6 C17.7,6 19,4.7 19,3 C19,1.3 17.7,0 16,0 L3,0 C3,0 2.9,0 2.9,0 C2.6,0 2.2,0.1 1.9,0.2 C0.7,0.7 0,1.8 0,3 L0,16 C0,17.7 1.3,19 3,19 C4.7,19 6,17.7 6,16 L6,10.2 L23.9,28.1 C24.5,28.7 25.3,29 26,29 C26.7,29 27.5,28.7 28.1,28.1 C29.3,26.9 29.3,25 28.1,23.9 L10.2,6 Z" id="Path"></path>
            </g>
            <g id="Group" transform="translate(42.000000, 0.000000)">
                <path d="M33,73 L39,73 L39,43 C39,37.5 34.5,33 29,33 L13,33 C7.5,33 3,37.5 3,43 L3,73 C6.3,73 9,75.7 9,79 L9,123 L33,123 L33,73 Z" id="Path" fill="#FFFFFF"></path>
                <g>
                    <path d="M33,126 C31.3,126 30,124.7 30,123 L30,73 C30,71.3 31.3,70 33,70 C34.7,70 36,68.7 36,67 L36,43 C36,39.1 32.9,36 29,36 L13,36 C9.1,36 6,39.1 6,43 L6,73 C6,74.7 4.7,76 3,76 C1.3,76 0,74.7 0,73 L0,43 C0,35.8 5.8,30 13,30 L29,30 C36.2,30 42,35.8 42,43 L42,67 C42,70.9 39.5,74.2 36,75.5 L36,123 C36,124.7 34.7,126 33,126 Z" id="Path" fill="#444B54"></path>
                    <path d="M21,126 C19.3,126 18,124.7 18,123 L18,82 C18,80.3 19.3,79 21,79 C22.7,79 24,80.3 24,82 L24,123 C24,124.7 22.7,126 21,126 Z" id="Path" fill="#444B54"></path>
                    <circle id="Oval" fill="#FFFFFF" cx="21" cy="13" r="10"></circle>
                    <path d="M21,26 C13.8,26 8,20.2 8,13 C8,5.8 13.8,0 21,0 C28.2,0 34,5.8 34,13 C34,20.2 28.2,26 21,26 Z M21,6 C17.1,6 14,9.1 14,13 C14,16.9 17.1,20 21,20 C24.9,20 28,16.9 28,13 C28,9.1 24.9,6 21,6 Z" id="Shape" fill="#444B54"></path>
                    <path d="M9,126 C7.3,126 6,124.7 6,123 L6,79 C6,77.3 7.3,76 9,76 C10.7,76 12,77.3 12,79 L12,123 C12,124.7 10.7,126 9,126 Z" id="Path" fill="#444B54"></path>
                </g>
            </g>
        </g>
    </g>
</svg>