<svg style="position: absolute; width: 0; height: 0;" width="0" height="0" version="1.1" xmlns="http://www.w3.org/2000/svg" xmlns:xlink="http://www.w3.org/1999/xlink">
<defs>
<symbol id="icon-Left_Arrow" viewBox="0 0 1461 1024">
	<title>Left_Arrow</title>
	<path class="path1" d="M0 416.812l737.328-392.033v198.837l-565.889 298.558z"></path>
	<path class="path2" d="M823.954 853.971l-86.626 163.784-737.328-388.407v-212.536z"></path>
	<path class="path3" d="M928.107 1019.568h-187.555l533.052-1013.524h187.354l-532.851 1013.524z"></path>
</symbol>
<symbol id="icon-Logo_Color" viewBox="0 0 2688 1024">
	<title>Logo_Color</title>
	<path class="path1 fill-color2" d="M0 416.812l737.328-392.033v198.837l-565.889 298.558z"></path>
	<path class="path2 fill-color1" d="M823.954 853.971l-86.626 163.784-737.328-388.407v-212.536z"></path>
	<path class="path3 fill-color2" d="M2516.586 513.914l-642.040-344.892 76.15-152.301 737.328 391.832z"></path>
	<path class="path4 fill-color1" d="M2688.025 408.552v212.737l-737.328 388.407v-213.745z"></path>
	<path class="path5 fill-color2" d="M928.107 1019.568h-187.555l533.052-1013.524h187.354l-532.851 1013.524z"></path>
	<path class="path6 fill-color1" d="M1421.271 1024h-187.354l526.404-1009.294h187.354l-526.404 1009.294z"></path>
</symbol>
<symbol id="icon-Right_Arrow" viewBox="0 0 1454 1024">
	<title>Right_Arrow</title>
	<path class="path1" d="M1282.871 513.914l-642.040-344.892 76.15-152.301 737.328 391.832z"></path>
	<path class="path2" d="M1454.31 408.552v212.737l-737.328 388.407v-213.745z"></path>
	<path class="path3" d="M187.354 1024h-187.354l526.404-1009.294h187.354l-526.404 1009.294z"></path>
</symbol>
<symbol id="icon-delete_sign" viewBox="0 0 1024 1024">
	<title>delete_sign</title>
	<path class="path1" d="M843.874 240.474l-603.392 603.392-60.339-60.339 603.392-603.392 60.339 60.339z"></path>
	<path class="path2" d="M783.526 843.874l-603.392-603.392 60.339-60.339 603.392 603.392-60.339 60.339z"></path>
</symbol>
<symbol id="icon-email" viewBox="0 0 1024 1024">
<title>email</title>
<path class="path1" d="M485.431 689.369c-65.041 0-117.767-52.726-117.767-117.767v-129.257c0-65.041 52.726-117.767 117.767-117.767s117.767 52.726 117.767 117.767v129.257c0 65.041-52.726 117.767-117.767 117.767v0zM485.431 755.433c101.528 0 183.832-82.304 183.832-183.832v-129.257c0-101.528-82.304-183.832-183.832-183.832s-183.832 82.304-183.832 183.832v129.257c0 101.528 82.304 183.832 183.832 183.832v0z"></path>
<path class="path2" d="M603.198 248.46v344.684c0 89.594 72.607 162.235 162.226 162.289 136.653 0.050 248.026-110.232 248.523-246.616 0-6.816-0.064-12.252-0.231-17.611-8.118-267.233-231.729-487.238-499.148-491.16-315.6-4.619-559.596 276.196-507.493 592.817 35.451 215.613 212.535 387.060 429.517 416.348 141.933 19.165 279.938-20.297 387.616-106.717l-41.351-51.523c-93.701 75.202-213.606 109.488-337.426 92.769-188.256-25.411-342.434-174.682-373.167-361.6-45.398-275.88 166.762-520.055 441.337-516.037 232.101 3.404 427.037 195.197 434.083 427.137 0.144 4.599 0.2 9.391 0.2 15.456-0.364 99.776-82.098 180.709-182.427 180.672-53.142-0.032-96.193-43.103-96.193-96.224v-344.684h-66.065z"></path>
</symbol>
<symbol id="icon-phone" viewBox="0 0 1056 1024">
<title>phone</title>
<path class="path1" d="M462.636 186.878l-161.477-165.415-2.908-2.635c-31.379-25.103-75.555-25.103-106.934 0l-2.993 2.722-122.092 126.031c-34.953 29.779-47.483 83.029-30.61 128.024 49.702 142.92 145.428 307.023 283.027 444.622 134.687 134.687 280.496 218.807 444.197 282.865 47.227 15.787 94.486 6.057 130.948-25.196l123.894-123.761c32.189-32.189 32.189-80.020 0-112.209l-161.477-161.477c-32.189-32.189-80.020-32.189-112.209 0l-98.462 98.462 35.233-6.785c-1.952-0.837-5.944-2.638-11.679-5.374-9.745-4.65-20.651-10.181-32.422-16.561-33.66-18.244-67.316-39.541-98.579-63.579-16.014-12.313-30.994-25.055-44.754-38.189-16.429-15.682-32.020-33.399-46.728-52.787-22.025-29.033-41.004-60.306-56.82-91.578-5.527-10.929-10.251-21.048-14.166-30.079-2.292-5.287-3.77-8.94-4.43-10.681l-7.293 33.976 98.462-98.462c32.629-32.629 32.629-86.356-2.637-114.569l-19.99 24.988 22.898-22.353zM416.839 231.584l2.908 2.635c4.119 3.295 4.119 12.583-2.637 19.339l-113.092 113.092 7.338 19.346c3.706 9.77 10.802 26.139 21.325 46.946 17.452 34.507 38.394 69.014 62.943 101.375 16.684 21.993 34.512 42.251 53.526 60.401 15.472 14.769 32.177 28.978 49.933 42.63 34.178 26.28 70.638 49.35 107.093 69.11 12.769 6.921 24.651 12.946 35.356 18.055 6.535 3.119 11.308 5.273 14.031 6.439l19.913 8.534 113.781-113.781c7.196-7.196 14.503-7.196 21.699 0l161.477 161.477c7.196 7.196 7.196 14.503 0 21.699l-122.092 122.092c-17.764 15.103-41.582 20.006-65.715 11.962-154.659-60.564-293.323-140.562-420.723-267.962-130.216-130.216-221.112-286.038-268.096-421.116-7.873-21.021-2.053-45.755 14.232-59.714l124.251-128.062-22.984-22.265 19.99 24.988c8.005-6.404 18.968-6.404 26.973 0l19.99-24.988-22.898 22.353 161.477 165.415z"></path>
</symbol>
<symbol id="icon-worldwide-location" viewBox="0 0 1024 1024">
<title>worldwide-location</title>
<path class="path1" d="M850.859 769.877c-51.243 67.157-121.557 118.827-203.221 146.304 20.821-40.107 37.461-89.259 49.963-143.787-24.149-24.363-52.139-54.656-81.237-89.728h-220.075c-5.888-39.125-9.899-81.963-11.477-128h139.52c-16.725-27.349-32.427-55.765-45.995-85.333h-93.525c1.579-46.037 5.589-88.875 11.477-128h40.021c-5.717-28.16-9.643-56.619-9.643-85.333h-13.397c5.931-23.467 12.587-44.459 19.584-63.531 14.251-75.392 53.419-141.867 108.544-190.976-9.813-0.555-19.499-1.493-29.397-1.493-282.325 0-512 229.675-512 512s229.675 512 512 512c272.341 0 495.104-213.931 510.507-482.517-50.432 90.837-114.773 171.861-171.648 228.395v0zM121.216 341.333h188.928c-5.632 41.515-9.301 84.523-10.709 128h-211.925c4.48-45.099 16.213-88.107 33.707-128v0zM121.216 682.667c-17.493-39.893-29.227-82.859-33.707-128h211.925c1.408 43.477 5.035 86.485 10.709 128h-188.928zM171.477 768h153.856c12.587 56.32 29.653 106.965 51.072 148.181-82.517-27.733-153.557-80.043-204.928-148.181v0zM325.333 256h-153.856c51.371-68.139 122.411-120.448 204.885-148.181-21.376 41.216-38.443 91.861-51.029 148.181v0zM512 938.667c-31.019 0-71.68-63.36-98.731-170.667h197.504c-27.093 107.307-67.755 170.667-98.773 170.667v0z"></path>
<path class="path2" d="M947.2 256c0 33.254-23.834 95.617-65.714 174.943-11.081 20.988-23.255 42.874-36.345 65.44-23.020 39.684-47.726 79.546-72.434 117.593-8.648 13.316-16.673 25.446-23.866 36.144-4.293 6.385-7.338 10.85-8.926 13.149h56.17c-1.588-2.299-4.633-6.764-8.926-13.149-7.193-10.698-15.218-22.828-23.866-36.144-24.708-38.047-49.415-77.909-72.434-117.593-13.090-22.566-25.265-44.451-36.345-65.44-41.88-79.326-65.714-141.689-65.714-174.943 0-98.951 80.249-179.2 179.2-179.2s179.2 80.249 179.2 179.2v0zM1015.467 256c0-136.654-110.813-247.467-247.467-247.467s-247.467 110.813-247.467 247.467c0 48.186 26.577 117.727 73.61 206.815 11.527 21.834 24.139 44.505 37.664 67.822 23.647 40.765 48.941 81.575 74.232 120.52 8.852 13.631 17.077 26.063 24.467 37.054 4.457 6.628 7.662 11.327 9.407 13.854l28.085 40.662 28.085-40.662c1.745-2.527 4.95-7.226 9.407-13.854 7.39-10.991 15.615-23.423 24.467-37.054 25.292-38.945 50.585-79.755 74.232-120.52 13.526-23.317 26.137-45.988 37.664-67.822 47.033-89.088 73.61-158.628 73.61-206.815v0z"></path>
<path fill="#000" class="path3" d="M832 256c0 35.346-28.654 64-64 64s-64-28.654-64-64c0-35.346 28.654-64 64-64s64 28.654 64 64z"></path>
</symbol>
<symbol id="icon-fill-1" viewBox="0 0 1024 1024">
<title>fill-1</title>
<path class="path1" d="M903.328 227.584c43.392-26.016 76.704-67.168 92.384-116.224-40.576 24.064-85.568 41.536-133.408 50.976-38.336-40.832-92.928-66.336-153.344-66.336-116.032 0-210.080 94.048-210.080 210.080 0 16.448 1.856 32.48 5.44 47.872-174.624-8.768-329.408-92.416-433.024-219.52-18.080 31.040-28.448 67.136-28.448 105.632 0 72.864 37.088 137.184 93.44 174.848-34.432-1.088-66.816-10.528-95.136-26.272-0.032 0.896-0.032 1.76-0.032 2.656 0 101.792 72.416 186.688 168.544 205.984-17.632 4.8-36.192 7.36-55.36 7.36-13.536 0-26.688-1.312-39.52-3.744 26.72 83.456 104.32 144.192 196.256 145.888-71.904 56.352-162.496 89.92-260.928 89.92-16.96 0-33.664-0.992-50.112-2.912 92.96 59.584 203.392 94.368 322.048 94.368 386.432 0 597.728-320.128 597.728-597.728 0-9.12-0.192-18.176-0.608-27.2 41.056-29.6 76.672-66.592 104.832-108.736-37.664 16.704-78.176 28-120.672 33.088z"></path>
</symbol>
<symbol id="icon-fill-3" viewBox="0 0 1024 1024">
<title>fill-3</title>
<path class="path1" d="M967.121 10.395h-910.212c-22.869 0-41.394 18.525-41.394 41.363v910.243c0 22.838 18.525 41.363 41.394 41.363h486.121v-372.364h-124.121v-155.152h124.121v-124.121c0-128.248 81.206-191.364 195.615-191.364 54.8 0 101.904 4.096 115.619 5.896v134.051l-79.344 0.031c-62.216 0-76.738 29.572-76.738 72.952v102.555h155.152l-31.030 155.152h-124.121l2.482 372.364h266.457c22.838 0 41.363-18.525 41.363-41.363v-910.243c0-22.838-18.525-41.363-41.363-41.363z"></path>
</symbol>
<symbol id="icon-fill-33" viewBox="0 0 1024 1024">
<title>fill-33</title>
<path class="path1" d="M872.608 872.544h-151.872v-237.632c0-56.672-0.96-129.568-78.912-129.568-79.008 0-91.072 61.76-91.072 125.504v241.696h-151.712v-488.672h145.6v66.816h2.080c20.256-38.432 69.792-78.944 143.68-78.944 153.792 0 182.208 101.184 182.208 232.8v268zM227.808 317.12c-48.8 0-88.128-39.456-88.128-88.096 0-48.608 39.328-88.064 88.128-88.064 48.576 0 88.032 39.456 88.032 88.064 0 48.64-39.456 88.096-88.032 88.096v0zM303.776 872.544h-152.032v-488.672h152.032v488.672zM981.344 0h-938.656c-23.584 0-42.688 19.104-42.688 42.656v938.656c0 23.584 19.104 42.688 42.688 42.688h938.656c23.552 0 42.656-19.104 42.656-42.688v-938.656c0-23.552-19.104-42.656-42.656-42.656v0z"></path>
</symbol>
</defs>
</svg>
