<svg style="position: absolute; width: 0; height: 0; overflow: hidden;" version="1.1" xmlns="http://www.w3.org/2000/svg" xmlns:xlink="http://www.w3.org/1999/xlink">
<defs>
  <symbol id="icon-design" viewBox="0 0 32 32">
  <title>design</title>
  <path fill="#fff" style="fill: var(--color1, #fff)" d="M0.595 6l5.405-5.404 25.404 25.404-5.404 5.404z"></path>
  <path fill="#243f53" style="fill: var(--color2, #243f53)" d="M6 1.191l24.809 24.809-4.809 4.809-24.809-24.809 4.809-4.809zM0 6l26 26 6-6-26-26-6 6z"></path>
  <path fill="#fff" style="fill: var(--color1, #fff)" d="M5.488 22.547l2.18-2.181 4.25 3.702-2.445 2.445-6.958 2.972z"></path>
  <path fill="#243f53" style="fill: var(--color2, #243f53)" d="M7.688 20.941l3.613 3.147-2.069 2.069-5.917 2.527 2.527-5.898 1.846-1.845zM7.649 19.79l-2.516 2.516-3.418 7.978 7.999-3.416 2.822-2.822-4.887-4.256z"></path>
  <path fill="#243f53" style="fill: var(--color2, #243f53)" d="M3.655 25.765l-1.938 4.522 4.534-1.937z"></path>
  <path fill="#fff" style="fill: var(--color1, #fff)" d="M23.866 4.157l1.199-1.198c0.506-0.509 1.207-0.824 1.981-0.824 0.003 0 0.005 0 0.008 0h-0c0.751 0 1.457 0.292 1.987 0.824 0.508 0.509 0.822 1.212 0.822 1.988s-0.314 1.479-0.822 1.988l-1.198 1.199-3.976-3.976z"></path>
  <path fill="#243f53" style="fill: var(--color2, #243f53)" d="M27.053 2.555c0.002 0 0.004 0 0.007 0 0.658 0 1.253 0.268 1.683 0.7l0 0c0.432 0.43 0.7 1.026 0.7 1.683 0 0.002 0 0.005 0 0.007v-0c0 0.002 0 0.004 0 0.007 0 0.658-0.268 1.253-0.7 1.683l-0.901 0.901-3.38-3.38 0.901-0.901c0.431-0.432 1.026-0.7 1.685-0.7 0.002 0 0.004 0 0.006 0h-0zM27.053 1.713c-0.827 0-1.655 0.316-2.285 0.947l-1.496 1.496 4.572 4.572 1.496-1.496c0.585-0.585 0.947-1.393 0.947-2.286s-0.362-1.701-0.947-2.286v0c-0.584-0.585-1.391-0.947-2.283-0.947-0.001 0-0.002 0-0.003 0h0z"></path>
  <path fill="#fff" style="fill: var(--color1, #fff)" d="M10.004 25.981c-0.063-0.146-0.143-0.272-0.238-0.384l0.002 0.002c-0.261-0.307-0.632-0.493-1.104-0.557-0.168-1.067-1.016-1.519-1.676-1.655-0.111-0.727-0.547-1.13-1.011-1.332l16.198-16.208 3.976 3.976-16.147 16.157z"></path>
  <path fill="#243f53" style="fill: var(--color2, #243f53)" d="M22.174 6.444l3.38 3.38-15.478 15.49c-0.204-0.234-0.537-0.497-1.062-0.63-0.258-0.908-0.973-1.419-1.671-1.636-0.118-0.434-0.361-0.8-0.688-1.068l-0.004-0.003 15.522-15.533zM22.174 5.253l-17.042 17.053h0.018c0.166 0 1.444 0.045 1.444 1.458 0 0 1.678 0.052 1.678 1.676 1.669 0 1.44 1.429 1.44 1.429l17.032-17.044-4.571-4.571z"></path>
  <path fill="#243f53" style="fill: var(--color2, #243f53)" d="M24.397 4.221l3.38 3.38-2.041 2.041-3.38-3.38 2.041-2.041zM24.397 3.029l-3.232 3.232 4.572 4.572 3.232-3.232-4.572-4.572z"></path>
  <path fill="#ff6753" style="fill: var(--color3, #ff6753)" d="M28.333 23.281l-1.264 1.264c-0.076 0.076-0.123 0.182-0.123 0.298s0.047 0.221 0.123 0.298l-0-0c0.076 0.076 0.182 0.123 0.298 0.123s0.221-0.047 0.298-0.123l1.264-1.264-0.595-0.595zM22.018 16.965l-2.527 2.527c-0.076 0.076-0.123 0.182-0.123 0.298s0.047 0.221 0.123 0.298l-0-0c0.076 0.076 0.182 0.123 0.298 0.123s0.221-0.047 0.298-0.123l2.527-2.527-0.595-0.595zM26.228 21.176l-2.527 2.527c-0.076 0.076-0.123 0.182-0.123 0.298s0.047 0.221 0.123 0.298l-0-0c0.076 0.076 0.182 0.123 0.298 0.123s0.221-0.047 0.298-0.123l2.527-2.527-0.595-0.595zM14.003 8.951l-1.278 1.278c-0.076 0.076-0.123 0.182-0.123 0.298s0.047 0.221 0.123 0.298l-0-0c0.076 0.076 0.182 0.123 0.298 0.123s0.221-0.047 0.298-0.123l1.278-1.278-0.595-0.595zM11.928 6.875l-2.541 2.541c-0.076 0.076-0.123 0.182-0.123 0.298s0.047 0.221 0.123 0.298l-0-0c0.076 0.076 0.182 0.123 0.298 0.123s0.221-0.047 0.298-0.123l2.541-2.541-0.595-0.595zM9.822 4.77l-1.278 1.278c-0.076 0.076-0.123 0.182-0.123 0.298s0.047 0.221 0.123 0.298l-0-0c0.076 0.076 0.182 0.123 0.298 0.123s0.221-0.047 0.298-0.123l1.278-1.278-0.595-0.595zM7.717 2.664l-2.541 2.542c-0.076 0.076-0.123 0.182-0.123 0.298s0.047 0.221 0.123 0.298l-0-0c0.076 0.076 0.182 0.123 0.298 0.123s0.221-0.047 0.298-0.123l2.541-2.541-0.595-0.596zM24.123 19.070l-1.264 1.264c-0.076 0.076-0.123 0.182-0.123 0.298s0.047 0.221 0.123 0.298l-0-0c0.076 0.076 0.182 0.123 0.298 0.123s0.221-0.047 0.298-0.123l1.264-1.264-0.595-0.595z"></path>
  </symbol>
  <symbol id="icon-development" viewBox="0 0 26 32">
  <title>development</title>
  <path fill="#fff" style="fill: var(--color1, #fff)" d="M7.842 0.865h16.393c0.945 0 1.71 0.774 1.71 1.73v27.676c0 0.956-0.765 1.73-1.71 1.73h-21.661c-0.945 0-1.71-0.774-1.71-1.73v-22.348c-0-0.005-0-0.012-0-0.018 0-0.468 0.185-0.893 0.485-1.205l-0.001 0.001 5.267-5.328c0.309-0.313 0.737-0.507 1.212-0.507 0.005 0 0.010 0 0.016 0h-0.001z"></path>
  <path fill="#fff" style="fill: var(--color1, #fff)" d="M6.919 0v6.919h-6.919z"></path>
  <path fill="#243f53" style="fill: var(--color2, #243f53)" d="M24.254 0h-16.549c-0 0-0.001 0-0.002 0-0.781 0-1.487 0.319-1.995 0.834l-0 0-4.885 4.948c-0.509 0.519-0.823 1.23-0.823 2.015 0 0.003 0 0.006 0 0.009v-0 22.48c0 0.947 0.758 1.715 1.692 1.715h22.562c0.934 0 1.692-0.768 1.692-1.714v-28.572c0-0.947-0.758-1.714-1.692-1.714zM6.509 1.646c0.079-0.081 0.327-0.274 0.42-0.337v4.977c0 0.316-0.413 0.571-0.725 0.571h-4.795c0.063-0.095 0.134-0.183 0.214-0.263l4.885-4.948zM25.078 30.286c0 0.316-0.513 0.864-0.825 0.864h-22.562c-0.311 0-0.797-0.548-0.797-0.864v-22.493h5.31c0.934 0 1.6-0.561 1.6-1.507v-5.418h16.449c0.311 0 0.825 0.531 0.825 0.846v28.572z"></path>
  <path fill="#243f53" style="fill: var(--color2, #243f53)" d="M3.027 25.946c-0.239 0-0.432 0.291-0.432 0.649v1.297c0 0.358 0.194 0.649 0.432 0.649s0.432-0.291 0.432-0.649v-1.297c0-0.358-0.194-0.649-0.432-0.649zM5.622 25.946c-0.239 0-0.432 0.291-0.432 0.649v1.297c0 0.358 0.194 0.649 0.432 0.649s0.432-0.291 0.432-0.649v-1.297c0-0.358-0.194-0.649-0.432-0.649zM8.216 25.946c-0.239 0-0.432 0.291-0.432 0.649v1.297c0 0.358 0.194 0.649 0.432 0.649s0.432-0.291 0.432-0.649v-1.297c0-0.358-0.194-0.649-0.432-0.649zM10.811 25.946c-0.239 0-0.432 0.291-0.432 0.649v1.297c0 0.358 0.194 0.649 0.432 0.649s0.432-0.291 0.432-0.649v-1.297c0-0.358-0.194-0.649-0.432-0.649zM14.27 25.946c-0.239 0-0.432 0.291-0.432 0.649v1.297c0 0.358 0.194 0.649 0.432 0.649s0.432-0.291 0.432-0.649v-1.297c0-0.358-0.194-0.649-0.432-0.649zM16.865 25.946c-0.239 0-0.432 0.291-0.432 0.649v1.297c0 0.358 0.194 0.649 0.432 0.649s0.432-0.291 0.432-0.649v-1.297c0-0.358-0.194-0.649-0.432-0.649zM19.459 25.946c-0.239 0-0.432 0.291-0.432 0.649v1.297c0 0.358 0.194 0.649 0.432 0.649s0.432-0.291 0.432-0.649v-1.297c0-0.358-0.194-0.649-0.432-0.649zM22.054 25.946c-0.239 0-0.432 0.291-0.432 0.649v1.297c0 0.358 0.194 0.649 0.432 0.649s0.432-0.291 0.432-0.649v-1.297c0-0.358-0.194-0.649-0.432-0.649z"></path>
  <path fill="#ff6753" style="fill: var(--color3, #ff6753)" d="M21.465 14.28l-3.223-3.336c-0.092-0.083-0.215-0.134-0.35-0.134-0.149 0-0.284 0.063-0.38 0.163l-0 0c-0.097 0.102-0.157 0.241-0.157 0.393 0 0.138 0.049 0.264 0.13 0.362l-0.001-0.001 2.841 2.947-2.841 2.941c-0.116 0.104-0.188 0.255-0.188 0.422 0 0.046 0.006 0.091 0.016 0.134l-0.001-0.004c0.047 0.203 0.2 0.361 0.397 0.411s0.402-0.021 0.534-0.179l3.223-3.336c0.097-0.102 0.156-0.24 0.156-0.392s-0.059-0.29-0.156-0.392l0 0zM8.492 18.432c0.097-0.102 0.157-0.241 0.157-0.393s-0.060-0.291-0.157-0.394l0 0-2.864-2.96 2.859-2.954c0.081-0.098 0.13-0.225 0.13-0.363 0-0.153-0.060-0.292-0.158-0.395l0 0c-0.096-0.101-0.232-0.164-0.382-0.164-0.135 0-0.259 0.051-0.352 0.135l0-0-3.243 3.35c-0.097 0.102-0.157 0.241-0.157 0.393s0.060 0.291 0.157 0.394l-0-0 3.243 3.351c0.211 0.216 0.551 0.216 0.762 0h0.006zM14.291 7.368c-0.289-0.074-0.582 0.11-0.654 0.413l-3.242 13.568c-0.073 0.303 0.102 0.611 0.392 0.687s0.584-0.107 0.657-0.41l3.242-13.569c0.011-0.042 0.017-0.091 0.017-0.14 0-0.107-0.028-0.207-0.078-0.293l0.002 0.003c-0.074-0.13-0.195-0.223-0.335-0.259z"></path>
  </symbol>
  <symbol id="icon-sprint" viewBox="0 0 45 32">
  <title>sprint</title>
  <path fill="#ff6753" style="fill: var(--color3, #ff6753)" d="M8.421 7.579c-0.465 0-0.842 0.377-0.842 0.842s0.377 0.842 0.842 0.842v0c0.465 0 0.842-0.377 0.842-0.842s-0.377-0.842-0.842-0.842v0zM11.789 7.579c-0.465 0-0.842 0.377-0.842 0.842s0.377 0.842 0.842 0.842v0c0.465 0 0.842-0.377 0.842-0.842s-0.377-0.842-0.842-0.842v0zM0.842 12.632c-0.465 0-0.842 0.377-0.842 0.842s0.377 0.842 0.842 0.842v0c0.465 0 0.842-0.377 0.842-0.842s-0.377-0.842-0.842-0.842v0zM5.053 12.632c-0.465 0-0.842 0.377-0.842 0.842s0.377 0.842 0.842 0.842v0c0.465 0 0.842-0.377 0.842-0.842s-0.377-0.842-0.842-0.842v0zM8.421 12.632c-0.465 0-0.842 0.377-0.842 0.842s0.377 0.842 0.842 0.842v0c0.465 0 0.842-0.377 0.842-0.842s-0.377-0.842-0.842-0.842v0zM11.789 12.632c-0.465 0-0.842 0.377-0.842 0.842s0.377 0.842 0.842 0.842v0c0.465 0 0.842-0.377 0.842-0.842s-0.377-0.842-0.842-0.842v0zM0.842 17.684c-0.465 0-0.842 0.377-0.842 0.842s0.377 0.842 0.842 0.842v0c0.465 0 0.842-0.377 0.842-0.842s-0.377-0.842-0.842-0.842v0zM5.053 17.684c-0.465 0-0.842 0.377-0.842 0.842s0.377 0.842 0.842 0.842v0c0.465 0 0.842-0.377 0.842-0.842s-0.377-0.842-0.842-0.842v0zM8.421 17.684c-0.465 0-0.842 0.377-0.842 0.842s0.377 0.842 0.842 0.842v0c0.465 0 0.842-0.377 0.842-0.842s-0.377-0.842-0.842-0.842v0zM11.789 17.684c-0.465 0-0.842 0.377-0.842 0.842s0.377 0.842 0.842 0.842v0c0.465 0 0.842-0.377 0.842-0.842s-0.377-0.842-0.842-0.842v0zM5.053 22.737c-0.465 0-0.842 0.377-0.842 0.842s0.377 0.842 0.842 0.842v0c0.465 0 0.842-0.377 0.842-0.842s-0.377-0.842-0.842-0.842v0zM8.421 22.737c-0.465 0-0.842 0.377-0.842 0.842s0.377 0.842 0.842 0.842v0c0.465 0 0.842-0.377 0.842-0.842s-0.377-0.842-0.842-0.842v0zM11.789 22.737c-0.465 0-0.842 0.377-0.842 0.842s0.377 0.842 0.842 0.842v0c0.465 0 0.842-0.377 0.842-0.842s-0.377-0.842-0.842-0.842v0z"></path>
  <path fill="#243f53" style="fill: var(--color2, #243f53)" d="M29.474 0.842c8.358 0 15.158 6.8 15.158 15.158s-6.8 15.158-15.158 15.158-15.158-6.8-15.158-15.158 6.8-15.158 15.158-15.158zM29.474 0c-8.836 0-16 7.164-16 16s7.164 16 16 16 16-7.164 16-16-7.164-16-16-16z"></path>
  <path fill="#243f53" style="fill: var(--color2, #243f53)" d="M29.474 3.368c6.965 0 12.632 5.667 12.632 12.632s-5.667 12.632-12.632 12.632-12.632-5.667-12.632-12.632 5.667-12.632 12.632-12.632zM29.474 2.526c-7.442 0-13.474 6.032-13.474 13.474s6.032 13.474 13.474 13.474 13.474-6.032 13.474-13.474-6.032-13.474-13.474-13.474z"></path>
  <path fill="#243f53" style="fill: var(--color2, #243f53)" d="M35.762 8.211c0.099-0.136 0.158-0.307 0.158-0.492 0-0.465-0.377-0.842-0.842-0.842-0.297 0-0.559 0.154-0.709 0.387l-0.002 0.003-5.981 8.836 4.702 4.702c0.151 0.146 0.358 0.236 0.585 0.236 0.465 0 0.842-0.377 0.842-0.842 0-0.227-0.090-0.434-0.237-0.585l0 0-3.719-3.719 5.201-7.685z"></path>
  <path fill="#243f53" style="fill: var(--color2, #243f53)" d="M30.737 16c0 0.698-0.566 1.263-1.263 1.263s-1.263-0.566-1.263-1.263c0-0.698 0.566-1.263 1.263-1.263s1.263 0.566 1.263 1.263z"></path>
  <path fill="#243f53" style="fill: var(--color2, #243f53)" d="M30.316 5.895c0 0.465-0.377 0.842-0.842 0.842s-0.842-0.377-0.842-0.842c0-0.465 0.377-0.842 0.842-0.842s0.842 0.377 0.842 0.842z"></path>
  <path fill="#243f53" style="fill: var(--color2, #243f53)" d="M30.316 26.105c0 0.465-0.377 0.842-0.842 0.842s-0.842-0.377-0.842-0.842c0-0.465 0.377-0.842 0.842-0.842s0.842 0.377 0.842 0.842z"></path>
  <path fill="#243f53" style="fill: var(--color2, #243f53)" d="M40.421 16c0 0.465-0.377 0.842-0.842 0.842s-0.842-0.377-0.842-0.842c0-0.465 0.377-0.842 0.842-0.842s0.842 0.377 0.842 0.842z"></path>
  <path fill="#243f53" style="fill: var(--color2, #243f53)" d="M20.211 16c0 0.465-0.377 0.842-0.842 0.842s-0.842-0.377-0.842-0.842c0-0.465 0.377-0.842 0.842-0.842s0.842 0.377 0.842 0.842z"></path>
  </symbol>
  <symbol id="icon-strategy-icon" viewBox="0 0 32 32">
  <title>strategy-icon</title>
  <path fill="#243f53" style="fill: var(--color2, #243f53)" d="M18.872 0.821c0.452 0 0.82 0.368 0.82 0.821v2.462h-9.026v-2.462c0-0.452 0.368-0.821 0.82-0.821h7.385zM18.872 0h-7.385c-0.907 0-1.641 0.734-1.641 1.641v3.282h10.667v-3.282c0-0.907-0.734-1.641-1.641-1.641z"></path>
  <path fill="#fff" style="fill: var(--color1, #fff)" d="M0.41 11.077h29.538v13.949h-29.538z"></path>
  <path fill="#243f53" style="fill: var(--color2, #243f53)" d="M29.538 11.487v13.128h-28.718v-13.128h28.718zM30.359 10.667h-30.359v14.769h30.359v-14.769z"></path>
  <path fill="#fff" style="fill: var(--color1, #fff)" d="M3.282 16c-1.584 0-2.872-1.288-2.872-2.872v-10.256h29.538v10.256c0 1.584-1.288 2.872-2.872 2.872h-23.795z"></path>
  <path fill="#243f53" style="fill: var(--color2, #243f53)" d="M29.538 3.282v9.846c0 1.357-1.104 2.462-2.462 2.462h-23.795c-1.357 0-2.462-1.104-2.462-2.462v-9.846h28.718zM30.359 2.462h-30.359v10.667c0 1.813 1.469 3.282 3.282 3.282v0h23.795c1.813 0 3.282-1.469 3.282-3.282v0-10.667z"></path>
  <path fill="#243f53" style="fill: var(--color2, #243f53)" d="M16.41 12.718c0 0.68-0.551 1.231-1.231 1.231s-1.231-0.551-1.231-1.231c0-0.68 0.551-1.231 1.231-1.231s1.231 0.551 1.231 1.231z"></path>
  <path fill="#243f53" style="fill: var(--color2, #243f53)" d="M21.333 3.282h-2.462v-0.41c0.018-0.666 0.562-1.199 1.231-1.199s1.213 0.533 1.231 1.198l0 0.002v0.41zM11.487 3.282h-2.462v-0.41c0.018-0.666 0.562-1.199 1.231-1.199s1.213 0.533 1.231 1.198l0 0.002v0.41z"></path>
  <path fill="#fff" style="fill: var(--color1, #fff)" d="M23.011 29.799l-2.32 0.328-0.405-2.308-2.070-1.099 1.030-2.105-1.030-2.105 2.070-1.099 0.405-2.308 2.32 0.328 1.684-1.63 1.684 1.63 2.32-0.328 0.405 2.308 2.070 1.099-1.030 2.105 1.030 2.105-2.070 1.099-0.405 2.308-2.32-0.328-1.684 1.63z"></path>
  <path fill="#ff6753" style="fill: var(--color3, #ff6753)" d="M24.696 18.372l1.543 1.493 2.126-0.3 0.302 1.72 0.069 0.395 1.897 1.006-0.767 1.569-0.176 0.361 0.176 0.36 0.767 1.569-1.897 1.006-0.069 0.395-0.302 1.72-2.126-0.3-0.288 0.279-1.255 1.214-1.543-1.493-2.126 0.3-0.302-1.72-0.069-0.395-1.897-1.006 0.767-1.569 0.175-0.36-0.176-0.36-0.767-1.569 1.897-1.006 0.069-0.395 0.302-1.72 2.126 0.3 0.288-0.279 1.256-1.215zM24.696 17.231l-1.826 1.766-2.515-0.356-0.439 2.502-2.244 1.191 1.116 2.283-1.116 2.282 2.244 1.191 0.439 2.502 2.515-0.356 1.826 1.767 1.826-1.766 2.515 0.356 0.439-2.502 2.244-1.191-1.116-2.283 1.116-2.282-2.244-1.191-0.439-2.502-2.515 0.356-1.826-1.767z"></path>
  </symbol>
  <symbol id="icon-shape-red" viewBox="0 0 30 32">
  <title>rectangle-copy-5</title>
  <path fill="#ff6753" style="fill: var(--color1, #ff6753)" d="M16.132 0.267l13.615-0.267-16.132 31.694-13.615 0.267z"></path>
  </symbol>
  <symbol id="icon-pixel" viewBox="0 0 16 32">
  <title>Pixel</title>
  <path d="M2.234 0.488h11.685c0.95 0 1.721 0.77 1.721 1.721v27.531c0 0.95-0.77 1.721-1.721 1.721h-11.685c-0.95 0-1.721-0.77-1.721-1.721v-27.531c0-0.95 0.77-1.721 1.721-1.721z"></path>
  <path d="M2.234 0.488h11.685c0.95 0 1.721 0.77 1.721 1.721v27.531c0 0.95-0.77 1.721-1.721 1.721h-11.685c-0.95 0-1.721-0.77-1.721-1.721v-27.531c0-0.95 0.77-1.721 1.721-1.721z"></path>
  <path fill="#000" style="fill: var(--color1, #000)" d="M2.286 0.616h11.583c0.908 0 1.644 0.736 1.644 1.644v27.429c0 0.908-0.736 1.644-1.644 1.644h-11.583c-0.908 0-1.644-0.736-1.644-1.644v-27.429c0-0.908 0.736-1.644 1.644-1.644z"></path>
  <path d="M15.589 10.709h0.18v1.926h-0.18v-1.926z"></path>
  <path d="M15.589 13.856h0.18v3.852h-0.18v-3.852z"></path>
  <path d="M3.84 2.042c0 0.149-0.121 0.27-0.27 0.27s-0.27-0.121-0.27-0.27c0-0.149 0.121-0.27 0.27-0.27s0.27 0.121 0.27 0.27z"></path>
  <path d="M5.547 1.9h5.021c0.078 0 0.141 0.063 0.141 0.141s-0.063 0.141-0.141 0.141h-5.021c-0.078 0-0.141-0.063-0.141-0.141s0.063-0.141 0.141-0.141z"></path>
  <path fill="#444" style="fill: var(--color2, #444)" d="M1.169 3.66h13.868v24.655h-13.868v-24.655z"></path>
  </symbol>
  <symbol id="icon-dribbble" viewBox="0 0 32 32">
<path d="M31.675 12.78c-0.452-2.172-1.29-4.093-2.444-5.779l0.035 0.054c-1.168-1.716-2.604-3.152-4.265-4.284l-0.055-0.036c-0.781-0.536-1.674-1.030-2.613-1.436l-0.103-0.040c-1.839-0.795-3.98-1.258-6.229-1.258s-4.391 0.463-6.334 1.298l0.104-0.040c-2.908 1.253-5.298 3.244-7.001 5.741l-0.036 0.055c-1.121 1.632-1.959 3.552-2.393 5.622l-0.018 0.103c-0.207 0.969-0.325 2.081-0.325 3.222s0.118 2.253 0.343 3.327l-0.018-0.105c0.455 2.172 1.292 4.092 2.446 5.779l-0.035-0.055c1.74 2.55 4.13 4.539 6.933 5.753l0.104 0.040c1.838 0.796 3.978 1.259 6.227 1.259 0.001 0 0.002 0 0.003 0h-0c0 0 0.001 0 0.001 0 2.248 0 4.389-0.463 6.331-1.299l-0.104 0.040c1.043-0.445 1.936-0.94 2.772-1.512l-0.054 0.035c2.553-1.737 4.544-4.127 5.755-6.932l0.040-0.104c0.409-0.965 0.724-1.98 0.933-3.005 0.207-0.968 0.326-2.081 0.326-3.221s-0.119-2.253-0.345-3.326l0.018 0.105zM29.661 15.863c-0.197-0.043-4.821-1.038-9.517-0.448-0.098-0.233-0.195-0.468-0.295-0.704-0.396-0.937-0.701-1.589-1.021-2.231l0.112 0.249c5.397-2.204 7.587-5.372 7.613-5.409 1.91 2.305 3.079 5.285 3.108 8.538l0 0.006zM25.025 5.746c-0.034 0.052-1.98 3.015-7.139 4.947-1.694-3.071-3.384-5.676-5.236-8.153l0.13 0.182c1.033-0.25 2.112-0.385 3.221-0.385 0.003 0 0.007 0 0.010 0 3.463 0 6.625 1.293 9.028 3.421l-0.014-0.012zM12.725 2.734l-0.001 0.002-0.042 0.009c0.013-0.003 0.028-0.005 0.043-0.011zM10.169 3.643c0.181 0.244 2.709 3.668 5.075 7.873-6.561 1.744-12.256 1.675-12.619 1.669 0.921-4.251 3.718-7.706 7.461-9.507l0.082-0.036zM2.336 15.999c0-0.145 0.007-0.288 0.011-0.431 0.241 0.006 6.994 0.158 14.030-1.947 0.391 0.766 0.766 1.545 1.108 2.321-0.181 0.051-0.359 0.106-0.539 0.164-7.374 2.383-11.115 9.017-11.115 9.017l0.006 0.007c-2.173-2.402-3.503-5.603-3.503-9.115 0-0.006 0-0.011 0-0.017v0.001zM16.002 29.663c-0.005 0-0.012 0-0.019 0-3.312 0-6.349-1.183-8.71-3.148l0.022 0.018c0.181 0.145 0.306 0.239 0.306 0.239s2.62-5.711 10.723-8.535c0.031-0.011 0.061-0.021 0.093-0.030 1.923 4.997 2.715 9.181 2.918 10.375-1.57 0.684-3.399 1.083-5.321 1.083-0.005 0-0.011 0-0.016 0h0.001zM23.637 27.332c-0.139-0.823-0.867-4.835-2.66-9.759 4.412-0.705 8.234 0.505 8.516 0.597-0.634 3.835-2.787 7.073-5.809 9.132l-0.047 0.030z"></path>

  </symbol>
  <symbol id="icon-facebook" viewBox="0 0 16 32">
    <path d="M10.475 31.684h-6.651v-15.684h-3.324v-5.404h3.324v-3.244c0-4.409 1.875-7.032 7.206-7.032h4.439v5.406h-2.774c-2.076 0-2.213 0.756-2.213 2.165l-0.010 2.705h5.028l-0.588 5.404h-4.438v15.684z"></path>
  </symbol>
  <symbol id="icon-instagram" viewBox="0 0 32 32">
    <path d="M16 2.883c-4.272 0-4.779 0.016-6.465 0.093-1.561 0.071-2.407 0.332-2.972 0.551l-0.034 0.011c-0.687 0.26-1.301 0.667-1.805 1.186-0.56 0.559-0.907 1.092-1.197 1.839-0.22 0.564-0.48 1.411-0.551 2.972-0.077 1.686-0.093 2.193-0.093 6.465s0.016 4.779 0.093 6.465c0.071 1.561 0.332 2.407 0.551 2.972l0.011 0.034c0.26 0.687 0.667 1.301 1.186 1.805 0.559 0.56 1.092 0.907 1.839 1.197 0.564 0.22 1.411 0.48 2.972 0.551 1.686 0.077 2.193 0.093 6.465 0.093s4.779-0.016 6.465-0.093c1.561-0.071 2.407-0.332 2.972-0.551l0.034-0.011c0.687-0.26 1.301-0.667 1.805-1.186 0.56-0.559 0.907-1.092 1.197-1.839 0.22-0.564 0.48-1.411 0.551-2.972 0.077-1.686 0.093-2.193 0.093-6.465s-0.016-4.779-0.093-6.465c-0.071-1.561-0.332-2.407-0.551-2.972-0.29-0.747-0.637-1.279-1.197-1.839-0.559-0.56-1.092-0.907-1.839-1.197-0.564-0.22-1.411-0.48-2.972-0.551-1.686-0.077-2.193-0.093-6.465-0.093zM16 0c4.346 0 4.891 0.018 6.596 0.096 1.703 0.078 2.866 0.349 3.885 0.745 1.109 0.424 2.054 1.052 2.832 1.844l0.001 0.001c0.793 0.779 1.421 1.724 1.827 2.779l0.018 0.054c0.396 1.019 0.667 2.181 0.745 3.885 0.078 1.707 0.096 2.251 0.096 6.596s-0.018 4.891-0.096 6.596c-0.078 1.703-0.349 2.866-0.745 3.885-0.424 1.109-1.052 2.054-1.844 2.832l-0.001 0.001c-0.779 0.793-1.724 1.421-2.779 1.827l-0.054 0.018c-1.019 0.396-2.181 0.667-3.885 0.745-1.707 0.078-2.251 0.096-6.596 0.096s-4.891-0.018-6.596-0.096c-1.703-0.078-2.866-0.349-3.885-0.743-1.109-0.424-2.054-1.052-2.832-1.844l-0.001-0.001c-0.793-0.78-1.421-1.725-1.827-2.78l-0.018-0.054c-0.397-1.020-0.668-2.182-0.745-3.885-0.078-1.707-0.096-2.251-0.096-6.596s0.018-4.891 0.096-6.596c0.078-1.703 0.349-2.866 0.743-3.885 0.424-1.109 1.052-2.054 1.844-2.832l0.001-0.001c0.78-0.794 1.726-1.421 2.782-1.827l0.054-0.018c1.019-0.396 2.181-0.667 3.884-0.745 1.707-0.078 2.251-0.096 6.596-0.096zM16.032 7.809c-4.541 0-8.222 3.681-8.222 8.222s3.681 8.222 8.222 8.222v0c4.541 0 8.222-3.681 8.222-8.222s-3.681-8.222-8.222-8.222v0zM16.032 21.369c-0.022 0-0.049 0.001-0.075 0.001-2.948 0-5.338-2.39-5.338-5.338s2.39-5.338 5.338-5.338c0.027 0 0.053 0 0.079 0.001l-0.004-0c2.915 0.043 5.262 2.416 5.262 5.337s-2.347 5.295-5.258 5.337l-0.004 0zM26.413 7.428c0-0.013 0.001-0.029 0.001-0.045 0-1.052-0.853-1.905-1.905-1.905s-1.905 0.853-1.905 1.905c0 0.016 0 0.032 0.001 0.047l-0-0.002c0.035 1.024 0.874 1.841 1.904 1.841s1.869-0.817 1.904-1.838l0-0.003z"></path>
  </symbol>
  <symbol id="icon-linked-in" viewBox="0 0 32 32">
<path d="M1.202 10.41h6.074v21.173h-6.074v-21.173zM4.085 7.762h-0.045c-2.199 0-3.624-1.619-3.624-3.669 0-2.091 1.467-3.678 3.71-3.678 2.24 0 3.619 1.582 3.663 3.672 0 2.049-1.422 3.674-3.705 3.674zM31.584 31.584h-6.887v-10.958c0-2.869-1.078-4.823-3.448-4.823-1.811 0-2.819 1.318-3.289 2.594-0.176 0.454-0.149 1.090-0.149 1.729v11.457h-6.825s0.088-19.41 0-21.174h6.824v3.322c0.403-1.453 2.584-3.526 6.064-3.526 4.318 0 7.71 3.047 7.71 9.603v11.774z"></path>
  </symbol>
  <symbol id="icon-medium" viewBox="0 0 37 32">
<path d="M36.81 6.098c0.033 0.025 0.054 0.064 0.054 0.108 0 0.026-0.007 0.050-0.020 0.071l0-0.001-11.193 18.188-8.048-13.076 6.412-10.421c0.23-0.356 0.625-0.588 1.074-0.588 0.199 0 0.388 0.046 0.556 0.127l-0.008-0.003 11.151 5.575c0.009 0.005 0.015 0.012 0.021 0.017zM14.071 9.015l10.544 17.134-10.544-5.271v-11.862zM26.199 26.942l10.724-17.428v20.884c0 1.052-0.916 1.447-2.044 0.882l-8.679-4.338zM12.242 6.117c0.039 0.020 0.065 0.062 0.065 0.106v24.175c0 0.773-0.418 1.234-1.013 1.234-0.212 0-0.446-0.059-0.69-0.181l-9.583-4.793c-0.561-0.279-1.022-1.024-1.022-1.653v-23.487c0-0.618 0.334-0.987 0.81-0.987 0.17 0 0.357 0.047 0.554 0.145l10.878 5.44z"></path>
  </symbol>
  <symbol id="icon-arrowsvg" viewBox="0 0 42 32">
  <title>ArrowSVG</title>
  <path fill="#16c6c2" style="fill: var(--color1, #16c6c2)" d="M0.004 16.781c0.137 1.327 1.204 2.322 2.455 2.292h30.327l-7.893 8.484c-0.463 0.488-0.722 1.156-0.718 1.85-0.009 1.066 0.6 2.020 1.525 2.412 0.93 0.392 1.987 0.136 2.667-0.643l11.934-12.867 1.7-1.809-1.7-1.809-11.934-12.867c-0.939-1.020-2.478-1.040-3.437-0.040s-0.977 2.639-0.038 3.659l7.893 8.484h-30.327c-0.656-0.010-1.284 0.261-1.747 0.754s-0.718 1.161-0.708 1.86c-0.005 0.080-0.005 0.161 0 0.241z"></path>
  </symbol>
  <symbol id="icon-shape-blue" viewBox="0 0 25 32">
  <title>rectangle-copy-8</title>
  <path fill="#16c6c2" style="fill: var(--color1, #16c6c2)" d="M14.732 0.268l10.456-0.268-16.143 31.717-10.456 0.267z"></path>
  </symbol>
  <symbol id="icon-plus" viewBox="0 0 32 32">
  <title>plus</title>
  <path fill="#ffd82b" style="fill: var(--color14, #ffd82b)" d="M14.222 0h3.556v3.556h-3.556zM14.222 7.111h3.556v3.556h-3.556zM14.222 14.222h3.556v3.556h-3.556zM21.333 14.222h3.556v3.556h-3.556zM0 14.222h3.556v3.556h-3.556zM28.444 14.222h3.556v3.556h-3.556zM7.111 14.222h3.556v3.556h-3.556zM14.222 21.333h3.556v3.556h-3.556zM14.222 28.444h3.556v3.556h-3.556z"></path>
  </symbol>
  <symbol id="icon-shape3" viewBox="0 0 26 32">
  <title>rectangle-copy</title>
  <path fill="#16c6c2" style="fill: var(--color1, #16c6c2)" d="M9.22 0h-9.22l16.271 32h9.22z"></path>
  </symbol>
  <symbol id="icon-shape4" viewBox="0 0 26 32">
  <title>rectangle-copy-4</title>
  <path fill="#f8e71c" style="fill: var(--color1, #f8e71c)" d="M9.081 0h-9.081l16.432 32h9.081z"></path>
  </symbol>
  <symbol id="icon-shape5" viewBox="0 0 13 32">
  <title>rectangle-copy-2</title>
  <path d="M8.131 16l-8.131-16h4.532l8.131 16-8.131 15.979h-4.532z"></path>
  </symbol>
  <symbol id="icon-shape6" viewBox="0 0 16 32">
  <title>rectangle-6</title>
  <path fill="#fff" opacity="0.33" style="fill: var(--color7, #fff)" d="M6.093 3.048c0 0.028-0.023 0.051-0.051 0.051s-0.051-0.023-0.051-0.051c0-0.028 0.023-0.051 0.051-0.051s0.051 0.023 0.051 0.051z"></path>
  </symbol>
  <symbol id="icon-shape7" viewBox="0 0 23 32">
  <title>rectangle-copy-7</title>
  <path fill="#f8e71c" style="fill: var(--color1, #f8e71c)" d="M16.319 0h7.127l-16.282 31.989h-7.127z"></path>
  </symbol>
  <symbol id="icon-shape8" viewBox="0 0 20 32">
  <title>rectangle-copy-6</title>
  <path fill="#e2e4e7" style="fill: var(--color1, #e2e4e7)" d="M3.183 0l-3.183 0.084 20.188 39.707 3.183-0.084z"></path>
  </symbol>
  <symbol id="icon-shape9" viewBox="0 0 30 32">
  <title>rectangle</title>
  <path fill="#f8e71c" style="fill: var(--color1, #f8e71c)" d="M16.132 0.267l13.615-0.267-16.132 31.694-13.615 0.267z"></path>
  </symbol>
  <symbol id="icon-getintouch" viewBox="0 0 36 32">
  <title>GetInTouch</title>
  <path fill="#fff" style="fill: var(--color7, #fff)" d="M13.091 0c0.697 0 1.467 0.265 2.125 0.854 0.658 0.591 1.147 1.531 1.147 2.738 0 0.875-0.323 1.424-0.543 1.991-0.249 0.659-1.042 2.384-1.809 4.040-0.502 1.088-0.697 1.503-0.972 2.085h19.688c1.796 0 3.273 1.409 3.273 3.122s-1.477 3.122-3.273 3.122h-7.785c0.205 0.393 0.422 0.787 0.422 1.326 0 1.143-0.556 1.924-1.103 2.448 0.55 0.479 1.103 1.22 1.103 2.314 0 1.774-1.183 2.549-1.978 2.957 0.173 0.418 0.342 0.973 0.342 1.646 0 0.808-0.422 1.585-1.122 2.232-0.697 0.643-1.729 1.125-2.969 1.125h-12.273c-4.046 0-7.364-3.165-7.364-7.024v-7.338c0-1.479 0.463-2.899 1.381-4.122 0 0 0-0.003 0.003-0.003l9.163-12.018c0.617-0.942 1.569-1.494 2.544-1.494zM13.091 1.561c-0.313 0-0.815 0.207-1.179 0.793-0.013 0.018-0.029 0.037-0.042 0.055l-9.16 12.015c-0.719 0.963-1.074 2.040-1.074 3.213v7.338c0 3.009 2.573 5.463 5.727 5.463h12.273c0.805 0 1.409-0.299 1.838-0.689 0.425-0.39 0.617-0.899 0.617-1.107 0-0.927-0.425-1.503-0.425-1.503-0.147-0.198-0.185-0.448-0.112-0.68 0.077-0.232 0.262-0.415 0.499-0.5 0 0 1.675-0.634 1.675-1.921 0-1.143-1.122-1.54-1.122-1.54-0.294-0.113-0.492-0.375-0.515-0.677-0.019-0.302 0.147-0.585 0.422-0.732 0 0 1.215-0.671 1.215-1.814 0-0.784-0.47-1.189-0.892-1.457-0.3-0.189-0.435-0.546-0.332-0.875 0.105-0.329 0.422-0.555 0.786-0.555h9.438c0.904 0 1.636-0.698 1.636-1.561s-0.732-1.561-1.636-1.561h-20.944c-0.278 0-0.537-0.134-0.687-0.357-0.153-0.223-0.176-0.503-0.061-0.744 0 0 0.713-1.518 1.48-3.177 0.767-1.655 1.604-3.512 1.767-3.945 0.003-0.006 0.003-0.009 0.006-0.012 0.268-0.686 0.438-0.915 0.438-1.442 0-0.826-0.288-1.29-0.63-1.598-0.345-0.308-0.805-0.433-1.007-0.433z"></path>
  </symbol>
</defs>
</svg>
