<svg style="position: absolute; width: 0; height: 0;" width="0" height="0" version="1.1" xmlns="http://www.w3.org/2000/svg" xmlns:xlink="http://www.w3.org/1999/xlink">
	<defs>
		<symbol id="icon-Left_Arrow" viewBox="0 0 1461 1024">
			<title>Left_Arrow</title>
			<path class="path1" d="M0 416.812l737.328-392.033v198.837l-565.889 298.558z"></path>
			<path class="path2" d="M823.954 853.971l-86.626 163.784-737.328-388.407v-212.536z"></path>
			<path class="path3" d="M928.107 1019.568h-187.555l533.052-1013.524h187.354l-532.851 1013.524z"></path>
		</symbol>
		<symbol id="icon-Logo_Color" viewBox="0 0 2688 1024">
			<title>Logo_Color</title>
			<path class="path1 fill-color2" d="M0 416.812l737.328-392.033v198.837l-565.889 298.558z"></path>
			<path class="path2 fill-color1" d="M823.954 853.971l-86.626 163.784-737.328-388.407v-212.536z"></path>
			<path class="path3 fill-color2" d="M2516.586 513.914l-642.040-344.892 76.15-152.301 737.328 391.832z"></path>
			<path class="path4 fill-color1" d="M2688.025 408.552v212.737l-737.328 388.407v-213.745z"></path>
			<path class="path5 fill-color2" d="M928.107 1019.568h-187.555l533.052-1013.524h187.354l-532.851 1013.524z"></path>
			<path class="path6 fill-color1" d="M1421.271 1024h-187.354l526.404-1009.294h187.354l-526.404 1009.294z"></path>
		</symbol>
		<symbol id="icon-Right_Arrow" viewBox="0 0 1454 1024">
			<title>Right_Arrow</title>
			<path class="path1" d="M1282.871 513.914l-642.040-344.892 76.15-152.301 737.328 391.832z"></path>
			<path class="path2" d="M1454.31 408.552v212.737l-737.328 388.407v-213.745z"></path>
			<path class="path3" d="M187.354 1024h-187.354l526.404-1009.294h187.354l-526.404 1009.294z"></path>
		</symbol>
		<symbol id="icon-add-link" viewBox="0 0 32 32">
		<title>add-link</title>
		<path class="path1" d="M20.286 0c-1.91 0-3.722 0.755-5.071 2.107l-1.679 1.679c-1.351 1.351-2.107 3.162-2.107 5.071 0 0.907 0.174 1.789 0.5 2.607l1.857-1.857c-0.233-1.48 0.218-3.076 1.357-4.214l1.679-1.679c0.919-0.921 2.164-1.429 3.464-1.429 1.299 0 2.51 0.509 3.429 1.429 1.897 1.896 1.897 4.996 0 6.893l-0.821 0.821c0.976 0.002 1.917 0.124 2.821 0.357 1.114-1.295 1.714-2.917 1.714-4.643 0-1.91-0.756-3.685-2.107-5.036-1.35-1.352-3.126-2.107-5.036-2.107zM17.464 8.321l-9.143 9.143 1.643 1.643 9.143-9.143-1.643-1.643zM8.857 11.429c-1.91 0-3.722 0.755-5.071 2.107l-1.679 1.679c-1.351 1.351-2.107 3.162-2.107 5.071s0.756 3.685 2.107 5.036c1.35 1.352 3.126 2.107 5.036 2.107 1.727 0 3.347-0.6 4.643-1.714-0.233-0.905-0.355-1.845-0.357-2.821l-0.821 0.821c-0.92 0.92-2.164 1.429-3.464 1.429-1.299 0-2.51-0.509-3.429-1.429-1.897-1.896-1.897-4.996 0-6.893l1.679-1.679c0.92-0.92 2.164-1.429 3.464-1.429 0.256 0 0.504 0.028 0.75 0.071l1.857-1.857c-0.818-0.326-1.701-0.5-2.607-0.5zM22.857 13.714c-5.036 0-9.143 4.107-9.143 9.143s4.107 9.143 9.143 9.143c5.036 0 9.143-4.107 9.143-9.143s-4.107-9.143-9.143-9.143zM22.857 16c3.801 0 6.857 3.056 6.857 6.857s-3.056 6.857-6.857 6.857c-3.801 0-6.857-3.056-6.857-6.857s3.056-6.857 6.857-6.857zM21.714 18.286v3.429h-3.429v2.286h3.429v3.429h2.286v-3.429h3.429v-2.286h-3.429v-3.429h-2.286z"></path>
		</symbol>
		<symbol id="icon-android" viewBox="0 0 29 32">
		<title>android</title>
		<path class="path1" fill="#7cb342" d="M4.028 20.436c0 0.982-0.797 1.779-1.779 1.779v0c-0.982 0-1.779-0.797-1.779-1.779v-8.006c0-0.982 0.797-1.779 1.779-1.779v0c0.982 0 1.779 0.797 1.779 1.779v8.006z"></path>
		<path class="path2" fill="#7cb342" d="M28.936 20.436c0 0.982-0.797 1.779-1.779 1.779v0c-0.982 0-1.779-0.797-1.779-1.779v-8.006c0-0.982 0.797-1.779 1.779-1.779v0c0.982 0 1.779 0.797 1.779 1.779v8.006z"></path>
		<path class="path3" fill="#7cb342" d="M12.924 30.221c0 0.982-0.797 1.779-1.779 1.779v0c-0.982 0-1.779-0.797-1.779-1.779v-8.006c0-0.982 0.797-1.779 1.779-1.779v0c0.982 0 1.779 0.797 1.779 1.779v8.006z"></path>
		<path class="path4" fill="#7cb342" d="M20.040 30.221c0 0.982-0.797 1.779-1.779 1.779v0c-0.982 0-1.779-0.797-1.779-1.779v-8.006c0-0.982 0.797-1.779 1.779-1.779v0c0.982 0 1.779 0.797 1.779 1.779v8.006z"></path>
		<path class="path5" fill="#7cb342" d="M5.807 10.651v13.343c0 0.982 0.797 1.779 1.779 1.779h14.233c0.982 0 1.779-0.797 1.779-1.779v-13.343h-17.791z"></path>
		<path class="path6" fill="#7cb342" d="M14.703 1.754c-5.337 0-8.589 3.243-8.896 7.117h17.791c-0.308-3.874-3.558-7.117-8.896-7.117zM11.144 6.734c-0.491 0-0.89-0.399-0.89-0.89s0.399-0.89 0.89-0.89c0.491 0 0.89 0.399 0.89 0.89s-0.399 0.89-0.89 0.89zM18.261 6.734c-0.492 0-0.89-0.399-0.89-0.89s0.398-0.89 0.89-0.89c0.492 0 0.89 0.399 0.89 0.89s-0.398 0.89-0.89 0.89z"></path>
		<path class="path7" fill="none" stroke="#7cb342" stroke-width="1.7297" stroke-miterlimit="4" stroke-linecap="butt" stroke-linejoin="miter" d="M20.040 0.865l-1.482 2.223"></path>
		<path class="path8" fill="none" stroke="#7cb342" stroke-width="1.7297" stroke-miterlimit="4" stroke-linecap="butt" stroke-linejoin="miter" d="M9.365 0.865l1.186 1.852"></path>
	</symbol>
		<symbol id="icon-arrows-long-right" viewBox="0 0 52 32">
		<title>arrows-long-right</title>
		<path class="path1" fill="#fff" d="M47.304 12.901h-47.304v5.818h47.304z"></path>
		<path class="path2" fill="#fff" d="M33.389 4.966l12.901 12.901v-4.114l-12.901 12.901 4.114 4.114 14.958-14.958-14.958-14.958z"></path>
		</symbol>
		<symbol id="icon-checkmark" viewBox="0 0 42 32">
		<title>checkmark</title>
		<path class="path1" fill="#43a047" d="M38.064 0.104l-24.544 24.544-9.984-9.984-2.912 3.016 12.896 12.792 27.456-27.456z"></path>
		</symbol>
		<symbol id="icon-delete_sign" viewBox="0 0 1024 1024">
			<title>delete_sign</title>
			<path class="path1" d="M843.874 240.474l-603.392 603.392-60.339-60.339 603.392-603.392 60.339 60.339z"></path>
			<path class="path2" d="M783.526 843.874l-603.392-603.392 60.339-60.339 603.392 603.392-60.339 60.339z"></path>
		</symbol>
		<symbol id="icon-email" viewBox="0 0 1024 1024">
			<title>email</title>
			<path class="path1" d="M485.431 689.369c-65.041 0-117.767-52.726-117.767-117.767v-129.257c0-65.041 52.726-117.767 117.767-117.767s117.767 52.726 117.767 117.767v129.257c0 65.041-52.726 117.767-117.767 117.767v0zM485.431 755.433c101.528 0 183.832-82.304 183.832-183.832v-129.257c0-101.528-82.304-183.832-183.832-183.832s-183.832 82.304-183.832 183.832v129.257c0 101.528 82.304 183.832 183.832 183.832v0z"></path>
			<path class="path2" d="M603.198 248.46v344.684c0 89.594 72.607 162.235 162.226 162.289 136.653 0.050 248.026-110.232 248.523-246.616 0-6.816-0.064-12.252-0.231-17.611-8.118-267.233-231.729-487.238-499.148-491.16-315.6-4.619-559.596 276.196-507.493 592.817 35.451 215.613 212.535 387.060 429.517 416.348 141.933 19.165 279.938-20.297 387.616-106.717l-41.351-51.523c-93.701 75.202-213.606 109.488-337.426 92.769-188.256-25.411-342.434-174.682-373.167-361.6-45.398-275.88 166.762-520.055 441.337-516.037 232.101 3.404 427.037 195.197 434.083 427.137 0.144 4.599 0.2 9.391 0.2 15.456-0.364 99.776-82.098 180.709-182.427 180.672-53.142-0.032-96.193-43.103-96.193-96.224v-344.684h-66.065z"></path>
		</symbol>
		<symbol id="icon-ios-logo" viewBox="0 0 32 32">
			<title>ios-logo</title>
			<path class="path1" fill="#eceff1" d="M8.889 32h14.222c4.909 0 8.889-3.98 8.889-8.889v-14.222c0-4.909-3.98-8.889-8.889-8.889h-14.222c-4.909 0-8.889 3.98-8.889 8.889v14.222c0 4.909 3.98 8.889 8.889 8.889z"></path>
			<path class="path2" fill="#ffc107" d="M6.707 11.321c0 0.374-0.303 0.677-0.677 0.677s-0.677-0.303-0.677-0.677c0-0.374 0.303-0.677 0.677-0.677s0.677 0.303 0.677 0.677z"></path>
			<path class="path3" fill="#ff5722" d="M8.873 14.053l1.284-0.542c0.604-1.084 1.631-1.713 2.962-1.713 0.302 0 0.586 0.038 0.855 0.1l1.22-0.515c-0.601-0.296-1.29-0.468-2.075-0.468-2.124 0-3.64 1.167-4.245 3.137z"></path>
			<path class="path4" fill="#ff5722" d="M6.486 15.061v-1.395h-0.91v1.78z"></path>
			<path class="path5" fill="#f44336" d="M6.486 17.54v-2.479l-0.91 0.385v2.478z"></path>
			<path class="path6" fill="#f44336" d="M9.548 16.132c0-1.039 0.219-1.923 0.608-2.62l-1.284 0.542c-0.19 0.619-0.296 1.312-0.296 2.078 0 0.179 0.025 0.34 0.036 0.51l0.944-0.399c-0.001-0.038-0.008-0.072-0.008-0.111z"></path>
			<path class="path7" fill="#f44336" d="M21.708 11.111c-0.248 0.076-0.477 0.173-0.688 0.291l0.688-0.291z"></path>
			<path class="path8" fill="#f44336" d="M15.193 11.384l-1.22 0.515c0.913 0.211 1.625 0.767 2.089 1.596l0.908-0.384c-0.416-0.775-1.023-1.355-1.778-1.727z"></path>
			<path class="path9" fill="#e91e63" d="M6.486 20.019v-2.478l-0.91 0.384v2.478z"></path>
			<path class="path10" fill="#e91e63" d="M21.708 11.111l-0.688 0.291c-0.874 0.486-1.402 1.301-1.402 2.293 0 0.268 0.041 0.508 0.104 0.733l0.917-0.388c-0.030-0.117-0.050-0.24-0.050-0.373 0-1.091 0.993-1.882 2.43-1.882 0.708 0 1.304 0.189 1.74 0.515l0.932-0.394c-0.617-0.608-1.542-0.989-2.644-0.989-0.487-0.001-0.936 0.069-1.34 0.194z"></path>
			<path class="path11" fill="#e91e63" d="M9.556 16.244l-0.944 0.399c0.052 0.852 0.231 1.61 0.531 2.254l0.892-0.377c-0.298-0.635-0.465-1.4-0.479-2.276z"></path>
			<path class="path12" fill="#e91e63" d="M16.971 13.112l-0.908 0.384c0.339 0.606 0.536 1.362 0.585 2.231l0.943-0.398c-0.084-0.843-0.286-1.594-0.62-2.217z"></path>
			<path class="path13" fill="#9c27b0" d="M17.43 17.874c0.13-0.535 0.215-1.108 0.215-1.742 0-0.281-0.029-0.541-0.056-0.804l-0.943 0.398c0.008 0.136 0.027 0.263 0.027 0.405 0 0.86-0.157 1.608-0.428 2.243l1.185-0.5z"></path>
			<path class="path14" fill="#9c27b0" d="M10.036 18.519l-0.892 0.377c0.363 0.781 0.896 1.394 1.58 1.812l1.118-0.472c-0.801-0.3-1.417-0.89-1.805-1.716z"></path>
			<path class="path15" fill="#9c27b0" d="M6.486 20.019l-0.91 0.384v0.743h0.91z"></path>
			<path class="path16" fill="#9c27b0" d="M20.64 14.040l-0.917 0.388c0.218 0.77 0.813 1.308 1.892 1.679l1.422-0.601-0.3-0.076c-1.295-0.324-1.932-0.74-2.097-1.39z"></path>
			<path class="path17" fill="#9c27b0" d="M25.528 13.576h0.958c-0.044-0.65-0.337-1.22-0.794-1.67l-0.932 0.394c0.42 0.313 0.692 0.753 0.767 1.276z"></path>
			<path class="path18" fill="#3f51b5" d="M17.43 17.874l-1.185 0.5c-0.559 1.312-1.644 2.098-3.128 2.098-0.469 0-0.89-0.092-1.277-0.237l-1.118 0.472c0.668 0.408 1.465 0.647 2.396 0.647 2.26 0 3.788-1.317 4.313-3.48z"></path>
			<path class="path19" fill="#3f51b5" d="M20.292 18.541h-0.958c0.023 0.327 0.113 0.627 0.235 0.908l0.879-0.372c-0.075-0.168-0.133-0.345-0.156-0.536z"></path>
			<path class="path20" fill="#3f51b5" d="M23.729 15.681l-0.692-0.174-1.422 0.601c0.208 0.072 0.433 0.139 0.677 0.199l1.146 0.292c0.635 0.156 1.117 0.355 1.475 0.595l1.071-0.452c-0.469-0.458-1.203-0.799-2.254-1.060z"></path>
			<path class="path21" fill="#03a9f4" d="M20.447 19.078l-0.879 0.372c0.335 0.773 1.012 1.361 1.925 1.665l1.504-0.635c-1.226-0.029-2.184-0.572-2.55-1.402z"></path>
			<path class="path22" fill="#03a9f4" d="M26.59 18.963c0.031-0.172 0.056-0.347 0.056-0.532 0-0.697-0.208-1.248-0.662-1.691l-1.071 0.452c0.515 0.347 0.761 0.785 0.761 1.342 0 0.349-0.116 0.667-0.309 0.945l1.226-0.517z"></path>
			<path class="path23" fill="#009688" d="M26.59 18.963l-1.226 0.518c-0.42 0.606-1.239 1.006-2.267 1.006-0.035 0-0.066-0.005-0.1-0.006l-1.504 0.635c0.457 0.152 0.965 0.239 1.52 0.239 1.962-0.001 3.31-0.942 3.576-2.392z"></path>
		</symbol>
		<symbol id="icon-phone" viewBox="0 0 1056 1024">
			<title>phone</title>
			<path class="path1" d="M462.636 186.878l-161.477-165.415-2.908-2.635c-31.379-25.103-75.555-25.103-106.934 0l-2.993 2.722-122.092 126.031c-34.953 29.779-47.483 83.029-30.61 128.024 49.702 142.92 145.428 307.023 283.027 444.622 134.687 134.687 280.496 218.807 444.197 282.865 47.227 15.787 94.486 6.057 130.948-25.196l123.894-123.761c32.189-32.189 32.189-80.020 0-112.209l-161.477-161.477c-32.189-32.189-80.020-32.189-112.209 0l-98.462 98.462 35.233-6.785c-1.952-0.837-5.944-2.638-11.679-5.374-9.745-4.65-20.651-10.181-32.422-16.561-33.66-18.244-67.316-39.541-98.579-63.579-16.014-12.313-30.994-25.055-44.754-38.189-16.429-15.682-32.020-33.399-46.728-52.787-22.025-29.033-41.004-60.306-56.82-91.578-5.527-10.929-10.251-21.048-14.166-30.079-2.292-5.287-3.77-8.94-4.43-10.681l-7.293 33.976 98.462-98.462c32.629-32.629 32.629-86.356-2.637-114.569l-19.99 24.988 22.898-22.353zM416.839 231.584l2.908 2.635c4.119 3.295 4.119 12.583-2.637 19.339l-113.092 113.092 7.338 19.346c3.706 9.77 10.802 26.139 21.325 46.946 17.452 34.507 38.394 69.014 62.943 101.375 16.684 21.993 34.512 42.251 53.526 60.401 15.472 14.769 32.177 28.978 49.933 42.63 34.178 26.28 70.638 49.35 107.093 69.11 12.769 6.921 24.651 12.946 35.356 18.055 6.535 3.119 11.308 5.273 14.031 6.439l19.913 8.534 113.781-113.781c7.196-7.196 14.503-7.196 21.699 0l161.477 161.477c7.196 7.196 7.196 14.503 0 21.699l-122.092 122.092c-17.764 15.103-41.582 20.006-65.715 11.962-154.659-60.564-293.323-140.562-420.723-267.962-130.216-130.216-221.112-286.038-268.096-421.116-7.873-21.021-2.053-45.755 14.232-59.714l124.251-128.062-22.984-22.265 19.99 24.988c8.005-6.404 18.968-6.404 26.973 0l19.99-24.988-22.898 22.353 161.477 165.415z"></path>
		</symbol>
		<symbol id="icon-worldwide-location" viewBox="0 0 1024 1024">
			<title>worldwide-location</title>
			<path class="path1" d="M850.859 769.877c-51.243 67.157-121.557 118.827-203.221 146.304 20.821-40.107 37.461-89.259 49.963-143.787-24.149-24.363-52.139-54.656-81.237-89.728h-220.075c-5.888-39.125-9.899-81.963-11.477-128h139.52c-16.725-27.349-32.427-55.765-45.995-85.333h-93.525c1.579-46.037 5.589-88.875 11.477-128h40.021c-5.717-28.16-9.643-56.619-9.643-85.333h-13.397c5.931-23.467 12.587-44.459 19.584-63.531 14.251-75.392 53.419-141.867 108.544-190.976-9.813-0.555-19.499-1.493-29.397-1.493-282.325 0-512 229.675-512 512s229.675 512 512 512c272.341 0 495.104-213.931 510.507-482.517-50.432 90.837-114.773 171.861-171.648 228.395v0zM121.216 341.333h188.928c-5.632 41.515-9.301 84.523-10.709 128h-211.925c4.48-45.099 16.213-88.107 33.707-128v0zM121.216 682.667c-17.493-39.893-29.227-82.859-33.707-128h211.925c1.408 43.477 5.035 86.485 10.709 128h-188.928zM171.477 768h153.856c12.587 56.32 29.653 106.965 51.072 148.181-82.517-27.733-153.557-80.043-204.928-148.181v0zM325.333 256h-153.856c51.371-68.139 122.411-120.448 204.885-148.181-21.376 41.216-38.443 91.861-51.029 148.181v0zM512 938.667c-31.019 0-71.68-63.36-98.731-170.667h197.504c-27.093 107.307-67.755 170.667-98.773 170.667v0z"></path>
			<path class="path2" d="M947.2 256c0 33.254-23.834 95.617-65.714 174.943-11.081 20.988-23.255 42.874-36.345 65.44-23.020 39.684-47.726 79.546-72.434 117.593-8.648 13.316-16.673 25.446-23.866 36.144-4.293 6.385-7.338 10.85-8.926 13.149h56.17c-1.588-2.299-4.633-6.764-8.926-13.149-7.193-10.698-15.218-22.828-23.866-36.144-24.708-38.047-49.415-77.909-72.434-117.593-13.090-22.566-25.265-44.451-36.345-65.44-41.88-79.326-65.714-141.689-65.714-174.943 0-98.951 80.249-179.2 179.2-179.2s179.2 80.249 179.2 179.2v0zM1015.467 256c0-136.654-110.813-247.467-247.467-247.467s-247.467 110.813-247.467 247.467c0 48.186 26.577 117.727 73.61 206.815 11.527 21.834 24.139 44.505 37.664 67.822 23.647 40.765 48.941 81.575 74.232 120.52 8.852 13.631 17.077 26.063 24.467 37.054 4.457 6.628 7.662 11.327 9.407 13.854l28.085 40.662 28.085-40.662c1.745-2.527 4.95-7.226 9.407-13.854 7.39-10.991 15.615-23.423 24.467-37.054 25.292-38.945 50.585-79.755 74.232-120.52 13.526-23.317 26.137-45.988 37.664-67.822 47.033-89.088 73.61-158.628 73.61-206.815v0z"></path>
			<path fill="#000" class="path3" d="M832 256c0 35.346-28.654 64-64 64s-64-28.654-64-64c0-35.346 28.654-64 64-64s64 28.654 64 64z"></path>
		</symbol>
		<symbol id="icon-fill-1" viewBox="0 0 1024 1024">
			<title>fill-1</title>
			<path class="path1" d="M903.328 227.584c43.392-26.016 76.704-67.168 92.384-116.224-40.576 24.064-85.568 41.536-133.408 50.976-38.336-40.832-92.928-66.336-153.344-66.336-116.032 0-210.080 94.048-210.080 210.080 0 16.448 1.856 32.48 5.44 47.872-174.624-8.768-329.408-92.416-433.024-219.52-18.080 31.040-28.448 67.136-28.448 105.632 0 72.864 37.088 137.184 93.44 174.848-34.432-1.088-66.816-10.528-95.136-26.272-0.032 0.896-0.032 1.76-0.032 2.656 0 101.792 72.416 186.688 168.544 205.984-17.632 4.8-36.192 7.36-55.36 7.36-13.536 0-26.688-1.312-39.52-3.744 26.72 83.456 104.32 144.192 196.256 145.888-71.904 56.352-162.496 89.92-260.928 89.92-16.96 0-33.664-0.992-50.112-2.912 92.96 59.584 203.392 94.368 322.048 94.368 386.432 0 597.728-320.128 597.728-597.728 0-9.12-0.192-18.176-0.608-27.2 41.056-29.6 76.672-66.592 104.832-108.736-37.664 16.704-78.176 28-120.672 33.088z"></path>
		</symbol>
		<symbol id="icon-fill-3" viewBox="0 0 1024 1024">
			<title>fill-3</title>
			<path class="path1" d="M967.121 10.395h-910.212c-22.869 0-41.394 18.525-41.394 41.363v910.243c0 22.838 18.525 41.363 41.394 41.363h486.121v-372.364h-124.121v-155.152h124.121v-124.121c0-128.248 81.206-191.364 195.615-191.364 54.8 0 101.904 4.096 115.619 5.896v134.051l-79.344 0.031c-62.216 0-76.738 29.572-76.738 72.952v102.555h155.152l-31.030 155.152h-124.121l2.482 372.364h266.457c22.838 0 41.363-18.525 41.363-41.363v-910.243c0-22.838-18.525-41.363-41.363-41.363z"></path>
		</symbol>
		<symbol id="icon-fill-33" viewBox="0 0 1024 1024">
			<title>fill-33</title>
			<path class="path1" d="M872.608 872.544h-151.872v-237.632c0-56.672-0.96-129.568-78.912-129.568-79.008 0-91.072 61.76-91.072 125.504v241.696h-151.712v-488.672h145.6v66.816h2.080c20.256-38.432 69.792-78.944 143.68-78.944 153.792 0 182.208 101.184 182.208 232.8v268zM227.808 317.12c-48.8 0-88.128-39.456-88.128-88.096 0-48.608 39.328-88.064 88.128-88.064 48.576 0 88.032 39.456 88.032 88.064 0 48.64-39.456 88.096-88.032 88.096v0zM303.776 872.544h-152.032v-488.672h152.032v488.672zM981.344 0h-938.656c-23.584 0-42.688 19.104-42.688 42.656v938.656c0 23.584 19.104 42.688 42.688 42.688h938.656c23.552 0 42.656-19.104 42.656-42.688v-938.656c0-23.552-19.104-42.656-42.656-42.656v0z"></path>
		</symbol>
		<!-- <symbol id="icon-pllogo1200x1200" viewBox="0 0 71 32">
			<title>pllogo1200x1200</title>
			<path fill="#243f53" class="path1" d="M20.736 28.557l-18.456-10.071v-5.006l20.624 11.176z"></path>
			<path fill="#16c6c2" class="path2" d="M20.736 3.443l-18.462 10.036 4.642 2.521 13.421-7.327c0.247-0.135 0.4-0.394 0.4-0.67v-4.56z"></path>
			<path fill="#16c6c2" class="path3" d="M25.772 28.557h-5.036l13.561-25.113h5.071z"></path>
			<path fill="#16c6c2" class="path4" d="M49.78 3.443l18.456 10.065v5.006l-20.624-11.176z"></path>
			<path fill="#243f53" class="path5" d="M49.769 28.557l18.468-10.030-4.642-2.521-13.426 7.327c-0.247 0.135-0.4 0.394-0.4 0.67v4.554z"></path>
			<path fill="#243f53" class="path6" d="M44.745 3.443h5.036l-13.562 25.113h-5.071z"></path>
		</symbol> -->
		<symbol id="icon-pllogo1200x1200" viewBox="0 0 200 32">
			<title>pllogo1200x1200</title>
			<path class="path1" d="M100.083 7.057c0.675 0 1.204-0.159 1.587-0.477s0.575-0.75 0.575-1.295v-0.039c0-0.584-0.192-1.029-0.575-1.334s-0.919-0.458-1.607-0.458h-1.773v3.603h1.792zM94.512 0.278h5.843c0.857 0 1.636 0.107 2.337 0.321s1.299 0.526 1.792 0.935c0.493 0.409 0.873 0.912 1.139 1.51s0.399 1.273 0.399 2.026v0.039c0 0.805-0.146 1.513-0.438 2.123s-0.698 1.123-1.217 1.539c-0.519 0.416-1.139 0.727-1.86 0.935s-1.503 0.312-2.347 0.312h-1.87v3.896h-3.779v-13.635zM115.646 8.537l-1.519-3.876-1.539 3.876h3.058zM112.335 0.181h3.642l5.805 13.732h-4.051l-0.993-2.435h-5.259l-0.974 2.435h-3.974l5.805-13.732zM129.378 6.823c0.649 0 1.149-0.146 1.5-0.438s0.526-0.685 0.526-1.178v-0.039c0-0.545-0.182-0.951-0.545-1.217s-0.864-0.399-1.5-0.399h-2.474v3.272h2.493zM123.106 0.278h6.447c1.052 0 1.941 0.13 2.669 0.39s1.318 0.623 1.773 1.091c0.805 0.779 1.208 1.837 1.208 3.175v0.039c0 1.052-0.253 1.922-0.76 2.61s-1.188 1.214-2.045 1.578l3.253 4.753h-4.363l-2.746-4.129h-1.656v4.129h-3.779v-13.635zM145.136 8.537l-1.519-3.876-1.539 3.876h3.058zM141.825 0.181h3.642l5.805 13.732h-4.051l-0.993-2.435h-5.259l-0.974 2.435h-3.974l5.805-13.732zM152.596 0.278h3.779v10.323h6.603v3.311h-10.382v-13.635zM164.595 0.278h3.779v10.323h6.603v3.311h-10.382v-13.635zM176.593 0.278h10.966v3.214h-7.226v2.065h6.545v2.98h-6.545v2.162h7.324v3.214h-11.064v-13.635zM189.585 0.278h3.779v10.323h6.603v3.311h-10.382v-13.635z"></path>
			<path class="path2" d="M94.512 17.67h3.779v10.323h6.603v3.311h-10.382v-13.635zM114.536 25.928l-1.519-3.876-1.539 3.876h3.058zM111.224 17.572h3.642l5.805 13.732h-4.051l-0.993-2.435h-5.259l-0.974 2.435h-3.974l5.805-13.732zM128.599 28.266c0.584 0 1.032-0.107 1.344-0.321s0.467-0.523 0.467-0.925v-0.039c0-0.377-0.149-0.675-0.448-0.896s-0.766-0.331-1.402-0.331h-2.883v2.513h2.922zM128.054 23.104c0.584 0 1.029-0.097 1.334-0.292s0.458-0.493 0.458-0.896v-0.039c0-0.377-0.143-0.666-0.429-0.867s-0.714-0.302-1.286-0.302h-2.454v2.396h2.376zM121.996 17.67h6.993c0.857 0 1.591 0.104 2.201 0.312s1.117 0.513 1.519 0.915c0.273 0.273 0.487 0.591 0.643 0.954s0.234 0.779 0.234 1.247v0.039c0 0.792-0.198 1.432-0.594 1.919s-0.899 0.86-1.51 1.12c0.831 0.273 1.49 0.666 1.977 1.178s0.73 1.23 0.73 2.152v0.039c0 1.182-0.451 2.104-1.354 2.766s-2.172 0.993-3.808 0.993h-7.032v-13.635zM141.279 31.538c-1.221 0-2.38-0.188-3.477-0.565s-2.068-0.941-2.912-1.695l2.104-2.513c1.363 1.091 2.837 1.636 4.422 1.636 0.506 0 0.893-0.081 1.159-0.243s0.399-0.393 0.399-0.691v-0.039c0-0.143-0.032-0.269-0.097-0.38s-0.185-0.218-0.36-0.321c-0.175-0.104-0.409-0.205-0.701-0.302s-0.672-0.198-1.139-0.302c-0.727-0.169-1.402-0.354-2.026-0.555s-1.165-0.461-1.626-0.779c-0.461-0.318-0.825-0.714-1.091-1.188s-0.399-1.062-0.399-1.763v-0.039c0-0.636 0.12-1.221 0.36-1.753s0.591-0.993 1.052-1.383c0.461-0.39 1.016-0.691 1.665-0.906s1.383-0.321 2.201-0.321c1.169 0 2.211 0.153 3.126 0.458s1.743 0.756 2.483 1.354l-1.889 2.669c-0.623-0.442-1.263-0.776-1.919-1.003s-1.289-0.341-1.899-0.341c-0.454 0-0.795 0.084-1.023 0.253s-0.341 0.377-0.341 0.623v0.039c0 0.156 0.036 0.292 0.107 0.409s0.195 0.224 0.37 0.321c0.175 0.097 0.416 0.195 0.721 0.292s0.691 0.198 1.159 0.302c0.779 0.169 1.484 0.367 2.113 0.594s1.165 0.503 1.607 0.828c0.441 0.325 0.779 0.717 1.013 1.178s0.351 1.010 0.351 1.646v0.039c0 0.701-0.133 1.325-0.399 1.87s-0.64 1.010-1.12 1.393c-0.48 0.383-1.058 0.675-1.734 0.877s-1.428 0.302-2.259 0.302v0z"></path>
			<path class="path3" fill="#243f53" d="M23.533 31.925l-23.474-12.785v-6.355l26.231 14.187z"></path>
			<path class="path4" fill="#16c6c2" d="M23.533 0.045l-23.481 12.74 5.904 3.2 17.069-9.302c0.314-0.172 0.508-0.5 0.508-0.85v-5.788z"></path>
			<path class="path5" fill="#16c6c2" d="M29.938 31.925h-6.405l17.248-31.881h6.449z"></path>
			<path class="path6" fill="#16c6c2" d="M60.474 0.045l23.474 12.778v6.355l-26.231-14.187z"></path>
			<path class="path7" fill="#243f53" d="M60.459 31.925l23.489-12.733-5.904-3.2-17.076 9.302c-0.314 0.172-0.508 0.5-0.508 0.85v5.781z"></path>
			<path class="path8" fill="#243f53" d="M54.069 0.045h6.405l-17.248 31.881h-6.449z"></path>
		</symbol>
		<symbol id="icon-pllogo_white" viewBox="0 0 200 32">
			<title>pllogo_white</title>
			<path class="path1" fill="#fff" d="M100.083 7.057c0.675 0 1.204-0.159 1.587-0.477s0.575-0.75 0.575-1.295v-0.039c0-0.584-0.192-1.029-0.575-1.334s-0.919-0.458-1.607-0.458h-1.773v3.603h1.792zM94.512 0.278h5.843c0.857 0 1.636 0.107 2.337 0.321s1.299 0.526 1.792 0.935c0.493 0.409 0.873 0.912 1.139 1.51s0.399 1.273 0.399 2.026v0.039c0 0.805-0.146 1.513-0.438 2.123s-0.698 1.123-1.217 1.539c-0.519 0.416-1.139 0.727-1.86 0.935s-1.503 0.312-2.347 0.312h-1.87v3.896h-3.779v-13.635zM115.646 8.537l-1.519-3.876-1.539 3.876h3.058zM112.335 0.181h3.642l5.805 13.732h-4.051l-0.993-2.435h-5.259l-0.974 2.435h-3.974l5.805-13.732zM129.378 6.823c0.649 0 1.149-0.146 1.5-0.438s0.526-0.685 0.526-1.178v-0.039c0-0.545-0.182-0.951-0.545-1.217s-0.864-0.399-1.5-0.399h-2.474v3.272h2.493zM123.106 0.278h6.447c1.052 0 1.941 0.13 2.669 0.39s1.318 0.623 1.773 1.091c0.805 0.779 1.208 1.837 1.208 3.175v0.039c0 1.052-0.253 1.922-0.76 2.61s-1.188 1.214-2.045 1.578l3.253 4.753h-4.363l-2.746-4.129h-1.656v4.129h-3.779v-13.635zM145.136 8.537l-1.519-3.876-1.539 3.876h3.058zM141.825 0.181h3.642l5.805 13.732h-4.051l-0.993-2.435h-5.259l-0.974 2.435h-3.974l5.805-13.732zM152.596 0.278h3.779v10.323h6.603v3.311h-10.382v-13.635zM164.595 0.278h3.779v10.323h6.603v3.311h-10.382v-13.635zM176.593 0.278h10.966v3.214h-7.226v2.065h6.545v2.98h-6.545v2.162h7.324v3.214h-11.064v-13.635zM189.585 0.278h3.779v10.323h6.603v3.311h-10.382v-13.635z"></path>
			<path class="path2" fill="#fff" d="M94.512 17.67h3.779v10.323h6.603v3.311h-10.382v-13.635zM114.536 25.928l-1.519-3.876-1.539 3.876h3.058zM111.224 17.572h3.642l5.805 13.732h-4.051l-0.993-2.435h-5.259l-0.974 2.435h-3.974l5.805-13.732zM128.599 28.266c0.584 0 1.032-0.107 1.344-0.321s0.467-0.523 0.467-0.925v-0.039c0-0.377-0.149-0.675-0.448-0.896s-0.766-0.331-1.402-0.331h-2.883v2.513h2.922zM128.054 23.104c0.584 0 1.029-0.097 1.334-0.292s0.458-0.493 0.458-0.896v-0.039c0-0.377-0.143-0.666-0.429-0.867s-0.714-0.302-1.286-0.302h-2.454v2.396h2.376zM121.996 17.67h6.993c0.857 0 1.591 0.104 2.201 0.312s1.117 0.513 1.519 0.915c0.273 0.273 0.487 0.591 0.643 0.954s0.234 0.779 0.234 1.247v0.039c0 0.792-0.198 1.432-0.594 1.919s-0.899 0.86-1.51 1.12c0.831 0.273 1.49 0.666 1.977 1.178s0.73 1.23 0.73 2.152v0.039c0 1.182-0.451 2.104-1.354 2.766s-2.172 0.993-3.808 0.993h-7.032v-13.635zM141.279 31.538c-1.221 0-2.38-0.188-3.477-0.565s-2.068-0.941-2.912-1.695l2.104-2.513c1.363 1.091 2.837 1.636 4.422 1.636 0.506 0 0.893-0.081 1.159-0.243s0.399-0.393 0.399-0.691v-0.039c0-0.143-0.032-0.269-0.097-0.38s-0.185-0.218-0.36-0.321c-0.175-0.104-0.409-0.205-0.701-0.302s-0.672-0.198-1.139-0.302c-0.727-0.169-1.402-0.354-2.026-0.555s-1.165-0.461-1.626-0.779c-0.461-0.318-0.825-0.714-1.091-1.188s-0.399-1.062-0.399-1.763v-0.039c0-0.636 0.12-1.221 0.36-1.753s0.591-0.993 1.052-1.383c0.461-0.39 1.016-0.691 1.665-0.906s1.383-0.321 2.201-0.321c1.169 0 2.211 0.153 3.126 0.458s1.743 0.756 2.483 1.354l-1.889 2.669c-0.623-0.442-1.263-0.776-1.919-1.003s-1.289-0.341-1.899-0.341c-0.454 0-0.795 0.084-1.023 0.253s-0.341 0.377-0.341 0.623v0.039c0 0.156 0.036 0.292 0.107 0.409s0.195 0.224 0.37 0.321c0.175 0.097 0.416 0.195 0.721 0.292s0.691 0.198 1.159 0.302c0.779 0.169 1.484 0.367 2.113 0.594s1.165 0.503 1.607 0.828c0.441 0.325 0.779 0.717 1.013 1.178s0.351 1.010 0.351 1.646v0.039c0 0.701-0.133 1.325-0.399 1.87s-0.64 1.010-1.12 1.393c-0.48 0.383-1.058 0.675-1.734 0.877s-1.428 0.302-2.259 0.302v0z"></path>
			<path class="path3" fill="#fff" d="M23.533 31.925l-23.474-12.785v-6.355l26.231 14.187z"></path>
			<path class="path4" fill="#fff" d="M23.533 0.045l-23.481 12.74 5.904 3.2 17.069-9.302c0.314-0.172 0.508-0.5 0.508-0.85v-5.788z"></path>
			<path class="path5" fill="#fff" d="M29.938 31.925h-6.405l17.248-31.881h6.449z"></path>
			<path class="path6" fill="#fff" d="M60.474 0.045l23.474 12.778v6.355l-26.231-14.187z"></path>
			<path class="path7" fill="#fff" d="M60.459 31.925l23.489-12.733-5.904-3.2-17.076 9.302c-0.314 0.172-0.508 0.5-0.508 0.85v5.781z"></path>
			<path class="path8" fill="#fff" d="M54.069 0.045h6.405l-17.248 31.881h-6.449z"></path>
		</symbol>
		<symbol id="icon-arrows-long-right" viewBox="0 0 52 32">
			<title>arrows-long-right</title>
			<path fill="#fff" class="path1" d="M47.304 12.901h-47.304v5.818h47.304v-5.818z"></path>
			<path fill="#fff" class="path2" d="M33.389 4.966l12.901 12.901v-4.114l-12.901 12.901 4.114 4.114 14.958-14.958-14.958-14.958-4.114 4.114z"></path>
		</symbol>
		<symbol id="icon-filled-like" viewBox="0 0 38 32">
			<title>filled-like</title>
			<path fill="#f44336" class="path1" d="M27.32 0c-3.565 0-6.704 1.824-8.538 4.586-1.835-2.762-4.972-4.586-8.538-4.586-5.658 0-10.245 4.587-10.245 10.245 0 10.196 18.783 20.49 18.783 20.49s18.783-10.207 18.783-20.49c0-5.658-4.587-10.245-10.245-10.245z"></path>
		</symbol>
		<symbol id="icon-sign-up" viewBox="0 0 31 32">
			<title>sign-up</title>
			<path class="path1" d="M5.233 29.606c0.004-0 0.004-0-0.009 0-0.355 0.007-0.835-0.035-1.278-0.165-0.645-0.19-0.935-0.468-0.935-0.92 0-0.624 0.447-1.305 1.541-2.446 1.795-1.872 2.036-2.178 2.036-3.167 0-1.361-0.738-1.972-2.451-2.708 0.012 0.005-0.357-0.152-0.458-0.197-1.38-0.6-1.84-1.042-1.84-1.968-0.011-1.292 0.586-2.818 1.743-4.526 1.295-1.91 3.231-3.967 5.634-6.084 1.657-1.459 3.435-2.86 5.214-4.151 0.623-0.452 1.2-0.857 1.718-1.21 0.309-0.211 0.528-0.356 0.643-0.43l-0.967-1.492c-0.126 0.081-0.356 0.234-0.677 0.453-0.532 0.362-1.124 0.778-1.761 1.24-1.821 1.321-3.642 2.756-5.345 4.256-2.507 2.208-4.538 4.366-5.931 6.42-1.341 1.979-2.064 3.826-2.049 5.531-0 1.829 0.948 2.737 2.909 3.591 0.108 0.047 0.483 0.207 0.466 0.2 1.089 0.468 1.375 0.705 1.375 1.074 0 0.267-0.275 0.615-1.541 1.937-1.411 1.472-2.036 2.422-2.036 3.676 0 1.382 0.89 2.238 2.211 2.626 0.649 0.191 1.295 0.248 1.817 0.237 0.029-0.001 0.029-0.001 0.042-0.001l-0.070-1.776z"></path>
			<path class="path2" d="M28.14 12.718l-16.53 16.468 0.45-0.241-3.331 0.678 1.048 1.048 0.678-3.331-0.241 0.45 16.468-16.53-1.259-1.255-16.656 16.718-1 4.908 4.908-1 16.718-16.656-1.255-1.259z"></path>
			<path class="path3" d="M29.939 13.039l0.432-0.432c0.987-0.987 0.987-2.59 0-3.577s-2.59-0.987-3.577 0l-0.432 0.432 3.577 3.577z"></path>
		</symbol>
		<symbol id="icon-dribbble" viewBox="0 0 32 32">
			<title>dribbble1</title>
			<path class="path1" d="M29.020 15.999c0 7.18-5.84 13.020-13.018 13.020-7.181 0-13.020-5.84-13.020-13.020s5.839-13.020 13.020-13.020c7.178 0 13.018 5.84 13.018 13.020zM16.002 1.24c-8.142 0-14.762 6.621-14.762 14.759 0 8.139 6.62 14.761 14.762 14.761 8.136 0 14.759-6.621 14.759-14.761s-6.623-14.759-14.759-14.759z"></path>
			<path class="path2" d="M10.019 3.344v0c0.102 0.125 10.344 12.666 10.837 25.286l1.741-0.068c-0.518-13.213-10.798-25.8-11.235-26.325l-1.343 1.107z"></path>
			<path class="path3" d="M1.807 14.318c0.15 0.041 14.965 4.035 24.253-7.658l-1.365-1.082c-8.573 10.795-22.278 7.103-22.415 7.062l-0.472 1.678z"></path>
			<path class="path4" d="M7.249 26.674v0.003c0.307-0.595 7.696-14.452 22.079-8.872l0.633-1.624c-15.855-6.154-24.175 9.537-24.261 9.696l1.549 0.797z"></path>
		</symbol>
		<symbol id="icon-LIn" viewBox="0 0 32 32">
			<title>LIn</title>
			<path class="path1" d="M32.002 31.97h-6.63v-10.376c0-2.474-0.044-5.656-3.446-5.656-3.45 0-3.976 2.696-3.976 5.48v10.552h-6.624v-21.336h6.356v2.918h0.092c0.884-1.678 3.048-3.448 6.274-3.448 6.714 0 7.954 4.418 7.954 10.164v11.702zM3.85 7.72c-2.13 0-3.848-1.724-3.848-3.846s1.718-3.846 3.848-3.846c2.12 0 3.842 1.724 3.842 3.846s-1.722 3.846-3.842 3.846v0zM7.166 31.97h-6.638v-21.336h6.638v21.336z"></path>
		</symbol>
		<symbol id="icon-instagram" viewBox="0 0 32 32">
			<title>instagram</title>
			<path class="path1" d="M28 29.002h-24.002c-0.552 0-1-0.448-1-1v-15.001h4c-0.521 0.75-0.697 2.149-0.697 3.037 0 5.355 4.367 9.713 9.735 9.713s9.736-4.357 9.736-9.713c0-0.888-0.126-2.266-0.772-3.037h4v15.001c0 0.552-0.448 1-1 1zM16.036 9.899c3.399 0 6.154 2.749 6.154 6.139 0 3.391-2.755 6.14-6.154 6.14s-6.153-2.749-6.153-6.14c0-3.39 2.755-6.139 6.153-6.139zM23.999 4h3c0.552 0 1 0.448 1 1v3c0 0.552-0.448 1-1 1h-3c-0.552 0-1-0.448-1-1v-3c0-0.552 0.448-1 1-1zM28.196 0h-24.394c-2.101 0-3.804 1.699-3.804 3.795v24.412c0 2.096 1.703 3.795 3.804 3.795h24.394c2.101 0 3.804-1.699 3.804-3.795v-24.412c0-2.096-1.703-3.795-3.804-3.795z"></path>
		</symbol>
		<symbol id="icon-twitter" viewBox="0 0 32 32">
			<title>twitter</title>
			<path class="path1" d="M28.725 9.474c0.012 0.282 0.020 0.564 0.020 0.85 0 8.674-6.604 18.678-18.68 18.678-3.708 0-7.158-1.086-10.064-2.948 0.514 0.060 1.036 0.090 1.566 0.090 3.076 0 5.906-1.048 8.154-2.81-2.874-0.052-5.298-1.95-6.134-4.558 0.402 0.076 0.812 0.116 1.236 0.116 0.598 0 1.178-0.080 1.73-0.23-3.004-0.602-5.266-3.256-5.266-6.436v-0.084c0.884 0.492 1.898 0.788 2.974 0.822-1.762-1.178-2.922-3.188-2.922-5.464 0-1.204 0.324-2.332 0.89-3.302 3.238 3.972 8.076 6.586 13.532 6.86-0.112-0.48-0.17-0.982-0.17-1.496 0-3.626 2.94-6.566 6.564-6.566 1.89 0 3.596 0.798 4.792 2.074 1.496-0.294 2.902-0.84 4.17-1.592-0.49 1.532-1.532 2.818-2.886 3.632 1.328-0.16 2.592-0.512 3.77-1.034-0.88 1.316-1.994 2.472-3.276 3.398v0z"></path>
		</symbol>
		<symbol id="icon-fb" viewBox="0 0 18 32">
			<title>fb</title>
			<path class="path1" d="M16.618 5.312l-3.012 0.002c-2.362 0-2.82 1.122-2.82 2.768v3.632h5.634l-0.734 5.69h-4.9v14.596h-5.874v-14.596h-4.912v-5.69h4.912v-4.194c0-4.87 2.974-7.52 7.316-7.52 2.080 0 3.868 0.154 4.39 0.224v5.088z"></path>
		</symbol>
		<symbol id="icon-menu1" viewBox="0 0 46 32">
			<title>menu1</title>
			<path class="path1" d="M0 18.286h45.714v-4.571h-45.714v4.571z"></path>
			<path class="path2" d="M0 4.571h45.714v-4.571h-45.714v4.571z"></path>
			<path class="path3" d="M0 32h45.714v-4.571h-45.714v4.571z"></path>
		</symbol>
		<symbol id="icon-Medium_icon" viewBox="0 0 40 32">
			<title>Medium_icon</title>
			<path class="path1" d="M40.421 4.716h-1.599c-0.594 0-1.433 0.856-1.433 1.404v19.867c0 0.549 0.839 1.297 1.433 1.297h1.599v4.716h-14.484v-4.716h3.032v-20.884h-0.149l-7.079 25.6h-5.481l-6.988-25.6h-0.177v20.884h3.032v4.716h-12.126v-4.716h1.553c0.639 0 1.479-0.748 1.479-1.297v-19.867c0-0.548-0.839-1.404-1.479-1.404h-1.553v-4.716h15.163l4.978 18.526h0.137l5.024-18.526h15.118v4.716z"></path>
		</symbol>
		<symbol id="icon-more-than-filled" viewBox="0 0 19 32">
			<title>more-than-filled</title>
			<path class="path1" d="M2.411 4.896l12.209 12.793v-2.209l-12.222 12.807 2.315 2.209 13.276-13.911-13.263-13.898-2.315 2.209z"></path>
		</symbol>
		<symbol id="icon-Instagram_simple_icon" viewBox="0 0 32 32">
			<title>Instagram_simple_icon</title>
			<path class="path1" d="M16 3.092c4.204 0 4.702 0.016 6.363 0.092 1.535 0.070 2.369 0.327 2.924 0.542 0.71 0.266 1.315 0.668 1.809 1.177 0.511 0.497 0.912 1.102 1.168 1.778 0.227 0.588 0.483 1.422 0.553 2.957 0.076 1.66 0.092 2.158 0.092 6.363s-0.016 4.702-0.092 6.363c-0.070 1.535-0.327 2.369-0.542 2.924-0.541 1.377-1.611 2.447-2.953 2.976-0.59 0.228-1.424 0.484-2.959 0.554-1.66 0.076-2.158 0.092-6.363 0.092s-4.702-0.016-6.363-0.092c-1.535-0.070-2.369-0.327-2.924-0.542-0.71-0.266-1.315-0.668-1.809-1.177-0.511-0.497-0.912-1.102-1.168-1.778-0.227-0.588-0.483-1.422-0.553-2.957-0.076-1.66-0.092-2.158-0.092-6.363s0.016-4.702 0.092-6.363c0.070-1.535 0.327-2.369 0.542-2.924 0.267-0.71 0.668-1.315 1.177-1.809 0.497-0.511 1.102-0.912 1.778-1.168 0.588-0.227 1.422-0.483 2.957-0.553 1.66-0.076 2.158-0.092 6.363-0.092zM16 0.255c-4.276 0-4.813 0.018-6.492 0.095-1.676 0.077-2.82 0.343-3.822 0.732-1.091 0.418-2.022 1.035-2.788 1.815-0.782 0.768-1.4 1.698-1.8 2.737-0.407 1.054-0.673 2.199-0.749 3.875-0.077 1.679-0.095 2.216-0.095 6.492s0.018 4.813 0.095 6.492c0.077 1.676 0.343 2.82 0.732 3.822 0.418 1.091 1.035 2.022 1.815 2.788 0.768 0.782 1.699 1.4 2.737 1.799 1.054 0.407 2.199 0.673 3.875 0.75 1.679 0.077 2.216 0.095 6.492 0.095s4.813-0.018 6.492-0.095c1.676-0.076 2.82-0.343 3.822-0.732 2.121-0.836 3.769-2.484 4.586-4.55 0.408-1.056 0.674-2.201 0.751-3.876 0.077-1.679 0.095-2.216 0.095-6.492s-0.018-4.813-0.095-6.492c-0.076-1.676-0.343-2.82-0.732-3.822-0.418-1.091-1.035-2.022-1.815-2.788-0.768-0.782-1.699-1.4-2.737-1.8-1.054-0.407-2.199-0.673-3.875-0.749-1.679-0.077-2.215-0.095-6.492-0.095v0z"></path>
			<path class="path2" d="M16 7.915c-4.465 0-8.085 3.62-8.085 8.085s3.62 8.085 8.085 8.085c4.465 0 8.085-3.62 8.085-8.085s-3.62-8.085-8.085-8.085zM16 21.248c-2.899-0-5.248-2.35-5.248-5.248s2.35-5.248 5.248-5.248c2.899 0 5.248 2.35 5.248 5.248s-2.35 5.248-5.248 5.248z"></path>
			<path class="path3" d="M26.294 7.595c0 1.043-0.846 1.889-1.889 1.889s-1.889-0.846-1.889-1.889c0-1.043 0.846-1.889 1.889-1.889s1.889 0.846 1.889 1.889z"></path>
		</symbol>
		<symbol id="icon-logo-dribbble" viewBox="0 0 32 32">
			<title>logo-dribbble</title>
			<path class="path1" d="M29.238 7.071c-0.57-0.847-1.227-1.639-1.948-2.363-0.723-0.72-1.518-1.375-2.363-1.947-0.853-0.578-1.766-1.073-2.713-1.475-0.965-0.408-1.974-0.72-3-0.929-1.053-0.215-2.135-0.324-3.216-0.324s-2.165 0.109-3.216 0.324c-1.027 0.209-2.037 0.522-3 0.929-0.947 0.402-1.86 0.897-2.713 1.475-0.844 0.572-1.64 1.226-2.361 1.947-0.722 0.724-1.379 1.517-1.949 2.363-0.575 0.851-1.071 1.765-1.472 2.713-0.409 0.963-0.721 1.973-0.933 3.001-0.214 1.050-0.323 2.133-0.323 3.215s0.109 2.161 0.323 3.214c0.211 1.028 0.524 2.037 0.933 3.001 0.401 0.947 0.897 1.86 1.472 2.712 0.571 0.846 1.227 1.64 1.949 2.363 0.721 0.72 1.517 1.376 2.361 1.949 0.853 0.575 1.767 1.070 2.713 1.472 0.964 0.407 1.973 0.719 3 0.929 1.051 0.217 2.133 0.328 3.216 0.328s2.164-0.111 3.216-0.328c1.025-0.21 2.035-0.522 3-0.929 0.947-0.402 1.86-0.897 2.713-1.472 0.844-0.573 1.64-1.229 2.363-1.949 0.721-0.724 1.378-1.517 1.948-2.363 0.579-0.851 1.074-1.764 1.473-2.712 0.409-0.965 0.72-1.973 0.931-3.001 0.216-1.053 0.326-2.133 0.326-3.214s-0.11-2.165-0.326-3.215c-0.211-1.028-0.522-2.038-0.931-3.001-0.399-0.948-0.894-1.862-1.473-2.713zM15.999 2.364c3.453 0 6.605 1.284 9.006 3.401-0.034 0.050-1.976 3.007-7.121 4.936-2.332-4.282-4.894-7.68-5.098-7.955 1.030-0.248 2.105-0.382 3.213-0.382zM12.731 2.76h0.003c-0.016 0.002-0.029 0.003-0.044 0.011 0.027-0.008 0.041-0.011 0.041-0.011zM10.181 3.666c0.182 0.243 2.703 3.665 5.063 7.858-6.547 1.74-12.23 1.668-12.589 1.665 0.885-4.223 3.723-7.727 7.526-9.523zM5.857 25.112c-2.172-2.415-3.494-5.609-3.494-9.112 0-0.147 0.007-0.288 0.011-0.435 0.242 0.009 6.979 0.161 14.001-1.941 0.391 0.766 0.764 1.542 1.106 2.317-0.179 0.051-0.36 0.104-0.538 0.164-7.359 2.38-11.091 9-11.091 9s0.003 0.004 0.005 0.007zM15.999 29.636c-3.163 0-6.066-1.086-8.379-2.893l-0.002 0.006c0 0-0.124-0.094-0.305-0.24 0.099 0.084 0.207 0.156 0.307 0.234 0.025-0.053 2.652-5.708 10.699-8.513 0.030-0.011 0.060-0.020 0.090-0.030 1.919 4.987 2.711 9.163 2.913 10.355-1.637 0.696-3.435 1.081-5.324 1.081zM23.619 27.309c-0.139-0.822-0.866-4.825-2.654-9.74 4.402-0.706 8.217 0.502 8.497 0.593-0.607 3.8-2.781 7.082-5.843 9.148zM20.134 15.417c-0.096-0.234-0.194-0.468-0.295-0.706-0.283-0.665-0.59-1.327-0.906-1.977 5.384-2.199 7.571-5.359 7.597-5.396 1.913 2.323 3.070 5.29 3.101 8.522-0.197-0.040-4.813-1.032-9.497-0.443zM12.731 2.76c0 0-0.015 0.003-0.041 0.011 0.016-0.008 0.029-0.009 0.044-0.011h-0.003zM7.313 26.509c0.099 0.084 0.207 0.156 0.307 0.234l-0.002 0.006c0-0-0.124-0.094-0.305-0.24z"></path>
		</symbol>
		<symbol id="icon-minecraft-pickaxe" viewBox="0 0 32 32">
			<title>minecraft-pickaxe</title>
			<path class="path1" fill="#b76648" d="M2.462 27.077h2.462v2.462h-2.462v-2.462z"></path>
			<path class="path2" fill="#b76648" d="M4.923 24.615h2.462v2.462h-2.462v-2.462z"></path>
			<path class="path3" fill="#b76648" d="M14.769 14.769h2.462v2.462h-2.462v-2.462z"></path>
			<path class="path4" fill="#b76648" d="M17.231 12.308h2.462v2.462h-2.462v-2.462z"></path>
			<path class="path5" fill="#b76648" d="M27.077 2.462h2.462v2.462h-2.462v-2.462z"></path>
			<path class="path6" fill="#b76648" d="M24.615 4.923h2.462v2.462h-2.462v-2.462z"></path>
			<path class="path7" fill="#b76648" d="M19.692 9.846h2.462v2.462h-2.462v-2.462z"></path>
			<path class="path8" fill="#b76648" d="M7.385 22.154h2.462v2.462h-2.462v-2.462z"></path>
			<path class="path9" fill="#b76648" d="M9.846 19.692h2.462v2.462h-2.462v-2.462z"></path>
			<path class="path10" fill="#b76648" d="M12.308 17.231h2.462v2.462h-2.462v-2.462z"></path>
			<path class="path11" fill="#37474f" d="M4.923 27.077h2.462v2.462h-2.462v-2.462z"></path>
			<path class="path12" fill="#37474f" d="M7.385 24.615h2.462v2.462h-2.462v-2.462z"></path>
			<path class="path13" fill="#37474f" d="M19.692 12.308h2.462v2.462h-2.462v-2.462z"></path>
			<path class="path14" fill="#37474f" d="M17.231 14.769h2.462v2.462h-2.462v-2.462z"></path>
			<path class="path15" fill="#37474f" d="M22.154 9.846h2.462v2.462h-2.462v-2.462z"></path>
			<path class="path16" fill="#37474f" d="M2.462 29.538v-2.462h-2.462v4.923h4.923v-2.462z"></path>
			<path class="path17" fill="#37474f" d="M2.462 24.615h2.462v2.462h-2.462v-2.462z"></path>
			<path class="path18" fill="#37474f" d="M4.923 22.154h2.462v2.462h-2.462v-2.462z"></path>
			<path class="path19" fill="#37474f" d="M14.769 12.308h2.462v2.462h-2.462v-2.462z"></path>
			<path class="path20" fill="#37474f" d="M17.231 9.846h2.462v2.462h-2.462v-2.462z"></path>
			<path class="path21" fill="#37474f" d="M19.692 7.385h2.462v2.462h-2.462v-2.462z"></path>
			<path class="path22" fill="#37474f" d="M24.615 2.462h2.462v2.462h-2.462v-2.462z"></path>
			<path class="path23" fill="#37474f" d="M27.077 4.923h2.462v2.462h-2.462v-2.462z"></path>
			<path class="path24" fill="#37474f" d="M12.308 19.692h2.462v2.462h-2.462v-2.462z"></path>
			<path class="path25" fill="#37474f" d="M9.846 22.154h2.462v2.462h-2.462v-2.462z"></path>
			<path class="path26" fill="#37474f" d="M14.769 17.231h2.462v2.462h-2.462v-2.462z"></path>
			<path class="path27" fill="#37474f" d="M7.385 19.692h2.462v2.462h-2.462v-2.462z"></path>
			<path class="path28" fill="#37474f" d="M9.846 17.231h2.462v2.462h-2.462v-2.462z"></path>
			<path class="path29" fill="#37474f" d="M12.308 14.769h2.462v2.462h-2.462v-2.462z"></path>
			<path class="path30" fill="#00bcd4" d="M9.846 4.923h9.846v2.462h-9.846v-2.462z"></path>
			<path class="path31" fill="#00bcd4" d="M7.385 2.462h2.462v2.462h-2.462v-2.462z"></path>
			<path class="path32" fill="#00bcd4" d="M9.846 0h12.308v2.462h-12.308v-2.462z"></path>
			<path class="path33" fill="#00bcd4" d="M22.154 2.462h2.462v2.462h-2.462v-2.462z"></path>
			<path class="path34" fill="#00bcd4" d="M27.077 7.385h2.462v2.462h-2.462v-2.462z"></path>
			<path class="path35" fill="#00bcd4" d="M24.615 12.308h2.462v9.846h-2.462v-9.846z"></path>
			<path class="path36" fill="#00bcd4" d="M29.538 9.846h2.462v12.308h-2.462v-12.308z"></path>
			<path class="path37" fill="#00bcd4" d="M27.077 22.154h2.462v2.462h-2.462v-2.462z"></path>
			<path class="path38" fill="#4dd0e1" d="M9.846 2.462v2.462h9.846v2.462h2.462v2.462h2.462v2.462h2.462v9.846h2.462v-12.308h-2.462v-2.462h-2.462v-2.462h-2.462v-2.462z"></path>
		</symbol>
		<symbol id="icon-medium_logo" viewBox="0 0 37 32">
			<title>medium_logo</title>
			<path class="path1" fill="#cccdc9" d="M24.949 0.155c-0.187-0.094-0.341 0.001-0.341 0.211v25.767l11.283 5.641c0.562 0.281 1.022-0.003 1.022-0.632v-24.804c0-0.124-0.070-0.237-0.18-0.292l-11.784-5.892z"></path>
			<path class="path2" fill="#9ea1a0" d="M12.305 19.988l12.105-19.671c0.11-0.178 0.353-0.248 0.54-0.154l11.693 5.847c0.146 0.073 0.198 0.255 0.112 0.394l-12.146 19.738-12.305-6.152z"></path>
			<path class="path3" fill="#797b79" d="M1.363 0.674c-0.75-0.375-1.004-0.097-0.564 0.616l11.506 18.698 12.305 6.152-12.225-19.866c-0.052-0.085-0.127-0.153-0.215-0.197l-10.806-5.403z"></path>
			<path class="path4" fill="#515251" d="M12.305 31.15c0 0.629-0.46 0.913-1.022 0.632l-10.601-5.301c-0.375-0.187-0.682-0.684-0.682-1.103v-24.624c0-0.419 0.307-0.609 0.682-0.421l11.472 5.736c0.093 0.046 0.152 0.141 0.152 0.245v24.836z"></path>
		</symbol>
		<symbol id="icon-new-menu" viewBox="0 0 32 32">
		<title>new-menu</title>
		<path class="path1" fill="#009e5f" opacity="0.01" d="M0 0h32v32h-32v-32z"></path>
		<path class="path2" fill="none" stroke="#fff" stroke-width="2.4" stroke-miterlimit="4" stroke-linecap="butt" stroke-linejoin="miter" d="M9.2 15.49h18.8"></path>
		<path class="path3" fill="none" stroke="#fff" stroke-width="2.4" stroke-miterlimit="4" stroke-linecap="butt" stroke-linejoin="miter" d="M4 7.333h24"></path>
		<path class="path4" fill="none" stroke="#fff" stroke-width="2.4" stroke-miterlimit="4" stroke-linecap="butt" stroke-linejoin="miter" d="M4 23.647h24"></path>
		</symbol>
		<symbol id="icon-quote" viewBox="0 0 43 32">
	<title>quote</title>
	<path class="path1" d="M0.066 25.512c5.944-0.647 8.828-3.413 8.651-8.298h-6.532v-17.214h17.214v14.036c0 3.237-0.412 5.973-1.236 8.21s-2.016 4.061-3.575 5.473c-1.56 1.412-3.443 2.457-5.65 3.134s-4.693 1.045-7.459 1.103l-1.412-6.444zM23.548 25.512c5.944-0.647 8.828-3.413 8.651-8.298h-6.621v-17.214h17.214v14.036c0 3.237-0.412 5.973-1.236 8.21s-2.016 4.061-3.575 5.473c-1.56 1.412-3.443 2.457-5.65 3.134s-4.664 1.045-7.371 1.103l-1.412-6.444z"></path>
	</symbol>
	<symbol id="icon-angle-left" viewBox="0 0 21 32">
	<title>angle-left</title>
	<path class="path1" fill="none" stroke="#777" stroke-width="3.4286" stroke-miterlimit="4" stroke-linecap="butt" stroke-linejoin="miter" d="M19.095 1.143l-14.667 14.667 14.667 14.667"></path>
	</symbol>
	<symbol id="icon-angle-right" viewBox="0 0 21 32">
	<title>angle-right</title>
	<path class="path1" fill="none" stroke="#777" stroke-width="3.4286" stroke-miterlimit="4" stroke-linecap="butt" stroke-linejoin="miter" d="M1.476 1.143l14.667 14.667-14.667 14.667"></path>
	</symbol>
	<symbol id="icon-left-arrow" viewBox="0 0 38 32">
	<title>left-arrow</title>
	<path class="path1" fill="none" stroke="#fff" stroke-width="3.2" stroke-miterlimit="4" stroke-linecap="butt" stroke-linejoin="miter" d="M3.2 16h35.2"></path>
	<path class="path2" fill="none" stroke="#fff" stroke-width="3.2" stroke-miterlimit="4" stroke-linecap="butt" stroke-linejoin="miter" d="M16 29.6l-13.6-13.6 13.6-13.6"></path>
	</symbol>
	<symbol id="icon-right-arrow" viewBox="0 0 40 32">
	<title>right-arrow</title>
	<path class="path1" fill="none" stroke="#fff" stroke-width="3.2" stroke-miterlimit="4" stroke-linecap="butt" stroke-linejoin="miter" d="M36 16h-35.2"></path>
	<path class="path2" fill="none" stroke="#fff" stroke-width="3.2" stroke-miterlimit="4" stroke-linecap="butt" stroke-linejoin="miter" d="M23.2 2.4l13.6 13.6-13.6 13.6"></path>
	</symbol>
	<symbol id="icon-web" viewBox="0 0 32 32">
	<title>web</title>
	<path class="path1" fill="#90caf9" d="M30.571 16c0 8.048-6.524 14.571-14.571 14.571s-14.571-6.524-14.571-14.571c0-8.048 6.524-14.571 14.571-14.571s14.571 6.524 14.571 14.571z"></path>
	<path class="path2" fill="none" stroke="#1565c0" stroke-width="1.5238" stroke-miterlimit="4" stroke-linecap="butt" stroke-linejoin="miter" d="M30.571 16c0 8.048-6.524 14.571-14.571 14.571s-14.571-6.524-14.571-14.571c0-8.048 6.524-14.571 14.571-14.571s14.571 6.524 14.571 14.571z"></path>
	<path class="path3" fill="none" stroke="#1565c0" stroke-width="1.5238" stroke-miterlimit="4" stroke-linecap="butt" stroke-linejoin="miter" d="M23.285 16c0 8.048-3.262 14.571-7.285 14.571s-7.285-6.524-7.285-14.571c0-8.048 3.262-14.571 7.285-14.571s7.285 6.524 7.285 14.571z"></path>
	<path class="path4" fill="none" stroke="#1565c0" stroke-width="1.5238" stroke-miterlimit="4" stroke-linecap="butt" stroke-linejoin="miter" d="M28.143 8.716h-24.286"></path>
	<path class="path5" fill="none" stroke="#1565c0" stroke-width="1.5238" stroke-miterlimit="4" stroke-linecap="butt" stroke-linejoin="miter" d="M28.143 23.286h-24.286"></path>
	<path class="path6" fill="none" stroke="#1565c0" stroke-width="1.5238" stroke-miterlimit="4" stroke-linecap="butt" stroke-linejoin="miter" d="M1.429 16h29.143"></path>
	<path class="path7" fill="none" stroke="#1565c0" stroke-width="1.5238" stroke-miterlimit="4" stroke-linecap="butt" stroke-linejoin="miter" d="M16 1.429v29.143"></path>
	</symbol>
	<symbol id="icon-work" viewBox="0 0 43 32">
	<title>work</title>
	<path fill="#fff" style="fill: var(--color1, #fff)" d="M0 0v31.18h13.128v-31.18h-13.128zM14.77 0v3.283h24.614v18.050h-24.616v3.283h8.206v3.281h-6.565v3.283h16.41v-3.283h-6.564v-3.281h16.411v-24.616h-27.897zM3.282 3.283h6.565v24.614h-6.565v-24.614zM6.565 22.975c-0.013-0-0.029-0.001-0.044-0.001-0.907 0-1.641 0.735-1.641 1.641s0.735 1.641 1.641 1.641c0.016 0 0.031-0 0.046-0.001 0.904 0 1.639-0.735 1.639-1.641s-0.735-1.641-1.641-1.641z"></path>
	</symbol>
	<symbol id="icon-arrow-right2" viewBox="0 0 32 32">
		<title>arrow-right2</title>
		<path d="M19.414 27.414l10-10c0.781-0.781 0.781-2.047 0-2.828l-10-10c-0.781-0.781-2.047-0.781-2.828 0s-0.781 2.047 0 2.828l6.586 6.586h-19.172c-1.105 0-2 0.895-2 2s0.895 2 2 2h19.172l-6.586 6.586c-0.39 0.39-0.586 0.902-0.586 1.414s0.195 1.024 0.586 1.414c0.781 0.781 2.047 0.781 2.828 0z"></path>
	</symbol>
	<symbol id="icon-arrow-left2" viewBox="0 0 32 32">
		<title>arrow-left2</title>
		<path d="M12.586 27.414l-10-10c-0.781-0.781-0.781-2.047 0-2.828l10-10c0.781-0.781 2.047-0.781 2.828 0s0.781 2.047 0 2.828l-6.586 6.586h19.172c1.105 0 2 0.895 2 2s-0.895 2-2 2h-19.172l6.586 6.586c0.39 0.39 0.586 0.902 0.586 1.414s-0.195 1.024-0.586 1.414c-0.781 0.781-2.047 0.781-2.828 0z"></path>
	</symbol>
	<symbol id="icon-mobi-mock-bottom" viewBox="0 0 134 32">
	<title>mobi-mock-bottom</title>
	<path fill="#fff" style="fill: var(--color1, #fff)" d="M20-240.667h93c11.033 0 20 8.967 20 20v232.667c0 11.033-8.967 20-20 20h-93c-11.033 0-20-8.967-20-20v-232.667c0-11.033 8.967-20 20-20z"></path>
	<path fill="#000" style="fill: var(--color2, #000)" d="M20-240.667h93c11.033 0 20 8.967 20 20v232.667c0 11.033-8.967 20-20 20h-93c-11.033 0-20-8.967-20-20v-232.667c0-11.033 8.967-20 20-20z"></path>
	<path fill="#000" style="fill: var(--color2, #000)" d="M20-240.667h93c11.033 0 20 8.967 20 20v232.667c0 11.033-8.967 20-20 20h-93c-11.033 0-20-8.967-20-20v-232.667c0-11.033 8.967-20 20-20z"></path>
	<path fill="#000" style="fill: var(--color2, #000)" d="M132.999 7.333h-2.667l-0.967 3.667h3.633v-3.667z"></path>
	<path fill="#000" style="fill: var(--color2, #000)" d="M132.999 7.333h-2.667l-0.967 3.667h3.633v-3.667z"></path>
	<path fill="#000" style="fill: var(--color2, #000)" d="M0 7.333h2.667l0.967 3.667h-3.633v-3.667z"></path>
	<path fill="#000" style="fill: var(--color2, #000)" d="M0 7.333h2.667l0.967 3.667h-3.633v-3.667z"></path>
	<path fill="#000" style="fill: var(--color2, #000)" d="M2.333-220.433c0-9.7 7.867-17.567 17.6-17.567h92.833c9.7 0 17.6 7.867 17.6 17.567v234.167c0 9.333-7.567 16.933-16.933 16.933h-94.167c-9.333 0-16.933-7.567-16.933-16.933v-234.167z"></path>
	<path fill="#000" style="fill: var(--color2, #000)" d="M22-238.667h89c11.033 0 20 8.967 20 20v228.667c0 11.033-8.967 20-20 20h-89c-11.033 0-20-8.967-20-20v-228.667c0-11.033 8.967-20 20-20z"></path>
	<path fill="#000" style="fill: var(--color2, #000)" d="M22-238.667h89c11.033 0 20 8.967 20 20v228.667c0 11.033-8.967 20-20 20h-89c-11.033 0-20-8.967-20-20v-228.667c0-11.033 8.967-20 20-20z"></path>
	<path fill="#000" style="fill: var(--color2, #000)" d="M5.667-214h121.333v214.667h-121.333v-214.667z"></path>
	</symbol>
	<symbol id="icon-mobi-mock-bottom" viewBox="0 0 134 32">
	<title>mobi-mock-bottom</title>
	<path fill="#fff" style="fill: var(--color1, #fff)" d="M20-240.667h93c11.033 0 20 8.967 20 20v232.667c0 11.033-8.967 20-20 20h-93c-11.033 0-20-8.967-20-20v-232.667c0-11.033 8.967-20 20-20z"></path>
	<path fill="#000" style="fill: var(--color2, #000)" d="M20-240.667h93c11.033 0 20 8.967 20 20v232.667c0 11.033-8.967 20-20 20h-93c-11.033 0-20-8.967-20-20v-232.667c0-11.033 8.967-20 20-20z"></path>
	<path fill="#000" style="fill: var(--color2, #000)" d="M20-240.667h93c11.033 0 20 8.967 20 20v232.667c0 11.033-8.967 20-20 20h-93c-11.033 0-20-8.967-20-20v-232.667c0-11.033 8.967-20 20-20z"></path>
	<path fill="#000" style="fill: var(--color2, #000)" d="M132.999 7.333h-2.667l-0.967 3.667h3.633v-3.667z"></path>
	<path fill="#000" style="fill: var(--color2, #000)" d="M132.999 7.333h-2.667l-0.967 3.667h3.633v-3.667z"></path>
	<path fill="#000" style="fill: var(--color2, #000)" d="M0 7.333h2.667l0.967 3.667h-3.633v-3.667z"></path>
	<path fill="#000" style="fill: var(--color2, #000)" d="M0 7.333h2.667l0.967 3.667h-3.633v-3.667z"></path>
	<path fill="#000" style="fill: var(--color2, #000)" d="M2.333-220.433c0-9.7 7.867-17.567 17.6-17.567h92.833c9.7 0 17.6 7.867 17.6 17.567v234.167c0 9.333-7.567 16.933-16.933 16.933h-94.167c-9.333 0-16.933-7.567-16.933-16.933v-234.167z"></path>
	<path fill="#000" style="fill: var(--color2, #000)" d="M22-238.667h89c11.033 0 20 8.967 20 20v228.667c0 11.033-8.967 20-20 20h-89c-11.033 0-20-8.967-20-20v-228.667c0-11.033 8.967-20 20-20z"></path>
	<path fill="#000" style="fill: var(--color2, #000)" d="M22-238.667h89c11.033 0 20 8.967 20 20v228.667c0 11.033-8.967 20-20 20h-89c-11.033 0-20-8.967-20-20v-228.667c0-11.033 8.967-20 20-20z"></path>
	<path fill="#000" style="fill: var(--color2, #000)" d="M5.667-214h121.333v214.667h-121.333v-214.667z"></path>
	</symbol>
	<symbol id="icon-mobi-mock-left" viewBox="0 0 1 32">
	<title>mobi-mock-left</title>
	<path fill="#fff" style="fill: var(--color1, #fff)" d="M3-4.1h13.95c1.655 0 3 1.345 3 3v34.9c0 1.655-1.345 3-3 3h-13.95c-1.655 0-3-1.345-3-3v-34.9c0-1.655 1.345-3 3-3z"></path>
	<path fill="#000" style="fill: var(--color2, #000)" d="M3-4.1h13.95c1.655 0 3 1.345 3 3v34.9c0 1.655-1.345 3-3 3h-13.95c-1.655 0-3-1.345-3-3v-34.9c0-1.655 1.345-3 3-3z"></path>
	<path fill="#000" style="fill: var(--color2, #000)" d="M3-4.1h13.95c1.655 0 3 1.345 3 3v34.9c0 1.655-1.345 3-3 3h-13.95c-1.655 0-3-1.345-3-3v-34.9c0-1.655 1.345-3 3-3z"></path>
	<path fill="#000" style="fill: var(--color2, #000)" d="M0.35-1.065c0-1.455 1.18-2.635 2.64-2.635h13.925c1.455 0 2.64 1.18 2.64 2.635v35.125c0 1.4-1.135 2.54-2.54 2.54h-14.125c-1.4 0-2.54-1.135-2.54-2.54v-35.125z"></path>
	<path fill="#000" style="fill: var(--color2, #000)" d="M3.3-3.8h13.35c1.655 0 3 1.345 3 3v34.3c0 1.655-1.345 3-3 3h-13.35c-1.655 0-3-1.345-3-3v-34.3c0-1.655 1.345-3 3-3z"></path>
	<path fill="#000" style="fill: var(--color2, #000)" d="M3.3-3.8h13.35c1.655 0 3 1.345 3 3v34.3c0 1.655-1.345 3-3 3h-13.35c-1.655 0-3-1.345-3-3v-34.3c0-1.655 1.345-3 3-3z"></path>
	<path fill="#000" style="fill: var(--color2, #000)" d="M0.85-0.1h18.2v32.2h-18.2v-32.2z"></path>
	</symbol>
	<symbol id="icon-mobi-mock-right" viewBox="0 0 1 32">
	<title>mobi-mock-right</title>
	<path fill="#ebebeb" style="fill: var(--color3, #ebebeb)" d="M0.4 5.8h0.65c0.055 0 0.1 0.045 0.1 0.1v2.2c0 0.055-0.045 0.1-0.1 0.1h-0.65c-0.055 0-0.1-0.045-0.1-0.1v-2.2c0-0.055 0.045-0.1 0.1-0.1z"></path>
	<path fill="#000" style="fill: var(--color2, #000)" d="M0.4 5.8h0.65c0.055 0 0.1 0.045 0.1 0.1v2.2c0 0.055-0.045 0.1-0.1 0.1h-0.65c-0.055 0-0.1-0.045-0.1-0.1v-2.2c0-0.055 0.045-0.1 0.1-0.1z"></path>
	<path fill="#f1f1f1" style="fill: var(--color4, #f1f1f1)" d="M0.4 11.5h0.65c0.055 0 0.1 0.045 0.1 0.1v4.8c0 0.055-0.045 0.1-0.1 0.1h-0.65c-0.055 0-0.1-0.045-0.1-0.1v-4.8c0-0.055 0.045-0.1 0.1-0.1z"></path>
	<path fill="#000" style="fill: var(--color2, #000)" d="M0.4 11.5h0.65c0.055 0 0.1 0.045 0.1 0.1v4.8c0 0.055-0.045 0.1-0.1 0.1h-0.65c-0.055 0-0.1-0.045-0.1-0.1v-4.8c0-0.055 0.045-0.1 0.1-0.1z"></path>
	<path fill="#fff" style="fill: var(--color1, #fff)" d="M-15.95-4.1h13.95c1.655 0 3 1.345 3 3v34.9c0 1.655-1.345 3-3 3h-13.95c-1.655 0-3-1.345-3-3v-34.9c0-1.655 1.345-3 3-3z"></path>
	<path fill="#000" style="fill: var(--color2, #000)" d="M-15.95-4.1h13.95c1.655 0 3 1.345 3 3v34.9c0 1.655-1.345 3-3 3h-13.95c-1.655 0-3-1.345-3-3v-34.9c0-1.655 1.345-3 3-3z"></path>
	<path fill="#000" style="fill: var(--color2, #000)" d="M-15.95-4.1h13.95c1.655 0 3 1.345 3 3v34.9c0 1.655-1.345 3-3 3h-13.95c-1.655 0-3-1.345-3-3v-34.9c0-1.655 1.345-3 3-3z"></path>
	<path fill="#000" style="fill: var(--color2, #000)" d="M-18.6-1.065c0-1.455 1.18-2.635 2.64-2.635h13.925c1.455 0 2.64 1.18 2.64 2.635v35.125c0 1.4-1.135 2.54-2.54 2.54h-14.125c-1.4 0-2.54-1.135-2.54-2.54v-35.125z"></path>
	<path fill="#000" style="fill: var(--color2, #000)" d="M-15.65-3.8h13.35c1.655 0 3 1.345 3 3v34.3c0 1.655-1.345 3-3 3h-13.35c-1.655 0-3-1.345-3-3v-34.3c0-1.655 1.345-3 3-3z"></path>
	<path fill="#000" style="fill: var(--color2, #000)" d="M-15.65-3.8h13.35c1.655 0 3 1.345 3 3v34.3c0 1.655-1.345 3-3 3h-13.35c-1.655 0-3-1.345-3-3v-34.3c0-1.655 1.345-3 3-3z"></path>
	<path fill="#000" style="fill: var(--color2, #000)" d="M-18.1-0.1h18.2v32.2h-18.2v-32.2z"></path>
	</symbol>
	<symbol id="icon-mobi-mock-top" viewBox="0 0 157 32">
	<title>mobi-mock-top</title>
	<path d="M23.415 0h108.878c12.917 0 23.415 10.498 23.415 23.415v272.39c0 12.917-10.498 23.415-23.415 23.415h-108.878c-12.917 0-23.415-10.498-23.415-23.415v-272.39c0-12.917 10.498-23.415 23.415-23.415z"></path>
	<path d="M23.415 0h108.878c12.917 0 23.415 10.498 23.415 23.415v272.39c0 12.917-10.498 23.415-23.415 23.415h-108.878c-12.917 0-23.415-10.498-23.415-23.415v-272.39c0-12.917 10.498-23.415 23.415-23.415z"></path>
	<path d="M23.415 0h108.878c12.917 0 23.415 10.498 23.415 23.415v272.39c0 12.917-10.498 23.415-23.415 23.415h-108.878c-12.917 0-23.415-10.498-23.415-23.415v-272.39c0-12.917 10.498-23.415 23.415-23.415z"></path>
	<path d="M113.951 0h3.122v1.951h-3.122v-1.951z"></path>
	<path d="M113.951 0h3.122v1.951h-3.122v-1.951z"></path>
	<path d="M0 26.927l2.732-1.171v3.512l-2.732 0.78v-3.122z"></path>
	<path d="M0 26.927l2.732-1.171v3.512l-2.732 0.78v-3.122z"></path>
	<path d="M155.707 26.927l-3.122-1.171v3.512l3.122 0.78v-3.122z"></path>
	<path d="M155.707 26.927l-3.122-1.171v3.512l3.122 0.78v-3.122z"></path>
	<path d="M2.732 23.688c0-11.356 9.21-20.566 20.605-20.566h108.683c11.356 0 20.605 9.21 20.605 20.566v274.146c0 10.927-8.859 19.824-19.824 19.824h-110.244c-10.927 0-19.824-8.859-19.824-19.824v-274.146z"></path>
	<path d="M25.756 2.341h104.195c12.917 0 23.415 10.498 23.415 23.415v267.707c0 12.917-10.498 23.415-23.415 23.415h-104.195c-12.917 0-23.415-10.498-23.415-23.415v-267.707c0-12.917 10.498-23.415 23.415-23.415z"></path>
	<path d="M25.756 2.341h104.195c12.917 0 23.415 10.498 23.415 23.415v267.707c0 12.917-10.498 23.415-23.415 23.415h-104.195c-12.917 0-23.415-10.498-23.415-23.415v-267.707c0-12.917 10.498-23.415 23.415-23.415z"></path>
	<path d="M6.634 31.22h142.049v251.317h-142.049v-251.317z"></path>
	<path d="M74.927 23.024h5.854c1.288 0 2.341 1.054 2.341 2.341v0c0 1.288-1.054 2.341-2.341 2.341h-5.854c-1.288 0-2.341-1.054-2.341-2.341v0c0-1.288 1.054-2.341 2.341-2.341z"></path>
	<path d="M74.927 23.024h5.854c1.288 0 2.341 1.054 2.341 2.341v0c0 1.288-1.054 2.341-2.341 2.341h-5.854c-1.288 0-2.341-1.054-2.341-2.341v0c0-1.288 1.054-2.341 2.341-2.341z"></path>
	<path d="M63.805 11.707h28.098c0.741 0 1.366 0.624 1.366 1.366v0c0 0.741-0.624 1.366-1.366 1.366h-28.098c-0.741 0-1.366-0.624-1.366-1.366v0c0-0.741 0.624-1.366 1.366-1.366z"></path>
	<path d="M63.805 11.707h28.098c0.741 0 1.366 0.624 1.366 1.366v0c0 0.741-0.624 1.366-1.366 1.366h-28.098c-0.741 0-1.366-0.624-1.366-1.366v0c0-0.741 0.624-1.366 1.366-1.366z"></path>
	<path d="M63.805 11.707h28.098c0.741 0 1.366 0.624 1.366 1.366v0c0 0.741-0.624 1.366-1.366 1.366h-28.098c-0.741 0-1.366-0.624-1.366-1.366v0c0-0.741 0.624-1.366 1.366-1.366z"></path>
	<path d="M30.062 12.791c0 1.724-1.398 3.122-3.122 3.122s-3.122-1.398-3.122-3.122c0-1.724 1.398-3.122 3.122-3.122s3.122 1.398 3.122 3.122z"></path>
	<path d="M30.062 12.791c0 1.724-1.398 3.122-3.122 3.122s-3.122-1.398-3.122-3.122c0-1.724 1.398-3.122 3.122-3.122s3.122 1.398 3.122 3.122z"></path>
	<path d="M28.658 12.791c0 0.948-0.769 1.717-1.717 1.717s-1.717-0.769-1.717-1.717c0-0.948 0.769-1.717 1.717-1.717s1.717 0.769 1.717 1.717z"></path>
	<path d="M28.658 12.791c0 0.948-0.769 1.717-1.717 1.717s-1.717-0.769-1.717-1.717c0-0.948 0.769-1.717 1.717-1.717s1.717 0.769 1.717 1.717z"></path>
	<path d="M26.98 12.44c0 0.216-0.175 0.39-0.39 0.39s-0.39-0.175-0.39-0.39c0-0.216 0.175-0.39 0.39-0.39s0.39 0.175 0.39 0.39z"></path>
	<path d="M28.111 14.118c0 0.323-0.262 0.585-0.585 0.585s-0.585-0.262-0.585-0.585c0-0.323 0.262-0.585 0.585-0.585s0.585 0.262 0.585 0.585z"></path>
	</symbol>
	</defs>
</svg>
