<?xml version="1.0" encoding="UTF-8"?>
<svg width="116px" height="126px" viewBox="0 0 116 126" version="1.1" xmlns="http://www.w3.org/2000/svg" xmlns:xlink="http://www.w3.org/1999/xlink">
    <!-- Generator: Sketch 57.1 (83088) - https://sketch.com -->
    <title>icons8-launch_rocket</title>
    <desc>Created with Sketch.</desc>
    <g id="Page-1" stroke="none" stroke-width="1" fill="none" fill-rule="evenodd">
        <g id="icons8-launch_rocket" fill-rule="nonzero">
            <path d="M59,94 L59,103.5 C59,107.6 55.7,111 51.5,111 L52,111 C48,111 46,109 42.4,104.2 C40.3,101.4 38.5,99 36.8,97 C35.9,95.9 34.8,94.9 33.7,94 C32,92.6 30.1,91.6 27.9,90.9 C26,90.3 24,90 22,90 C21.1,90 20.2,90.1 19.4,90.2 C17.5,90.4 15.7,90.9 14.2,91.7 C7.6,94.7 3,101.3 3,109 C3,112.5 3.9,118.7 5.6,121.5 C6.1,122.4 7.1,123 8.2,123 L106.9,123 C108,123 109,122.4 109.5,121.5 C111.1,118.7 112.1,112.5 112.1,109 C112.1,101.3 107.5,94.7 100.9,91.7 C99.4,90.9 97.6,90.4 95.7,90.2 C94.8,90.1 93.9,90 93,90 C91,90 89,90.3 87.2,90.9 C85,91.5 83.1,92.6 81.4,94 C80.3,94.9 79.2,95.9 78.3,97 C76.5,99 74.8,101.4 72.7,104.2 L69.1,104.1 C63.5,104.1 59,99.5 59,94 L59,94 Z" id="Path" fill="#FFFFFF"></path>
            <path d="M106.8,126 L8.2,126 C6.1,126 4.1,124.9 3,123 C1,119.5 0,112.6 0,109 C0,100.4 5,92.6 12.9,89 C14.8,88.1 16.9,87.5 19.1,87.2 C20.2,87 21.2,87 22.1,87 C24.4,87 26.7,87.4 28.9,88.1 C31.3,88.8 33.6,90 35.7,91.7 C37,92.7 38.2,93.9 39.2,95.1 C40.9,97 42.6,99.2 44.5,101.8 L44.9,102.4 C48.4,107 49.6,107.9 51.7,108 C54.1,108 56.1,106 56.1,103.5 L56.1,94 C56.1,92.3 57.4,91 59.1,91 C60.8,91 62.1,92.3 62.1,94 L62.1,103.5 C62.1,108.9 58,113.4 52.7,113.9 C52.3,114 52,114 51.6,114 L51.6,114 C51.5,114 51.5,114 51.4,114 C46.3,113.7 43.6,110.6 40.1,106 L39.7,105.4 C37.8,102.9 36.2,100.8 34.7,99 C34.7,99 34.6,98.9 34.6,98.9 C33.8,98 33,97.1 32,96.3 C30.4,95 28.9,94.2 27.2,93.7 C25.5,93.2 23.9,92.9 22.2,92.9 C21.5,92.9 20.8,93 20,93.1 C20,93.1 19.9,93.1 19.9,93.1 C18.4,93.3 17,93.7 15.7,94.3 C15.7,94.3 15.6,94.3 15.6,94.4 C9.7,97 6,102.7 6,109 C6,112.4 6.9,117.9 8.2,120 L106.9,120 C108.1,117.9 109.1,112.4 109.1,109 C109.1,102.7 105.4,97 99.7,94.4 C99.7,94.4 99.6,94.4 99.6,94.3 C98.3,93.7 96.9,93.3 95.4,93.1 C95.4,93.1 95.3,93.1 95.3,93.1 C94.4,93.1 93.7,93 93,93 C91.3,93 89.7,93.3 88.1,93.8 C86.3,94.3 84.8,95.1 83.3,96.4 C82.3,97.2 81.4,98.1 80.6,99 C80.6,99 80.5,99.1 80.5,99.1 C78.9,100.9 77.3,103 75.5,105.5 L75,106 C74,107.3 72.1,107.6 70.8,106.6 C69.5,105.6 69.2,103.7 70.2,102.4 L70.6,101.8 C72.5,99.2 74.2,97 75.9,95.1 C76.9,93.8 78.1,92.7 79.5,91.6 C81.6,89.9 83.8,88.7 86.3,88 C88.4,87.3 90.7,87 93,87 C93.9,87 94.9,87.1 96,87.2 C98.2,87.4 100.3,88 102.2,89 C110,92.6 115.1,100.4 115.1,109 C115.1,112.6 114.2,119.5 112.1,123 C111,124.9 109,126 106.8,126 Z" id="Path" fill="#68E8C3"></path>
            <path d="M59,87 C58.8,87 58.6,87 58.4,86.9 C58.2,86.9 58,86.8 57.8,86.7 C57.6,86.6 57.5,86.5 57.3,86.4 C57.1,86.3 57,86.2 56.8,86 C56.3,85.6 56,84.8 56,84 C56,83.2 56.3,82.4 56.9,81.9 C57,81.8 57.2,81.6 57.4,81.5 C57.6,81.4 57.7,81.3 57.9,81.2 C58.1,81.1 58.3,81.1 58.5,81 C58.9,80.9 59.3,80.9 59.7,81 C59.9,81 60.1,81.1 60.3,81.2 C60.5,81.3 60.7,81.4 60.8,81.5 C61,81.6 61.1,81.7 61.2,81.9 C61.8,82.5 62.1,83.2 62.1,84 C62.1,84.8 61.8,85.6 61.2,86.1 C61.1,86.2 60.9,86.4 60.8,86.5 C60.6,86.6 60.5,86.7 60.3,86.8 C60.1,86.9 59.9,86.9 59.7,87 C59.4,87 59.2,87 59,87 Z" id="Path" fill="#68E8C3"></path>
            <path d="M69.1,67.6 C68.8,67.6 68.5,67.6 68.2,67.5 C66.6,67 65.8,65.3 66.3,63.7 L68.4,57 C73,42.8 74.9,22.9 59,7.1 C43.1,22.9 45,42.8 49.6,57 L50.9,61.1 C51.4,62.7 50.5,64.4 49,64.9 C47.4,65.4 45.7,64.5 45.2,63 L43.9,58.9 C36.4,35.6 41.1,14.9 57,0.8 C58.1,-0.2 59.8,-0.2 61,0.8 C76.9,15 81.6,35.6 74.1,58.9 L72,65.5 C71.6,66.8 70.4,67.6 69.1,67.6 Z" id="Path" fill="#444B54"></path>
            <path d="M69.1,64.6 L71.2,57.9 C77.6,38.1 75.8,17.9 59,3 L59,3 L59,3 C42.2,17.9 40.4,38.1 46.7,57.9 L48,62" id="Path" fill="#FFFFFF"></path>
            <circle id="Oval" fill="#444B54" cx="59" cy="29" r="4"></circle>
            <path d="M80,68.8 C80,68.7 80,68.6 80,68.5 C80,68.4 80,68.3 79.9,68.2 C79.9,68.1 79.8,68 79.8,67.9 C79.8,67.8 79.7,67.7 79.7,67.6 C79.7,67.5 79.6,67.4 79.6,67.3 C79.5,67.2 79.5,67.1 79.4,67.1 C79.3,67 79.3,66.9 79.2,66.9 C79.1,66.8 79.1,66.8 79,66.7 C78.9,66.6 78.9,66.6 78.8,66.5 C78.7,66.4 78.6,66.4 78.5,66.3 C78.4,66.3 78.4,66.2 78.3,66.2 L72.6,63.5 L74.1,58.7 C81.6,35.6 76.9,14.9 61,0.8 C59.9,-0.2 58.1,-0.2 57,0.8 C41.1,14.9 36.4,35.6 43.9,58.8 L44.6,61.1 L38.9,66.8 C38.3,67.4 38,68.2 38,69 L38,73.9 C38,75.4 39,76.7 40.4,77 C42.3,77.4 44,75.9 44,74.1 L44,70.3 L49.9,64.4 C50.8,63.6 51.3,62.4 50.9,61.1 L49.6,57 C45,42.8 43.1,22.9 59,7.1 C73.9,21.9 73.1,40.3 69.2,54.3 C69.2,54.3 69.2,54.3 69.2,54.3 C68.2,57.9 64.2,59.7 60.8,58.1 L60.4,57.9 C59.1,57.3 57.4,57.6 56.6,58.7 C56.1,59.3 56,60 56,60.7 C56,60.8 56,60.8 56,60.9 L56,73.8 C56,75.3 57,76.6 58.4,76.9 C60.3,77.3 62,75.8 62,74 L62,65.3 L74,70.9 L74,73.9 C74,75.4 75,76.7 76.4,77 C78.3,77.4 80,75.9 80,74.1 L80,69.1 C80,68.9 80,68.9 80,68.8 Z" id="Path" fill="#444B54"></path>
        </g>
    </g>
</svg>