<?xml version="1.0" encoding="utf-8"?>
<!-- Generator: Adobe Illustrator 18.0.0, SVG Export Plug-In . SVG Version: 6.00 Build 0)  -->
<!DOCTYPE svg PUBLIC "-//W3C//DTD SVG 1.1//EN" "http://www.w3.org/Graphics/SVG/1.1/DTD/svg11.dtd">
<svg version="1.1" id="Layer_1" xmlns="http://www.w3.org/2000/svg" xmlns:xlink="http://www.w3.org/1999/xlink" x="0px" y="0px"
	 viewBox="0 0 725.2 508.3" enable-background="new 0 0 725.2 508.3" xml:space="preserve">
<rect x="-2178.1" y="298.2" fill="#243F51" stroke="#243F51" stroke-width="0.8271" stroke-linecap="round" stroke-linejoin="round" stroke-miterlimit="10" width="225.2" height="222.5"/>
<polygon fill="#FFFFFF" stroke="#FFFFFF" stroke-width="5.9322" stroke-linejoin="round" stroke-miterlimit="10" points="0,206.9 
	366,12.3 366,111 85.1,259.2 "/>
<polygon fill="#FFFFFF" stroke="#FFFFFF" stroke-width="5.9322" stroke-linecap="round" stroke-linejoin="round" stroke-miterlimit="10" points="
	409,423.9 366,505.2 0,312.4 0,206.9 "/>
<path fill="#FFFFFF" stroke="#FFFFFF" stroke-width="5.9322" stroke-linejoin="round" stroke-miterlimit="10" d="M460.7,506.1h-93.1
	L632.2,3h93L460.7,506.1z"/>
<polygon fill="#089F86" stroke="#089F86" stroke-width="2.9128" stroke-linejoin="round" stroke-miterlimit="10" points="
	-1212.4,337.9 -1032.7,242.3 -1032.7,290.8 -1170.6,363.6 "/>
<polygon fill="#243F51" stroke="#243F51" stroke-width="2.9128" stroke-linecap="round" stroke-linejoin="round" stroke-miterlimit="10" points="
	-1011.5,444.4 -1032.7,484.4 -1212.4,389.7 -1212.4,337.9 "/>
<polygon fill="#089F86" stroke="#089F86" stroke-width="2.9128" stroke-linejoin="round" stroke-miterlimit="10" points="
	-599,361.6 -755.5,277.5 -736.9,240.3 -557.2,335.9 "/>
<polygon fill="#243F51" stroke="#243F51" stroke-width="2.9128" stroke-linecap="round" stroke-linejoin="round" stroke-miterlimit="10" points="
	-557.2,335.9 -557.2,387.7 -736.9,482.4 -736.9,430.3 "/>
<path fill="#089F86" stroke="#089F86" stroke-width="2.9128" stroke-linejoin="round" stroke-miterlimit="10" d="M-986.2,484.8
	h-45.7l129.9-247h45.7L-986.2,484.8z"/>
<path fill="#243F51" stroke="#243F51" stroke-width="2.9128" stroke-linecap="round" stroke-linejoin="round" stroke-miterlimit="10" d="
	M-866,485.9h-45.7l128.3-246h45.7L-866,485.9z"/>
<g>
	<g>
		<path fill="#243F51" d="M-1200.9,613.6c-18.5,0-30.5-11.7-30.5-31.6c0-19.8,13.1-31.8,30-31.8c7.2,0,12.5,1.4,16.8,3.9l-2.1,15.1
			c-3.4-2.6-7.9-4.4-12.5-4.4c-8.4,0-14.5,5.5-14.5,17.2c0,11.5,6.5,17.2,14.7,17.2c4.6,0,9.1-1.4,13.3-3.9l2,14
			C-1188.4,611.9-1194.5,613.6-1200.9,613.6z"/>
		<path fill="#243F51" d="M-1143.6,613.7c-16.6,0-29.2-12.6-29.2-31.7c0-19.2,12.7-31.9,29.3-31.9c16.6,0,29.3,12.6,29.3,31.8
			C-1114.2,601-1126.9,613.7-1143.6,613.7z M-1143.5,564c-7.9,0-12,7.6-12,17.9c0,10.2,4.2,18,12,18c7.9,0,11.9-7.6,11.9-17.9
			C-1131.6,571.8-1135.9,564-1143.5,564z"/>
		<path fill="#243F51" d="M-1077.2,612.5h-22.4v-61.2h21.9c21.4,0,32.4,12.1,32.4,30.6C-1045.3,599.8-1057.1,612.5-1077.2,612.5z
			 M-1077.9,565h-4.5v33.9h4.5c9.2,0,14.8-5.5,14.8-16.8C-1063.1,570.7-1068.5,565-1077.9,565z"/>
		<path fill="#243F51" d="M-1030.7,612.5v-61.2h41.6v13.2h-24.6V575h18.5l2,13h-20.5v11.5h25.3v13.1H-1030.7z"/>
		<path fill="#089F86" d="M-955.1,589.2h-8.8v23.3h-5.5v-59.5h14.4c13.1,0,22.5,6.1,22.5,18C-932.6,582.9-942,589.2-955.1,589.2z
			 M-954.9,558h-9.1v26.2h9.1c10,0,16.7-4.2,16.7-13.2C-938.2,562.3-944.9,558-954.9,558z"/>
		<path fill="#089F86" d="M-916.5,612.5h-5.6l23.9-60.1h5.8l23.9,59.6l-5.5,1.2l-7.8-20.1h-27L-916.5,612.5z M-895.2,558.7h-0.2
			l-11.5,29.4h23.2L-895.2,558.7z"/>
		<path fill="#089F86" d="M-815.3,613.1l-18.8-25.8h-10.6v25.2h-5.5v-59.5h15.7c14,0,21.5,6.7,21.5,16.7c0,8.8-5.8,15-14.9,17
			l18.6,25.2L-815.3,613.1z M-835.1,558h-9.7v24.5h9.9c11.3,0,16.1-5.5,16.1-12.5C-818.8,562.5-823.8,558-835.1,558z"/>
		<path fill="#089F86" d="M-791.4,612.5h-5.6l23.9-60.1h5.8l23.9,59.6l-5.5,1.2l-7.8-20.1h-27L-791.4,612.5z M-770.1,558.7h-0.2
			l-11.5,29.4h23.2L-770.1,558.7z"/>
		<path fill="#089F86" d="M-725.3,612.5v-59.5h5.5v54.5h23.1l0.7,4.9H-725.3z"/>
		<path fill="#089F86" d="M-677.1,612.5v-59.5h5.5v54.5h23.1l0.7,4.9H-677.1z"/>
		<path fill="#089F86" d="M-628.9,612.5v-59.5h34.4v4.9h-28.8v21h23.5l1.1,4.9h-24.6v23.7h29.8v4.9H-628.9z"/>
		<path fill="#089F86" d="M-572.7,612.5v-59.5h5.5v54.5h23.1l0.7,4.9H-572.7z"/>
	</g>
</g>
<polygon fill="#089F86" stroke="#089F86" stroke-width="0.7344" stroke-linejoin="round" stroke-miterlimit="10" points="
	-1867.3,398 -1822,374 -1822,386.2 -1856.8,404.5 "/>
<polygon fill="#243F51" stroke="#243F51" stroke-width="0.7344" stroke-linecap="round" stroke-linejoin="round" stroke-miterlimit="10" points="
	-1816.7,424.9 -1822,435 -1867.3,411.1 -1867.3,398 "/>
<polygon fill="#089F86" stroke="#089F86" stroke-width="0.7344" stroke-linejoin="round" stroke-miterlimit="10" points="
	-1712.7,404 -1752.1,382.8 -1747.4,373.5 -1702.1,397.5 "/>
<polygon fill="#243F51" stroke="#243F51" stroke-width="0.7344" stroke-linecap="round" stroke-linejoin="round" stroke-miterlimit="10" points="
	-1702.1,397.5 -1702.1,410.6 -1747.4,434.5 -1747.4,421.4 "/>
<path fill="#089F86" stroke="#089F86" stroke-width="0.7344" stroke-linejoin="round" stroke-miterlimit="10" d="M-1810.3,435.1
	h-11.5l32.8-62.3h11.5L-1810.3,435.1z"/>
<path fill="#243F51" stroke="#243F51" stroke-width="0.7344" stroke-linecap="round" stroke-linejoin="round" stroke-miterlimit="10" d="
	M-1780,435.4h-11.5l32.4-62h11.5L-1780,435.4z"/>
<g>
	<g>
		<path fill="#243F51" d="M-1864.4,467.6c-4.7,0-7.7-2.9-7.7-8c0-5,3.3-8,7.6-8c1.8,0,3.1,0.4,4.2,1l-0.5,3.8
			c-0.9-0.7-2-1.1-3.1-1.1c-2.1,0-3.6,1.4-3.6,4.3c0,2.9,1.6,4.3,3.7,4.3c1.2,0,2.3-0.4,3.4-1l0.5,3.5
			C-1861.3,467.1-1862.8,467.6-1864.4,467.6z"/>
		<path fill="#243F51" d="M-1850,467.6c-4.2,0-7.4-3.2-7.4-8c0-4.8,3.2-8,7.4-8c4.2,0,7.4,3.2,7.4,8
			C-1842.6,464.4-1845.8,467.6-1850,467.6z M-1850,455.1c-2,0-3,1.9-3,4.5c0,2.6,1.1,4.5,3,4.5c2,0,3-1.9,3-4.5
			C-1847,457-1848,455.1-1850,455.1z"/>
		<path fill="#243F51" d="M-1833.2,467.3h-5.6v-15.4h5.5c5.4,0,8.2,3.1,8.2,7.7C-1825.2,464.1-1828.2,467.3-1833.2,467.3z
			 M-1833.4,455.3h-1.1v8.5h1.1c2.3,0,3.7-1.4,3.7-4.2C-1829.7,456.8-1831,455.3-1833.4,455.3z"/>
		<path fill="#243F51" d="M-1821.5,467.3v-15.4h10.5v3.3h-6.2v2.6h4.7l0.5,3.3h-5.2v2.9h6.4v3.3H-1821.5z"/>
		<path fill="#089F86" d="M-1802.5,461.4h-2.2v5.9h-1.4v-15h3.6c3.3,0,5.7,1.5,5.7,4.5C-1796.8,459.8-1799.2,461.4-1802.5,461.4z
			 M-1802.4,453.5h-2.3v6.6h2.3c2.5,0,4.2-1.1,4.2-3.3C-1798.2,454.6-1799.9,453.5-1802.4,453.5z"/>
		<path fill="#089F86" d="M-1792.7,467.3h-1.4l6-15.2h1.5l6,15l-1.4,0.3l-2-5.1h-6.8L-1792.7,467.3z M-1787.3,453.7L-1787.3,453.7
			l-3,7.4h5.8L-1787.3,453.7z"/>
		<path fill="#089F86" d="M-1767.2,467.4l-4.7-6.5h-2.7v6.4h-1.4v-15h3.9c3.5,0,5.4,1.7,5.4,4.2c0,2.2-1.5,3.8-3.8,4.3l4.7,6.4
			L-1767.2,467.4z M-1772.2,453.5h-2.4v6.2h2.5c2.8,0,4.1-1.4,4.1-3.1C-1768.1,454.7-1769.4,453.5-1772.2,453.5z"/>
		<path fill="#089F86" d="M-1761.2,467.3h-1.4l6-15.2h1.5l6,15l-1.4,0.3l-2-5.1h-6.8L-1761.2,467.3z M-1755.8,453.7L-1755.8,453.7
			l-3,7.4h5.8L-1755.8,453.7z"/>
		<path fill="#089F86" d="M-1744.5,467.3v-15h1.4V466h5.8l0.2,1.2H-1744.5z"/>
		<path fill="#089F86" d="M-1732.4,467.3v-15h1.4V466h5.8l0.2,1.2H-1732.4z"/>
		<path fill="#089F86" d="M-1720.2,467.3v-15h8.7v1.2h-7.3v5.3h5.9l0.3,1.2h-6.2v6h7.5v1.2H-1720.2z"/>
		<path fill="#089F86" d="M-1706,467.3v-15h1.4V466h5.8l0.2,1.2H-1706z"/>
	</g>
</g>
<polygon fill="#089F86" stroke="#089F86" stroke-width="0.7775" stroke-linejoin="round" stroke-miterlimit="10" points="
	-2153.9,391 -2106,365.5 -2106,378.5 -2142.8,397.9 "/>
<polygon fill="#FFFFFF" stroke="#FFFFFF" stroke-width="0.7775" stroke-linecap="round" stroke-linejoin="round" stroke-miterlimit="10" points="
	-2100.3,419.5 -2106,430.1 -2153.9,404.9 -2153.9,391 "/>
<polygon fill="#089F86" stroke="#089F86" stroke-width="0.7775" stroke-linejoin="round" stroke-miterlimit="10" points="
	-1990.2,397.4 -2032,374.9 -2027,365 -1979,390.5 "/>
<polygon fill="#FFFFFF" stroke="#FFFFFF" stroke-width="0.7775" stroke-linecap="round" stroke-linejoin="round" stroke-miterlimit="10" points="
	-1979,390.5 -1979,404.3 -2027,429.6 -2027,415.7 "/>
<path fill="#089F86" stroke="#089F86" stroke-width="0.7775" stroke-linejoin="round" stroke-miterlimit="10" d="M-2093.5,430.3
	h-12.2l34.7-65.9h12.2L-2093.5,430.3z"/>
<path fill="#FFFFFF" stroke="#FFFFFF" stroke-width="0.7775" stroke-linecap="round" stroke-linejoin="round" stroke-miterlimit="10" d="
	M-2061.5,430.5h-12.2l34.3-65.7h12.2L-2061.5,430.5z"/>
<path fill="#FFFFFF" d="M-2150.8,464.6c-4.9,0-8.1-3.1-8.1-8.4c0-5.3,3.5-8.5,8-8.5c1.9,0,3.3,0.4,4.5,1l-0.6,4
	c-0.9-0.7-2.1-1.2-3.3-1.2c-2.2,0-3.9,1.5-3.9,4.6c0,3.1,1.7,4.6,3.9,4.6c1.2,0,2.4-0.4,3.5-1l0.5,3.7
	C-2147.5,464.2-2149.2,464.6-2150.8,464.6z"/>
<path fill="#FFFFFF" d="M-2135.6,464.7c-4.4,0-7.8-3.4-7.8-8.5c0-5.1,3.4-8.5,7.8-8.5c4.4,0,7.8,3.4,7.8,8.5
	C-2127.7,461.3-2131.1,464.7-2135.6,464.7z M-2135.5,451.4c-2.1,0-3.2,2-3.2,4.8c0,2.7,1.1,4.8,3.2,4.8c2.1,0,3.2-2,3.2-4.8
	C-2132.4,453.5-2133.5,451.4-2135.5,451.4z"/>
<path fill="#FFFFFF" d="M-2117.8,464.4h-6V448h5.8c5.7,0,8.6,3.2,8.6,8.2C-2109.3,461-2112.5,464.4-2117.8,464.4z M-2118,451.7h-1.2
	v9h1.2c2.5,0,4-1.5,4-4.5C-2114.1,453.2-2115.5,451.7-2118,451.7z"/>
<path fill="#FFFFFF" d="M-2105.4,464.4V448h11.1v3.5h-6.6v2.8h4.9l0.5,3.5h-5.5v3.1h6.8v3.5H-2105.4z"/>
<path fill="#089F86" d="M-2085.3,458.1h-2.4v6.2h-1.5v-15.9h3.8c3.5,0,6,1.6,6,4.8C-2079.3,456.4-2081.8,458.1-2085.3,458.1z
	 M-2085.2,449.8h-2.4v7h2.4c2.7,0,4.5-1.1,4.5-3.5C-2080.7,450.9-2082.5,449.8-2085.2,449.8z"/>
<path fill="#089F86" d="M-2074.9,464.4h-1.5l6.4-16.1h1.5l6.4,15.9l-1.5,0.3l-2.1-5.4h-7.2L-2074.9,464.4z M-2069.3,450L-2069.3,450
	l-3.1,7.9h6.2L-2069.3,450z"/>
<path fill="#089F86" d="M-2047.9,464.5l-5-6.9h-2.8v6.7h-1.5v-15.9h4.2c3.7,0,5.8,1.8,5.8,4.5c0,2.4-1.5,4-4,4.5l5,6.7
	L-2047.9,464.5z M-2053.2,449.8h-2.6v6.5h2.6c3,0,4.3-1.5,4.3-3.3C-2048.9,451-2050.2,449.8-2053.2,449.8z"/>
<path fill="#089F86" d="M-2041.6,464.4h-1.5l6.4-16.1h1.5l6.4,15.9l-1.5,0.3l-2.1-5.4h-7.2L-2041.6,464.4z M-2035.9,450L-2035.9,450
	l-3.1,7.9h6.2L-2035.9,450z"/>
<path fill="#089F86" d="M-2023.9,464.4v-15.9h1.5V463h6.2l0.2,1.3H-2023.9z"/>
<path fill="#089F86" d="M-2011,464.4v-15.9h1.5V463h6.2l0.2,1.3H-2011z"/>
<path fill="#089F86" d="M-1998.2,464.4v-15.9h9.2v1.3h-7.7v5.6h6.3l0.3,1.3h-6.6v6.3h8v1.3H-1998.2z"/>
<path fill="#089F86" d="M-1983.2,464.4v-15.9h1.5V463h6.2l0.2,1.3H-1983.2z"/>
<polygon fill="#089F86" stroke="#089F86" stroke-width="0.5636" stroke-linejoin="round" stroke-miterlimit="10" points="
	-2162.5,881.9 -2127.7,863.4 -2127.7,872.8 -2154.4,886.8 "/>
<polygon fill="#243F51" stroke="#243F51" stroke-width="0.5636" stroke-linecap="round" stroke-linejoin="round" stroke-miterlimit="10" points="
	-2123.6,902.5 -2127.7,910.2 -2162.5,891.9 -2162.5,881.9 "/>
<polygon fill="#089F86" stroke="#089F86" stroke-width="0.5636" stroke-linejoin="round" stroke-miterlimit="10" points="
	-2043.8,886.5 -2074.1,870.2 -2070.5,863 -2035.7,881.5 "/>
<polygon fill="#243F51" stroke="#243F51" stroke-width="0.5636" stroke-linecap="round" stroke-linejoin="round" stroke-miterlimit="10" points="
	-2035.7,881.5 -2035.7,891.5 -2070.5,909.8 -2070.5,899.8 "/>
<path fill="#089F86" stroke="#089F86" stroke-width="0.5636" stroke-linejoin="round" stroke-miterlimit="10" d="M-2118.7,910.3
	h-8.8l25.1-47.8h8.8L-2118.7,910.3z"/>
<path fill="#243F51" stroke="#243F51" stroke-width="0.5636" stroke-linecap="round" stroke-linejoin="round" stroke-miterlimit="10" d="
	M-2095.5,910.5h-8.8l24.8-47.6h8.8L-2095.5,910.5z"/>
<g>
	<g>
		<path fill="#243F51" d="M-2006.5,902.9c-8.7,0-14.3-5.5-14.3-14.8c0-9.3,6.1-15,14.1-15c3.4,0,5.9,0.7,7.9,1.8l-1,7.1
			c-1.6-1.2-3.7-2-5.9-2c-3.9,0-6.8,2.6-6.8,8.1c0,5.4,3,8.1,6.9,8.1c2.2,0,4.3-0.7,6.3-1.8l0.9,6.6
			C-2000.6,902.1-2003.5,902.9-2006.5,902.9z"/>
		<path fill="#243F51" d="M-1979.5,902.9c-7.8,0-13.7-5.9-13.7-14.9c0-9,6-15,13.8-15c7.8,0,13.8,5.9,13.8,15
			C-1965.7,896.9-1971.7,902.9-1979.5,902.9z M-1979.5,879.6c-3.7,0-5.6,3.6-5.6,8.4c0,4.8,2,8.5,5.6,8.5c3.7,0,5.6-3.6,5.6-8.4
			C-1973.9,883.2-1975.9,879.6-1979.5,879.6z"/>
		<path fill="#243F51" d="M-1948.3,902.4h-10.5v-28.8h10.3c10.1,0,15.2,5.7,15.2,14.4C-1933.3,896.4-1938.8,902.4-1948.3,902.4z
			 M-1948.6,880h-2.1v15.9h2.1c4.3,0,7-2.6,7-7.9C-1941.7,882.7-1944.2,880-1948.6,880z"/>
		<path fill="#243F51" d="M-1926.4,902.4v-28.8h19.5v6.2h-11.6v4.9h8.7l0.9,6.1h-9.6v5.4h11.9v6.1H-1926.4z"/>
		<path fill="#089F86" d="M-1890.9,891.4h-4.2v11h-2.6v-28h6.8c6.1,0,10.6,2.9,10.6,8.5C-1880.3,888.4-1884.7,891.4-1890.9,891.4z
			 M-1890.8,876.7h-4.3v12.3h4.3c4.7,0,7.9-2,7.9-6.2C-1882.9,878.7-1886,876.7-1890.8,876.7z"/>
		<path fill="#089F86" d="M-1872.7,902.4h-2.7l11.2-28.3h2.7l11.2,28l-2.6,0.6l-3.7-9.5h-12.7L-1872.7,902.4z M-1862.7,877.1h-0.1
			l-5.4,13.8h10.9L-1862.7,877.1z"/>
		<path fill="#089F86" d="M-1825.1,902.6l-8.9-12.1h-5v11.9h-2.6v-28h7.4c6.6,0,10.1,3.2,10.1,7.9c0,4.2-2.7,7-7,8l8.7,11.9
			L-1825.1,902.6z M-1834.4,876.7h-4.5v11.5h4.7c5.3,0,7.6-2.6,7.6-5.9C-1826.7,878.8-1829.1,876.7-1834.4,876.7z"/>
		<path fill="#089F86" d="M-1813.9,902.4h-2.7l11.2-28.3h2.7l11.2,28l-2.6,0.6l-3.7-9.5h-12.7L-1813.9,902.4z M-1803.8,877.1h-0.1
			l-5.4,13.8h10.9L-1803.8,877.1z"/>
		<path fill="#089F86" d="M-1782.7,902.4v-28h2.6V900h10.9l0.3,2.3H-1782.7z"/>
		<path fill="#089F86" d="M-1760.1,902.4v-28h2.6V900h10.9l0.3,2.3H-1760.1z"/>
		<path fill="#089F86" d="M-1737.4,902.4v-28h16.2v2.3h-13.6v9.9h11.1l0.5,2.3h-11.6V900h14v2.3H-1737.4z"/>
		<path fill="#089F86" d="M-1710.9,902.4v-28h2.6V900h10.9l0.3,2.3H-1710.9z"/>
	</g>
</g>
</svg>
