<?xml version="1.0" encoding="utf-8"?>
<!-- Generator: Adobe Illustrator 18.0.0, SVG Export Plug-In . SVG Version: 6.00 Build 0)  -->
<!DOCTYPE svg PUBLIC "-//W3C//DTD SVG 1.1//EN" "http://www.w3.org/Graphics/SVG/1.1/DTD/svg11.dtd">
<svg version="1.1" id="Layer_1" xmlns="http://www.w3.org/2000/svg" xmlns:xlink="http://www.w3.org/1999/xlink" x="0px" y="0px"
	 viewBox="0 0 721.9 508.3" enable-background="new 0 0 721.9 508.3" xml:space="preserve">
<rect x="-2790.5" y="298.2" fill="#243F51" stroke="#243F51" stroke-width="0.8271" stroke-linecap="round" stroke-linejoin="round" stroke-miterlimit="10" width="225.2" height="222.5"/>
<polygon fill="#FFFFFF" stroke="#FFFFFF" stroke-width="5.9322" stroke-linejoin="round" stroke-miterlimit="10" points="
	636.8,255.1 318.1,83.9 355.9,8.3 721.9,202.8 "/>
<polygon fill="#FFFFFF" stroke="#FFFFFF" stroke-width="5.9322" stroke-linecap="round" stroke-linejoin="round" stroke-miterlimit="10" points="
	721.9,202.8 721.9,308.4 355.9,501.2 355.9,395.1 "/>
<path fill="#FFFFFF" stroke="#FFFFFF" stroke-width="5.9322" stroke-linecap="round" stroke-linejoin="round" stroke-miterlimit="10" d="
	M93,508.3H0l261.3-501h93L93,508.3z"/>
<polygon fill="#089F86" stroke="#089F86" stroke-width="2.9128" stroke-linejoin="round" stroke-miterlimit="10" points="
	-1824.8,337.9 -1645.1,242.3 -1645.1,290.8 -1783,363.6 "/>
<polygon fill="#243F51" stroke="#243F51" stroke-width="2.9128" stroke-linecap="round" stroke-linejoin="round" stroke-miterlimit="10" points="
	-1624,444.4 -1645.1,484.4 -1824.8,389.7 -1824.8,337.9 "/>
<polygon fill="#089F86" stroke="#089F86" stroke-width="2.9128" stroke-linejoin="round" stroke-miterlimit="10" points="
	-1211.4,361.6 -1367.9,277.5 -1349.3,240.3 -1169.6,335.9 "/>
<polygon fill="#243F51" stroke="#243F51" stroke-width="2.9128" stroke-linecap="round" stroke-linejoin="round" stroke-miterlimit="10" points="
	-1169.6,335.9 -1169.6,387.7 -1349.3,482.4 -1349.3,430.3 "/>
<path fill="#089F86" stroke="#089F86" stroke-width="2.9128" stroke-linejoin="round" stroke-miterlimit="10" d="M-1598.6,484.8
	h-45.7l129.9-247h45.7L-1598.6,484.8z"/>
<path fill="#243F51" stroke="#243F51" stroke-width="2.9128" stroke-linecap="round" stroke-linejoin="round" stroke-miterlimit="10" d="
	M-1478.4,485.9h-45.7l128.3-246h45.7L-1478.4,485.9z"/>
<g>
	<g>
		<path fill="#243F51" d="M-1813.3,613.6c-18.5,0-30.5-11.7-30.5-31.6c0-19.8,13.1-31.8,30-31.8c7.2,0,12.5,1.4,16.8,3.9l-2.1,15.1
			c-3.4-2.6-7.9-4.4-12.5-4.4c-8.4,0-14.5,5.5-14.5,17.2c0,11.5,6.5,17.2,14.7,17.2c4.6,0,9.1-1.4,13.3-3.9l2,14
			C-1800.8,611.9-1806.9,613.6-1813.3,613.6z"/>
		<path fill="#243F51" d="M-1756,613.7c-16.6,0-29.2-12.6-29.2-31.7c0-19.2,12.7-31.9,29.3-31.9c16.6,0,29.3,12.6,29.3,31.8
			C-1726.6,601-1739.3,613.7-1756,613.7z M-1755.9,564c-7.9,0-12,7.6-12,17.9c0,10.2,4.2,18,12,18c7.9,0,11.9-7.6,11.9-17.9
			C-1744,571.8-1748.3,564-1755.9,564z"/>
		<path fill="#243F51" d="M-1689.6,612.5h-22.4v-61.2h21.9c21.4,0,32.4,12.1,32.4,30.6C-1657.7,599.8-1669.5,612.5-1689.6,612.5z
			 M-1690.3,565h-4.5v33.9h4.5c9.2,0,14.8-5.5,14.8-16.8C-1675.5,570.7-1680.9,565-1690.3,565z"/>
		<path fill="#243F51" d="M-1643.1,612.5v-61.2h41.6v13.2h-24.6V575h18.5l2,13h-20.5v11.5h25.3v13.1H-1643.1z"/>
		<path fill="#089F86" d="M-1567.5,589.2h-8.8v23.3h-5.5v-59.5h14.4c13.1,0,22.5,6.1,22.5,18C-1545,582.9-1554.5,589.2-1567.5,589.2
			z M-1567.3,558h-9.1v26.2h9.1c10,0,16.7-4.2,16.7-13.2C-1550.6,562.3-1557.3,558-1567.3,558z"/>
		<path fill="#089F86" d="M-1528.9,612.5h-5.6l23.9-60.1h5.8l23.9,59.6l-5.5,1.2l-7.8-20.1h-27L-1528.9,612.5z M-1507.6,558.7h-0.2
			l-11.5,29.4h23.2L-1507.6,558.7z"/>
		<path fill="#089F86" d="M-1427.8,613.1l-18.8-25.8h-10.6v25.2h-5.5v-59.5h15.7c14,0,21.5,6.7,21.5,16.7c0,8.8-5.8,15-14.9,17
			l18.6,25.2L-1427.8,613.1z M-1447.5,558h-9.7v24.5h9.9c11.3,0,16.1-5.5,16.1-12.5C-1431.2,562.5-1436.2,558-1447.5,558z"/>
		<path fill="#089F86" d="M-1403.9,612.5h-5.6l23.9-60.1h5.8l23.9,59.6l-5.5,1.2l-7.8-20.1h-27L-1403.9,612.5z M-1382.5,558.7h-0.2
			l-11.5,29.4h23.2L-1382.5,558.7z"/>
		<path fill="#089F86" d="M-1337.7,612.5v-59.5h5.5v54.5h23.1l0.7,4.9H-1337.7z"/>
		<path fill="#089F86" d="M-1289.5,612.5v-59.5h5.5v54.5h23.1l0.7,4.9H-1289.5z"/>
		<path fill="#089F86" d="M-1241.4,612.5v-59.5h34.4v4.9h-28.8v21h23.5l1.1,4.9h-24.6v23.7h29.8v4.9H-1241.4z"/>
		<path fill="#089F86" d="M-1185.1,612.5v-59.5h5.5v54.5h23.1l0.7,4.9H-1185.1z"/>
	</g>
</g>
<polygon fill="#089F86" stroke="#089F86" stroke-width="0.7344" stroke-linejoin="round" stroke-miterlimit="10" points="
	-2479.7,398 -2434.4,374 -2434.4,386.2 -2469.2,404.5 "/>
<polygon fill="#243F51" stroke="#243F51" stroke-width="0.7344" stroke-linecap="round" stroke-linejoin="round" stroke-miterlimit="10" points="
	-2429.1,424.9 -2434.4,435 -2479.7,411.1 -2479.7,398 "/>
<polygon fill="#089F86" stroke="#089F86" stroke-width="0.7344" stroke-linejoin="round" stroke-miterlimit="10" points="
	-2325.1,404 -2364.5,382.8 -2359.9,373.5 -2314.6,397.5 "/>
<polygon fill="#243F51" stroke="#243F51" stroke-width="0.7344" stroke-linecap="round" stroke-linejoin="round" stroke-miterlimit="10" points="
	-2314.6,397.5 -2314.6,410.6 -2359.9,434.5 -2359.9,421.4 "/>
<path fill="#089F86" stroke="#089F86" stroke-width="0.7344" stroke-linejoin="round" stroke-miterlimit="10" d="M-2422.7,435.1
	h-11.5l32.8-62.3h11.5L-2422.7,435.1z"/>
<path fill="#243F51" stroke="#243F51" stroke-width="0.7344" stroke-linecap="round" stroke-linejoin="round" stroke-miterlimit="10" d="
	M-2392.4,435.4h-11.5l32.4-62h11.5L-2392.4,435.4z"/>
<g>
	<g>
		<path fill="#243F51" d="M-2476.8,467.6c-4.7,0-7.7-2.9-7.7-8c0-5,3.3-8,7.6-8c1.8,0,3.1,0.4,4.2,1l-0.5,3.8
			c-0.9-0.7-2-1.1-3.1-1.1c-2.1,0-3.6,1.4-3.6,4.3c0,2.9,1.6,4.3,3.7,4.3c1.2,0,2.3-0.4,3.4-1l0.5,3.5
			C-2473.7,467.1-2475.2,467.6-2476.8,467.6z"/>
		<path fill="#243F51" d="M-2462.4,467.6c-4.2,0-7.4-3.2-7.4-8c0-4.8,3.2-8,7.4-8c4.2,0,7.4,3.2,7.4,8
			C-2455,464.4-2458.2,467.6-2462.4,467.6z M-2462.4,455.1c-2,0-3,1.9-3,4.5c0,2.6,1.1,4.5,3,4.5c2,0,3-1.9,3-4.5
			C-2459.4,457-2460.4,455.1-2462.4,455.1z"/>
		<path fill="#243F51" d="M-2445.7,467.3h-5.6v-15.4h5.5c5.4,0,8.2,3.1,8.2,7.7C-2437.6,464.1-2440.6,467.3-2445.7,467.3z
			 M-2445.8,455.3h-1.1v8.5h1.1c2.3,0,3.7-1.4,3.7-4.2C-2442.1,456.8-2443.5,455.3-2445.8,455.3z"/>
		<path fill="#243F51" d="M-2433.9,467.3v-15.4h10.5v3.3h-6.2v2.6h4.7l0.5,3.3h-5.2v2.9h6.4v3.3H-2433.9z"/>
		<path fill="#089F86" d="M-2414.9,461.4h-2.2v5.9h-1.4v-15h3.6c3.3,0,5.7,1.5,5.7,4.5C-2409.2,459.8-2411.6,461.4-2414.9,461.4z
			 M-2414.8,453.5h-2.3v6.6h2.3c2.5,0,4.2-1.1,4.2-3.3C-2410.6,454.6-2412.3,453.5-2414.8,453.5z"/>
		<path fill="#089F86" d="M-2405.1,467.3h-1.4l6-15.2h1.5l6,15l-1.4,0.3l-2-5.1h-6.8L-2405.1,467.3z M-2399.8,453.7L-2399.8,453.7
			l-3,7.4h5.8L-2399.8,453.7z"/>
		<path fill="#089F86" d="M-2379.6,467.4l-4.7-6.5h-2.7v6.4h-1.4v-15h3.9c3.5,0,5.4,1.7,5.4,4.2c0,2.2-1.5,3.8-3.8,4.3l4.7,6.4
			L-2379.6,467.4z M-2384.6,453.5h-2.4v6.2h2.5c2.8,0,4.1-1.4,4.1-3.1C-2380.5,454.7-2381.8,453.5-2384.6,453.5z"/>
		<path fill="#089F86" d="M-2373.6,467.3h-1.4l6-15.2h1.5l6,15l-1.4,0.3l-2-5.1h-6.8L-2373.6,467.3z M-2368.2,453.7L-2368.2,453.7
			l-3,7.4h5.8L-2368.2,453.7z"/>
		<path fill="#089F86" d="M-2356.9,467.3v-15h1.4V466h5.8l0.2,1.2H-2356.9z"/>
		<path fill="#089F86" d="M-2344.8,467.3v-15h1.4V466h5.8l0.2,1.2H-2344.8z"/>
		<path fill="#089F86" d="M-2332.6,467.3v-15h8.7v1.2h-7.3v5.3h5.9l0.3,1.2h-6.2v6h7.5v1.2H-2332.6z"/>
		<path fill="#089F86" d="M-2318.4,467.3v-15h1.4V466h5.8l0.2,1.2H-2318.4z"/>
	</g>
</g>
<polygon fill="#089F86" stroke="#089F86" stroke-width="0.7775" stroke-linejoin="round" stroke-miterlimit="10" points="
	-2766.3,391 -2718.4,365.5 -2718.4,378.5 -2755.2,397.9 "/>
<polygon fill="#FFFFFF" stroke="#FFFFFF" stroke-width="0.7775" stroke-linecap="round" stroke-linejoin="round" stroke-miterlimit="10" points="
	-2712.7,419.5 -2718.4,430.1 -2766.3,404.9 -2766.3,391 "/>
<polygon fill="#089F86" stroke="#089F86" stroke-width="0.7775" stroke-linejoin="round" stroke-miterlimit="10" points="
	-2602.6,397.4 -2644.4,374.9 -2639.4,365 -2591.5,390.5 "/>
<polygon fill="#FFFFFF" stroke="#FFFFFF" stroke-width="0.7775" stroke-linecap="round" stroke-linejoin="round" stroke-miterlimit="10" points="
	-2591.5,390.5 -2591.5,404.3 -2639.4,429.6 -2639.4,415.7 "/>
<path fill="#089F86" stroke="#089F86" stroke-width="0.7775" stroke-linejoin="round" stroke-miterlimit="10" d="M-2706,430.3h-12.2
	l34.7-65.9h12.2L-2706,430.3z"/>
<path fill="#FFFFFF" stroke="#FFFFFF" stroke-width="0.7775" stroke-linecap="round" stroke-linejoin="round" stroke-miterlimit="10" d="
	M-2673.9,430.5h-12.2l34.3-65.7h12.2L-2673.9,430.5z"/>
<path fill="#FFFFFF" d="M-2763.3,464.6c-4.9,0-8.1-3.1-8.1-8.4c0-5.3,3.5-8.5,8-8.5c1.9,0,3.3,0.4,4.5,1l-0.6,4
	c-0.9-0.7-2.1-1.2-3.3-1.2c-2.2,0-3.9,1.5-3.9,4.6c0,3.1,1.7,4.6,3.9,4.6c1.2,0,2.4-0.4,3.5-1l0.5,3.7
	C-2759.9,464.2-2761.6,464.6-2763.3,464.6z"/>
<path fill="#FFFFFF" d="M-2748,464.7c-4.4,0-7.8-3.4-7.8-8.5c0-5.1,3.4-8.5,7.8-8.5c4.4,0,7.8,3.4,7.8,8.5
	C-2740.1,461.3-2743.5,464.7-2748,464.7z M-2748,451.4c-2.1,0-3.2,2-3.2,4.8c0,2.7,1.1,4.8,3.2,4.8c2.1,0,3.2-2,3.2-4.8
	C-2744.8,453.5-2745.9,451.4-2748,451.4z"/>
<path fill="#FFFFFF" d="M-2730.3,464.4h-6V448h5.8c5.7,0,8.6,3.2,8.6,8.2C-2721.7,461-2724.9,464.4-2730.3,464.4z M-2730.4,451.7
	h-1.2v9h1.2c2.5,0,4-1.5,4-4.5C-2726.5,453.2-2727.9,451.7-2730.4,451.7z"/>
<path fill="#FFFFFF" d="M-2717.8,464.4V448h11.1v3.5h-6.6v2.8h4.9l0.5,3.5h-5.5v3.1h6.8v3.5H-2717.8z"/>
<path fill="#089F86" d="M-2697.7,458.1h-2.4v6.2h-1.5v-15.9h3.8c3.5,0,6,1.6,6,4.8C-2691.7,456.4-2694.2,458.1-2697.7,458.1z
	 M-2697.6,449.8h-2.4v7h2.4c2.7,0,4.5-1.1,4.5-3.5C-2693.1,450.9-2694.9,449.8-2697.6,449.8z"/>
<path fill="#089F86" d="M-2687.4,464.4h-1.5l6.4-16.1h1.5l6.4,15.9l-1.5,0.3l-2.1-5.4h-7.2L-2687.4,464.4z M-2681.7,450L-2681.7,450
	l-3.1,7.9h6.2L-2681.7,450z"/>
<path fill="#089F86" d="M-2660.4,464.5l-5-6.9h-2.8v6.7h-1.5v-15.9h4.2c3.7,0,5.8,1.8,5.8,4.5c0,2.4-1.5,4-4,4.5l5,6.7
	L-2660.4,464.5z M-2665.6,449.8h-2.6v6.5h2.6c3,0,4.3-1.5,4.3-3.3C-2661.3,451-2662.6,449.8-2665.6,449.8z"/>
<path fill="#089F86" d="M-2654,464.4h-1.5l6.4-16.1h1.5l6.4,15.9l-1.5,0.3l-2.1-5.4h-7.2L-2654,464.4z M-2648.3,450L-2648.3,450
	l-3.1,7.9h6.2L-2648.3,450z"/>
<path fill="#089F86" d="M-2636.3,464.4v-15.9h1.5V463h6.2l0.2,1.3H-2636.3z"/>
<path fill="#089F86" d="M-2623.5,464.4v-15.9h1.5V463h6.2l0.2,1.3H-2623.5z"/>
<path fill="#089F86" d="M-2610.6,464.4v-15.9h9.2v1.3h-7.7v5.6h6.3l0.3,1.3h-6.6v6.3h8v1.3H-2610.6z"/>
<path fill="#089F86" d="M-2595.6,464.4v-15.9h1.5V463h6.2l0.2,1.3H-2595.6z"/>
<polygon fill="#089F86" stroke="#089F86" stroke-width="0.5636" stroke-linejoin="round" stroke-miterlimit="10" points="
	-2774.9,881.9 -2740.1,863.4 -2740.1,872.8 -2766.8,886.8 "/>
<polygon fill="#243F51" stroke="#243F51" stroke-width="0.5636" stroke-linecap="round" stroke-linejoin="round" stroke-miterlimit="10" points="
	-2736,902.5 -2740.1,910.2 -2774.9,891.9 -2774.9,881.9 "/>
<polygon fill="#089F86" stroke="#089F86" stroke-width="0.5636" stroke-linejoin="round" stroke-miterlimit="10" points="
	-2656.2,886.5 -2686.5,870.2 -2682.9,863 -2648.1,881.5 "/>
<polygon fill="#243F51" stroke="#243F51" stroke-width="0.5636" stroke-linecap="round" stroke-linejoin="round" stroke-miterlimit="10" points="
	-2648.1,881.5 -2648.1,891.5 -2682.9,909.8 -2682.9,899.8 "/>
<path fill="#089F86" stroke="#089F86" stroke-width="0.5636" stroke-linejoin="round" stroke-miterlimit="10" d="M-2731.1,910.3
	h-8.8l25.1-47.8h8.8L-2731.1,910.3z"/>
<path fill="#243F51" stroke="#243F51" stroke-width="0.5636" stroke-linecap="round" stroke-linejoin="round" stroke-miterlimit="10" d="
	M-2707.9,910.5h-8.8l24.8-47.6h8.8L-2707.9,910.5z"/>
<g>
	<g>
		<path fill="#243F51" d="M-2618.9,902.9c-8.7,0-14.3-5.5-14.3-14.8c0-9.3,6.1-15,14.1-15c3.4,0,5.9,0.7,7.9,1.8l-1,7.1
			c-1.6-1.2-3.7-2-5.9-2c-3.9,0-6.8,2.6-6.8,8.1c0,5.4,3,8.1,6.9,8.1c2.2,0,4.3-0.7,6.3-1.8l0.9,6.6
			C-2613,902.1-2615.9,902.9-2618.9,902.9z"/>
		<path fill="#243F51" d="M-2592,902.9c-7.8,0-13.7-5.9-13.7-14.9c0-9,6-15,13.8-15c7.8,0,13.8,5.9,13.8,15
			C-2578.1,896.9-2584.1,902.9-2592,902.9z M-2591.9,879.6c-3.7,0-5.6,3.6-5.6,8.4c0,4.8,2,8.5,5.6,8.5c3.7,0,5.6-3.6,5.6-8.4
			C-2586.3,883.2-2588.3,879.6-2591.9,879.6z"/>
		<path fill="#243F51" d="M-2560.7,902.4h-10.5v-28.8h10.3c10.1,0,15.2,5.7,15.2,14.4C-2545.7,896.4-2551.2,902.4-2560.7,902.4z
			 M-2561,880h-2.1v15.9h2.1c4.3,0,7-2.6,7-7.9C-2554.1,882.7-2556.6,880-2561,880z"/>
		<path fill="#243F51" d="M-2538.8,902.4v-28.8h19.5v6.2h-11.6v4.9h8.7l0.9,6.1h-9.6v5.4h11.9v6.1H-2538.8z"/>
		<path fill="#089F86" d="M-2503.3,891.4h-4.2v11h-2.6v-28h6.8c6.1,0,10.6,2.9,10.6,8.5C-2492.7,888.4-2497.1,891.4-2503.3,891.4z
			 M-2503.2,876.7h-4.3v12.3h4.3c4.7,0,7.9-2,7.9-6.2C-2495.3,878.7-2498.5,876.7-2503.2,876.7z"/>
		<path fill="#089F86" d="M-2485.1,902.4h-2.7l11.2-28.3h2.7l11.2,28l-2.6,0.6l-3.7-9.5h-12.7L-2485.1,902.4z M-2475.1,877.1h-0.1
			l-5.4,13.8h10.9L-2475.1,877.1z"/>
		<path fill="#089F86" d="M-2437.5,902.6l-8.9-12.1h-5v11.9h-2.6v-28h7.4c6.6,0,10.1,3.2,10.1,7.9c0,4.2-2.7,7-7,8l8.7,11.9
			L-2437.5,902.6z M-2446.8,876.7h-4.5v11.5h4.7c5.3,0,7.6-2.6,7.6-5.9C-2439.1,878.8-2441.5,876.7-2446.8,876.7z"/>
		<path fill="#089F86" d="M-2426.3,902.4h-2.7l11.2-28.3h2.7l11.2,28l-2.6,0.6l-3.7-9.5h-12.7L-2426.3,902.4z M-2416.3,877.1h-0.1
			l-5.4,13.8h10.9L-2416.3,877.1z"/>
		<path fill="#089F86" d="M-2395.1,902.4v-28h2.6V900h10.9l0.3,2.3H-2395.1z"/>
		<path fill="#089F86" d="M-2372.5,902.4v-28h2.6V900h10.9l0.3,2.3H-2372.5z"/>
		<path fill="#089F86" d="M-2349.8,902.4v-28h16.2v2.3h-13.6v9.9h11.1l0.5,2.3h-11.6V900h14v2.3H-2349.8z"/>
		<path fill="#089F86" d="M-2323.4,902.4v-28h2.6V900h10.9l0.3,2.3H-2323.4z"/>
	</g>
</g>
</svg>
