<?xml version="1.0" encoding="UTF-8"?>
<svg width="112px" height="127px" viewBox="0 0 112 127" version="1.1" xmlns="http://www.w3.org/2000/svg" xmlns:xlink="http://www.w3.org/1999/xlink">
    <!-- Generator: Sketch 57.1 (83088) - https://sketch.com -->
    <title>icons8-search_user</title>
    <desc>Created with Sketch.</desc>
    <g id="Page-1" stroke="none" stroke-width="1" fill="none" fill-rule="evenodd">
        <g id="icons8-search_user" fill-rule="nonzero">
            <path d="M107.9,73.5 C107.9,73.5 102.1,41.6 100.2,36.4 C93.1,16.1 73.2,1.8 50.2,3 C24.9,4.4 4.3,25 3.1,50.4 C2.2,68.7 11.1,85 25.1,94.4 C25.4,94.6 25.8,94.9 26.1,95.1 C33.1,100.3 37.1,108.8 37.1,117.5 L37.1,122.9 C37.1,124.6 38.4,125.9 40.1,125.9 L76.1,125.9 L76.1,118.9 C76.1,113.4 80.6,108.9 86.1,108.9 L94.1,108.9 C98.5,108.9 102.1,105.3 102.1,100.9 L102.1,86.5 C102.1,84.9 102.7,83.4 103.8,82.3 L106.6,79.5 C108,77.9 108.5,75.6 107.9,73.5 Z" id="Path" fill="#FFFFFF"></path>
            <path d="M76,126 C74.3,126 73,124.7 73,123 L73,119 C73,111.8 78.8,106 86,106 L94,106 C96.8,106 99,103.8 99,101 L99,86.5 C99,84.1 99.9,81.9 101.5,80.2 L104.3,77.4 C105.1,76.6 105.3,75.5 105,74.4 C105,74.3 104.9,74.2 104.9,74.1 L98.5,43.4 C95.6,29.2 86.3,17.1 73.8,10.9 C66.5,7.3 58.4,5.6 50.2,6.1 C26.6,7.4 7.2,27 6.1,50.6 C5.2,67.2 13,82.7 26.7,92 C28.1,92.9 28.4,94.8 27.5,96.2 C26.6,97.6 24.7,97.9 23.3,97 C7.8,86.5 -0.9,69 0.1,50.3 C0.7,37.3 6.2,25 15.5,15.7 C24.7,6.4 36.9,0.8 49.9,0.1 C59.1,-0.4 68.3,1.4 76.5,5.5 C90.6,12.5 101,26.2 104.4,42.2 L110.8,72.8 C111.7,75.9 110.9,79.3 108.6,81.6 L105.8,84.4 C105.3,85 105,85.7 105,86.5 L105,101 C105,107.1 100.1,112 94,112 L86,112 C82.1,112 79,115.1 79,119 L79,123 C79,124.7 77.7,126 76,126 Z" id="Path" fill="#444B54"></path>
            <g id="Group" transform="translate(17.000000, 17.000000)">
                <circle id="Oval" fill="#FFFFFF" transform="translate(35.789560, 35.823300) rotate(-45.000000) translate(-35.789560, -35.823300) " cx="35.78956" cy="35.8233" r="24.9997602"></circle>
                <g transform="translate(7.000000, 7.000000)">
                    <path d="M28.3,99.3 L28.3,99.3 C25,99.3 22.3,96.6 22.3,93.3 L22.3,72.3 C22.3,69 25,66.3 28.3,66.3 L28.3,66.3 C31.6,66.3 34.3,69 34.3,72.3 L34.3,93.3 C34.3,96.6 31.6,99.3 28.3,99.3 Z" id="Path" fill="#FFFFFF"></path>
                    <path d="M48.6,48.6 C59.5,37.7 59.5,19.9 48.6,9 C37.7,-1.9 19.9,-1.9 9,9 C-1.9,19.9 -1.9,37.7 9,48.6 C13.6,53.2 19.3,55.8 25.3,56.6 L25.3,63.9 C21.8,65.1 19.3,68.5 19.3,72.4 L19.3,93.4 C19.3,98.4 23.3,102.4 28.3,102.4 C33.3,102.4 37.3,98.4 37.3,93.4 L37.3,72.4 C37.3,68.5 34.8,65.2 31.3,63.9 L31.3,56.7 C37.6,56.1 43.8,53.4 48.6,48.6 Z M13.3,13.3 C17.6,9 23.2,6.9 28.9,6.9 C34.6,6.9 40.2,9 44.5,13.3 C53.1,21.9 53.1,35.8 44.5,44.4 C35.9,53 22,53 13.4,44.4 C4.7,35.8 4.7,21.8 13.3,13.3 Z M31.3,93.3 C31.3,95 30,96.3 28.3,96.3 C26.6,96.3 25.3,95 25.3,93.3 L25.3,72.3 C25.3,70.6 26.6,69.3 28.3,69.3 C30,69.3 31.3,70.6 31.3,72.3 L31.3,93.3 Z" id="Shape" fill="#68E8C3"></path>
                </g>
            </g>
        </g>
    </g>
</svg>