<?xml version="1.0" encoding="utf-8"?>
<!-- Generator: Adobe Illustrator 15.0.0, SVG Export Plug-In . SVG Version: 6.00 Build 0)  -->
<!DOCTYPE svg PUBLIC "-//W3C//DTD SVG 1.1//EN" "http://www.w3.org/Graphics/SVG/1.1/DTD/svg11.dtd">
<svg xmlns="http://www.w3.org/2000/svg" xmlns:xlink="http://www.w3.org/1999/xlink" version="1.1" id="Layer_1" x="0px" y="0px" width="40px" height="40px" viewBox="0 0 26 26" enable-background="new 0 0 26 26" xml:space="preserve" fill="#555">
<g fill="#555">
	<g fill="#555">
		<path fill="#555" d="M13.005,1.301c4.794,0,8.694,3.902,8.694,8.699c0,4.796-3.902,8.698-8.698,8.699    c-4.797-0.001-8.7-3.903-8.7-8.699c0-4.797,3.902-8.699,8.701-8.699H13.005 M13.004,0.188h-0.002c0,0-0.001,0-0.002,0    c-5.418,0-9.813,4.394-9.813,9.813c0,5.417,4.396,9.812,9.813,9.813c5.416-0.001,9.812-4.396,9.812-9.813    C22.813,4.58,18.418,0.188,13.004,0.188L13.004,0.188z"/>
	</g>
</g>

<g fill="#555">
	<path fill="#555" d="M14.002,8.063c0.878-3.251-0.979-5.329-3.473-5.091C9.353,3.087,8.174,4.592,8.898,5.962   c0.679,1.284,2.1,1.165,2.535,2.629C11.838,8.035,12.645,7.41,14.002,8.063z"/>
</g>
<g fill="#555">
	<g fill="#555">
		<path fill="#555" d="M10.822,10.1c-3.255,0.865-4.127,3.512-2.673,5.553c0.686,0.961,2.58,1.23,3.404-0.083    c0.772-1.229-0.041-2.4,1.009-3.509C11.88,11.987,10.934,11.602,10.822,10.1z"/>
	</g>
</g>
<g fill="#555">
	<g fill="#555">
		<path fill="#555" d="M14.176,11.836c2.376,2.385,5.104,1.817,6.145-0.462c0.489-1.075-0.225-2.851-1.774-2.907    c-1.45-0.055-2.058,1.235-3.543,0.881C15.281,9.975,15.421,10.987,14.176,11.836z"/>
	</g>
</g>
<g fill="#555">
	<circle fill="#555" cx="13" cy="10" r="1.296"/>
</g>
<path fill="#555" d="M15,21c0,0-0.379,0.313-2,0.313S11,21,11,21c0,2.001-4,2.344-4,4v1h12v-1C19,23.344,15,23.001,15,21z"/>
</svg>
