<svg xmlns="http://www.w3.org/2000/svg" width="40" height="40" viewBox="0 0 26 26" fill="#555"><path d="M13.005 1.301c4.794 0 8.694 3.902 8.694 8.699 0 4.796-3.902 8.698-8.698 8.699-4.797-.001-8.7-3.903-8.7-8.699 0-4.797 3.902-8.699 8.701-8.699h.003M13.004.188h-.002H13c-5.418 0-9.813 4.394-9.813 9.813 0 5.417 4.396 9.812 9.813 9.813 5.416-.001 9.812-4.396 9.812-9.813.001-5.421-4.394-9.813-9.808-9.813z"/><path d="M14.002 8.063c.878-3.251-.979-5.329-3.473-5.091-1.176.115-2.355 1.62-1.631 2.99.679 1.284 2.1 1.165 2.535 2.629.405-.556 1.212-1.181 2.569-.528zM10.822 10.1c-3.255.865-4.127 3.512-2.673 5.553.686.961 2.58 1.23 3.404-.083.772-1.229-.041-2.4 1.009-3.509-.682-.074-1.628-.459-1.74-1.961zM14.176 11.836c2.376 2.385 5.104 1.817 6.145-.462.489-1.075-.225-2.851-1.774-2.907-1.45-.055-2.058 1.235-3.543.881.277.627.417 1.639-.828 2.488z"/><circle cx="13" cy="10" r="1.296"/><path d="M15 21s-.379.313-2 .313S11 21 11 21c0 2.001-4 2.344-4 4v1h12v-1c0-1.656-4-1.999-4-4z"/></svg>