<svg xmlns="http://www.w3.org/2000/svg" width="40" height="40" viewBox="0 0 26 26" fill="#555"><path d="M22.913 10.502l-3.807-1.694a3.124 3.124 0 0 0-4.125 1.584l9.516 4.235a3.124 3.124 0 0 0-1.584-4.125zM25.213.208c-.526-.234-1.085-.174-1.256.147l-3.931 7.372L23.1 9.094l2.845-7.855c.124-.342-.206-.797-.732-1.031z"/><path fill="none" stroke="#555" stroke-width="2" stroke-linejoin="round" stroke-miterlimit="10" d="M22.955 15.973c-1.953 5.946-4.481 9.024-4.481 9.024s-8.707-.316-14.355-7.288c1.166.083 8.435-.542 10.939-5.371"/><path d="M7.883 20.653s2.368-.099 3.848-1.645c-1.184 2.171-2.204 2.73-2.204 2.73l-1.644-1.085zM11.975 22.494s1.575.622 5.265-2.777c-1.327 3.026-2.57 4.063-2.57 4.063l-2.695-1.286z"/><circle cx="1.5" cy="5.5" r="1.5"/><circle cx="6" cy="6" r="1"/><circle cx="5.5" cy="11.5" r="2.5"/></svg>