<svg xmlns="http://www.w3.org/2000/svg" width="26" height="26" viewBox="0 0 26 26" fill="#555"><path d="M3.854 25.682a1.004 1.004 0 0 1-1.415 0L.318 23.561a1.002 1.002 0 0 1 0-1.414l10.691-10.691 3.536 3.536-10.691 10.69zM17.086 5.375a1.005 1.005 0 0 1 1.416 0l2.121 2.121a1.003 1.003 0 0 1-.001 1.415l-4.745 4.746-3.535-3.536 4.744-4.746z"/><path d="M25.639 12.518l-1.962-1.96s-.288-.134-.429-.062c-.309.158-1.203.267-1.645-.176l-1.321-1.319-2.68 2.68s.62.618 1.32 1.319c.438.438.37 1.28.215 1.588-.093.186.003.506.003.506l1.962 1.96c.39.39 1.024.39 1.415.001l3.121-3.122c.389-.39.389-1.025.001-1.415z"/><path d="M20.623 7.504c.389.39.389 1.025 0 1.415l-3.121 3.121a1.003 1.003 0 0 1-1.415 0s-3.556-2.133-2.774-2.899c.766-.75.636-2.047-1.521-4.307C9.167 2.084 5.126 1.08 5.126 1.08s9.096.024 10.859 1.788c.519.517 4.638 4.636 4.638 4.636z"/></svg>