<svg xmlns="http://www.w3.org/2000/svg" id="Layer_1" width="26" height="26" viewBox="0 0 26 26" fill="#555"><style>.st0{stroke-width:2}.st0,.st1,.st2{fill:none;stroke:#555;stroke-miterlimit:10}.st1{stroke-linecap:round;stroke-linejoin:round;stroke-width:2}.st2{stroke-width:4}</style><path class="st0" d="M21.4 10.3c-.8-.9-1.7-1.9-2.8-2.9L17.2 6M15.7 4.6c-2.2-2-3.9-3.2-4.2-2.9l-4.9 5c-.4.4 2.1 3.6 5.7 7.1s6.7 6 7.1 5.7l4.9-4.9c.2-.2-1.2-2.3-1.6-2.6"/><path d="M5.6 6.6l-1.2 6.9c-.1.4 1.5 2.3 3.6 4.5s4.1 3.8 4.5 3.7l6.8-1.2s-2.7-2.4-7-6.7-6.7-7.2-6.7-7.2z"/><path class="st1" d="M18.8 12.8L25 6.7M13.2 7.2L19.3 1"/><path d="M6.8 21.3l-2.1-2.1c-1-1-1-2.5 0-3.5l3.5-3.5 5.5 5.5-3.5 3.5c-.9 1-2.4 1-3.4.1z"/><path class="st2" d="M1.5 24.5L6 20"/></svg>