<svg xmlns="http://www.w3.org/2000/svg" width="26" height="26" viewBox="0 0 26 26" fill="#555"><path d="M6 21c-.551 0-1-.449-1-1V5c0-.551.449-1 1-1h2c.551 0 1 .449 1 1v15c0 .551-.449 1-1 1H6zM3 19c-.551 0-1-.449-1-1V7c0-.551.449-1 1-1h1v13H3zM18 21c-.551 0-1-.449-1-1V5c0-.551.449-1 1-1h2c.551 0 1 .449 1 1v15c0 .551-.449 1-1 1h-2zM22 19V6h1c.551 0 1 .449 1 1v11c0 .551-.449 1-1 1h-1z"/><path d="M25 11h-2v3h2c.551 0 1-.449 1-1v-1c0-.551-.449-1-1-1zM3 11H1c-.551 0-1 .449-1 1v1c0 .551.449 1 1 1h2v-3zM8 11h10v3H8z"/></svg>