<svg xmlns="http://www.w3.org/2000/svg" width="26" height="26" viewBox="0 0 26 26" fill="#555"><path d="M0 24h26v1s0 1-1 1H1c-.551 0-1-.449-1-1v-1zM21 2H5C3.344 2 2 3.344 2 5v10c0 1.656 1.344 3 3 3h16c1.656 0 3-1.344 3-3V5c0-1.656-1.344-3-3-3zM4 15V5c0-.551.449-1 1-1h16c.551 0 1 .449 1 1v10c0 .551-.449 1-1 1H5c-.551 0-1-.449-1-1z"/><path d="M24 17.814c-.179-.454-.673-.813-1.106-.813H3.107c-.789.001-1.107.813-1.107.813L0 23h9.252l.424-1.109S9.998 21 10.998 21h4c.547 0 1.135.375 1.344.891L16.746 23H26l-2-5.186zM5 20l1-2h14l1 2H5z"/><path d="M15 17h-1l.675 4h1zM12 17h-1l-.5 4h1zM9 17H8l-1 4h1zM18 17h-1l1 4h1z"/><path fill="none" stroke="#555" stroke-miterlimit="10" d="M4.572 19h16.769"/></svg>