<svg xmlns="http://www.w3.org/2000/svg" width="26" height="26" viewBox="0 0 26 26" fill="#555"><path d="M0 25c0 .551.449 1 1 1h24c.551 0 1-.449 1-1v-1c0-.551-.449-1-1-1H2c-.551 0-2 2-2 2zM18 13h-4c-.551 0-1 .449-1 1v1.286h6V14c0-.551-.449-1-1-1z"/><path fill="none" stroke="#555" stroke-width="2" stroke-linecap="round" stroke-linejoin="round" stroke-miterlimit="10" d="M25 24v-6c0-1.531-1.578-3-3-3h-7c-3.51 0-11.035 1.867-13 9"/><path d="M18.5 7h-10c-1.141 0-.228 3.758 4 3.758s4.439-.758 6-.758 4.036.553 4.173 4.173C22.699 14.859 26 17 26 17v-1.5C26 9.66 22.112 7 18.5 7z"/><circle cx="19" cy="20" r="1.313"/><circle cx="15" cy="20" r="1.313"/><circle cx="11" cy="20" r="1.313"/><path d="M23 15h3v8h-3z"/></svg>