<svg xmlns="http://www.w3.org/2000/svg" width="26" height="26" viewBox="0 0 26 26" fill="#555"><path d="M16.332.19L9.68 6.841l9.48 9.479 6.649-6.651L16.332.19zM18.6 13.041c-.395-.395.634-2 .021-2.612-.613-.612-2 .591-2.547.044-.32-.321-.359-.812-.047-1.463s.957-1.947.605-2.299c-.353-.352-1.324.172-2.039.657-.453.308-1.524.873-1.993.404-.37-.37-.374-1.104.316-1.795l3.415-3.417 7.109 7.109-2.637 2.637c-1.053 1.054-1.809 1.13-2.203.735zM9.68 8.255l8.065 8.066-1.859 1.858-8.065-8.065L9.68 8.255m0-1.414l-3.273 3.273 9.479 9.479 3.273-3.272-9.479-9.48zM7.446 15.893c-1.962 1.963-3.959 1.881-5.181 3.104C.302 20.96-.681 24.066.625 25.374c1.309 1.309 4.415.324 6.379-1.637 1.221-1.225 1.881-3.959 3.102-5.181 1.223-1.223 5.779 1.038 5.779 1.038l-9.479-9.479c.001-.001 2.078 4.74 1.04 5.778zm-3.513 6.173a1.32 1.32 0 1 1-1.865 1.867 1.32 1.32 0 0 1 1.865-1.867z"/></svg>