<?xml version="1.0" encoding="utf-8"?>
<!-- Generator: Adobe Illustrator 15.0.0, SVG Export Plug-In . SVG Version: 6.00 Build 0)  -->
<!DOCTYPE svg PUBLIC "-//W3C//DTD SVG 1.1//EN" "http://www.w3.org/Graphics/SVG/1.1/DTD/svg11.dtd">
<svg xmlns="http://www.w3.org/2000/svg" xmlns:xlink="http://www.w3.org/1999/xlink" version="1.1" id="Layer_1" x="0px" y="0px" width="26px" height="26px" viewBox="0 0 26 26" enable-background="new 0 0 26 26" xml:space="preserve" fill="#555">

<path fill="#555" d="M16.332,0.19L9.68,6.841l9.48,9.479l6.649-6.651L16.332,0.19z M18.6,13.041  c-0.395-0.395,0.634-2,0.021-2.612c-0.613-0.612-2,0.591-2.547,0.044c-0.32-0.321-0.359-0.812-0.047-1.463s0.957-1.947,0.605-2.299  c-0.353-0.352-1.324,0.172-2.039,0.657c-0.453,0.308-1.524,0.873-1.993,0.404c-0.37-0.37-0.374-1.104,0.316-1.795  c0.004-0.004,3.415-3.417,3.415-3.417l7.109,7.109c0,0-1.896,1.897-2.637,2.637C19.75,13.36,18.994,13.436,18.6,13.041z"/>
<g fill="#555">
	<g fill="#555">
		<path fill="#555" d="M9.68,8.255l8.065,8.066l-1.859,1.858l-8.065-8.065L9.68,8.255 M9.68,6.841l-3.273,3.273l9.479,9.479    l3.273-3.272L9.68,6.841L9.68,6.841z"/>
	</g>
</g>
<path fill="#555" d="M7.446,15.893c-1.962,1.963-3.959,1.881-5.181,3.104c-1.963,1.963-2.946,5.069-1.64,6.377  c1.309,1.309,4.415,0.324,6.379-1.637c1.221-1.225,1.881-3.959,3.102-5.181c1.223-1.223,5.779,1.038,5.779,1.038l-9.479-9.479  C6.407,10.114,8.484,14.855,7.446,15.893z M3.933,22.066c0.516,0.516,0.516,1.352,0,1.867c-0.516,0.515-1.351,0.515-1.866,0  c-0.516-0.516-0.516-1.352,0-1.867S3.417,21.551,3.933,22.066z"/>
</svg>
