<svg width="20" height="20" viewBox="0 0 20 20" xmlns="http://www.w3.org/2000/svg"><title>background + instagram-icon</title><defs><linearGradient x1="50%" y1="0%" x2="50%" y2="100%" id="a"><stop stop-color="#5980A2" offset="0%"/><stop stop-color="#3A5F82" offset="100%"/></linearGradient><filter x="-50%" y="-50%" width="200%" height="200%" filterUnits="objectBoundingBox" id="b"><feOffset dy="1" in="SourceAlpha" result="shadowOffsetOuter1"/><feGaussianBlur in="shadowOffsetOuter1" result="shadowBlurOuter1"/><feColorMatrix values="0 0 0 0 0 0 0 0 0 0 0 0 0 0 0 0 0 0 0.35 0" in="shadowBlurOuter1" result="shadowMatrixOuter1"/><feMerge><feMergeNode in="shadowMatrixOuter1"/><feMergeNode in="SourceGraphic"/></feMerge></filter></defs><g fill="none" fill-rule="evenodd"><path fill="url(#a)" d="M0 0h20v20H0z"/><path d="M2 15.948V4.052c0-.562.201-1.045.604-1.448A1.975 1.975 0 0 1 4.052 2h11.896c.562 0 1.045.201 1.448.604.403.403.604.886.604 1.448v11.896c0 .562-.201 1.045-.604 1.448a1.975 1.975 0 0 1-1.448.604H4.052a1.975 1.975 0 0 1-1.448-.604A1.975 1.975 0 0 1 2 15.948zm1.781-.427c0 .18.061.331.183.453a.615.615 0 0 0 .453.182h11.135a.62.62 0 0 0 .448-.182.606.606 0 0 0 .188-.453V8.77H14.78c.14.437.209.892.209 1.364 0 .875-.223 1.683-.667 2.422a4.86 4.86 0 0 1-1.813 1.755 5.005 5.005 0 0 1-2.5.646c-1.368 0-2.538-.47-3.51-1.411-.972-.941-1.458-2.078-1.458-3.412 0-.472.07-.927.208-1.364H3.781v6.75zm3.021-5.552c0 .86.314 1.595.943 2.203a3.143 3.143 0 0 0 2.265.911c.89 0 1.648-.303 2.276-.911.629-.608.943-1.342.943-2.203 0-.861-.314-1.596-.943-2.203-.628-.608-1.387-.912-2.276-.912-.882 0-1.637.304-2.265.912-.629.607-.943 1.342-.943 2.203zm6.136-3.75c0 .201.069.371.208.51a.694.694 0 0 0 .51.208h1.813c.201 0 .371-.069.51-.208a.694.694 0 0 0 .209-.51V4.5a.7.7 0 0 0-.209-.505.686.686 0 0 0-.51-.214h-1.813a.686.686 0 0 0-.51.214.7.7 0 0 0-.209.505v1.719z" fill="#FFF" filter="url(#b)"/></g></svg>