<?xml version="1.0" encoding="UTF-8" standalone="no"?>
<svg width="20px" height="20px" viewBox="0 0 20 20" version="1.1" xmlns="http://www.w3.org/2000/svg" xmlns:xlink="http://www.w3.org/1999/xlink" xmlns:sketch="http://www.bohemiancoding.com/sketch/ns">
    <!-- Generator: bin/sketchtool 1.4 (305) - http://www.bohemiancoding.com/sketch -->
    <title>tiwtter</title>
    <desc>Created with bin/sketchtool.</desc>
    <defs></defs>
    <g id="Page-1" stroke="none" stroke-width="1" fill="none" fill-rule="evenodd" sketch:type="MSPage">
        <g id="Home" sketch:type="MSArtboardGroup" transform="translate(-630.000000, -4310.000000)" fill="#46ADE9">
            <g id="Footer" sketch:type="MSLayerGroup" transform="translate(0.000000, 4010.000000)">
                <g id="Social" transform="translate(590.000000, 300.000000)" sketch:type="MSShapeGroup">
                    <path d="M40,1.46572349e-08 L60,7.63833441e-14 L60,20 L40,20 L40,16.25 L40,1.46572349e-08 Z M43.3333333,14.609375 C44.618062,15.4253513 46.0156174,15.8333333 47.5260417,15.8333333 C48.4982688,15.8333333 49.409718,15.679255 50.2604167,15.3710938 C51.1111154,15.0629325 51.8402747,14.6506102 52.4479167,14.1341146 C53.0555586,13.6176189 53.5785568,13.0230068 54.0169271,12.3502604 C54.4552973,11.677514 54.7808149,10.974396 54.9934896,10.2408854 C55.2061643,9.5073748 55.3125,8.77604531 55.3125,8.046875 C55.3125,7.89062422 55.3081598,7.77343789 55.2994792,7.6953125 C55.8463569,7.30468555 56.3020815,6.8316 56.6666667,6.27604167 C56.1805531,6.49305664 55.6553848,6.64062461 55.0911458,6.71875 C55.6814266,6.37152604 56.0850684,5.86371862 56.3020833,5.1953125 C55.7378444,5.52517526 55.156253,5.74652721 54.5572917,5.859375 C54.0277751,5.28645547 53.3637193,5 52.5651042,5 C51.8098921,5 51.1653673,5.26692441 50.6315104,5.80078125 C50.0976536,6.33463809 49.8307292,6.97916289 49.8307292,7.734375 C49.8307292,7.98611237 49.8524303,8.19444362 49.8958333,8.359375 C48.7760361,8.29861081 47.7256993,8.01649557 46.7447917,7.51302083 C45.763884,7.00954609 44.930559,6.33680977 44.2447917,5.49479167 C43.9930543,5.92882161 43.8671875,6.38888646 43.8671875,6.875 C43.8671875,7.86458828 44.2621488,8.6241293 45.0520833,9.15364583 C44.6440952,9.14496523 44.2100717,9.03211914 43.75,8.81510417 L43.75,8.84114583 C43.75,9.49219076 43.9670117,10.071612 44.4010417,10.5794271 C44.8350716,11.0872421 45.3689204,11.4019091 46.0026042,11.5234375 C45.7508668,11.5928823 45.5295148,11.6276042 45.3385417,11.6276042 C45.2256939,11.6276042 45.0564247,11.6102432 44.8307292,11.5755208 C45.0130217,12.1223986 45.3363692,12.5737829 45.8007813,12.9296875 C46.2651933,13.2855921 46.7925318,13.4678819 47.3828125,13.4765625 C46.375863,14.2578164 45.2430618,14.6484375 43.984375,14.6484375 C43.7586794,14.6484375 43.5416677,14.6354168 43.3333333,14.609375 Z" id="tiwtter"></path>
                </g>
            </g>
        </g>
    </g>
</svg>