<?xml version="1.0" encoding="utf-8"?>
<!-- Generator: Adobe Illustrator 16.0.0, SVG Export Plug-In . SVG Version: 6.00 Build 0)  -->
<!DOCTYPE svg PUBLIC "-//W3C//DTD SVG 1.1//EN" "http://www.w3.org/Graphics/SVG/1.1/DTD/svg11.dtd">
<svg version="1.1" xmlns="http://www.w3.org/2000/svg" xmlns:xlink="http://www.w3.org/1999/xlink" x="0px" y="0px" width="55px"
	 height="55px" viewBox="0 0 55 55" enable-background="new 0 0 55 55" xml:space="preserve">
<g id="Layer_1" display="none">
	<rect x="-2.8" y="-4.2" display="inline" fill="#16C6C2" width="63.3" height="63.3"/>
</g>
<g id="Layer_2">
</g>
<g id="Layer_3">
	
		<rect x="6.2" y="10.6" fill-rule="evenodd" clip-rule="evenodd" fill="none" stroke="#FFFFFF" stroke-width="2" stroke-linecap="round" stroke-linejoin="round" stroke-miterlimit="10" width="42.8" height="22.5"/>
	
		<path fill-rule="evenodd" clip-rule="evenodd" fill="none" stroke="#FFFFFF" stroke-width="2" stroke-linecap="round" stroke-linejoin="round" stroke-miterlimit="10" d="
		M52.9,36.4c0,1.8-1.5,3.3-3.3,3.3H5.7c-1.8,0-3.3-1.5-3.3-3.3V10c0-1.8,1.5-3.3,3.3-3.3h43.9c1.8,0,3.3,1.5,3.3,3.3V36.4z"/>
	
		<path fill-rule="evenodd" clip-rule="evenodd" fill="none" stroke="#FFFFFF" stroke-width="2" stroke-linecap="round" stroke-linejoin="round" stroke-miterlimit="10" d="
		M37,47.3c0,1.2-0.9,2.1-2.1,2.1H20.4c-1.2,0-2.1-0.9-2.1-2.1l0,0c0-1.2,0.9-2.1,2.1-2.1h14.5C36,45.2,37,46.2,37,47.3L37,47.3z"/>
	<g>
		
			<line fill-rule="evenodd" clip-rule="evenodd" fill="none" stroke="#FFFFFF" stroke-width="2" stroke-linecap="round" stroke-linejoin="round" stroke-miterlimit="10" x1="22.6" y1="40.1" x2="22.6" y2="44.6"/>
		
			<line fill-rule="evenodd" clip-rule="evenodd" fill="none" stroke="#FFFFFF" stroke-width="2" stroke-linecap="round" stroke-linejoin="round" stroke-miterlimit="10" x1="32.7" y1="40.1" x2="32.7" y2="44.6"/>
	</g>
	<path fill="none" stroke="#FFFFFF" stroke-width="2" stroke-linecap="round" stroke-linejoin="round" stroke-miterlimit="10" d="
		M33.8,20.4c0,1-0.6,1.8-0.6,1.8c-0.3,0.4-0.9,1.1-1.2,1.4l-3.7,3.7c-0.4,0.4-1,0.4-1.3,0l-3.7-3.7c-0.4-0.4-0.9-1-1.2-1.4
		c0,0-0.6-0.8-0.6-1.8c0-1.9,1.4-3.5,3.3-3.5c1,0,2.1,0.9,2.7,1.6c0.1,0.1,0.1,0.1,0.1,0.1c0.1,0.1,0.2,0.1,0.3,0c0,0,0,0,0.1-0.1
		c0.6-0.7,1.7-1.6,2.7-1.6C32.5,16.9,33.8,18.4,33.8,20.4z"/>
</g>
</svg>
