<svg xmlns="http://www.w3.org/2000/svg" width="60" height="60" viewBox="0 0 60 60">
    <g fill="none" fill-rule="evenodd">
        <path d="M-10-18h96v96h-96z"/>
        <g fill-rule="nonzero">
            <path fill="#FFF" d="M.731 11L11 .732 59.268 49 49 59.268z"/>
            <path fill="#45D2CF" d="M11 1.862L58.138 49 49 58.138 1.862 11z"/>
            <path fill="#FFF" d="M10.027 42.438l4.143-4.144 8.075 7.034-4.645 4.646-13.22 5.647z"/>
            <path fill="#45D2CF" d="M14.208 39.389l6.866 5.979-3.932 3.931L5.9 54.101l4.802-11.207 3.507-3.505zm-.075-2.187l-4.781 4.78-6.494 15.159 15.198-6.491 5.362-5.362-9.285-8.086z"/>
            <path fill="#45D2CF" d="M6.544 48.554l-3.682 8.592 8.615-3.68z"/>
            <path fill="#FFF" d="M44.946 7.498l2.278-2.277a5.31 5.31 0 0 1 3.778-1.565 5.3 5.3 0 0 1 3.776 1.565 5.346 5.346 0 0 1 0 7.553L52.5 15.053l-7.555-7.555z"/>
            <path fill="#45D2CF" d="M51.002 4.454c1.212 0 2.353.472 3.21 1.33a4.512 4.512 0 0 1 1.33 3.211 4.512 4.512 0 0 1-1.33 3.211l-1.711 1.712-6.423-6.422 1.712-1.712a4.518 4.518 0 0 1 3.212-1.33zm0-1.6c-1.572 0-3.144.6-4.343 1.799l-2.843 2.843 8.686 8.686 2.844-2.843a6.143 6.143 0 0 0-4.344-10.485z"/>
            <path fill="#FFF" d="M18.608 48.965a2.846 2.846 0 0 0-.45-.725c-.496-.582-1.2-.936-2.097-1.058-.32-2.027-1.93-2.886-3.184-3.144-.211-1.38-1.039-2.147-1.922-2.53l30.776-30.796 7.555 7.555-30.678 30.698z"/>
            <path fill="#45D2CF" d="M41.731 9.58L9.352 41.98h.034c.315 0 2.744.087 2.744 2.77 0 0 3.188.1 3.188 3.184 3.172 0 2.736 2.716 2.736 2.716l32.362-32.384-8.685-8.685z"/>
            <path fill="#45D2CF" d="M45.955 7.62l6.423 6.422-3.879 3.878-6.422-6.422 3.878-3.879zm0-2.265l-6.14 6.141 8.686 8.686 6.14-6.14-8.686-8.687z"/>
            <path fill="#FFF" d="M53.434 43.834l-2.402 2.401c-.31.31-.31.821 0 1.131.31.31.82.31 1.131 0l2.402-2.401-1.131-1.131zM41.434 31.834l-4.802 4.801c-.31.31-.31.821 0 1.131.31.31.82.31 1.131 0l4.802-4.801-1.131-1.131zM49.434 39.834l-4.802 4.801c-.31.31-.31.821 0 1.131.31.31.82.31 1.131 0l4.802-4.801-1.131-1.131zM26.206 16.606l-2.428 2.43c-.31.31-.31.82 0 1.13.31.31.82.31 1.13 0l2.43-2.428-1.132-1.132zM22.262 12.662l-4.828 4.83c-.31.31-.31.82 0 1.13.31.31.82.31 1.13 0l4.83-4.828-1.132-1.132zM18.262 8.662l-2.428 2.43c-.31.31-.31.82 0 1.13.31.31.82.31 1.13 0l2.43-2.428-1.132-1.132zM14.262 4.662l-4.828 4.83c-.31.311-.31.822 0 1.132.31.31.82.31 1.13 0l4.83-4.829-1.132-1.133zM45.434 35.834l-2.402 2.401c-.31.31-.31.821 0 1.131.31.31.82.31 1.131 0l2.402-2.401-1.131-1.131z"/>
        </g>
    </g>
</svg>
