<svg xmlns="http://www.w3.org/2000/svg" width="80" height="62" viewBox="0 0 80 62">
    <g fill="none" fill-rule="evenodd">
        <path d="M86-17h-96v96h96z"/>
        <g fill-rule="nonzero" transform="matrix(-1 0 0 1 80 0)">
            <path fill="#45D2CF" d="M15.2 15a1.6 1.6 0 1 0 0 3.2 1.6 1.6 0 0 0 0-3.2zM2.4 24.6a1.6 1.6 0 1 0 0 3.2 1.6 1.6 0 0 0 0-3.2zm6.4 0a1.6 1.6 0 1 0 0 3.2 1.6 1.6 0 0 0 0-3.2zm6.4 0a1.6 1.6 0 1 0 0 3.2 1.6 1.6 0 0 0 0-3.2zM2.4 34.2a1.6 1.6 0 1 0 0 3.2 1.6 1.6 0 0 0 0-3.2zm6.4 0a1.6 1.6 0 1 0 0 3.2 1.6 1.6 0 0 0 0-3.2zm6.4 0a1.6 1.6 0 1 0 0 3.2 1.6 1.6 0 0 0 0-3.2zm-6.4 9.6a1.6 1.6 0 1 0 0 3.2 1.6 1.6 0 0 0 0-3.2zm6.4 0a1.6 1.6 0 1 0 0 3.2 1.6 1.6 0 0 0 0-3.2zM48.8.6C32.011.6 18.4 14.211 18.4 31c0 16.789 13.611 30.4 30.4 30.4 16.789 0 30.4-13.611 30.4-30.4C79.2 14.211 65.589.6 48.8.6z"/>
            <path fill="#FFF" d="M48.8 7c13.234 0 24 10.766 24 24s-10.766 24-24 24-24-10.766-24-24 10.766-24 24-24zm0-1.6C34.66 5.4 23.2 16.86 23.2 31s11.46 25.6 25.6 25.6S74.4 45.14 74.4 31 62.94 5.4 48.8 5.4z"/>
            <path fill="#FFF" d="M37.187 16.497a1.6 1.6 0 0 1 2.65-1.794L51.2 31.493l-8.934 8.935a1.6 1.6 0 1 1-2.263-2.263l7.066-7.066-9.882-14.602z"/>
            <circle cx="48.8" cy="31" r="2.4" fill="#FFF"/>
            <circle cx="48.8" cy="11.8" r="1.6" fill="#FFF"/>
            <circle cx="48.8" cy="50.2" r="1.6" fill="#FFF"/>
            <circle cx="68" cy="31" r="1.6" fill="#FFF"/>
            <circle cx="29.6" cy="31" r="1.6" fill="#FFF"/>
        </g>
    </g>
</svg>
