<svg xmlns="http://www.w3.org/2000/svg" width="55" height="55" viewBox="0 0 55 55"><path fill="none" stroke="#FFF" stroke-width="2" stroke-linecap="round" stroke-linejoin="round" stroke-miterlimit="10" d="M19.2 20.7h24.3s-.7-9.7-11.9-10.4c0 0-11.2-.2-12.4 10.4zM43.5 20.7v17.8c0 4.8-3.7 4.3-3.7 4.3H22.7c-3.7 0-3.5-4.3-3.5-4.3V20.7M22.6 6.1l3 5.3M4.4 10l2 2.2M10.5 7.7v2.9M4.3 16.1H1.4M40.4 6.1l-3.1 5.3"/><circle fill="#FFF" cx="27.2" cy="15.7" r="1.4"/><circle fill="#FFF" cx="35.6" cy="15.7" r="1.4"/><path fill="none" stroke="#FFF" stroke-width="2" stroke-linecap="round" stroke-linejoin="round" stroke-miterlimit="10" d="M18.8 30.2L8.9 18.7c-.8-1-.7-2.5.2-3.3 1-.8 2.5-.7 3.3.2l6.7 7.7M43.6 23.1l9.7 11.1c.8 1 .7 2.5-.2 3.3-1 .8-2.5.7-3.3-.2l-6.2-7.1M28.8 43v6.1c0 1.3-1.1 2.3-2.3 2.3-1.3 0-2.3-1.1-2.3-2.3v-6.2M38.2 43v6.1c0 1.3-1.1 2.3-2.3 2.3-1.3 0-2.3-1.1-2.3-2.3v-6.2"/></svg>