<?xml version="1.0" encoding="utf-8"?>
<!-- Generator: Adobe Illustrator 16.0.0, SVG Export Plug-In . SVG Version: 6.00 Build 0)  -->
<!DOCTYPE svg PUBLIC "-//W3C//DTD SVG 1.1//EN" "http://www.w3.org/Graphics/SVG/1.1/DTD/svg11.dtd">
<svg version="1.1" xmlns="http://www.w3.org/2000/svg" xmlns:xlink="http://www.w3.org/1999/xlink" x="0px" y="0px" width="55px"
	 height="55px" viewBox="0 0 55 55" enable-background="new 0 0 55 55" xml:space="preserve">
<g id="Layer_1" display="none">
	<rect x="-2.8" y="-4.2" display="inline" fill="#16C6C2" width="63.3" height="63.3"/>
</g>
<g id="Layer_2">
</g>
<g id="Layer_3">
	<path fill="none" stroke="#FFFFFF" stroke-width="2" stroke-linecap="round" stroke-linejoin="round" stroke-miterlimit="10" d="
		M19.2,20.7h24.3c0,0-0.7-9.7-11.9-10.4C31.6,10.3,20.4,10.1,19.2,20.7z"/>
	<path fill="none" stroke="#FFFFFF" stroke-width="2" stroke-linecap="round" stroke-linejoin="round" stroke-miterlimit="10" d="
		M43.5,20.7v17.8c0,4.8-3.7,4.3-3.7,4.3H22.7c-3.7,0-3.5-4.3-3.5-4.3V20.7"/>
	
		<line fill="none" stroke="#FFFFFF" stroke-width="2" stroke-linecap="round" stroke-linejoin="round" stroke-miterlimit="10" x1="22.6" y1="6.1" x2="25.6" y2="11.4"/>
	
		<line fill="none" stroke="#FFFFFF" stroke-width="2" stroke-linecap="round" stroke-linejoin="round" stroke-miterlimit="10" x1="4.4" y1="10" x2="6.4" y2="12.2"/>
	
		<line fill="none" stroke="#FFFFFF" stroke-width="2" stroke-linecap="round" stroke-linejoin="round" stroke-miterlimit="10" x1="10.5" y1="7.7" x2="10.5" y2="10.6"/>
	
		<line fill="none" stroke="#FFFFFF" stroke-width="2" stroke-linecap="round" stroke-linejoin="round" stroke-miterlimit="10" x1="4.3" y1="16.1" x2="1.4" y2="16.1"/>
	
		<line fill="none" stroke="#FFFFFF" stroke-width="2" stroke-linecap="round" stroke-linejoin="round" stroke-miterlimit="10" x1="40.4" y1="6.1" x2="37.3" y2="11.4"/>
	<circle fill="#FFFFFF" cx="27.2" cy="15.7" r="1.4"/>
	<circle fill="#FFFFFF" cx="35.6" cy="15.7" r="1.4"/>
	<path fill="none" stroke="#FFFFFF" stroke-width="2" stroke-linecap="round" stroke-linejoin="round" stroke-miterlimit="10" d="
		M18.8,30.2L8.9,18.7c-0.8-1-0.7-2.5,0.2-3.3l0,0c1-0.8,2.5-0.7,3.3,0.2l6.7,7.7"/>
	<path fill="none" stroke="#FFFFFF" stroke-width="2" stroke-linecap="round" stroke-linejoin="round" stroke-miterlimit="10" d="
		M43.6,23.1l9.7,11.1c0.8,1,0.7,2.5-0.2,3.3l0,0c-1,0.8-2.5,0.7-3.3-0.2l-6.2-7.1"/>
	<path fill="none" stroke="#FFFFFF" stroke-width="2" stroke-linecap="round" stroke-linejoin="round" stroke-miterlimit="10" d="
		M28.8,43v6.1c0,1.3-1.1,2.3-2.3,2.3l0,0c-1.3,0-2.3-1.1-2.3-2.3v-6.2"/>
	<path fill="none" stroke="#FFFFFF" stroke-width="2" stroke-linecap="round" stroke-linejoin="round" stroke-miterlimit="10" d="
		M38.2,43v6.1c0,1.3-1.1,2.3-2.3,2.3l0,0c-1.3,0-2.3-1.1-2.3-2.3v-6.2"/>
</g>
</svg>
