<svg xmlns="http://www.w3.org/2000/svg" width="55" height="55" viewBox="0 0 55 55"><g clip-rule="evenodd" fill="none" stroke="#FFF" stroke-width="2" stroke-linecap="round" stroke-linejoin="round" stroke-miterlimit="10"><path d="M26.1 29V15s-.1-4 2.6-4c0 0 2.9-.3 2.8 4.1V29M31.6 29v-3.6s-.1-4 2.6-4c0 0 2.9-.4 2.8 4.1V29"/><path d="M37.1 29v-1.6s-.1-4 2.6-4c0 0 2.7-.3 2.8 4.1v11s.7 13.9-11.6 14.4c0 0-6.9 1.3-11.9-7.7L12.7 33s-2.5-4.3 0-5.6c0 0 2.9-2.1 5.5 3.2l2.6 5.2V15.1s-.1-4 2.6-4c0 0 2.7-.3 2.8 4.1V29"/><path d="M16.7 15.8c0-5.3 4.3-9.5 9.5-9.5 5.3 0 9.5 4.3 9.5 9.5"/><path d="M12.9 16v-.3c0-7.3 6-13.3 13.3-13.3 7.3 0 13.3 6 13.3 13.3"/></g></svg>