<?xml version="1.0" encoding="utf-8"?>
<!-- Generator: Adobe Illustrator 16.0.0, SVG Export Plug-In . SVG Version: 6.00 Build 0)  -->
<!DOCTYPE svg PUBLIC "-//W3C//DTD SVG 1.1//EN" "http://www.w3.org/Graphics/SVG/1.1/DTD/svg11.dtd">
<svg version="1.1" xmlns="http://www.w3.org/2000/svg" xmlns:xlink="http://www.w3.org/1999/xlink" x="0px" y="0px" width="55px"
	 height="55px" viewBox="0 0 55 55" enable-background="new 0 0 55 55" xml:space="preserve">
<g id="Layer_1" display="none">
	<rect x="-2.8" y="-4.2" display="inline" fill="#16C6C2" width="63.3" height="63.3"/>
</g>
<g id="Layer_2">
</g>
<g id="Layer_3">
	
		<path fill-rule="evenodd" clip-rule="evenodd" fill="none" stroke="#FFFFFF" stroke-width="2" stroke-linecap="round" stroke-linejoin="round" stroke-miterlimit="10" d="
		M26.1,29v-14c0,0-0.1-4,2.6-4c0,0,2.9-0.3,2.8,4.1V29"/>
	
		<path fill-rule="evenodd" clip-rule="evenodd" fill="none" stroke="#FFFFFF" stroke-width="2" stroke-linecap="round" stroke-linejoin="round" stroke-miterlimit="10" d="
		M31.6,29v-3.6c0,0-0.1-4,2.6-4c0,0,2.9-0.4,2.8,4.1V29"/>
	
		<path fill-rule="evenodd" clip-rule="evenodd" fill="none" stroke="#FFFFFF" stroke-width="2" stroke-linecap="round" stroke-linejoin="round" stroke-miterlimit="10" d="
		M37.1,29v-1.6c0,0-0.1-4,2.6-4c0,0,2.7-0.3,2.8,4.1v11c0,0,0.7,13.9-11.6,14.4c0,0-6.9,1.3-11.9-7.7L12.7,33c0,0-2.5-4.3,0-5.6
		c0,0,2.9-2.1,5.5,3.2l2.6,5.2V15.1c0,0-0.1-4,2.6-4c0,0,2.7-0.3,2.8,4.1V29"/>
	
		<path fill-rule="evenodd" clip-rule="evenodd" fill="none" stroke="#FFFFFF" stroke-width="2" stroke-linecap="round" stroke-linejoin="round" stroke-miterlimit="10" d="
		M16.7,15.8c0-5.3,4.3-9.5,9.5-9.5c5.3,0,9.5,4.3,9.5,9.5"/>
	
		<path fill-rule="evenodd" clip-rule="evenodd" fill="none" stroke="#FFFFFF" stroke-width="2" stroke-linecap="round" stroke-linejoin="round" stroke-miterlimit="10" d="
		M12.9,16c0-0.1,0-0.2,0-0.3c0-7.3,6-13.3,13.3-13.3c7.3,0,13.3,6,13.3,13.3"/>
</g>
</svg>
