<svg xmlns="http://www.w3.org/2000/svg" width="55" height="55" viewBox="0 0 55 55"><g fill="none" stroke="#FFF" stroke-width="2" stroke-linecap="round" stroke-linejoin="round" stroke-miterlimit="10"><path clip-rule="evenodd" d="M31.8 28.8v-3.6s-.1-4 2.6-4c0 0 2.9-.4 2.8 4.1v3.5"/><path clip-rule="evenodd" d="M26.5 28.8v-3.6s-.1-4 2.6-4c0 0 2.9-.4 2.8 4.1v3.5"/><path clip-rule="evenodd" d="M37.3 28.8v-1.6s-.1-4 2.6-4c0 0 2.7-.3 2.8 4.1v11s.7 13.9-11.6 14.4c0 0-6.9 1.3-11.9-7.7L13 32.8s-2.5-4.3 0-5.6c0 0 2.9-2.1 5.5 3.2l2.6 5.2V14.9s-.1-4 2.6-4c0 0 2.7-.3 2.8 4.1v13.8"/><path d="M23.7 6.4V3.3M18 8.6l-2.2-2.2M29.7 8.6L32 6.4"/></g></svg>