<svg xmlns="http://www.w3.org/2000/svg" width="55" height="55" viewBox="0 0 55 55"><g clip-rule="evenodd" fill="none" stroke="#FFF" stroke-width="2" stroke-linecap="round" stroke-linejoin="round" stroke-miterlimit="10"><path d="M9.5 10h36.4v36.4H9.5zM16.3 17.6v21.6"/><path d="M16.5 17.6h5.1c3.6.3 6.3 2.9 6.3 6.1 0 3.2-2.8 5.8-6.4 6.1h-5.1M38.6 26.5h-4.3c-1.9.2-3.5 1.6-3.5 3.3 0 1.7 1.5 3.2 3.5 3.4h1.5c1.9.2 3.5 1.6 3.5 3.3 0 1.7-1.5 3.2-3.5 3.3h-4.6"/><path d="M5.6 6.1h44.2v44.2H5.6z"/></g></svg>