<?xml version="1.0" encoding="utf-8"?>
<!-- Generator: Adobe Illustrator 16.0.0, SVG Export Plug-In . SVG Version: 6.00 Build 0)  -->
<!DOCTYPE svg PUBLIC "-//W3C//DTD SVG 1.1//EN" "http://www.w3.org/Graphics/SVG/1.1/DTD/svg11.dtd">
<svg version="1.1" xmlns="http://www.w3.org/2000/svg" xmlns:xlink="http://www.w3.org/1999/xlink" x="0px" y="0px" width="55px"
	 height="55px" viewBox="0 0 55 55" enable-background="new 0 0 55 55" xml:space="preserve">
<g id="Layer_1" display="none">
	<rect x="-2.8" y="-4.2" display="inline" fill="#16C6C2" width="63.3" height="63.3"/>
</g>
<g id="Layer_2">
</g>
<g id="Layer_3">
	<path fill="none" stroke="#FFFFFF" stroke-width="2" stroke-linecap="round" stroke-linejoin="round" stroke-miterlimit="10" d="
		M18.9,9c-0.3-0.8-1.1-1.3-2-1.3s-1.7,0.5-2,1.3L2.1,43.6c-0.4,1,0.2,2.1,1.3,2.4c1.1,0.3,2.3-0.2,2.7-1.2l3.5-9.4
		c0.2,0,0.3,0.1,0.5,0.1h14.2l3.5,9.4c0.3,0.8,1.1,1.3,2,1.3c0.2,0,0.4,0,0.7-0.1c1.1-0.3,1.7-1.4,1.3-2.4L18.9,9z M11,31.7
		l5.9-16.1l5.9,16.1H11z"/>
	<path fill="none" stroke="#FFFFFF" stroke-width="2" stroke-linecap="round" stroke-linejoin="round" stroke-miterlimit="10" d="
		M46.2,21.7c-2.8,0-4.7,1.3-5.9,2.3c-0.9,0.7-1,1.9-0.2,2.7c0.8,0.8,2.1,0.9,3,0.2c1.2-0.9,2.9-1.3,3.9-1c2,0.5,1.7,3,1.6,6
		c-9.1,0.3-12.5,3-12.4,7.6c0.1,5,3.4,7.5,9.1,7.5h5.5c0.1,0,0.3,0,0.4,0c1-0.2,1.7-0.9,1.7-1.9V30.4C52.8,27.4,52.8,21.7,46.2,21.7
		z M40.6,38.9c0.4-2.2,2.6-2.5,4.5-2.8c0.3,0,3.5-0.3,3.5-0.2c0,0,0,6.9,0,6.9c0,0.2-4.7-0.1-5.2-0.2C41.8,42.2,40.4,40.8,40.6,38.9
		C40.6,39,40.6,38.9,40.6,38.9z"/>
</g>
</svg>
