<svg xmlns="http://www.w3.org/2000/svg" width="55" height="55" viewBox="0 0 55 55"><g fill="none" stroke="#FFF" stroke-width="2" stroke-linecap="round" stroke-linejoin="round" stroke-miterlimit="10"><path d="M18.9 9c-.3-.8-1.1-1.3-2-1.3s-1.7.5-2 1.3L2.1 43.6c-.4 1 .2 2.1 1.3 2.4 1.1.3 2.3-.2 2.7-1.2l3.5-9.4c.2 0 .3.1.5.1h14.2l3.5 9.4c.3.8 1.1 1.3 2 1.3.2 0 .4 0 .7-.1 1.1-.3 1.7-1.4 1.3-2.4L18.9 9zM11 31.7l5.9-16.1 5.9 16.1H11zM46.2 21.7c-2.8 0-4.7 1.3-5.9 2.3-.9.7-1 1.9-.2 2.7.8.8 2.1.9 3 .2 1.2-.9 2.9-1.3 3.9-1 2 .5 1.7 3 1.6 6-9.1.3-12.5 3-12.4 7.6.1 5 3.4 7.5 9.1 7.5h5.9c1-.2 1.7-.9 1.7-1.9V30.4c-.1-3-.1-8.7-6.7-8.7zm-5.6 17.2c.4-2.2 2.6-2.5 4.5-2.8.3 0 3.5-.3 3.5-.2v6.9c0 .2-4.7-.1-5.2-.2-1.6-.4-3-1.8-2.8-3.7 0 .1 0 0 0 0z"/></g></svg>