<svg xmlns="http://www.w3.org/2000/svg" width="55" height="55" viewBox="0 0 55 55"><g stroke="#FFF" stroke-width="2" stroke-linecap="round" stroke-linejoin="round" stroke-miterlimit="10"><path fill="none" d="M20.9 41.8h3.2M18.7 36.1l2.2-2.2M18.7 47.8l2.2 2.2M34.8 41.8h-3.1M37 36.1l-2.2-2.2M37 47.8L34.8 50M15.1 47.7c0 1.5-1.2 2.7-2.7 2.7-1.5 0-2.7-1.2-2.7-2.7V36.2c0-1.5 1.2-2.7 2.7-2.7 1.5 0 2.7 1.2 2.7 2.7v11.5zM9.6 48.6c-3.7 0-6.6-3-6.6-6.6 0-3.5 2.7-6.4 6.2-6.6M40.6 47.7c0 1.5 1.2 2.7 2.7 2.7 1.5 0 2.7-1.2 2.7-2.7V36.2c0-1.5-1.2-2.7-2.7-2.7-1.5 0-2.7 1.2-2.7 2.7v11.5zM46.1 48.6c3.7 0 6.6-3 6.6-6.6 0-3.5-2.7-6.4-6.2-6.6"/><path fill="none" d="M9.7 34.3v-6.7c0-10 8.1-18.2 18.2-18.2 10 0 18.2 8.1 18.2 18.2v6.7"/><path fill="none" d="M5.6 36v-7c0-12.3 8.3-23.5 22.3-23.3 13.9.2 22.3 11 22.3 23.3v7"/><path fill="#16C6C2" d="M15.3 9.5l1.9 2.9M40.4 9.5l-1.8 2.9"/></g></svg>