<svg xmlns="http://www.w3.org/2000/svg" width="55" height="55" viewBox="0 0 55 55"><g stroke="#FFF" stroke-width="2" stroke-linecap="round" stroke-linejoin="round" stroke-miterlimit="10"><path fill="none" d="M10.2 49.3v3.1M4.5 47.1l-2.2 2.2M16.2 47.1l2.2 2.2M18.8 36.1c0 4.6-3.8 8.4-8.4 8.4S2 40.7 2 36.1h16.8zM2 36.1l8.2-16.8 8.6 16.8M52.9 20.8c0 4.6-3.8 8.4-8.4 8.4s-8.4-3.8-8.4-8.4h16.8zM36.2 20.8l8.2-16.7 8.5 16.7M10.3 19.2L44 4.2"/><circle fill="#16C6C2" cx="26.9" cy="11.7" r="2.6"/><path clip-rule="evenodd" fill="none" d="M40.6 34.6v9.7M40.7 34.6h2c1.4.1 2.5 1.2 2.5 2.4 0 1.3-1.1 2.3-2.5 2.4h-2M40.7 39.5h2c1.4.1 2.5 1.2 2.5 2.4 0 1.3-1.1 2.3-2.5 2.4h-2M24 44.3l3.2-9.5 3.4 9.5M25.2 41.6h4.4M37.4 34.8L34 44.3"/></g></svg>