<svg xmlns="http://www.w3.org/2000/svg" width="55" height="55" viewBox="0 0 55 55"><path clip-rule="evenodd" fill="none" stroke="#FFF" stroke-width="2" stroke-linecap="round" stroke-linejoin="round" stroke-miterlimit="10" d="M14.6 6.9h26.7v20.5H14.6zM36.5 41c0 1-.8 1.9-1.9 1.9l-13.2.1c-1 0-1.9-.8-1.9-1.9 0-1 .8-1.9 1.9-1.9l13.2-.1c1 0 1.8.8 1.9 1.9z"/><g clip-rule="evenodd" fill="none" stroke="#FFF" stroke-width="2" stroke-linecap="round" stroke-linejoin="round" stroke-miterlimit="10"><path d="M23.4 34.4v4.1M32.6 34.4v4.1"/></g><circle fill="#FFF" cx="10.3" cy="47.7" r="1.5"/><circle fill="#FFF" cx="15.5" cy="47.7" r="1.5"/><circle fill="#FFF" cx="20.6" cy="47.7" r="1.5"/><circle fill="#FFF" cx="25.7" cy="47.7" r="1.5"/><circle fill="#FFF" cx="30.8" cy="47.7" r="1.5"/><circle fill="#FFF" cx="36" cy="47.7" r="1.5"/><circle fill="#FFF" cx="41.1" cy="47.7" r="1.5"/><circle fill="#FFF" cx="46.2" cy="47.7" r="1.5"/><circle fill="#FFF" cx="10.3" cy="52.4" r="1.5"/><circle fill="#FFF" cx="15.5" cy="52.4" r="1.5"/><circle fill="#FFF" cx="41.1" cy="52.4" r="1.5"/><circle fill="#FFF" cx="46.2" cy="52.4" r="1.5"/><path clip-rule="evenodd" fill="none" stroke="#FFF" stroke-width="2" stroke-linecap="round" stroke-linejoin="round" stroke-miterlimit="10" d="M45 31.2c0 1.5-1.2 2.7-2.7 2.7H13.6c-1.5 0-2.7-1.2-2.7-2.7V5.7c0-1.5 1.2-2.7 2.7-2.7h28.7C43.8 3 45 4.2 45 5.7v25.5zM20.5 52.5h15.6"/></svg>