<?xml version="1.0" encoding="utf-8"?>
<!-- Generator: Adobe Illustrator 16.0.0, SVG Export Plug-In . SVG Version: 6.00 Build 0)  -->
<!DOCTYPE svg PUBLIC "-//W3C//DTD SVG 1.1//EN" "http://www.w3.org/Graphics/SVG/1.1/DTD/svg11.dtd">
<svg version="1.1" xmlns="http://www.w3.org/2000/svg" xmlns:xlink="http://www.w3.org/1999/xlink" x="0px" y="0px" width="55px"
	 height="55px" viewBox="0 0 55 55" enable-background="new 0 0 55 55" xml:space="preserve">
<g id="Layer_1" display="none">
	<rect x="-2.8" y="-4.2" display="inline" fill="#16C6C2" width="63.3" height="63.3"/>
</g>
<g id="Layer_2">
</g>
<g id="Layer_3">
	
		<rect x="14.6" y="6.9" fill-rule="evenodd" clip-rule="evenodd" fill="none" stroke="#FFFFFF" stroke-width="2" stroke-linecap="round" stroke-linejoin="round" stroke-miterlimit="10" width="26.7" height="20.5"/>
	
		<path fill-rule="evenodd" clip-rule="evenodd" fill="none" stroke="#FFFFFF" stroke-width="2" stroke-linecap="round" stroke-linejoin="round" stroke-miterlimit="10" d="
		M36.5,41c0,1-0.8,1.9-1.9,1.9L21.4,43c-1,0-1.9-0.8-1.9-1.9l0,0c0-1,0.8-1.9,1.9-1.9l13.2-0.1C35.6,39.1,36.4,39.9,36.5,41L36.5,41
		z"/>
	<g>
		
			<line fill-rule="evenodd" clip-rule="evenodd" fill="none" stroke="#FFFFFF" stroke-width="2" stroke-linecap="round" stroke-linejoin="round" stroke-miterlimit="10" x1="23.4" y1="34.4" x2="23.4" y2="38.5"/>
		
			<line fill-rule="evenodd" clip-rule="evenodd" fill="none" stroke="#FFFFFF" stroke-width="2" stroke-linecap="round" stroke-linejoin="round" stroke-miterlimit="10" x1="32.6" y1="34.4" x2="32.6" y2="38.5"/>
	</g>
	<circle fill="#FFFFFF" cx="10.3" cy="47.7" r="1.5"/>
	<circle fill="#FFFFFF" cx="15.5" cy="47.7" r="1.5"/>
	<circle fill="#FFFFFF" cx="20.6" cy="47.7" r="1.5"/>
	<circle fill="#FFFFFF" cx="25.7" cy="47.7" r="1.5"/>
	<circle fill="#FFFFFF" cx="30.8" cy="47.7" r="1.5"/>
	<circle fill="#FFFFFF" cx="36" cy="47.7" r="1.5"/>
	<circle fill="#FFFFFF" cx="41.1" cy="47.7" r="1.5"/>
	<circle fill="#FFFFFF" cx="46.2" cy="47.7" r="1.5"/>
	<circle fill="#FFFFFF" cx="10.3" cy="52.4" r="1.5"/>
	<circle fill="#FFFFFF" cx="15.5" cy="52.4" r="1.5"/>
	<circle fill="#FFFFFF" cx="41.1" cy="52.4" r="1.5"/>
	<circle fill="#FFFFFF" cx="46.2" cy="52.4" r="1.5"/>
	
		<path fill-rule="evenodd" clip-rule="evenodd" fill="none" stroke="#FFFFFF" stroke-width="2" stroke-linecap="round" stroke-linejoin="round" stroke-miterlimit="10" d="
		M45,31.2c0,1.5-1.2,2.7-2.7,2.7H13.6c-1.5,0-2.7-1.2-2.7-2.7V5.7c0-1.5,1.2-2.7,2.7-2.7h28.7C43.8,3,45,4.2,45,5.7V31.2z"/>
	
		<line fill-rule="evenodd" clip-rule="evenodd" fill="none" stroke="#FFFFFF" stroke-width="2" stroke-linecap="round" stroke-linejoin="round" stroke-miterlimit="10" x1="20.5" y1="52.5" x2="36.1" y2="52.5"/>
</g>
</svg>
