<?xml version="1.0" encoding="utf-8"?>
<!-- Generator: Adobe Illustrator 16.0.0, SVG Export Plug-In . SVG Version: 6.00 Build 0)  -->
<!DOCTYPE svg PUBLIC "-//W3C//DTD SVG 1.1//EN" "http://www.w3.org/Graphics/SVG/1.1/DTD/svg11.dtd">
<svg version="1.1" xmlns="http://www.w3.org/2000/svg" xmlns:xlink="http://www.w3.org/1999/xlink" x="0px" y="0px" width="55px"
	 height="55px" viewBox="0 0 55 55" enable-background="new 0 0 55 55" xml:space="preserve">
<g id="Layer_1" display="none">
	<rect x="-2.8" y="-4.2" display="inline" fill="#16C6C2" width="63.3" height="63.3"/>
</g>
<g id="Layer_2">
</g>
<g id="Layer_3">
	
		<path fill-rule="evenodd" clip-rule="evenodd" fill="none" stroke="#FFFFFF" stroke-width="2" stroke-linecap="round" stroke-linejoin="round" stroke-miterlimit="10" d="
		M45.9,21.1c-3.4,2.4-5.4,5.5-5.1,9.7c0.3,4.2,2.6,7.1,6.3,9c-0.2,0.5-0.3,0.9-0.5,1.4c-0.8,2.2-1.9,4.2-3.3,6.1
		c-0.6,0.9-1.3,1.8-2,2.5c-0.7,0.8-1.5,1.5-2.5,2c-0.9,0.4-1.8,0.6-2.7,0.6c-1,0-2-0.3-2.9-0.7c-0.7-0.3-1.4-0.6-2.1-0.8
		c-1.2-0.3-2.3-0.4-3.5-0.3c-1,0.1-2,0.4-2.9,0.8c-0.7,0.3-1.4,0.6-2.2,0.8c-0.7,0.2-1.4,0.3-2.1,0.2c-0.8-0.1-1.5-0.4-2.2-0.8
		c-1-0.6-1.8-1.4-2.6-2.3c-2.9-3.4-4.9-7.2-6.1-11.5c-0.4-1.5-0.7-3-0.9-4.5c-0.1-1.3-0.2-2.6-0.1-3.9c0.1-2,0.5-3.9,1.4-5.7
		c1.1-2.4,2.8-4.3,5.1-5.7c1.3-0.8,2.8-1.2,4.3-1.4c1.4-0.2,2.7,0,4,0.5c0.9,0.3,1.8,0.7,2.7,1c0.4,0.2,0.9,0.3,1.4,0.4
		c0.7,0.2,1.3,0.1,2-0.2c0.8-0.3,1.7-0.6,2.5-0.9c0.8-0.3,1.7-0.6,2.5-0.8c1-0.2,2-0.3,2.9-0.2c1.5,0.1,3,0.5,4.4,1.1
		C43.4,18.3,44.8,19.5,45.9,21.1C45.8,21,45.9,21.1,45.9,21.1z"/>
	
		<path fill-rule="evenodd" clip-rule="evenodd" fill="none" stroke="#FFFFFF" stroke-width="2" stroke-linecap="round" stroke-linejoin="round" stroke-miterlimit="10" d="
		M37.3,2.6c0,0.4,0,0.7,0,1.1C37.2,6.5,36,9,34,11c-1,1-2.2,1.7-3.5,2.1c-0.9,0.3-1.7,0.4-2.6,0.4c-0.1,0-0.1,0-0.1-0.1
		c-0.2-1.5,0.1-2.9,0.7-4.2c1.3-3.1,3.7-5.2,6.9-6.3c0.6-0.2,1.1-0.3,1.7-0.3C37.1,2.5,37.2,2.6,37.3,2.6z"/>
</g>
</svg>
