<svg xmlns="http://www.w3.org/2000/svg" width="55" height="55" viewBox="0 0 55 55"><g clip-rule="evenodd" fill="none" stroke="#FFF" stroke-width="2" stroke-linecap="round" stroke-linejoin="round" stroke-miterlimit="10"><path d="M45.9 21.1c-3.4 2.4-5.4 5.5-5.1 9.7.3 4.2 2.6 7.1 6.3 9-.2.5-.3.9-.5 1.4-.8 2.2-1.9 4.2-3.3 6.1-.6.9-1.3 1.8-2 2.5-.7.8-1.5 1.5-2.5 2-.9.4-1.8.6-2.7.6-1 0-2-.3-2.9-.7-.7-.3-1.4-.6-2.1-.8-1.2-.3-2.3-.4-3.5-.3-1 .1-2 .4-2.9.8-.7.3-1.4.6-2.2.8-.7.2-1.4.3-2.1.2-.8-.1-1.5-.4-2.2-.8-1-.6-1.8-1.4-2.6-2.3-2.9-3.4-4.9-7.2-6.1-11.5-.4-1.5-.7-3-.9-4.5-.1-1.3-.2-2.6-.1-3.9.1-2 .5-3.9 1.4-5.7 1.1-2.4 2.8-4.3 5.1-5.7 1.3-.8 2.8-1.2 4.3-1.4 1.4-.2 2.7 0 4 .5.9.3 1.8.7 2.7 1 .4.2.9.3 1.4.4.7.2 1.3.1 2-.2.8-.3 1.7-.6 2.5-.9.8-.3 1.7-.6 2.5-.8 1-.2 2-.3 2.9-.2 1.5.1 3 .5 4.4 1.1 1.7.8 3.1 2 4.2 3.6-.1-.1 0 0 0 0zM37.3 2.6v1.1C37.2 6.5 36 9 34 11c-1 1-2.2 1.7-3.5 2.1-.9.3-1.7.4-2.6.4-.1 0-.1 0-.1-.1-.2-1.5.1-2.9.7-4.2 1.3-3.1 3.7-5.2 6.9-6.3.6-.2 1.1-.3 1.7-.3 0-.1.1 0 .2 0z"/></g></svg>