<svg xmlns="http://www.w3.org/2000/svg" width="55" height="55" viewBox="0 0 55 55"><g clip-rule="evenodd" stroke="#FFF" stroke-width="2" stroke-linecap="round" stroke-linejoin="round" stroke-miterlimit="10"><path fill="none" d="M43.3 23.8v11.5s1 15.5-12.6 16.1c0 0-8.1.7-13.2-8.7l-6.9-13.5s-2.5-4.5.2-6c0 0 2.4-2.2 5.8 3.3l3.8 6.1L16 8.2s-.8-3.5 2.3-4.1c0 0 3-.8 3.7 3.5l3.4 17.1L29 7.9s.9-4.8 4.4-3.9c0 0 2.7.4 1.5 5.6l-3 13.7"/><path fill-rule="evenodd" fill="#16C6C2" d="M37.5 33c0 1.5-1.2 2.8-2.8 2.8-1.5 0-2.8-1.2-2.8-2.8v-9.1c0-1.5 1.2-2.8 2.8-2.8 1.5 0 2.8 1.2 2.8 2.8V33zM43.2 33c0 1.5-1.2 2.8-2.8 2.8-1.5 0-2.8-1.2-2.8-2.8v-9.1c0-1.5 1.2-2.8 2.8-2.8 1.5 0 2.8 1.2 2.8 2.8V33z"/><path fill="none" d="M20.5 32.5s8.6.2 8.6 9.4"/></g></svg>