<svg xmlns="http://www.w3.org/2000/svg" width="55" height="55" viewBox="0 0 55 55"><g clip-rule="evenodd" fill="none" stroke="#FFF" stroke-width="2" stroke-linecap="round" stroke-linejoin="round" stroke-miterlimit="10"><path d="M28.7 48.1c.7 1.9-.3 4-2.2 4.7-1.9.7-4-.3-4.7-2.2L8.5 14.4c-.7-1.9.3-4 2.2-4.7 1.9-.7 4 .3 4.7 2.2l13.3 36.2zM47.7 41.1c.7 1.9-.3 4-2.2 4.7-1.9.7-4-.3-4.7-2.2L27.4 7.4c-.7-1.9.3-4 2.2-4.7 1.9-.7 4 .3 4.7 2.2l13.4 36.2z"/><path d="M7.7 28.4c-1.9.7-4-.3-4.7-2.2-.7-1.9.3-4 2.2-4.7L41.4 8.1c1.9-.7 4 .3 4.7 2.2.7 1.9-.3 4-2.2 4.7L7.7 28.4zM14.7 47.3c-1.9.7-4-.3-4.7-2.2-.7-1.9.3-4 2.2-4.7L48.5 27c1.9-.7 4 .3 4.7 2.2.7 1.9-.3 4-2.2 4.7L14.7 47.3z"/></g></svg>