<?xml version="1.0" encoding="utf-8"?>
<!-- Generator: Adobe Illustrator 16.0.0, SVG Export Plug-In . SVG Version: 6.00 Build 0)  -->
<!DOCTYPE svg PUBLIC "-//W3C//DTD SVG 1.1//EN" "http://www.w3.org/Graphics/SVG/1.1/DTD/svg11.dtd">
<svg version="1.1" xmlns="http://www.w3.org/2000/svg" xmlns:xlink="http://www.w3.org/1999/xlink" x="0px" y="0px" width="55px"
	 height="55px" viewBox="0 0 55 55" enable-background="new 0 0 55 55" xml:space="preserve">
<g id="Layer_1" display="none">
	<rect x="-2.8" y="-4.2" display="inline" fill="#16C6C2" width="63.3" height="63.3"/>
</g>
<g id="Layer_2">
</g>
<g id="Layer_3">
	
		<path fill-rule="evenodd" clip-rule="evenodd" fill="none" stroke="#FFFFFF" stroke-width="2" stroke-linecap="round" stroke-linejoin="round" stroke-miterlimit="10" d="
		M28.7,48.1c0.7,1.9-0.3,4-2.2,4.7l0,0c-1.9,0.7-4-0.3-4.7-2.2L8.5,14.4c-0.7-1.9,0.3-4,2.2-4.7l0,0c1.9-0.7,4,0.3,4.7,2.2
		L28.7,48.1z"/>
	
		<path fill-rule="evenodd" clip-rule="evenodd" fill="none" stroke="#FFFFFF" stroke-width="2" stroke-linecap="round" stroke-linejoin="round" stroke-miterlimit="10" d="
		M47.7,41.1c0.7,1.9-0.3,4-2.2,4.7l0,0c-1.9,0.7-4-0.3-4.7-2.2L27.4,7.4c-0.7-1.9,0.3-4,2.2-4.7l0,0c1.9-0.7,4,0.3,4.7,2.2
		L47.7,41.1z"/>
	
		<path fill-rule="evenodd" clip-rule="evenodd" fill="none" stroke="#FFFFFF" stroke-width="2" stroke-linecap="round" stroke-linejoin="round" stroke-miterlimit="10" d="
		M7.7,28.4c-1.9,0.7-4-0.3-4.7-2.2l0,0c-0.7-1.9,0.3-4,2.2-4.7L41.4,8.1c1.9-0.7,4,0.3,4.7,2.2l0,0c0.7,1.9-0.3,4-2.2,4.7L7.7,28.4z
		"/>
	
		<path fill-rule="evenodd" clip-rule="evenodd" fill="none" stroke="#FFFFFF" stroke-width="2" stroke-linecap="round" stroke-linejoin="round" stroke-miterlimit="10" d="
		M14.7,47.3c-1.9,0.7-4-0.3-4.7-2.2l0,0c-0.7-1.9,0.3-4,2.2-4.7l36.3-13.4c1.9-0.7,4,0.3,4.7,2.2l0,0c0.7,1.9-0.3,4-2.2,4.7
		L14.7,47.3z"/>
</g>
</svg>
