<svg xmlns="http://www.w3.org/2000/svg" width="55" height="55" viewBox="0 0 55 55"><g fill="none" stroke="#FFF" stroke-width="2" stroke-linecap="round" stroke-linejoin="round" stroke-miterlimit="10"><path clip-rule="evenodd" d="M6.2 10.6H49v22.5H6.2z"/><path clip-rule="evenodd" d="M52.9 36.4c0 1.8-1.5 3.3-3.3 3.3H5.7c-1.8 0-3.3-1.5-3.3-3.3V10c0-1.8 1.5-3.3 3.3-3.3h43.9c1.8 0 3.3 1.5 3.3 3.3v26.4zM37 47.3c0 1.2-.9 2.1-2.1 2.1H20.4c-1.2 0-2.1-.9-2.1-2.1 0-1.2.9-2.1 2.1-2.1h14.5c1.1 0 2.1 1 2.1 2.1z"/><g clip-rule="evenodd"><path d="M22.6 40.1v4.5M32.7 40.1v4.5"/></g><path d="M33.8 20.4c0 1-.6 1.8-.6 1.8-.3.4-.9 1.1-1.2 1.4l-3.7 3.7c-.4.4-1 .4-1.3 0l-3.7-3.7c-.4-.4-.9-1-1.2-1.4 0 0-.6-.8-.6-1.8 0-1.9 1.4-3.5 3.3-3.5 1 0 2.1.9 2.7 1.6l.1.1c.1.1.2.1.3 0l.1-.1c.6-.7 1.7-1.6 2.7-1.6 1.8 0 3.1 1.5 3.1 3.5z"/></g></svg>