<svg xmlns="http://www.w3.org/2000/svg" width="55" height="55" viewBox="0 0 55 55"><circle fill="#FFF" cx="27.3" cy="48.1" r="1.5"/><path clip-rule="evenodd" fill="none" stroke="#FFF" stroke-width="2" stroke-linecap="round" stroke-linejoin="round" stroke-miterlimit="10" d="M12.8 7.1h28.9v36.6H12.8z"/><path clip-rule="evenodd" fill="none" stroke="#FFF" stroke-width="2" stroke-linecap="round" stroke-linejoin="round" stroke-miterlimit="10" d="M45.9 49.2c0 1.7-1.4 3.1-3.1 3.1h-31c-1.7 0-3.1-1.4-3.1-3.1V6.1C8.6 4.4 10 3 11.7 3h31c1.7 0 3.1 1.4 3.1 3.1v43.1z"/><path fill="none" stroke="#FFF" stroke-width="2" stroke-linecap="round" stroke-linejoin="round" stroke-miterlimit="10" d="M27.3 17.7l2.2 4.7 5.1.7-3.7 3.6.9 5.1-4.5-2.4-4.6 2.4.9-5.1-3.7-3.6 5.1-.7z"/></svg>