<?xml version="1.0" encoding="utf-8"?>
<!-- Generator: Adobe Illustrator 16.0.0, SVG Export Plug-In . SVG Version: 6.00 Build 0)  -->
<!DOCTYPE svg PUBLIC "-//W3C//DTD SVG 1.1//EN" "http://www.w3.org/Graphics/SVG/1.1/DTD/svg11.dtd">
<svg version="1.1" xmlns="http://www.w3.org/2000/svg" xmlns:xlink="http://www.w3.org/1999/xlink" x="0px" y="0px" width="55px"
	 height="55px" viewBox="0 0 55 55" enable-background="new 0 0 55 55" xml:space="preserve">
<g id="Layer_1" display="none">
	<rect x="-2.8" y="-4.2" display="inline" fill="#16C6C2" width="63.3" height="63.3"/>
</g>
<g id="Layer_2">
</g>
<g id="Layer_3">
	<circle fill="#FFFFFF" cx="27.3" cy="48.1" r="1.5"/>
	
		<rect x="12.8" y="7.1" fill-rule="evenodd" clip-rule="evenodd" fill="none" stroke="#FFFFFF" stroke-width="2" stroke-linecap="round" stroke-linejoin="round" stroke-miterlimit="10" width="28.9" height="36.6"/>
	
		<path fill-rule="evenodd" clip-rule="evenodd" fill="none" stroke="#FFFFFF" stroke-width="2" stroke-linecap="round" stroke-linejoin="round" stroke-miterlimit="10" d="
		M45.9,49.2c0,1.7-1.4,3.1-3.1,3.1h-31c-1.7,0-3.1-1.4-3.1-3.1V6.1C8.6,4.4,10,3,11.7,3h31c1.7,0,3.1,1.4,3.1,3.1V49.2z"/>
	
		<polygon fill="none" stroke="#FFFFFF" stroke-width="2" stroke-linecap="round" stroke-linejoin="round" stroke-miterlimit="10" points="
		27.3,17.7 29.5,22.4 34.6,23.1 30.9,26.7 31.8,31.8 27.3,29.4 22.7,31.8 23.6,26.7 19.9,23.1 25,22.4 	"/>
</g>
</svg>
