<svg xmlns="http://www.w3.org/2000/svg" width="55" height="55" viewBox="0 0 55 55"><path fill="none" stroke="#FFF" stroke-width="2" stroke-linecap="round" stroke-linejoin="round" stroke-miterlimit="10" d="M32.7 42L13.6 25.5s-6 8.1 2.3 16.2c0 0 8.7 7.8 16.8.3z"/><path fill="none" stroke="#FFF" stroke-width="2" stroke-linecap="round" stroke-linejoin="round" stroke-miterlimit="10" d="M13.6 25.5l12.1-14c3.3-3.8 5.8-.9 5.8-.9L45 22.2c2.9 2.5-.2 5.8-.2 5.8L32.7 42M20.1 51.2l1.2-6.3M6.1 39.1l6-2.1"/><circle fill="#FFF" cx="23" cy="40.5" r="1.5"/><circle fill="#FFF" cx="16.4" cy="34.8" r="1.5"/><path fill="none" stroke="#FFF" stroke-width="2" stroke-linecap="round" stroke-linejoin="round" stroke-miterlimit="10" d="M39.4 34.8v15.7c0 1.3-1.1 2.4-2.4 2.4-1.3 0-2.4-1.1-2.4-2.4V39.9M16.4 21.7H3.9c-1.3 0-2.4-1.1-2.4-2.4 0-1.3 1.1-2.4 2.4-2.4h16.6M40.3 18.2l7.8-3.7c1.2-.6 2.7-.1 3.3 1.1.6 1.2.1 2.7-1.1 3.3l-5.8 2.8M32.5 11.1l2.1-6c.4-1.3 1.8-1.9 3.1-1.5 1.3.4 1.9 1.8 1.5 3.1l-2.5 7.5M50.7 24.3s.9 4-2.8 8.2M53.9 29.6s-1.2 6-7.3 9.7M31.2 4s-4.8-2.7-9.4 2.9"/></svg>