<?xml version="1.0" encoding="utf-8"?>
<!-- Generator: Adobe Illustrator 16.0.0, SVG Export Plug-In . SVG Version: 6.00 Build 0)  -->
<!DOCTYPE svg PUBLIC "-//W3C//DTD SVG 1.1//EN" "http://www.w3.org/Graphics/SVG/1.1/DTD/svg11.dtd">
<svg version="1.1" xmlns="http://www.w3.org/2000/svg" xmlns:xlink="http://www.w3.org/1999/xlink" x="0px" y="0px" width="55px"
	 height="55px" viewBox="0 0 55 55" enable-background="new 0 0 55 55" xml:space="preserve">
<g id="Layer_1" display="none">
	<rect x="-2.8" y="-4.2" display="inline" fill="#16C6C2" width="63.3" height="63.3"/>
</g>
<g id="Layer_2">
</g>
<g id="Layer_3">
	<circle fill="#FFFFFF" cx="27.5" cy="48.3" r="1.5"/>
	<circle fill="#FFFFFF" cx="22.1" cy="19.7" r="1.5"/>
	<circle fill="#FFFFFF" cx="33.1" cy="19.7" r="1.5"/>
	
		<rect x="12.8" y="6.6" fill-rule="evenodd" clip-rule="evenodd" fill="none" stroke="#FFFFFF" stroke-width="2" stroke-linecap="round" stroke-linejoin="round" stroke-miterlimit="10" width="29.4" height="37.2"/>
	
		<path fill-rule="evenodd" clip-rule="evenodd" fill="none" stroke="#FFFFFF" stroke-width="2" stroke-linecap="round" stroke-linejoin="round" stroke-miterlimit="10" d="
		M46.4,49.4c0,1.7-1.4,3.2-3.2,3.2H11.7c-1.7,0-3.2-1.4-3.2-3.2V5.6c0-1.7,1.4-3.2,3.2-3.2h31.6c1.7,0,3.2,1.4,3.2,3.2V49.4z"/>
	
		<path fill-rule="evenodd" clip-rule="evenodd" fill="none" stroke="#FFFFFF" stroke-width="2" stroke-linecap="round" stroke-linejoin="round" stroke-miterlimit="10" d="
		M33.8,26c0,3.5-2.8,6.3-6.3,6.3c-3.5,0-6.3-2.8-6.3-6.3"/>
</g>
</svg>
