<svg xmlns="http://www.w3.org/2000/svg" width="55" height="55" viewBox="0 0 55 55"><circle fill="#FFF" cx="15.4" cy="40.3" r="1.5"/><circle fill="#FFF" cx="39.6" cy="40.3" r="1.5"/><path clip-rule="evenodd" fill="none" stroke="#FFF" stroke-width="2" stroke-linecap="round" stroke-linejoin="round" stroke-miterlimit="10" d="M24.6 42.9c0 1.7-1.4 3.1-3.1 3.1H9.2c-1.7 0-3.1-1.4-3.1-3.1v-5.2c0-1.7 1.4-3.1 3.1-3.1h12.4c1.7 0 3.1 1.4 3.1 3.1v5.2zM48.5 42.9c0 1.7-1.4 3.1-3.1 3.1H33c-1.7 0-3.1-1.4-3.1-3.1v-5.2c0-1.7 1.4-3.1 3.1-3.1h12.4c1.7 0 3.1 1.4 3.1 3.1v5.2zM24.9 40.3H29M5.7 39.8H2.3v-23s-.6-7.7 5-7.7h1.9"/><path clip-rule="evenodd" fill="none" stroke="#FFF" stroke-width="2" stroke-linecap="round" stroke-linejoin="round" stroke-miterlimit="10" d="M48.7 39.8h3.4v-23s.6-7.7-5-7.7h-1.9M8.9 30.9s1.5-4 6.4-3.1M45.4 30.9s-1.5-4-6.4-3.1"/></svg>