<svg xmlns="http://www.w3.org/2000/svg" width="55" height="55" viewBox="0 0 55 55"><g clip-rule="evenodd" stroke="#FFF" stroke-width="2" stroke-linecap="round" stroke-linejoin="round" stroke-miterlimit="10"><path fill="none" d="M38.3 42.5c0 5.7-4.6 10.3-10.3 10.3h-1.7c-5.7 0-10.3-4.6-10.3-10.3V22.4c0-5.7 4.6-10.3 10.3-10.3H28c5.7 0 10.3 4.6 10.3 10.3v20.1zM16.2 26.6h21.9"/><path fill="none" d="M27.2 26.3V8.5S26.5 3 31.6 3h8.6"/><path fill-rule="evenodd" fill="#16C6C2" d="M29 21.1c0 1-.8 1.9-1.9 1.9-1 0-1.9-.8-1.9-1.9v-3.3c0-1 .8-1.9 1.9-1.9 1 0 1.9.8 1.9 1.9v3.3z"/></g></svg>