<?xml version="1.0" encoding="utf-8"?>
<!-- Generator: Adobe Illustrator 16.0.0, SVG Export Plug-In . SVG Version: 6.00 Build 0)  -->
<!DOCTYPE svg PUBLIC "-//W3C//DTD SVG 1.1//EN" "http://www.w3.org/Graphics/SVG/1.1/DTD/svg11.dtd">
<svg version="1.1" xmlns="http://www.w3.org/2000/svg" xmlns:xlink="http://www.w3.org/1999/xlink" x="0px" y="0px" width="55px"
	 height="55px" viewBox="0 0 55 55" enable-background="new 0 0 55 55" xml:space="preserve">
<g id="Layer_1" display="none">
	<rect x="-2.8" y="-4.2" display="inline" fill="#16C6C2" width="63.3" height="63.3"/>
</g>
<g id="Layer_2">
</g>
<g id="Layer_3">
	<circle fill="#FFFFFF" cx="43.6" cy="35.6" r="1.5"/>
	<circle fill="#FFFFFF" cx="43.6" cy="42.9" r="1.5"/>
	
		<path fill-rule="evenodd" clip-rule="evenodd" fill="none" stroke="#FFFFFF" stroke-width="2" stroke-linecap="round" stroke-linejoin="round" stroke-miterlimit="10" d="
		M21.8,39.2c0,1.1-0.2,2.1-0.5,3.1c-1.3,3.9-5,6.8-9.4,6.8C6.4,49,2,44.6,2,39.2s4.4-9.9,9.9-9.9C17.3,29.3,21.8,33.7,21.8,39.2z"/>
	
		<circle fill-rule="evenodd" clip-rule="evenodd" fill="none" stroke="#FFFFFF" stroke-width="2" stroke-linecap="round" stroke-linejoin="round" stroke-miterlimit="10" cx="43.5" cy="39.2" r="9.9"/>
	
		<line fill-rule="evenodd" clip-rule="evenodd" fill="none" stroke="#FFFFFF" stroke-width="2" stroke-linecap="round" stroke-linejoin="round" stroke-miterlimit="10" x1="11.8" y1="35.2" x2="11.8" y2="43.2"/>
	
		<line fill-rule="evenodd" clip-rule="evenodd" fill="none" stroke="#FFFFFF" stroke-width="2" stroke-linecap="round" stroke-linejoin="round" stroke-miterlimit="10" x1="15.8" y1="39.2" x2="7.8" y2="39.2"/>
	
		<path fill-rule="evenodd" clip-rule="evenodd" fill="none" stroke="#FFFFFF" stroke-width="2" stroke-linecap="round" stroke-linejoin="round" stroke-miterlimit="10" d="
		M13.9,29.4c0,0,13.1-6.8,27.7,0"/>
	
		<path fill-rule="evenodd" clip-rule="evenodd" fill="none" stroke="#FFFFFF" stroke-width="2" stroke-linecap="round" stroke-linejoin="round" stroke-miterlimit="10" d="
		M21.4,42.5c4.7-1.6,8.3-1.9,12.7,0"/>
	
		<path fill-rule="evenodd" clip-rule="evenodd" fill="none" stroke="#FFFFFF" stroke-width="2" stroke-linecap="round" stroke-linejoin="round" stroke-miterlimit="10" d="
		M27.9,26.2V10.8c0,0-0.1-4.5,4.2-4.5c0,0,3.8,0.2,3.8,4.5v5.3c0,0-0.3,4.9,4.2,4.9c0,0,3.9,0,3.9-4.2v-5.1"/>
	<circle fill="#FFFFFF" cx="47.2" cy="39.3" r="1.5"/>
	<circle fill="#FFFFFF" cx="40" cy="39.3" r="1.5"/>
</g>
</svg>
