<svg xmlns="http://www.w3.org/2000/svg" width="55" height="55" viewBox="0 0 55 55"><circle fill="#FFF" cx="43.6" cy="35.6" r="1.5"/><circle fill="#FFF" cx="43.6" cy="42.9" r="1.5"/><path clip-rule="evenodd" fill="none" stroke="#FFF" stroke-width="2" stroke-linecap="round" stroke-linejoin="round" stroke-miterlimit="10" d="M21.8 39.2c0 1.1-.2 2.1-.5 3.1-1.3 3.9-5 6.8-9.4 6.8C6.4 49 2 44.6 2 39.2s4.4-9.9 9.9-9.9c5.4 0 9.9 4.4 9.9 9.9z"/><circle clip-rule="evenodd" fill="none" stroke="#FFF" stroke-width="2" stroke-linecap="round" stroke-linejoin="round" stroke-miterlimit="10" cx="43.5" cy="39.2" r="9.9"/><path clip-rule="evenodd" fill="none" stroke="#FFF" stroke-width="2" stroke-linecap="round" stroke-linejoin="round" stroke-miterlimit="10" d="M11.8 35.2v8M15.8 39.2h-8M13.9 29.4s13.1-6.8 27.7 0M21.4 42.5c4.7-1.6 8.3-1.9 12.7 0"/><path clip-rule="evenodd" fill="none" stroke="#FFF" stroke-width="2" stroke-linecap="round" stroke-linejoin="round" stroke-miterlimit="10" d="M27.9 26.2V10.8s-.1-4.5 4.2-4.5c0 0 3.8.2 3.8 4.5v5.3s-.3 4.9 4.2 4.9c0 0 3.9 0 3.9-4.2v-5.1"/><circle fill="#FFF" cx="47.2" cy="39.3" r="1.5"/><circle fill="#FFF" cx="40" cy="39.3" r="1.5"/></svg>