<?xml version="1.0" encoding="utf-8"?>
<!-- Generator: Adobe Illustrator 16.0.0, SVG Export Plug-In . SVG Version: 6.00 Build 0)  -->
<!DOCTYPE svg PUBLIC "-//W3C//DTD SVG 1.1//EN" "http://www.w3.org/Graphics/SVG/1.1/DTD/svg11.dtd">
<svg version="1.1" xmlns="http://www.w3.org/2000/svg" xmlns:xlink="http://www.w3.org/1999/xlink" x="0px" y="0px" width="55px"
	 height="55px" viewBox="0 0 55 55" enable-background="new 0 0 55 55" xml:space="preserve">
<g id="Layer_1" display="none">
	<rect x="-2.8" y="-4.2" display="inline" fill="#16C6C2" width="63.3" height="63.3"/>
</g>
<g id="Layer_2">
</g>
<g id="Layer_3">
</g>
<g id="Layer_4" display="none">
	<g display="inline">
		<path fill="none" stroke="#FFFFFF" stroke-width="2" stroke-linecap="round" stroke-linejoin="round" stroke-miterlimit="10" d="
			M19.5,20.4h23.8c0,0-0.7-9.5-11.6-10.2C31.7,10.2,20.7,10,19.5,20.4z"/>
		<path fill="none" stroke="#FFFFFF" stroke-width="2" stroke-linecap="round" stroke-linejoin="round" stroke-miterlimit="10" d="
			M43.3,20.4v17.4c0,4.7-3.6,4.2-3.6,4.2H22.9c-3.7,0-3.4-4.2-3.4-4.2V20.4"/>
		
			<line fill="none" stroke="#FFFFFF" stroke-width="2" stroke-linecap="round" stroke-linejoin="round" stroke-miterlimit="10" x1="22.8" y1="6.1" x2="25.8" y2="11.3"/>
		
			<line fill="none" stroke="#FFFFFF" stroke-width="2" stroke-linecap="round" stroke-linejoin="round" stroke-miterlimit="10" x1="40.3" y1="6.1" x2="37.2" y2="11.3"/>
		<circle fill="#FFFFFF" cx="27.3" cy="15.5" r="1.4"/>
		<circle fill="#FFFFFF" cx="35.5" cy="15.5" r="1.4"/>
		<path fill="none" stroke="#FFFFFF" stroke-width="2" stroke-linecap="round" stroke-linejoin="round" stroke-miterlimit="10" d="
			M43.3,22.7l9.5,10.9c0.8,1,0.7,2.4-0.2,3.2l0,0c-1,0.8-2.4,0.7-3.2-0.2l-6.1-7"/>
		<path fill="none" stroke="#FFFFFF" stroke-width="2" stroke-linecap="round" stroke-linejoin="round" stroke-miterlimit="10" d="
			M19.4,22.7L10,33.6c-0.8,1-0.7,2.4,0.2,3.2l0,0c1,0.8,2.4,0.7,3.2-0.2l6.1-7"/>
		<path fill="none" stroke="#FFFFFF" stroke-width="2" stroke-linecap="round" stroke-linejoin="round" stroke-miterlimit="10" d="
			M28.9,42.2v5.9c0,1.3-1,2.3-2.3,2.3l0,0c-1.3,0-2.3-1-2.3-2.3v-6.1"/>
		<path fill="none" stroke="#FFFFFF" stroke-width="2" stroke-linecap="round" stroke-linejoin="round" stroke-miterlimit="10" d="
			M38.1,42.2v5.9c0,1.3-1,2.3-2.3,2.3l0,0c-1.3,0-2.3-1-2.3-2.3v-6.1"/>
	</g>
</g>
<g id="Layer_5" display="none">
	<g display="inline">
		<path fill="none" stroke="#FFFFFF" stroke-width="2" stroke-linecap="round" stroke-linejoin="round" stroke-miterlimit="10" d="
			M19.5,20.4h23.8c0,0-0.7-9.5-11.6-10.2C31.7,10.2,20.7,10,19.5,20.4z"/>
		<path fill="none" stroke="#FFFFFF" stroke-width="2" stroke-linecap="round" stroke-linejoin="round" stroke-miterlimit="10" d="
			M43.3,20.4v17.4c0,4.7-3.6,4.2-3.6,4.2H22.9c-3.7,0-3.4-4.2-3.4-4.2V20.4"/>
		
			<line fill="none" stroke="#FFFFFF" stroke-width="2" stroke-linecap="round" stroke-linejoin="round" stroke-miterlimit="10" x1="22.8" y1="6.1" x2="25.8" y2="11.3"/>
		
			<line fill="none" stroke="#FFFFFF" stroke-width="2" stroke-linecap="round" stroke-linejoin="round" stroke-miterlimit="10" x1="40.3" y1="6.1" x2="37.2" y2="11.3"/>
		<circle fill="#FFFFFF" cx="27.3" cy="15.5" r="1.4"/>
		<circle fill="#FFFFFF" cx="35.5" cy="15.5" r="1.4"/>
		<path fill="none" stroke="#FFFFFF" stroke-width="2" stroke-linecap="round" stroke-linejoin="round" stroke-miterlimit="10" d="
			M19.1,29.7L9.4,18.5c-0.8-1-0.7-2.4,0.2-3.2l0,0c1-0.8,2.4-0.7,3.2,0.2l6.5,7.5"/>
		<path fill="none" stroke="#FFFFFF" stroke-width="2" stroke-linecap="round" stroke-linejoin="round" stroke-miterlimit="10" d="
			M43.3,22.7l9.5,10.9c0.8,1,0.7,2.4-0.2,3.2l0,0c-1,0.8-2.4,0.7-3.2-0.2l-6.1-7"/>
		<path fill="none" stroke="#FFFFFF" stroke-width="2" stroke-linecap="round" stroke-linejoin="round" stroke-miterlimit="10" d="
			M28.9,42.2v5.9c0,1.3-1,2.3-2.3,2.3l0,0c-1.3,0-2.3-1-2.3-2.3v-6.1"/>
		<path fill="none" stroke="#FFFFFF" stroke-width="2" stroke-linecap="round" stroke-linejoin="round" stroke-miterlimit="10" d="
			M38.1,42.2v5.9c0,1.3-1,2.3-2.3,2.3l0,0c-1.3,0-2.3-1-2.3-2.3v-6.1"/>
	</g>
</g>
<g id="Layer_6">
	<g>
		<path fill="none" stroke="#FFFFFF" stroke-width="2" stroke-linecap="round" stroke-linejoin="round" stroke-miterlimit="10" d="
			M19.5,20.4h23.8c0,0-0.7-9.5-11.6-10.2C31.6,10.2,20.7,10,19.5,20.4z"/>
		<path fill="none" stroke="#FFFFFF" stroke-width="2" stroke-linecap="round" stroke-linejoin="round" stroke-miterlimit="10" d="
			M43.3,20.4v17.4c0,4.7-3.6,4.2-3.6,4.2H22.9c-3.7,0-3.4-4.2-3.4-4.2V20.4"/>
		
			<line fill="none" stroke="#FFFFFF" stroke-width="2" stroke-linecap="round" stroke-linejoin="round" stroke-miterlimit="10" x1="22.8" y1="6.1" x2="25.8" y2="11.3"/>
		
			<line fill="none" stroke="#FFFFFF" stroke-width="2" stroke-linecap="round" stroke-linejoin="round" stroke-miterlimit="10" x1="5" y1="9.9" x2="6.9" y2="12.1"/>
		
			<line fill="none" stroke="#FFFFFF" stroke-width="2" stroke-linecap="round" stroke-linejoin="round" stroke-miterlimit="10" x1="10.9" y1="7.7" x2="10.9" y2="10.5"/>
		
			<line fill="none" stroke="#FFFFFF" stroke-width="2" stroke-linecap="round" stroke-linejoin="round" stroke-miterlimit="10" x1="4.9" y1="15.9" x2="2.1" y2="15.9"/>
		
			<line fill="none" stroke="#FFFFFF" stroke-width="2" stroke-linecap="round" stroke-linejoin="round" stroke-miterlimit="10" x1="40.2" y1="6.1" x2="37.2" y2="11.3"/>
		<circle fill="#FFFFFF" cx="27.3" cy="15.5" r="1.4"/>
		<circle fill="#FFFFFF" cx="35.5" cy="15.5" r="1.4"/>
		<path fill="none" stroke="#FFFFFF" stroke-width="2" stroke-linecap="round" stroke-linejoin="round" stroke-miterlimit="10" d="
			M19.1,29.7L9.4,18.5c-0.8-1-0.7-2.4,0.2-3.2l0,0c1-0.8,2.4-0.7,3.2,0.2l6.5,7.5"/>
		<path fill="none" stroke="#FFFFFF" stroke-width="2" stroke-linecap="round" stroke-linejoin="round" stroke-miterlimit="10" d="
			M43.3,22.7l9.4,10.9c0.8,1,0.7,2.4-0.2,3.2l0,0c-1,0.8-2.4,0.7-3.2-0.2l-6.1-7"/>
		<path fill="none" stroke="#FFFFFF" stroke-width="2" stroke-linecap="round" stroke-linejoin="round" stroke-miterlimit="10" d="
			M28.9,42.2v5.9c0,1.3-1,2.3-2.3,2.3l0,0c-1.3,0-2.3-1-2.3-2.3v-6.1"/>
		<path fill="none" stroke="#FFFFFF" stroke-width="2" stroke-linecap="round" stroke-linejoin="round" stroke-miterlimit="10" d="
			M38,42.2v5.9c0,1.3-1,2.3-2.3,2.3l0,0c-1.3,0-2.3-1-2.3-2.3v-6.1"/>
	</g>
</g>
</svg>
