<svg xmlns="http://www.w3.org/2000/svg" width="55" height="55" viewBox="0 0 55 55"><path fill="none" stroke="#FFF" stroke-width="2" stroke-linecap="round" stroke-linejoin="round" stroke-miterlimit="10" d="M19.5 20.4h23.8s-.7-9.5-11.6-10.2c0 0-11-.2-12.2 10.2zM43.3 20.4v17.4c0 4.7-3.6 4.2-3.6 4.2H22.9c-3.7 0-3.4-4.2-3.4-4.2V20.4M22.8 6.1l3 5.2M40.3 6.1l-3.1 5.2"/><circle fill="#FFF" cx="27.3" cy="15.5" r="1.4"/><circle fill="#FFF" cx="35.5" cy="15.5" r="1.4"/><path fill="none" stroke="#FFF" stroke-width="2" stroke-linecap="round" stroke-linejoin="round" stroke-miterlimit="10" d="M43.3 22.7l9.5 10.9c.8 1 .7 2.4-.2 3.2-1 .8-2.4.7-3.2-.2l-6.1-7M19.4 22.7L10 33.6c-.8 1-.7 2.4.2 3.2 1 .8 2.4.7 3.2-.2l6.1-7M28.9 42.2v5.9c0 1.3-1 2.3-2.3 2.3-1.3 0-2.3-1-2.3-2.3V42M38.1 42.2v5.9c0 1.3-1 2.3-2.3 2.3-1.3 0-2.3-1-2.3-2.3V42"/></svg>