<svg xmlns="http://www.w3.org/2000/svg" width="55" height="55" viewBox="0 0 55 55"><g stroke="#FFF" stroke-width="2" stroke-linecap="round" stroke-linejoin="round" stroke-miterlimit="10"><path fill="none" d="M14.8 47.3c0 1.5-1.2 2.7-2.7 2.7-1.5 0-2.7-1.2-2.7-2.7V35.8c0-1.5 1.2-2.7 2.7-2.7 1.5 0 2.7 1.2 2.7 2.7v11.5zM9.3 48.2c-3.7 0-6.6-3-6.6-6.6 0-3.5 2.7-6.4 6.2-6.6M40.4 47.3c0 1.5 1.2 2.7 2.7 2.7 1.5 0 2.7-1.2 2.7-2.7V35.8c0-1.5-1.2-2.7-2.7-2.7-1.5 0-2.7 1.2-2.7 2.7v11.5zM45.8 48.2c3.7 0 6.6-3 6.6-6.6 0-3.5-2.7-6.4-6.2-6.6"/><path fill="none" d="M9.5 33.9v-6.7C9.5 17.2 17.6 9 27.7 9s18.2 8.1 18.2 18.2v6.7"/><path fill="none" d="M5.3 35.6v-7c0-12.3 8.3-23.5 22.3-23.3C41.5 5.4 50 16.2 50 28.6v7"/><path fill="#16C6C2" d="M15.1 9.1l1.8 2.9M40.2 9.1L38.4 12"/></g><g fill="none" stroke="#FFF" stroke-width="2" stroke-linecap="round" stroke-linejoin="round" stroke-miterlimit="10"><path d="M20.6 41.7h3.1M18.3 36.1l2.3-2.2M18.3 47.8l2.3 2.2M34.4 41.7h-3.1M36.7 36.1l-2.2-2.2M36.7 47.8L34.5 50"/></g></svg>