<svg xmlns="http://www.w3.org/2000/svg" width="50" height="50" viewBox="0 0 50 50" fill="#fff" opacity=".2"><path style="text-indent:0;text-align:start;line-height:normal;text-transform:none;block-progression:tb;-inkscape-font-specification:Bitstream Vera Sans" d="M25 0C12.86 0 3 9.86 3 22c0 5.32 1.888 10.195 5.031 14H3.312a1 1 0 1 0 0 2H12V29.312a1 1 0 0 0-1.125-1 1 1 0 0 0-.875 1v5.875C6.898 31.666 5 27.07 5 22 5 10.941 13.941 2 25 2s20 8.941 20 20c0 5.286-2.032 10.08-5.375 13.656a1 1 0 1 0 1.438 1.375A21.969 21.969 0 0 0 47 22C47 9.86 37.14 0 25 0zm-.125 7.406c-4.672.086-7.655 1.975-8.938 4.907-1.221 2.792-.948 6.32-.062 9.968-.477.558-.854 1.309-.719 2.438.148 1.229.487 2.103.969 2.718.265.338.615.37.938.532.177 1.046.468 2.095.906 2.968.251.503.533.968.812 1.344.124.167.307.266.438.407.006 1.233.012 2.261-.094 3.562-.325.784-1.083 1.417-2.313 2.031-1.269.634-2.923 1.22-4.593 1.938s-3.391 1.593-4.75 2.968c-1.36 1.376-2.32 3.262-2.469 5.75L4.937 50H45.064L45 48.937c-.15-2.487-1.115-4.374-2.469-5.75-1.354-1.375-3.055-2.25-4.718-2.968-1.664-.718-3.299-1.304-4.563-1.938-1.213-.607-1.981-1.225-2.313-2-.11-1.318-.1-2.35-.093-3.593.13-.142.316-.24.437-.407.274-.377.537-.842.782-1.343.426-.876.733-1.927.906-2.97.314-.162.648-.201.906-.53.482-.616.821-1.49.969-2.72.132-1.093-.233-1.815-.688-2.374.488-1.586 1.112-4.15.907-6.782-.113-1.436-.482-2.87-1.344-4.062-.79-1.093-2.071-1.89-3.688-2.219-1.05-1.362-2.943-1.875-5.125-1.875h-.031zm.031 2h.032c2.013.008 3.316.598 3.687 1.25l.25.406.469.063c1.39.194 2.187.754 2.75 1.531.562.778.875 1.863.968 3.063.188 2.4-.502 5.192-.937 6.5l-.25.781.688.406c-.044-.026.38.263.28 1.094-.117.982-.35 1.49-.53 1.719-.18.23-.274.218-.282.218l-.843.063-.094.813c-.093.864-.44 1.92-.844 2.75-.202.414-.41.778-.594 1.03-.183.254-.376.395-.281.345l-.531.28v.595c0 1.446-.058 2.635.093 4.312v.125l.063.125c.57 1.535 1.892 2.491 3.344 3.219 1.452.727 3.121 1.262 4.687 1.937 1.566.676 3.002 1.485 4.063 2.563.843.857 1.374 1.99 1.656 3.406H7.25c.283-1.416.81-2.549 1.656-3.406 1.066-1.079 2.521-1.887 4.094-2.563 1.573-.676 3.23-1.21 4.688-1.937 1.456-.728 2.803-1.682 3.375-3.219l.03-.125.032-.125c.152-1.675.094-2.864.094-4.313v-.593l-.532-.282c.09.048-.123-.089-.312-.343a7.207 7.207 0 0 1-.625-1.032c-.415-.828-.752-1.893-.844-2.75l-.093-.812-.844-.063c-.008 0-.102.011-.282-.218-.18-.23-.413-.737-.53-1.719-.1-.83.324-1.12.28-1.094l.657-.406-.188-.719c-.941-3.623-1.104-6.918-.125-9.156.977-2.232 2.967-3.634 7.125-3.719z" color="#ccc" overflow="visible" font-family="Bitstream Vera Sans"/></svg>