<svg xmlns="http://www.w3.org/2000/svg" width="50" height="50" viewBox="0 0 50 50" fill="#fff" opacity=".2"><path style="text-indent:0;text-align:start;line-height:normal;text-transform:none;block-progression:tb;-inkscape-font-specification:Bitstream Vera Sans" d="M9.938.531l-.72.688-8 8-.687.719.688.718 15.625 15.625L4.312 38.813a1 1 0 0 0-.28.437l-2 7.5a1 1 0 0 0 1.218 1.219l7.5-2a1 1 0 0 0 .438-.282L45.75 11.126l.813-.813a4.859 4.859 0 0 0 0-6.874 4.857 4.857 0 0 0-6.876 0l-.812.812-12.594 12.594L10.656 1.219 9.937.53zm0 2.844L11.562 5l-1.28 1.281 1.437 1.438L13 6.437 14.563 8l-2.282 2.281 1.438 1.438L16 9.438 17.563 11l-1.282 1.281 1.438 1.438L19 12.438 20.563 14l-2.282 2.281 1.438 1.438L22 15.437 23.563 17l-1.282 1.281 1.282 1.282-5.282 5.28L3.375 9.939l6.563-6.563zM40.28 5.656l4.063 4.063L9.969 44.094 5.906 40.03 40.281 5.656zM34 24.594l-.719.687-2 2 1.438 1.438L34 27.437 35.563 29l-2.282 2.281 1.438 1.438L37 30.437 38.563 32l-1.282 1.281 1.438 1.438L40 33.437 41.563 35l-2.282 2.281 1.438 1.438L43 36.437 44.563 38l-1.282 1.281 1.438 1.438L46 39.437l.625.626-6.563 6.562L26 32.594 24.594 34l14.75 14.781.718.688.72-.688 8-8 .687-.718-.688-.72L34 24.594z"/></svg>