<svg xmlns="http://www.w3.org/2000/svg" width="50" height="50" viewBox="0 0 50 50" fill="#fff" opacity=".2"><path style="text-indent:0;text-align:start;line-height:normal;text-transform:none;block-progression:tb;-inkscape-font-specification:Bitstream Vera Sans" d="M24.844 3.438a1 1 0 0 0-.719.5L.125 45.5A1 1 0 0 0 1 47h48a1 1 0 0 0 .875-1.5l-24-41.563a1 1 0 0 0-1.031-.5zm.156 3L47.25 45H2.75L25 6.437zm-1.156 12.468c-.215 0-.344.129-.344.344v14.469c0 .215.128.375.344.375h2.312c.215 0 .344-.16.344-.375V19.25c0-.215-.129-.344-.344-.344h-2.312zm-.219 18.063c-.131.05-.188.182-.188.343v2.626c0 .215.13.343.344.343h2.438c.215 0 .343-.128.343-.343v-2.626c0-.215-.127-.343-.343-.343H23.78c-.053 0-.112-.017-.156 0z" color="#000" overflow="visible" font-family="Bitstream Vera Sans"/></svg>