<svg xmlns="http://www.w3.org/2000/svg" viewBox="0 0 50 50" fill="#fff" opacity=".2"><path style="text-indent:0;text-align:start;line-height:normal;text-transform:none;block-progression:tb;-inkscape-font-specification:Bitstream Vera Sans" d="M3 5C1.355 5 0 6.355 0 8v9.813a1 1 0 0 0 0 .093V42c0 1.645 1.355 3 3 3h44c1.645 0 3-1.355 3-3V18a1 1 0 0 0 0-.094V8c0-1.645-1.355-3-3-3H3zm0 2h44c.555 0 1 .445 1 1v9H2V8c0-.555.445-1 1-1zm4 2c-1.645 0-3 1.355-3 3s1.355 3 3 3 3-1.355 3-3-1.355-3-3-3zm7 0c-1.645 0-3 1.355-3 3s1.355 3 3 3 3-1.355 3-3-1.355-3-3-3zm5.813 0A1 1 0 0 0 19 10v4a1 1 0 0 0 1 1h25a1 1 0 0 0 1-1v-4a1 1 0 0 0-1-1H20a1 1 0 0 0-.094 0 1 1 0 0 0-.093 0zM7 11c.564 0 1 .436 1 1 0 .564-.436 1-1 1-.564 0-1-.436-1-1 0-.564.436-1 1-1zm7 0c.564 0 1 .436 1 1 0 .564-.436 1-1 1-.564 0-1-.436-1-1 0-.564.436-1 1-1zm7 0h23v2H21v-2zM2 19h46v23c0 .555-.445 1-1 1H3c-.555 0-1-.445-1-1V19z" color="#000" overflow="visible" font-family="Bitstream Vera Sans"/></svg>