<svg xmlns="http://www.w3.org/2000/svg" viewBox="0 0 50 50" fill="#fff" opacity=".2"><path style="text-indent:0;text-align:start;line-height:normal;text-transform:none;block-progression:tb;-inkscape-font-specification:Bitstream Vera Sans" d="M19.875 3.313c-4.692.105-7.662 2.002-8.938 4.937-1.215 2.795-.96 6.312-.093 9.969-.466.547-.846 1.314-.75 2.468v.063c.166 1.22.533 2.077 1 2.688.228.298.56.303.844.468.167 1.08.49 2.149.937 3.032.254.5.506.94.781 1.312.126.17.307.265.438.406.012 1.307.062 2.303-.094 3.625-.302.758-1.05 1.363-2.25 1.969-1.253.633-2.895 1.217-4.563 1.938-1.667.72-3.36 1.588-4.718 2.968S.137 42.444 0 44.938L-.063 46H40.064L40 44.937c-.137-2.49-1.086-4.4-2.438-5.78-1.351-1.382-3.05-2.248-4.718-2.97-1.668-.72-3.32-1.302-4.594-1.937-1.235-.615-2.01-1.246-2.344-2.031a57.906 57.906 0 0 1-.093-3.594c.117-.134.293-.217.406-.375.267-.373.536-.815.781-1.313.432-.875.766-1.947.969-3 .32-.163.688-.174.937-.5.482-.63.764-1.523.875-2.75.088-1.057-.214-1.826-.687-2.406.52-1.603 1.136-4.164.937-6.781-.109-1.437-.489-2.87-1.343-4.063-.772-1.077-2.024-1.817-3.594-2.156-1.059-1.414-2.983-1.968-5.188-1.968h-.031zm.031 2h.032c1.996.007 3.272.569 3.687 1.28l.25.438.5.063c1.373.193 2.13.721 2.688 1.5.557.778.877 1.862.968 3.062.182 2.401-.511 5.22-.968 6.5L26.75 19l.781.406c-.007.029.321.36.282 1.094-.002.016.001.015 0 .031-.092.942-.335 1.471-.5 1.688-.169.22-.253.187-.22.187h-.874l-.094.844c-.129.903-.496 1.95-.906 2.781a8.077 8.077 0 0 1-.625 1.063c-.183.255-.365.391-.282.343l-.5.282v.593c0 1.5-.008 2.622.094 4.25v.157l.063.125c.586 1.53 1.915 2.491 3.375 3.218 1.46.728 3.118 1.29 4.687 1.97 1.57.678 3.036 1.45 4.094 2.53.843.862 1.351 2.012 1.625 3.438H2.25c.275-1.425.777-2.575 1.625-3.438C4.939 39.481 6.43 38.71 8 38.032c1.57-.68 3.212-1.24 4.656-1.97 1.445-.73 2.755-1.703 3.281-3.25l.032-.093.031-.094c.212-1.697.094-2.857.094-4.313v-.593l-.5-.282c.074.043-.122-.118-.313-.375a7.448 7.448 0 0 1-.625-1.03c-.418-.825-.792-1.853-.875-2.72l-.062-.906h-.844a.624.624 0 0 1-.219-.187c-.177-.232-.425-.768-.562-1.688-.002-.02 0-.011 0-.031-.002-.016.002-.015 0-.031-.016-.758.455-1.179.375-1.125l.562-.407-.156-.687c-.923-3.643-1.068-6.947-.094-9.188.972-2.234 2.942-3.648 7.125-3.75zM33 16v2h17v-2H33zm-2 8v2h19v-2H31zm2 8v2h17v-2H33z" color="#000" overflow="visible" font-family="Bitstream Vera Sans"/></svg>