<svg xmlns="http://www.w3.org/2000/svg" viewBox="0 0 50 50" enable-background="new 0 0 50 50" style="fill: ;">
    <path style="text-indent:0;text-align:start;line-height:normal;text-transform:none;block-progression:tb;-inkscape-font-specification:Bitstream Vera Sans" d="M 19.875 3.3125 C 15.18258 3.4179476 12.213416 5.3153925 10.9375 8.25 C 9.722401 11.044728 9.9769077 14.561897 10.84375 18.21875 C 10.378281 18.765687 9.997582 19.533484 10.09375 20.6875 L 10.09375 20.71875 L 10.09375 20.75 C 10.260194 21.970588 10.627277 22.827497 11.09375 23.4375 C 11.321954 23.735921 11.654456 23.740973 11.9375 23.90625 C 12.105397 24.986916 12.427694 26.054976 12.875 26.9375 C 13.128614 27.437874 13.381049 27.878756 13.65625 28.25 C 13.782232 28.419949 13.962772 28.515284 14.09375 28.65625 C 14.10576 29.962866 14.1562 30.95883 14 32.28125 C 13.698014 33.03913 12.950103 33.643691 11.75 34.25 C 10.497424 34.882819 8.854772 35.466518 7.1875 36.1875 C 5.520228 36.908482 3.826495 37.77573 2.46875 39.15625 C 1.111005 40.53677 0.13699273 42.444232 0 44.9375 L -0.0625 46 L 1 46 L 39 46 L 40.0625 46 L 40 44.9375 C 39.863107 42.446055 38.913967 40.537516 37.5625 39.15625 C 36.211033 37.774984 34.511883 36.908855 32.84375 36.1875 C 31.175617 35.466145 29.524765 34.885197 28.25 34.25 C 27.014894 33.634564 26.240663 33.003799 25.90625 32.21875 C 25.829519 30.893899 25.81297 29.87936 25.8125 28.625 C 25.930486 28.490625 26.105607 28.407929 26.21875 28.25 C 26.485664 27.877433 26.754883 27.434544 27 26.9375 C 27.431995 26.061511 27.765941 24.990021 27.96875 23.9375 C 28.289793 23.774313 28.657315 23.763031 28.90625 23.4375 C 29.387755 22.80784 29.669748 21.914027 29.78125 20.6875 C 29.86934 19.630463 29.567276 18.860912 29.09375 18.28125 C 29.614087 16.678163 30.229701 14.117068 30.03125 11.5 C 29.92229 10.063091 29.542308 8.6308269 28.6875 7.4375 C 27.915843 6.3602537 26.663622 5.6201187 25.09375 5.28125 C 24.03533 3.8674576 22.111401 3.3125 19.90625 3.3125 L 19.875 3.3125 z M 19.90625 5.3125 C 19.91874 5.3125 19.92507 5.3124552 19.9375 5.3125 C 21.934359 5.3197 23.209545 5.8815416 23.625 6.59375 L 23.875 7.03125 L 24.375 7.09375 C 25.748239 7.2868617 26.504808 7.8152019 27.0625 8.59375 C 27.620192 9.3722981 27.94021 10.455659 28.03125 11.65625 C 28.21333 14.057432 27.519634 16.876276 27.0625 18.15625 L 26.75 19 L 27.53125 19.40625 C 27.523543 19.434675 27.85239 19.765997 27.8125 20.5 C 27.811 20.51632 27.8141 20.51519 27.8125 20.53125 C 27.72051 21.473313 27.478171 22.002103 27.3125 22.21875 C 27.144005 22.43909 27.060417 22.40625 27.09375 22.40625 L 26.21875 22.40625 L 26.125 23.25 C 25.996056 24.152608 25.628515 25.200337 25.21875 26.03125 C 25.013867 26.446706 24.776836 26.838192 24.59375 27.09375 C 24.410664 27.349308 24.229253 27.48507 24.3125 27.4375 L 23.8125 27.71875 L 23.8125 28.3125 C 23.8125 29.8125 23.8045 30.934021 23.90625 32.5625 L 23.90625 32.71875 L 23.96875 32.84375 C 24.554768 34.373908 25.88414 35.335197 27.34375 36.0625 C 28.80336 36.789803 30.461883 37.352605 32.03125 38.03125 C 33.600617 38.709895 35.067092 39.481266 36.125 40.5625 C 36.968388 41.424485 37.475983 42.574326 37.75 44 L 2.25 44 C 2.5253473 42.575424 3.0266515 41.425079 3.875 40.5625 C 4.93913 39.48052 6.429772 38.710268 8 38.03125 C 9.570228 37.352232 11.211951 36.792181 12.65625 36.0625 C 14.100549 35.332819 15.4111 34.358799 15.9375 32.8125 L 15.96875 32.71875 L 16 32.625 C 16.212085 30.928317 16.09375 29.768056 16.09375 28.3125 L 16.09375 27.71875 L 15.59375 27.4375 C 15.66809 27.47998 15.471674 27.319381 15.28125 27.0625 C 15.090826 26.805619 14.865136 26.443376 14.65625 26.03125 C 14.238478 25.206997 13.86378 24.17906 13.78125 23.3125 L 13.71875 22.40625 L 12.875 22.40625 C 12.840129 22.389375 12.748015 22.33875 12.65625 22.21875 C 12.478664 21.986522 12.230786 21.451164 12.09375 20.53125 C 12.09205 20.5112 12.09475 20.51956 12.09375 20.5 C 12.09155 20.48438 12.09595 20.4846 12.09375 20.46875 C 12.07771 19.710532 12.548752 19.290415 12.46875 19.34375 L 13.03125 18.9375 L 12.875 18.25 C 11.952145 14.607151 11.807166 11.302893 12.78125 9.0625 C 13.752632 6.8283223 15.722691 5.4141553 19.90625 5.3125 z M 33 16 L 33 18 L 50 18 L 50 16 L 33 16 z M 31 24 L 31 26 L 50 26 L 50 24 L 31 24 z M 33 32 L 33 34 L 50 34 L 50 32 L 33 32 z" color="#000" overflow="visible" enable-background="accumulate" font-family="Bitstream Vera Sans"/>
</svg>