<?xml version="1.0" encoding="utf-8"?>
<!-- Generator: Adobe Illustrator 18.1.0, SVG Export Plug-In . SVG Version: 6.00 Build 0)  -->
<!DOCTYPE svg PUBLIC "-//W3C//DTD SVG 1.1//EN" "http://www.w3.org/Graphics/SVG/1.1/DTD/svg11.dtd">
<svg xmlns="http://www.w3.org/2000/svg" xmlns:xlink="http://www.w3.org/1999/xlink" version="1.1" id="Layer_1" x="0px" y="0px" viewBox="0 0 26 26" width="26px" height="26px" enable-background="new 0 0 26 26" xml:space="preserve" fill="#555">
<path d="M6.9,2.7C6.1,2.7,3,4.5,3,10c0,4.8,2.7,6.4,2.7,8.1c0,2.5-2.6,4.5-2.6,4.5s5.3-1.9,5.3-6.3c-2.9-0.3-3.6-4.1-3.6-5.6  c0-3.8,2.3-6.2,2.3-6.2c-1,4.5,5,3.2,5,9.8c0,2.5-0.9,4.7-0.9,4.7s1-0.3,1.7-1.1c-1,2.7-4.4,6.9-7.8,7.5C7.6,27,23,25.9,23,10.9  C23,3.5,16.8,0,11.7,0C9.5,0,7.2,0.9,7.2,1.5C11.1,1.5,14,4.6,14,6C13.8,5.6,10.4,2.7,6.9,2.7z" fill="#555"/>
</svg>
