<?xml version="1.0" encoding="utf-8"?>
<!-- Generator: Adobe Illustrator 17.0.2, SVG Export Plug-In . SVG Version: 6.00 Build 0)  -->
<!DOCTYPE svg PUBLIC "-//W3C//DTD SVG 1.1//EN" "http://www.w3.org/Graphics/SVG/1.1/DTD/svg11.dtd">
<svg xmlns="http://www.w3.org/2000/svg" xmlns:xlink="http://www.w3.org/1999/xlink" version="1.1" id="Layer_1" x="0px" y="0px" width="40px" height="40px" viewBox="0 0 26 26" enable-background="new 0 0 26 26" xml:space="preserve" fill="#555">
<path fill="#555" d="M22.913,10.502c-0.335-0.149-3.471-1.545-3.807-1.694c-1.577-0.702-3.424,0.008-4.125,1.584l9.516,4.235  C25.199,13.05,24.489,11.203,22.913,10.502z"/>
<path fill="#555" d="M25.213,0.208c-0.526-0.234-1.085-0.174-1.256,0.147l-3.931,7.372L23.1,9.094l2.845-7.855  C26.069,0.897,25.739,0.442,25.213,0.208z"/>
<path fill="none" stroke="#555" stroke-width="2" stroke-linejoin="round" stroke-miterlimit="10" d="M22.955,15.973  c-1.953,5.946-4.481,9.024-4.481,9.024s-8.707-0.316-14.355-7.288c1.166,0.083,8.435-0.542,10.939-5.371"/>
<path fill="#555" d="M7.883,20.653c0,0,2.368-0.099,3.848-1.645c-1.184,2.171-2.204,2.73-2.204,2.73L7.883,20.653z"/>
<path fill="#555" d="M11.975,22.494c0,0,1.575,0.622,5.265-2.777c-1.327,3.026-2.57,4.063-2.57,4.063L11.975,22.494z"/>
<circle fill="#555" cx="1.5" cy="5.5" r="1.5"/>
<circle fill="#555" cx="6" cy="6" r="1"/>
<circle fill="#555" cx="5.5" cy="11.5" r="2.5"/>
</svg>
