<?xml version="1.0" encoding="utf-8"?>
<!-- Generator: Adobe Illustrator 15.0.0, SVG Export Plug-In . SVG Version: 6.00 Build 0)  -->
<!DOCTYPE svg PUBLIC "-//W3C//DTD SVG 1.1//EN" "http://www.w3.org/Graphics/SVG/1.1/DTD/svg11.dtd">
<svg xmlns="http://www.w3.org/2000/svg" xmlns:xlink="http://www.w3.org/1999/xlink" version="1.1" id="Layer_1" x="0px" y="0px" width="26px" height="26px" viewBox="0 0 26 26" enable-background="new 0 0 26 26" xml:space="preserve" fill="#555">

<path fill="#555" d="M3.854,25.682c-0.39,0.389-1.025,0.389-1.415,0l-2.121-2.121c-0.39-0.391-0.389-1.025,0-1.414l10.691-10.691  l3.536,3.536L3.854,25.682z"/>
<path fill="#555" d="M17.086,5.375c0.391-0.389,1.025-0.389,1.416,0l2.121,2.121c0.389,0.391,0.389,1.025-0.001,1.415  l-4.745,4.746l-3.535-3.536L17.086,5.375z"/>
<path fill="#555" d="M25.639,12.518l-1.962-1.96c0,0-0.288-0.134-0.429-0.062c-0.309,0.158-1.203,0.267-1.645-0.176  c-0.644-0.644-1.321-1.319-1.321-1.319l-2.68,2.68c0,0,0.62,0.618,1.32,1.319c0.438,0.438,0.37,1.28,0.215,1.588  c-0.093,0.186,0.003,0.506,0.003,0.506l1.962,1.96c0.39,0.39,1.024,0.39,1.415,0.001l3.121-3.122  C26.027,13.543,26.027,12.908,25.639,12.518z"/>
<path fill="#555" d="M20.623,7.504c0.389,0.39,0.389,1.025,0,1.415l-3.121,3.121c-0.391,0.39-1.025,0.389-1.415,0  c0,0-3.556-2.133-2.774-2.899c0.766-0.75,0.636-2.047-1.521-4.307c-2.625-2.75-6.666-3.754-6.666-3.754s9.096,0.024,10.859,1.788  C16.504,3.385,20.623,7.504,20.623,7.504z"/>
</svg>
