<?xml version="1.0" encoding="utf-8"?>
<!-- Generator: Adobe Illustrator 17.1.0, SVG Export Plug-In . SVG Version: 6.00 Build 0)  -->
<!DOCTYPE svg PUBLIC "-//W3C//DTD SVG 1.1//EN" "http://www.w3.org/Graphics/SVG/1.1/DTD/svg11.dtd">
<svg xmlns="http://www.w3.org/2000/svg" xmlns:xlink="http://www.w3.org/1999/xlink" version="1.1" id="Layer_1" x="0px" y="0px" width="26px" height="26px" viewBox="0 0 26 26" style="enable-background:new 0 0 26 26" xml:space="preserve" fill="#555">
<style type="text/css">
	.st0{fill:none;stroke:#555;stroke-width:2;stroke-miterlimit:10;}
	.st1{fill:none;stroke:#555;stroke-width:2;stroke-linecap:round;stroke-linejoin:round;stroke-miterlimit:10;}
	.st2{fill:none;stroke:#555;stroke-width:4;stroke-miterlimit:10;}
</style>
<path class="st0" d="M21.4,10.3c-0.8-0.9-1.7-1.9-2.8-2.9c-0.5-0.5-0.9-0.9-1.4-1.4" fill="#555"/>
<path class="st0" d="M15.7,4.6c-2.2-2-3.9-3.2-4.2-2.9L6.6,6.7c-0.4,0.4,2.1,3.6,5.7,7.1s6.7,6,7.1,5.7l4.9-4.9  c0.2-0.2-1.2-2.3-1.6-2.6" fill="#555"/>
<path d="M5.6,6.6l-1.2,6.9C4.3,13.9,5.9,15.8,8,18s4.1,3.8,4.5,3.7l6.8-1.2c0,0-2.7-2.4-7-6.7S5.6,6.6,5.6,6.6z" fill="#555"/>
<line class="st1" x1="18.8" y1="12.8" x2="25" y2="6.7" fill="#555"/>
<line class="st1" x1="13.2" y1="7.2" x2="19.3" y2="1" fill="#555"/>
<path d="M6.8,21.3l-2.1-2.1c-1-1-1-2.5,0-3.5l3.5-3.5l5.5,5.5l-3.5,3.5C9.3,22.2,7.8,22.2,6.8,21.3z" fill="#555"/>
<line class="st2" x1="1.5" y1="24.5" x2="6" y2="20" fill="#555"/>
</svg>
