<?xml version="1.0" encoding="utf-8"?>
<!-- Generator: Adobe Illustrator 15.0.0, SVG Export Plug-In . SVG Version: 6.00 Build 0)  -->
<!DOCTYPE svg PUBLIC "-//W3C//DTD SVG 1.1//EN" "http://www.w3.org/Graphics/SVG/1.1/DTD/svg11.dtd">
<svg xmlns="http://www.w3.org/2000/svg" xmlns:xlink="http://www.w3.org/1999/xlink" version="1.1" id="Layer_1" x="0px" y="0px" width="26px" height="26px" viewBox="0 0 26 26" enable-background="new 0 0 26 26" xml:space="preserve" fill="#555">
<path fill="#555" d="M0,24h26v1c0,0,0,1-1,1H1c-0.551,0-1-0.449-1-1V24z"/>

<path fill="#555" d="M21,2H5C3.344,2,2,3.344,2,5v10c0,1.656,1.344,3,3,3h16c1.656,0,3-1.344,3-3V5C24,3.344,22.656,2,21,2z   M4,15V5c0-0.551,0.449-1,1-1h16c0.551,0,1,0.449,1,1v10c0,0.551-0.449,1-1,1H5C4.449,16,4,15.551,4,15z"/>
<path fill="#555" d="M24,17.814c-0.179-0.454-0.673-0.813-1.106-0.813H3.107C2.318,17.002,2,17.814,2,17.814L0,23h9.252  l0.424-1.109c0,0,0.322-0.891,1.322-0.891h4c0.547,0,1.135,0.375,1.344,0.891L16.746,23H26L24,17.814z M5,20l1-2h14l1,2H5z"/>
<polygon fill="#555" points="15,17 14,17 14.675,21 15.675,21 "/>
<polygon fill="#555" points="12,17 11,17 10.5,21 11.5,21 "/>
<polygon fill="#555" points="9,17 8,17 7,21 8,21 "/>
<polygon fill="#555" points="18,17 17,17 18,21 19,21 "/>
<line fill="none" stroke="#555" stroke-miterlimit="10" x1="4.572" y1="19" x2="21.341" y2="19"/>
</svg>
