<?xml version="1.0" encoding="utf-8"?>
<!-- Generator: Adobe Illustrator 15.0.0, SVG Export Plug-In . SVG Version: 6.00 Build 0)  -->
<!DOCTYPE svg PUBLIC "-//W3C//DTD SVG 1.1//EN" "http://www.w3.org/Graphics/SVG/1.1/DTD/svg11.dtd">
<svg xmlns="http://www.w3.org/2000/svg" xmlns:xlink="http://www.w3.org/1999/xlink" version="1.1" id="Layer_1" x="0px" y="0px" width="26px" height="26px" viewBox="0 0 26 26" enable-background="new 0 0 26 26" xml:space="preserve" fill="#555">
<path fill="#555" d="M0,25c0,0.551,0.449,1,1,1h24c0.551,0,1-0.449,1-1v-1c0-0.551-0.449-1-1-1H2C1.449,23,0,25,0,25z"/>
<path fill="#555" d="M18,13h-4c-0.551,0-1,0.449-1,1v1.286h6V14C19,13.449,18.551,13,18,13z"/>

<path fill="none" stroke="#555" stroke-width="2" stroke-linecap="round" stroke-linejoin="round" stroke-miterlimit="10" d="  M25,24c0,0,0-5,0-6c0-1.531-1.578-3-3-3c-2,0-5.056,0-7,0c-3.51,0-11.035,1.867-13,9"/>
<path fill="#555" d="M18.5,7h-10c-1.141,0-0.228,3.758,4,3.758S16.939,10,18.5,10s4.036,0.553,4.173,4.173  C22.699,14.859,26,17,26,17s0-0.672,0-1.5C26,9.66,22.112,7,18.5,7z"/>
<circle fill="#555" cx="19" cy="20" r="1.313"/>
<circle fill="#555" cx="15" cy="20" r="1.313"/>
<circle fill="#555" cx="11" cy="20" r="1.313"/>
<rect x="23" y="15" fill="#555" width="3" height="8"/>
</svg>
