<?xml version="1.0" encoding="utf-8"?>
<!-- Generator: Adobe Illustrator 18.1.1, SVG Export Plug-In . SVG Version: 6.00 Build 0)  -->
<svg xmlns="http://www.w3.org/2000/svg" xmlns:xlink="http://www.w3.org/1999/xlink" version="1.1" id="Layer_1" x="0px" y="0px" viewBox="0 0 26 26" width="26px" height="26px" enable-background="new 0 0 26 26" xml:space="preserve" fill="#555">
<path d="M0.8,16c0.7,0.2,1.3,0.7,1.5,1c0.3-0.1,0.8-0.2,1.3,0.1c0.4,0.2,0.6,0.5,0.7,0.9C4.7,18,5.1,18,5.5,18.1  c0.6,0.1,1,0.5,1.3,1c0.5-0.3,1.1-0.5,1.6-0.4c0.6,0.1,1.1,0.3,1.5,0.7c0.3-0.4,0.7-0.6,1.2-0.8c0.7-0.2,1.4-0.2,2.1,0  c0.1-0.2,0.3-0.4,0.4-0.6c0.5-0.6,1.2-0.9,1.9-1c0-0.4,0.1-0.9,0.3-1.3c0.1-0.3,0.4-0.6,0.6-0.9c-0.3-0.5-0.4-1.1-0.4-1.6  c0-2.2,2.2-4.1,5-4.2c1.1,0,0.7,0.7,1.5,1.1c0.3,0.2-2.9,1.9-2.7,2.1c2.7,0.7,5.4-1.7,5.4-1.7c0.4,0.6,0.7,1.6,0.7,2.5  c0,3.3-3.3,4.1-6,4.1c0.8,0.5,2.9,1,4.9,0.3c-0.4,5.7-6.5,3.8-7.4,3.3c0.3,0.7,2.9,2,4.3,2.1c-1.8,3.6-6.5,2.3-8.1,0  c0.1,1,1,2.6,2.3,2.9C15.2,25.8,14.2,26,13,26c-2.7,0-3.9-2.3-4.2-3.6c-0.5,1.1,0,2.5,0.8,3.3c-2.3,0.5-4.7-1.9-4.4-4.3  c-0.4,0.3-1,1.7-0.4,2.8C3.7,24,1.2,22,2.7,19.3c-0.7,0.4-1.1,0.9-1.3,2c-0.7-0.4-1.4-2.1-0.5-3.6c-0.4,0.1-0.8,0.7-0.8,0.7  S0,18.1,0,17.6C0,17.1,0.3,16.4,0.8,16z" fill="#555"/>
<path d="M14.4,7.4c0,2.6,2.4,4.7,5.3,4.6c2.9-0.1,5.3-2.3,5.3-4.9c0-2.6-2.4-4.7-5.3-4.6C16.8,2.5,14.4,4.7,14.4,7.4z M16.2,5.3  c0.4-0.8,1.3-1.2,2-0.9c0.7,0.4,0.8,1.3,0.4,2.1c-0.4,0.8-1.3,1.2-2,0.9C15.9,7.1,15.8,6.1,16.2,5.3z M22.1,4.9  c-0.5-0.7-0.4-1.3,0-1.3c0.5,0,1.2,0.6,1.7,1.3c0.5,0.7,0.4,1.3,0,1.3C23.3,6.2,22.6,5.6,22.1,4.9z" fill="#555"/>
<path d="M15.8,2.8c-1.1,0.9-1.6,2.1-1.6,2.1s-0.8-2.5,0.9-4.3C15.2,1.2,15.5,2.2,15.8,2.8z" fill="#555"/>
<path d="M21.7,1.8c0.7,0,1.7,1,1.7,1S23,0.7,21.3,0C21.4,0.5,21.7,1.3,21.7,1.8z" fill="#555"/>
</svg>
