<svg xmlns="http://www.w3.org/2000/svg" width="48" height="60" viewBox="0 0 48 60">
    <g fill="none" fill-rule="evenodd">
        <path d="M-10-18h96v96h-96z"/>
        <path fill="#45D2CF" fill-rule="nonzero" d="M14.508 2h30.328C46.584 2 48 3.433 48 5.2v51.2c0 1.767-1.416 3.2-3.164 3.2H4.764c-1.747 0-3.164-1.433-3.164-3.2V15.056a3.22 3.22 0 0 1 .896-2.261l9.744-9.856A3.145 3.145 0 0 1 14.508 2z"/>
        <path fill="#FFF" fill-rule="nonzero" d="M12.8.4v12.8H0z"/>
        <path fill="#45D2CF" fill-rule="nonzero" d="M44.87.4H14.254a5.183 5.183 0 0 0-3.694 1.543l-9.037 9.155A5.321 5.321 0 0 0 0 14.841v41.588C0 58.18 1.402 59.6 3.13 59.6h41.74c1.728 0 3.13-1.42 3.13-3.171V3.57C48 1.82 46.598.4 44.87.4zM12.042 3.445c.146-.15.604-.508.777-.625v9.209c0 .583-.764 1.057-1.34 1.057h-8.87c.116-.175.248-.338.396-.487l9.037-9.154zm34.354 52.984c0 .583-.95 1.598-1.526 1.598H3.13c-.576 0-1.475-1.015-1.475-1.598V14.817h9.823c1.73 0 2.96-1.037 2.96-2.788V2.006H44.87c.576 0 1.526.982 1.526 1.565V56.43z"/>
        <path fill="#FFF" fill-rule="nonzero" d="M5.6 48.4c-.442 0-.8.537-.8 1.2V52c0 .663.358 1.2.8 1.2.442 0 .8-.537.8-1.2v-2.4c0-.663-.358-1.2-.8-1.2zM10.4 48.4c-.442 0-.8.537-.8 1.2V52c0 .663.358 1.2.8 1.2.442 0 .8-.537.8-1.2v-2.4c0-.663-.358-1.2-.8-1.2zM15.2 48.4c-.442 0-.8.537-.8 1.2V52c0 .663.358 1.2.8 1.2.442 0 .8-.537.8-1.2v-2.4c0-.663-.358-1.2-.8-1.2zM20 48.4c-.442 0-.8.537-.8 1.2V52c0 .663.358 1.2.8 1.2.442 0 .8-.537.8-1.2v-2.4c0-.663-.358-1.2-.8-1.2zM26.4 48.4c-.442 0-.8.537-.8 1.2V52c0 .663.358 1.2.8 1.2.442 0 .8-.537.8-1.2v-2.4c0-.663-.358-1.2-.8-1.2zM31.2 48.4c-.442 0-.8.537-.8 1.2V52c0 .663.358 1.2.8 1.2.442 0 .8-.537.8-1.2v-2.4c0-.663-.358-1.2-.8-1.2zM36 48.4c-.442 0-.8.537-.8 1.2V52c0 .663.358 1.2.8 1.2.442 0 .8-.537.8-1.2v-2.4c0-.663-.358-1.2-.8-1.2zM40.8 48.4c-.442 0-.8.537-.8 1.2V52c0 .663.358 1.2.8 1.2.442 0 .8-.537.8-1.2v-2.4c0-.663-.358-1.2-.8-1.2zM39.711 26.819l-5.962-6.172a.97.97 0 0 0-1.35.054c-.367.38-.39.989-.052 1.397l5.257 5.451-5.257 5.441a1.05 1.05 0 0 0-.32 1.022c.088.376.371.67.734.76a.974.974 0 0 0 .988-.332l5.962-6.171a1.054 1.054 0 0 0 0-1.45zM15.71 34.5a1.057 1.057 0 0 0 0-1.457l-5.3-5.474 5.29-5.464c.339-.41.316-1.02-.053-1.402a.977.977 0 0 0-1.357-.055l-6 6.198a1.057 1.057 0 0 0 0 1.456l6 6.198c.39.4 1.02.4 1.41 0h.01zM26.439 14.03c-.536-.138-1.077.204-1.21.764l-5.998 25.103c-.136.56.189 1.13.724 1.27.536.142 1.08-.197 1.215-.757l5.999-25.103c.066-.27.026-.558-.11-.798a1.005 1.005 0 0 0-.62-.478z"/>
    </g>
</svg>
