<svg xmlns="http://www.w3.org/2000/svg" width="512" height="512" viewBox="0 0 512 512"><path d="M467.811 113.129c-9.119-13.548-19.624-26.224-31.164-37.814-11.564-11.528-24.29-21.994-37.801-31.151-13.648-9.245-28.257-17.167-43.402-23.604A253.625 253.625 0 0 0 307.45 5.689a257.492 257.492 0 0 0-51.461-5.19c-17.316 0-34.632 1.747-51.449 5.19a252.723 252.723 0 0 0-48.006 14.871c-15.145 6.438-29.767 14.359-43.415 23.604-13.511 9.157-26.236 19.623-37.776 31.151-11.552 11.59-22.057 24.266-31.189 37.814A255.209 255.209 0 0 0 20.6 156.544c-6.538 15.407-11.54 31.575-14.921 48.018a258.577 258.577 0 0 0-.001 102.863c3.381 16.442 8.383 32.586 14.921 48.018a255.4 255.4 0 0 0 23.554 43.39c9.132 13.537 19.637 26.237 31.189 37.814a260.931 260.931 0 0 0 37.776 31.189 258.15 258.15 0 0 0 43.415 23.554c15.42 6.512 31.576 11.502 48.006 14.87a255.241 255.241 0 0 0 102.91 0c16.405-3.368 32.562-8.358 47.994-14.87a257.992 257.992 0 0 0 43.402-23.554 262.556 262.556 0 0 0 37.801-31.189c11.54-11.577 22.045-24.277 31.164-37.814a250.273 250.273 0 0 0 23.566-43.39c6.537-15.432 11.527-31.575 14.896-48.018A256.287 256.287 0 0 0 511.486 256c0-17.316-1.759-34.632-5.214-51.438-3.369-16.443-8.359-32.611-14.896-48.018a250.23 250.23 0 0 0-23.565-43.415zM255.988 37.827c55.242 0 105.68 20.546 144.093 54.418-.537.798-31.613 48.106-113.94 78.97C248.827 102.7 207.844 48.332 204.576 43.94a219.385 219.385 0 0 1 51.412-6.113zm-52.298 6.338h.05c-.25.025-.462.05-.711.175.424-.126.661-.175.661-.175zm-40.795 14.483c2.907 3.881 43.253 58.635 81.016 125.729-104.757 27.834-195.679 26.686-201.431 26.636C56.64 143.445 102.051 87.38 162.895 58.648zM93.705 401.79C58.948 363.152 37.802 312.052 37.802 256c0-2.346.112-4.616.175-6.961 3.867.149 111.669 2.569 224.011-31.064 6.25 12.251 12.227 24.677 17.703 37.077-2.869.823-5.764 1.672-8.608 2.62C153.339 295.747 93.63 401.677 93.63 401.677s.05.063.075.113zm162.283 72.383c-50.601 0-97.06-17.379-134.063-46.284l-.038.1s-1.983-1.497-4.878-3.843c1.584 1.348 3.306 2.495 4.916 3.743.399-.849 42.429-91.321 171.19-136.209.475-.174.961-.313 1.447-.474C325.264 371 337.939 437.819 341.17 456.882c-26.186 11.139-54.967 17.291-85.182 17.291zm121.924-37.227c-2.221-13.149-13.849-77.199-42.468-155.846 70.425-11.291 131.468 8.034 135.959 9.481-9.706 60.808-44.5 113.305-93.491 146.365zm-55.766-190.278a1223.191 1223.191 0 0 0-4.716-11.303c-4.528-10.643-9.432-21.233-14.496-31.638 86.144-35.182 121.138-85.746 121.55-86.331 30.614 37.164 49.116 84.634 49.615 136.357-3.157-.648-77-16.517-151.953-7.085zM203.69 44.165s-.237.05-.661.175c.25-.125.461-.15.711-.175h-.05zm-86.68 379.981c1.584 1.348 3.306 2.495 4.916 3.743l-.038.1c0-.001-1.984-1.498-4.878-3.843z" fill="#dcdee3"/></svg>