<svg xmlns="http://www.w3.org/2000/svg" width="71" height="72" viewBox="0 0 71 72">
    <g fill="none" fill-rule="evenodd">
        <path d="M-10-16h96v96h-96z"/>
        <g fill-rule="nonzero">
            <path fill="#FFF" d="M42.3 2.7c.992 0 1.8.808 1.8 1.8v5.4H24.3V4.5c0-.992.808-1.8 1.8-1.8h16.2zm0-1.8H26.1a3.599 3.599 0 0 0-3.6 3.6v7.2h23.4V4.5c0-1.989-1.611-3.6-3.6-3.6z"/>
            <path fill="#45D2CF" d="M1.8 25.2h64.8v30.6H1.8z"/>
            <path fill="#FFF" d="M65.7 26.1v28.8h-63V26.1h63zm1.8-1.8H.9v32.4h66.6V24.3z"/>
            <path fill="#45D2CF" d="M8.1 36a6.307 6.307 0 0 1-6.3-6.3V7.2h64.8v22.5c0 3.474-2.826 6.3-6.3 6.3H8.1z"/>
            <path fill="#FFF" d="M65.7 8.1v21.6c0 2.977-2.423 5.4-5.4 5.4H8.1a5.407 5.407 0 0 1-5.4-5.4V8.1h63zm1.8-1.8H.9v23.4a7.2 7.2 0 0 0 7.2 7.2h52.2a7.2 7.2 0 0 0 7.2-7.2V6.3z"/>
            <circle cx="34.2" cy="28.8" r="2.7" fill="#FFF"/>
            <path fill="#FFF" d="M47.7 8.1h-5.4v-.9a2.701 2.701 0 0 1 5.4 0v.9zM26.1 8.1h-5.4v-.9a2.701 2.701 0 0 1 5.4 0v.9z"/>
            <path fill="#45D2CF" d="M51.381 66.272l-5.09.72-.89-5.063-4.541-2.41 2.259-4.619-2.259-4.619 4.541-2.41.89-5.063 5.09.72 3.695-3.575 3.696 3.575 5.09-.72.89 5.063 4.54 2.41-2.258 4.619 2.259 4.619-4.542 2.41-.889 5.063-5.09-.72-3.696 3.575z"/>
            <path fill="#FFF" d="M55.076 41.204l2.754 2.664.632.612.871-.123 3.793-.536.662 3.773.152.866.777.412 3.384 1.794-1.683 3.442-.385.792.387.79 1.683 3.442-3.384 1.794-.778.413-.15.865-.663 3.773-3.793-.536-.871-.123-.632.612-2.754 2.664-2.754-2.664-.632-.612-.87.123-3.793.536-.663-3.773-.151-.865-.778-.413-3.384-1.794 1.683-3.442.384-.79-.387-.79-1.683-3.442 3.384-1.794.777-.413.152-.865.662-3.773 3.793.536.87.123.633-.612 2.755-2.666zm0-2.504l-4.005 3.874-5.517-.782-.963 5.489-4.923 2.611 2.448 5.008-2.448 5.006 4.923 2.612.963 5.488 5.517-.781 4.005 3.875 4.005-3.874 5.517.782.963-5.489 4.923-2.611-2.448-5.008 2.448-5.006-4.923-2.612-.963-5.488-5.517.781-4.005-3.875z"/>
        </g>
    </g>
</svg>
