<svg xmlns="http://www.w3.org/2000/svg" viewBox="0 0 231 40"><g fill="none" fill-rule="evenodd"><g fill="#FFF"><text font-family="SourceSansPro-Regular, Source Sans Pro" font-size="12" transform="translate(20 8)"><tspan x="40" y="16">Download Android App</tspan></text><path d="M21.0486 8l10.686 10.7573 2.93-2.9708-12.953-7.5832c-.216-.1266-.447-.1973-.663-.2033zm-.8944.5003C20.0585 8.6735 20 8.88 20 9.11v20.905c0 .1676.0338.3178.0925.4534l10.933-11.0075L20.154 8.5zm15.4047 7.8022l-3.1306 3.1584 3.1303 3.1425 3.824-2.2203c.544-.3187.62-.724.617-.938-.005-.3564-.227-.6872-.6015-.8914-.326-.1787-2.745-1.6066-3.8396-2.2516zm-3.8245 3.862L20.956 31c.1797-.0095.373-.0493.5552-.1564l8.959-5.2535 4.2098-2.4545-2.9453-2.9708z"/></g><rect width="230" height="39" x=".5" y=".5" stroke="#FFF" rx="3"/></g></svg>